<svg xmlns="http://www.w3.org/2000/svg" width="1400" height="900" viewBox="0 0 1400 900" role="img" aria-label="cube CRM Stack">
  <defs>
    <linearGradient id="steel" x1="0" y1="0" x2="1" y2="1">
      <stop offset="0" stop-color="#f7fbff"/>
      <stop offset="0.18" stop-color="#8d99a6"/>
      <stop offset="0.48" stop-color="#202832"/>
      <stop offset="0.72" stop-color="#cad7e6"/>
      <stop offset="1" stop-color="#111821"/>
    </linearGradient>
    <linearGradient id="ink" x1="0" y1="0" x2="1" y2="1">
      <stop offset="0" stop-color="#05070a"/>
      <stop offset="0.52" stop-color="#101824"/>
      <stop offset="1" stop-color="#030405"/>
    </linearGradient>
    <radialGradient id="pulse" cx="50%" cy="45%" r="70%">
      <stop offset="0" stop-color="#9bdcf5"/>
      <stop offset="0.26" stop-color="#1f6f91"/>
      <stop offset="0.68" stop-color="#071620"/>
      <stop offset="1" stop-color="#020304"/>
    </radialGradient>
    <filter id="glow" x="-40%" y="-40%" width="180%" height="180%">
      <feGaussianBlur stdDeviation="6" result="blur"/>
      <feColorMatrix in="blur" type="matrix" values="0 0 0 0 0.2 0 0 0 0 0.72 0 0 0 0 1 0 0 0 .8 0"/>
      <feMerge><feMergeNode/><feMergeNode in="SourceGraphic"/></feMerge>
    </filter>
    <pattern id="grid" width="44" height="44" patternUnits="userSpaceOnUse">
      <path d="M44 0H0v44" fill="none" stroke="#ffffff" stroke-opacity="0.08" stroke-width="1"/>
    </pattern>
  </defs>

  <defs>
    <filter id="photo-grain" x="-10%" y="-10%" width="120%" height="120%">
      <feTurbulence type="fractalNoise" baseFrequency="0.82" numOctaves="4" seed="21"/>
      <feColorMatrix type="saturate" values="0"/>
      <feComponentTransfer><feFuncA type="table" tableValues="0 0.34"/></feComponentTransfer>
    </filter>
    <filter id="photo-shadow" x="-40%" y="-40%" width="180%" height="180%">
      <feDropShadow dx="16.2" dy="23.4" stdDeviation="16.2" flood-color="#000" flood-opacity="0.55"/>
    </filter>
    <radialGradient id="photo-light" cx="28%" cy="18%" r="78%">
      <stop offset="0" stop-color="#d9d1c2" stop-opacity="0.46"/>
      <stop offset="0.42" stop-color="#d8d1c4" stop-opacity="0.16"/>
      <stop offset="1" stop-color="#050607" stop-opacity="1"/>
    </radialGradient>
  </defs>
  <rect width="100%" height="100%" fill="#101519"/>
  <rect width="100%" height="100%" fill="url(#photo-light)"/>
  <rect width="100%" height="100%" fill="#fff" filter="url(#photo-grain)" opacity="0.70"/>
  <rect width="100%" height="100%" fill="#000" opacity="0.06"/>
  <ellipse cx="207.2" cy="255.6" rx="90.0" ry="22.5" fill="#ece2d2" opacity="0.025" transform="rotate(-1 207.2 255.6)"/>
<ellipse cx="399.0" cy="330.3" rx="121.5" ry="35.1" fill="#ece2d2" opacity="0.035" transform="rotate(28 399.0 330.3)"/>
<ellipse cx="590.8" cy="405.0" rx="153.0" ry="47.7" fill="#ece2d2" opacity="0.045" transform="rotate(-33 590.8 405.0)"/>
<ellipse cx="782.6" cy="479.7" rx="184.5" ry="22.5" fill="#ece2d2" opacity="0.055" transform="rotate(-4 782.6 479.7)"/>
<ellipse cx="974.4" cy="554.4" rx="90.0" ry="35.1" fill="#ece2d2" opacity="0.065" transform="rotate(25 974.4 554.4)"/>
<ellipse cx="1166.2" cy="629.1" rx="121.5" ry="47.7" fill="#ece2d2" opacity="0.025" transform="rotate(-36 1166.2 629.1)"/>
<ellipse cx="1358.0" cy="703.8" rx="153.0" ry="22.5" fill="#ece2d2" opacity="0.035" transform="rotate(-7 1358.0 703.8)"/>
<ellipse cx="149.8" cy="778.5" rx="184.5" ry="35.1" fill="#ece2d2" opacity="0.045" transform="rotate(22 149.8 778.5)"/>
<ellipse cx="341.6" cy="853.2" rx="90.0" ry="47.7" fill="#ece2d2" opacity="0.055" transform="rotate(-39 341.6 853.2)"/>
<ellipse cx="533.4" cy="27.9" rx="121.5" ry="22.5" fill="#ece2d2" opacity="0.065" transform="rotate(-10 533.4 27.9)"/>
<ellipse cx="725.2" cy="102.6" rx="153.0" ry="35.1" fill="#ece2d2" opacity="0.025" transform="rotate(19 725.2 102.6)"/>
<ellipse cx="917.0" cy="177.3" rx="184.5" ry="47.7" fill="#ece2d2" opacity="0.035" transform="rotate(-42 917.0 177.3)"/>
  <circle cx="716.8" cy="360.0" r="3.78" fill="#d8ccb9" opacity="0.12"/>
<circle cx="802.2" cy="440.1" r="1.08" fill="#0a0b0b" opacity="0.15"/>
<circle cx="887.6" cy="520.2" r="1.75" fill="#827867" opacity="0.19"/>
<circle cx="973.0" cy="600.3" r="2.43" fill="#827867" opacity="0.23"/>
<circle cx="1058.4" cy="680.4" r="3.10" fill="#d8ccb9" opacity="0.26"/>
<circle cx="1143.8" cy="760.5" r="3.78" fill="#0a0b0b" opacity="0.30"/>
<circle cx="1229.2" cy="840.6" r="1.08" fill="#827867" opacity="0.12"/>
<circle cx="1314.6" cy="20.7" r="1.75" fill="#827867" opacity="0.15"/>
<circle cx="0.0" cy="100.8" r="2.43" fill="#d8ccb9" opacity="0.19"/>
<circle cx="85.4" cy="180.9" r="3.10" fill="#0a0b0b" opacity="0.23"/>
<circle cx="170.8" cy="261.0" r="3.78" fill="#827867" opacity="0.26"/>
<circle cx="256.2" cy="341.1" r="1.08" fill="#827867" opacity="0.30"/>
<circle cx="341.6" cy="421.2" r="1.75" fill="#d8ccb9" opacity="0.12"/>
<circle cx="427.0" cy="501.3" r="2.43" fill="#0a0b0b" opacity="0.15"/>
<circle cx="512.4" cy="581.4" r="3.10" fill="#827867" opacity="0.19"/>
<circle cx="597.8" cy="661.5" r="3.78" fill="#827867" opacity="0.23"/>
<circle cx="683.2" cy="741.6" r="1.08" fill="#d8ccb9" opacity="0.26"/>
<circle cx="768.6" cy="821.7" r="1.75" fill="#0a0b0b" opacity="0.30"/>
<circle cx="854.0" cy="1.8" r="2.43" fill="#827867" opacity="0.12"/>
<circle cx="939.4" cy="81.9" r="3.10" fill="#827867" opacity="0.15"/>
<circle cx="1024.8" cy="162.0" r="3.78" fill="#d8ccb9" opacity="0.19"/>
<circle cx="1110.2" cy="242.1" r="1.08" fill="#0a0b0b" opacity="0.23"/>
<circle cx="1195.6" cy="322.2" r="1.75" fill="#827867" opacity="0.26"/>
<circle cx="1281.0" cy="402.3" r="2.43" fill="#827867" opacity="0.30"/>
<circle cx="1366.4" cy="482.4" r="3.10" fill="#d8ccb9" opacity="0.12"/>
<circle cx="51.8" cy="562.5" r="3.78" fill="#0a0b0b" opacity="0.15"/>
<circle cx="137.2" cy="642.6" r="1.08" fill="#827867" opacity="0.19"/>
<circle cx="222.6" cy="722.7" r="1.75" fill="#827867" opacity="0.23"/>
<circle cx="308.0" cy="802.8" r="2.43" fill="#d8ccb9" opacity="0.26"/>
<circle cx="393.4" cy="882.9" r="3.10" fill="#0a0b0b" opacity="0.30"/>
<circle cx="478.8" cy="63.0" r="3.78" fill="#827867" opacity="0.12"/>
<circle cx="564.2" cy="143.1" r="1.08" fill="#827867" opacity="0.15"/>
<circle cx="649.6" cy="223.2" r="1.75" fill="#d8ccb9" opacity="0.19"/>
<circle cx="735.0" cy="303.3" r="2.43" fill="#0a0b0b" opacity="0.23"/>
<circle cx="820.4" cy="383.4" r="3.10" fill="#827867" opacity="0.26"/>
<circle cx="905.8" cy="463.5" r="3.78" fill="#827867" opacity="0.30"/>
<circle cx="991.2" cy="543.6" r="1.08" fill="#d8ccb9" opacity="0.12"/>
<circle cx="1076.6" cy="623.7" r="1.75" fill="#0a0b0b" opacity="0.15"/>
<circle cx="1162.0" cy="703.8" r="2.43" fill="#827867" opacity="0.19"/>
<circle cx="1247.4" cy="783.9" r="3.10" fill="#827867" opacity="0.23"/>
<circle cx="1332.8" cy="864.0" r="3.78" fill="#d8ccb9" opacity="0.26"/>
<circle cx="18.2" cy="44.1" r="1.08" fill="#0a0b0b" opacity="0.30"/>
<circle cx="103.6" cy="124.2" r="1.75" fill="#827867" opacity="0.12"/>
<circle cx="189.0" cy="204.3" r="2.43" fill="#827867" opacity="0.15"/>
<circle cx="274.4" cy="284.4" r="3.10" fill="#d8ccb9" opacity="0.19"/>
<circle cx="359.8" cy="364.5" r="3.78" fill="#0a0b0b" opacity="0.23"/>
<circle cx="445.2" cy="444.6" r="1.08" fill="#827867" opacity="0.26"/>
<circle cx="530.6" cy="524.7" r="1.75" fill="#827867" opacity="0.30"/>
<circle cx="616.0" cy="604.8" r="2.43" fill="#d8ccb9" opacity="0.12"/>
<circle cx="701.4" cy="684.9" r="3.10" fill="#0a0b0b" opacity="0.15"/>
<circle cx="786.8" cy="765.0" r="3.78" fill="#827867" opacity="0.19"/>
<circle cx="872.2" cy="845.1" r="1.08" fill="#827867" opacity="0.23"/>
<circle cx="957.6" cy="25.2" r="1.75" fill="#d8ccb9" opacity="0.26"/>
<circle cx="1043.0" cy="105.3" r="2.43" fill="#0a0b0b" opacity="0.30"/>
<circle cx="1128.4" cy="185.4" r="3.10" fill="#827867" opacity="0.12"/>
<circle cx="1213.8" cy="265.5" r="3.78" fill="#827867" opacity="0.15"/>
<circle cx="1299.2" cy="345.6" r="1.08" fill="#d8ccb9" opacity="0.19"/>
<circle cx="1384.6" cy="425.7" r="1.75" fill="#0a0b0b" opacity="0.23"/>
<circle cx="70.0" cy="505.8" r="2.43" fill="#827867" opacity="0.26"/>
<circle cx="155.4" cy="585.9" r="3.10" fill="#827867" opacity="0.30"/>
<circle cx="240.8" cy="666.0" r="3.78" fill="#d8ccb9" opacity="0.12"/>
<circle cx="326.2" cy="746.1" r="1.08" fill="#0a0b0b" opacity="0.15"/>
<circle cx="411.6" cy="826.2" r="1.75" fill="#827867" opacity="0.19"/>
<circle cx="497.0" cy="6.3" r="2.43" fill="#827867" opacity="0.23"/>
<circle cx="582.4" cy="86.4" r="3.10" fill="#d8ccb9" opacity="0.26"/>
<circle cx="667.8" cy="166.5" r="3.78" fill="#0a0b0b" opacity="0.30"/>
<circle cx="753.2" cy="246.6" r="1.08" fill="#827867" opacity="0.12"/>
<circle cx="838.6" cy="326.7" r="1.75" fill="#827867" opacity="0.15"/>
<circle cx="924.0" cy="406.8" r="2.43" fill="#d8ccb9" opacity="0.19"/>
<circle cx="1009.4" cy="486.9" r="3.10" fill="#0a0b0b" opacity="0.23"/>
<circle cx="1094.8" cy="567.0" r="3.78" fill="#827867" opacity="0.26"/>
<circle cx="1180.2" cy="647.1" r="1.08" fill="#827867" opacity="0.30"/>
<circle cx="1265.6" cy="727.2" r="1.75" fill="#d8ccb9" opacity="0.12"/>
<circle cx="1351.0" cy="807.3" r="2.43" fill="#0a0b0b" opacity="0.15"/>
<circle cx="36.4" cy="887.4" r="3.10" fill="#827867" opacity="0.19"/>
<circle cx="121.8" cy="67.5" r="3.78" fill="#827867" opacity="0.23"/>
<circle cx="207.2" cy="147.6" r="1.08" fill="#d8ccb9" opacity="0.26"/>
<circle cx="292.6" cy="227.7" r="1.75" fill="#0a0b0b" opacity="0.30"/>
<circle cx="378.0" cy="307.8" r="2.43" fill="#827867" opacity="0.12"/>
<circle cx="463.4" cy="387.9" r="3.10" fill="#827867" opacity="0.15"/>
<circle cx="548.8" cy="468.0" r="3.78" fill="#d8ccb9" opacity="0.19"/>
<circle cx="634.2" cy="548.1" r="1.08" fill="#0a0b0b" opacity="0.23"/>
<circle cx="719.6" cy="628.2" r="1.75" fill="#827867" opacity="0.26"/>
<circle cx="805.0" cy="708.3" r="2.43" fill="#827867" opacity="0.30"/>
<circle cx="890.4" cy="788.4" r="3.10" fill="#d8ccb9" opacity="0.12"/>
<circle cx="975.8" cy="868.5" r="3.78" fill="#0a0b0b" opacity="0.15"/>
<circle cx="1061.2" cy="48.6" r="1.08" fill="#827867" opacity="0.19"/>
<circle cx="1146.6" cy="128.7" r="1.75" fill="#827867" opacity="0.23"/>
<circle cx="1232.0" cy="208.8" r="2.43" fill="#d8ccb9" opacity="0.26"/>
<circle cx="1317.4" cy="288.9" r="3.10" fill="#0a0b0b" opacity="0.30"/>
<circle cx="2.8" cy="369.0" r="3.78" fill="#827867" opacity="0.12"/>
<circle cx="88.2" cy="449.1" r="1.08" fill="#827867" opacity="0.15"/>
<circle cx="173.6" cy="529.2" r="1.75" fill="#d8ccb9" opacity="0.19"/>
<circle cx="259.0" cy="609.3" r="2.43" fill="#0a0b0b" opacity="0.23"/>
<circle cx="344.4" cy="689.4" r="3.10" fill="#827867" opacity="0.26"/>
<circle cx="429.8" cy="769.5" r="3.78" fill="#827867" opacity="0.30"/>
<circle cx="515.2" cy="849.6" r="1.08" fill="#d8ccb9" opacity="0.12"/>
<circle cx="600.6" cy="29.7" r="1.75" fill="#0a0b0b" opacity="0.15"/>
<circle cx="686.0" cy="109.8" r="2.43" fill="#827867" opacity="0.19"/>
<circle cx="771.4" cy="189.9" r="3.10" fill="#827867" opacity="0.23"/>
<circle cx="856.8" cy="270.0" r="3.78" fill="#d8ccb9" opacity="0.26"/>
<circle cx="942.2" cy="350.1" r="1.08" fill="#0a0b0b" opacity="0.30"/>
<circle cx="1027.6" cy="430.2" r="1.75" fill="#827867" opacity="0.12"/>
<circle cx="1113.0" cy="510.3" r="2.43" fill="#827867" opacity="0.15"/>
<circle cx="1198.4" cy="590.4" r="3.10" fill="#d8ccb9" opacity="0.19"/>
<circle cx="1283.8" cy="670.5" r="3.78" fill="#0a0b0b" opacity="0.23"/>
<circle cx="1369.2" cy="750.6" r="1.08" fill="#827867" opacity="0.26"/>
<circle cx="54.6" cy="830.7" r="1.75" fill="#827867" opacity="0.30"/>
<circle cx="140.0" cy="10.8" r="2.43" fill="#d8ccb9" opacity="0.12"/>
<circle cx="225.4" cy="90.9" r="3.10" fill="#0a0b0b" opacity="0.15"/>
<circle cx="310.8" cy="171.0" r="3.78" fill="#827867" opacity="0.19"/>
<circle cx="396.2" cy="251.1" r="1.08" fill="#827867" opacity="0.23"/>
<circle cx="481.6" cy="331.2" r="1.75" fill="#d8ccb9" opacity="0.26"/>
<circle cx="567.0" cy="411.3" r="2.43" fill="#0a0b0b" opacity="0.30"/>
<circle cx="652.4" cy="491.4" r="3.10" fill="#827867" opacity="0.12"/>
<circle cx="737.8" cy="571.5" r="3.78" fill="#827867" opacity="0.15"/>
<circle cx="823.2" cy="651.6" r="1.08" fill="#d8ccb9" opacity="0.19"/>
<circle cx="908.6" cy="731.7" r="1.75" fill="#0a0b0b" opacity="0.23"/>
<circle cx="994.0" cy="811.8" r="2.43" fill="#827867" opacity="0.26"/>
<circle cx="1079.4" cy="891.9" r="3.10" fill="#827867" opacity="0.30"/>
<circle cx="1164.8" cy="72.0" r="3.78" fill="#d8ccb9" opacity="0.12"/>
<circle cx="1250.2" cy="152.1" r="1.08" fill="#0a0b0b" opacity="0.15"/>
<circle cx="1335.6" cy="232.2" r="1.75" fill="#827867" opacity="0.19"/>
<circle cx="21.0" cy="312.3" r="2.43" fill="#827867" opacity="0.23"/>
<circle cx="106.4" cy="392.4" r="3.10" fill="#d8ccb9" opacity="0.26"/>
<circle cx="191.8" cy="472.5" r="3.78" fill="#0a0b0b" opacity="0.30"/>
<circle cx="277.2" cy="552.6" r="1.08" fill="#827867" opacity="0.12"/>
<circle cx="362.6" cy="632.7" r="1.75" fill="#827867" opacity="0.15"/>
<circle cx="448.0" cy="712.8" r="2.43" fill="#d8ccb9" opacity="0.19"/>
<circle cx="533.4" cy="792.9" r="3.10" fill="#0a0b0b" opacity="0.23"/>
<circle cx="618.8" cy="873.0" r="3.78" fill="#827867" opacity="0.26"/>
<circle cx="704.2" cy="53.1" r="1.08" fill="#827867" opacity="0.30"/>
<circle cx="789.6" cy="133.2" r="1.75" fill="#d8ccb9" opacity="0.12"/>
<circle cx="875.0" cy="213.3" r="2.43" fill="#0a0b0b" opacity="0.15"/>
<circle cx="960.4" cy="293.4" r="3.10" fill="#827867" opacity="0.19"/>
<circle cx="1045.8" cy="373.5" r="3.78" fill="#827867" opacity="0.23"/>
<circle cx="1131.2" cy="453.6" r="1.08" fill="#d8ccb9" opacity="0.26"/>
<circle cx="1216.6" cy="533.7" r="1.75" fill="#0a0b0b" opacity="0.30"/>
<circle cx="1302.0" cy="613.8" r="2.43" fill="#827867" opacity="0.12"/>
<circle cx="1387.4" cy="693.9" r="3.10" fill="#827867" opacity="0.15"/>
<circle cx="72.8" cy="774.0" r="3.78" fill="#d8ccb9" opacity="0.19"/>
<circle cx="158.2" cy="854.1" r="1.08" fill="#0a0b0b" opacity="0.23"/>
<circle cx="243.6" cy="34.2" r="1.75" fill="#827867" opacity="0.26"/>
<circle cx="329.0" cy="114.3" r="2.43" fill="#827867" opacity="0.30"/>
<circle cx="414.4" cy="194.4" r="3.10" fill="#d8ccb9" opacity="0.12"/>
<circle cx="499.8" cy="274.5" r="3.78" fill="#0a0b0b" opacity="0.15"/>
<circle cx="585.2" cy="354.6" r="1.08" fill="#827867" opacity="0.19"/>
<circle cx="670.6" cy="434.7" r="1.75" fill="#827867" opacity="0.23"/>
<circle cx="756.0" cy="514.8" r="2.43" fill="#d8ccb9" opacity="0.26"/>
<circle cx="841.4" cy="594.9" r="3.10" fill="#0a0b0b" opacity="0.30"/>
<circle cx="926.8" cy="675.0" r="3.78" fill="#827867" opacity="0.12"/>
<circle cx="1012.2" cy="755.1" r="1.08" fill="#827867" opacity="0.15"/>
<circle cx="1097.6" cy="835.2" r="1.75" fill="#d8ccb9" opacity="0.19"/>
<circle cx="1183.0" cy="15.3" r="2.43" fill="#0a0b0b" opacity="0.23"/>
<circle cx="1268.4" cy="95.4" r="3.10" fill="#827867" opacity="0.26"/>
<circle cx="1353.8" cy="175.5" r="3.78" fill="#827867" opacity="0.30"/>
<circle cx="39.2" cy="255.6" r="1.08" fill="#d8ccb9" opacity="0.12"/>
<circle cx="124.6" cy="335.7" r="1.75" fill="#0a0b0b" opacity="0.15"/>
<circle cx="210.0" cy="415.8" r="2.43" fill="#827867" opacity="0.19"/>
<circle cx="295.4" cy="495.9" r="3.10" fill="#827867" opacity="0.23"/>
<circle cx="380.8" cy="576.0" r="3.78" fill="#d8ccb9" opacity="0.26"/>
<circle cx="466.2" cy="656.1" r="1.08" fill="#0a0b0b" opacity="0.30"/>
<circle cx="551.6" cy="736.2" r="1.75" fill="#827867" opacity="0.12"/>
<circle cx="637.0" cy="816.3" r="2.43" fill="#827867" opacity="0.15"/>
<circle cx="722.4" cy="896.4" r="3.10" fill="#d8ccb9" opacity="0.19"/>
<circle cx="807.8" cy="76.5" r="3.78" fill="#0a0b0b" opacity="0.23"/>
<circle cx="893.2" cy="156.6" r="1.08" fill="#827867" opacity="0.26"/>
<circle cx="978.6" cy="236.7" r="1.75" fill="#827867" opacity="0.30"/>
<circle cx="1064.0" cy="316.8" r="2.43" fill="#d8ccb9" opacity="0.12"/>
<circle cx="1149.4" cy="396.9" r="3.10" fill="#0a0b0b" opacity="0.15"/>
<circle cx="1234.8" cy="477.0" r="3.78" fill="#827867" opacity="0.19"/>
<circle cx="1320.2" cy="557.1" r="1.08" fill="#827867" opacity="0.23"/>
<circle cx="5.6" cy="637.2" r="1.75" fill="#d8ccb9" opacity="0.26"/>
<circle cx="91.0" cy="717.3" r="2.43" fill="#0a0b0b" opacity="0.30"/>
<circle cx="176.4" cy="797.4" r="3.10" fill="#827867" opacity="0.12"/>
<circle cx="261.8" cy="877.5" r="3.78" fill="#827867" opacity="0.15"/>
<circle cx="347.2" cy="57.6" r="1.08" fill="#d8ccb9" opacity="0.19"/>
<circle cx="432.6" cy="137.7" r="1.75" fill="#0a0b0b" opacity="0.23"/>
<circle cx="518.0" cy="217.8" r="2.43" fill="#827867" opacity="0.26"/>
<circle cx="603.4" cy="297.9" r="3.10" fill="#827867" opacity="0.30"/>
  <g transform="translate(168 306) rotate(-34) scale(1.7307692307692308)" opacity="0.78">
    <path d="M0 -78 C42 -48 58 12 4 88 C-44 32 -48 -38 0 -78Z" fill="#151918"/>
    <path d="M0 -62 C10 -20 8 32 0 72" fill="none" stroke="#d4c6ad" stroke-opacity="0.18" stroke-width="2"/>
    <path d="M0 -8 C20 -18 34 -26 48 -42 M0 18 C-22 6 -34 -10 -48 -30 M0 38 C18 32 32 23 45 12" fill="none" stroke="#d4c6ad" stroke-opacity="0.12" stroke-width="1.4"/>
  </g>
  <g transform="translate(1204 558) rotate(28) scale(1.6071428571428572)" opacity="0.78">
    <path d="M0 -78 C42 -48 58 12 4 88 C-44 32 -48 -38 0 -78Z" fill="#2d2923"/>
    <path d="M0 -62 C10 -20 8 32 0 72" fill="none" stroke="#d4c6ad" stroke-opacity="0.18" stroke-width="2"/>
    <path d="M0 -8 C20 -18 34 -26 48 -42 M0 18 C-22 6 -34 -10 -48 -30 M0 38 C18 32 32 23 45 12" fill="none" stroke="#d4c6ad" stroke-opacity="0.12" stroke-width="1.4"/>
  </g>
  <g transform="translate(420 756) rotate(-66) scale(1.3636363636363635)" opacity="0.78">
    <path d="M0 -78 C42 -48 58 12 4 88 C-44 32 -48 -38 0 -78Z" fill="#4b4035"/>
    <path d="M0 -62 C10 -20 8 32 0 72" fill="none" stroke="#d4c6ad" stroke-opacity="0.18" stroke-width="2"/>
    <path d="M0 -8 C20 -18 34 -26 48 -42 M0 18 C-22 6 -34 -10 -48 -30 M0 38 C18 32 32 23 45 12" fill="none" stroke="#d4c6ad" stroke-opacity="0.12" stroke-width="1.4"/>
  </g>
  <g transform="translate(812 144) rotate(96) scale(1.25)" opacity="0.78">
    <path d="M0 -78 C42 -48 58 12 4 88 C-44 32 -48 -38 0 -78Z" fill="#d1c4aa"/>
    <path d="M0 -62 C10 -20 8 32 0 72" fill="none" stroke="#d4c6ad" stroke-opacity="0.18" stroke-width="2"/>
    <path d="M0 -8 C20 -18 34 -26 48 -42 M0 18 C-22 6 -34 -10 -48 -30 M0 38 C18 32 32 23 45 12" fill="none" stroke="#d4c6ad" stroke-opacity="0.12" stroke-width="1.4"/>
  </g>
  <g transform="translate(84 702) rotate(24) scale(1.2857142857142858)" opacity="0.78">
    <path d="M0 -78 C42 -48 58 12 4 88 C-44 32 -48 -38 0 -78Z" fill="#0d1110"/>
    <path d="M0 -62 C10 -20 8 32 0 72" fill="none" stroke="#d4c6ad" stroke-opacity="0.18" stroke-width="2"/>
    <path d="M0 -8 C20 -18 34 -26 48 -42 M0 18 C-22 6 -34 -10 -48 -30 M0 38 C18 32 32 23 45 12" fill="none" stroke="#d4c6ad" stroke-opacity="0.12" stroke-width="1.4"/>
  </g>
  <g transform="rotate(-16 1092 180)" opacity="0.88">
    <ellipse cx="1092" cy="180" rx="162" ry="63.00000000000001" fill="none" stroke="#e8e3d8" stroke-opacity="0.46" stroke-width="5.4"/>
    <ellipse cx="1092" cy="180" rx="103.68" ry="32.760000000000005" fill="#cfc8ba" fill-opacity="0.11" stroke="#2b2d2d" stroke-opacity="0.35" stroke-width="2.7"/>
    <ellipse cx="1062.84" cy="168.66" rx="32.4" ry="6.300000000000001" fill="#fff" opacity="0.20"/>
  </g>
  <g transform="rotate(24 252 162)" opacity="0.88">
    <ellipse cx="252" cy="162" rx="117" ry="45" fill="none" stroke="#e8e3d8" stroke-opacity="0.46" stroke-width="5.4"/>
    <ellipse cx="252" cy="162" rx="74.88" ry="23.400000000000002" fill="#cfc8ba" fill-opacity="0.11" stroke="#2b2d2d" stroke-opacity="0.35" stroke-width="2.7"/>
    <ellipse cx="230.94" cy="153.9" rx="23.400000000000002" ry="4.5" fill="#fff" opacity="0.20"/>
  </g>
  <g transform="rotate(48 1232 432)" opacity="0.88">
    <ellipse cx="1232" cy="432" rx="108" ry="40.5" fill="none" stroke="#e8e3d8" stroke-opacity="0.46" stroke-width="5.4"/>
    <ellipse cx="1232" cy="432" rx="69.12" ry="21.060000000000002" fill="#cfc8ba" fill-opacity="0.11" stroke="#2b2d2d" stroke-opacity="0.35" stroke-width="2.7"/>
    <ellipse cx="1212.56" cy="424.71" rx="21.6" ry="4.05" fill="#fff" opacity="0.20"/>
  </g>

    <g transform="translate(1008 288) rotate(9)" filter="url(#photo-shadow)">
    <rect x="-126.00000000000001" y="-108" width="252.00000000000003" height="216" fill="#f0ebe0" opacity="0.95"/>
    <text x="-95.76" y="-47.52" font-family="Georgia, serif" font-size="18.900000000000002" fill="#151515">PROOF ENGINE</text>
    <rect x="-95.76" y="-10.8" width="105.84" height="38.879999999999995" fill="#0d1113"/>
    <rect x="-95.76" y="43.2" width="110.07360000000003" height="2" fill="#171717" opacity="0.28"/>
<rect x="-95.76" y="53.784000000000006" width="90.31680000000003" height="2" fill="#171717" opacity="0.335"/>
<rect x="-95.76" y="64.36800000000001" width="70.56000000000002" height="2" fill="#171717" opacity="0.39"/>
<rect x="-95.76" y="74.952" width="110.07360000000003" height="2" fill="#171717" opacity="0.44500000000000006"/>
<rect x="-95.76" y="85.536" width="90.31680000000003" height="2" fill="#171717" opacity="0.5"/>
  </g>
    <g transform="translate(364 252.00000000000003) rotate(-14)" filter="url(#photo-shadow)">
    <rect x="-99" y="-81" width="198" height="162" fill="#f0ebe0" opacity="0.95"/>
    <text x="-75.24" y="-35.64" font-family="Georgia, serif" font-size="14.85" fill="#151515">PROOF ENGINE</text>
    <rect x="-75.24" y="-8.1" width="83.16" height="29.16" fill="#0d1113"/>
    <rect x="-75.24" y="32.4" width="86.48640000000002" height="2" fill="#171717" opacity="0.28"/>
<rect x="-75.24" y="40.716" width="70.96320000000001" height="2" fill="#171717" opacity="0.335"/>
<rect x="-75.24" y="49.032" width="55.440000000000005" height="2" fill="#171717" opacity="0.39"/>
<rect x="-75.24" y="57.348" width="86.48640000000002" height="2" fill="#171717" opacity="0.44500000000000006"/>
<rect x="-75.24" y="65.664" width="70.96320000000001" height="2" fill="#171717" opacity="0.5"/>
  </g>
    <g transform="translate(1120 630) rotate(-18)" filter="url(#photo-shadow)">
    <rect x="-72" y="-135" width="144" height="270" rx="25.919999999999998" fill="#c9c7c1" opacity="0.88"/>
    <rect x="-66" y="-128" width="132" height="256" rx="20.160000000000004" fill="#f5f2ea" opacity="0.32"/>
    <text x="0" y="-16.2" text-anchor="middle" font-family="Arial, Helvetica, sans-serif" font-size="12.959999999999999" letter-spacing="1.6" fill="#252525" opacity="0.78">CRM</text>
    <text x="0" y="43.2" text-anchor="middle" font-family="Arial, Helvetica, sans-serif" font-size="7.92" letter-spacing="1" fill="#555" opacity="0.62">OUTERSCOPE</text>
  </g>
    <g transform="translate(280 630) rotate(15)" filter="url(#photo-shadow)">
    <rect x="-63.00000000000001" y="-112.5" width="126.00000000000001" height="225" rx="22.680000000000003" fill="#c9c7c1" opacity="0.88"/>
    <rect x="-57.00000000000001" y="-105.5" width="114.00000000000001" height="211" rx="17.640000000000004" fill="#f5f2ea" opacity="0.32"/>
    <text x="0" y="-13.5" text-anchor="middle" font-family="Arial, Helvetica, sans-serif" font-size="11.340000000000002" letter-spacing="1.6" fill="#252525" opacity="0.78">OPS</text>
    <text x="0" y="36" text-anchor="middle" font-family="Arial, Helvetica, sans-serif" font-size="6.930000000000001" letter-spacing="1" fill="#555" opacity="0.62">OUTERSCOPE</text>
  </g>

  <g transform="translate(602 486.00000000000006) rotate(5)" filter="url(#photo-shadow)">
    <rect x="-136.08" y="-281.88" width="272.16" height="563.76" rx="35.38080000000001" fill="#080a0b"/>
    <rect x="-121.11120000000001" y="-262.8288" width="242.22240000000002" height="525.6576" rx="25.855200000000004" fill="#ece8dd"/>
    <rect x="-54.43200000000001" y="-275.076" width="108.86400000000002" height="9.525600000000003" rx="5.443200000000001" fill="#171717"/>
    <text x="0" y="-163.4904" text-anchor="middle" font-family="Georgia, serif" font-size="28.576800000000002" letter-spacing="2" fill="#2a2a27">CRM STACK</text>
    <text x="0" y="-118.38959999999999" text-anchor="middle" font-family="Arial, Helvetica, sans-serif" font-size="14.968800000000002" letter-spacing="4" fill="#7d7466">PROOF ENGINE</text>
    <rect x="-87.09120000000001" y="-62.0136" width="174.18240000000003" height="140.94" fill="#0d1113" opacity="0.88"/>
    <text x="0" y="-2.8188" text-anchor="middle" font-family="Arial Black, Arial, sans-serif" font-size="24.494400000000002" letter-spacing="1.6" fill="#f7f4ea">OS</text>
    <rect x="-78.9264" y="112.75200000000001" width="127.37088000000001" height="2" fill="#171717" opacity="0.28"/>
<rect x="-78.9264" y="124.99920000000002" width="104.50944000000001" height="2" fill="#171717" opacity="0.335"/>
<rect x="-78.9264" y="137.24640000000002" width="81.64800000000001" height="2" fill="#171717" opacity="0.39"/>
<rect x="-78.9264" y="149.49360000000001" width="127.37088000000001" height="2" fill="#171717" opacity="0.44500000000000006"/>
<rect x="-78.9264" y="161.7408" width="104.50944000000001" height="2" fill="#171717" opacity="0.5"/>
    <rect x="-78.9264" y="197.31599999999997" width="157.8528" height="42.282" fill="#d8d0c2" opacity="0.65"/>
  </g>
  <rect width="100%" height="100%" fill="#000" opacity="0.14"/>

</svg>
