<svg xmlns="http://www.w3.org/2000/svg" width="1400" height="900" viewBox="0 0 1400 900" role="img" aria-label="cube Automation Core">
  <defs>
    <linearGradient id="steel" x1="0" y1="0" x2="1" y2="1">
      <stop offset="0" stop-color="#f7fbff"/>
      <stop offset="0.18" stop-color="#8d99a6"/>
      <stop offset="0.48" stop-color="#202832"/>
      <stop offset="0.72" stop-color="#cad7e6"/>
      <stop offset="1" stop-color="#111821"/>
    </linearGradient>
    <linearGradient id="ink" x1="0" y1="0" x2="1" y2="1">
      <stop offset="0" stop-color="#05070a"/>
      <stop offset="0.52" stop-color="#101824"/>
      <stop offset="1" stop-color="#030405"/>
    </linearGradient>
    <radialGradient id="pulse" cx="50%" cy="45%" r="70%">
      <stop offset="0" stop-color="#9bdcf5"/>
      <stop offset="0.26" stop-color="#1f6f91"/>
      <stop offset="0.68" stop-color="#071620"/>
      <stop offset="1" stop-color="#020304"/>
    </radialGradient>
    <filter id="glow" x="-40%" y="-40%" width="180%" height="180%">
      <feGaussianBlur stdDeviation="6" result="blur"/>
      <feColorMatrix in="blur" type="matrix" values="0 0 0 0 0.2 0 0 0 0 0.72 0 0 0 0 1 0 0 0 .8 0"/>
      <feMerge><feMergeNode/><feMergeNode in="SourceGraphic"/></feMerge>
    </filter>
    <pattern id="grid" width="44" height="44" patternUnits="userSpaceOnUse">
      <path d="M44 0H0v44" fill="none" stroke="#ffffff" stroke-opacity="0.08" stroke-width="1"/>
    </pattern>
  </defs>

  <defs>
    <filter id="photo-grain" x="-10%" y="-10%" width="120%" height="120%">
      <feTurbulence type="fractalNoise" baseFrequency="0.82" numOctaves="4" seed="18"/>
      <feColorMatrix type="saturate" values="0"/>
      <feComponentTransfer><feFuncA type="table" tableValues="0 0.34"/></feComponentTransfer>
    </filter>
    <filter id="photo-shadow" x="-40%" y="-40%" width="180%" height="180%">
      <feDropShadow dx="16.2" dy="23.4" stdDeviation="16.2" flood-color="#000" flood-opacity="0.55"/>
    </filter>
    <radialGradient id="photo-light" cx="70%" cy="18%" r="78%">
      <stop offset="0" stop-color="#d9d1c2" stop-opacity="0.46"/>
      <stop offset="0.42" stop-color="#9b8a76" stop-opacity="0.16"/>
      <stop offset="1" stop-color="#050607" stop-opacity="1"/>
    </radialGradient>
  </defs>
  <rect width="100%" height="100%" fill="#343a3c"/>
  <rect width="100%" height="100%" fill="url(#photo-light)"/>
  <rect width="100%" height="100%" fill="#fff" filter="url(#photo-grain)" opacity="0.70"/>
  <rect width="100%" height="100%" fill="#000" opacity="0.06"/>
  <ellipse cx="51.8" cy="63.9" rx="90.0" ry="22.5" fill="#ece2d2" opacity="0.025" transform="rotate(-34 51.8 63.9)"/>
<ellipse cx="243.6" cy="138.6" rx="121.5" ry="35.1" fill="#ece2d2" opacity="0.035" transform="rotate(-5 243.6 138.6)"/>
<ellipse cx="435.4" cy="213.3" rx="153.0" ry="47.7" fill="#ece2d2" opacity="0.045" transform="rotate(24 435.4 213.3)"/>
<ellipse cx="627.2" cy="288.0" rx="184.5" ry="22.5" fill="#ece2d2" opacity="0.055" transform="rotate(-37 627.2 288.0)"/>
<ellipse cx="819.0" cy="362.7" rx="90.0" ry="35.1" fill="#ece2d2" opacity="0.065" transform="rotate(-8 819.0 362.7)"/>
<ellipse cx="1010.8" cy="437.4" rx="121.5" ry="47.7" fill="#ece2d2" opacity="0.025" transform="rotate(21 1010.8 437.4)"/>
<ellipse cx="1202.6" cy="512.1" rx="153.0" ry="22.5" fill="#ece2d2" opacity="0.035" transform="rotate(-40 1202.6 512.1)"/>
<ellipse cx="1394.4" cy="586.8" rx="184.5" ry="35.1" fill="#ece2d2" opacity="0.045" transform="rotate(-11 1394.4 586.8)"/>
<ellipse cx="186.2" cy="661.5" rx="90.0" ry="47.7" fill="#ece2d2" opacity="0.055" transform="rotate(18 186.2 661.5)"/>
<ellipse cx="378.0" cy="736.2" rx="121.5" ry="22.5" fill="#ece2d2" opacity="0.065" transform="rotate(-43 378.0 736.2)"/>
<ellipse cx="569.8" cy="810.9" rx="153.0" ry="35.1" fill="#ece2d2" opacity="0.025" transform="rotate(-14 569.8 810.9)"/>
<ellipse cx="761.6" cy="885.6" rx="184.5" ry="47.7" fill="#ece2d2" opacity="0.035" transform="rotate(15 761.6 885.6)"/>
  <circle cx="309.4" cy="216.9" r="1.75" fill="#d8ccb9" opacity="0.12"/>
<circle cx="394.8" cy="297.0" r="2.43" fill="#0a0b0b" opacity="0.15"/>
<circle cx="480.2" cy="377.1" r="3.10" fill="#827867" opacity="0.19"/>
<circle cx="565.6" cy="457.2" r="3.78" fill="#827867" opacity="0.23"/>
<circle cx="651.0" cy="537.3" r="1.08" fill="#d8ccb9" opacity="0.26"/>
<circle cx="736.4" cy="617.4" r="1.75" fill="#0a0b0b" opacity="0.30"/>
<circle cx="821.8" cy="697.5" r="2.43" fill="#827867" opacity="0.12"/>
<circle cx="907.2" cy="777.6" r="3.10" fill="#827867" opacity="0.15"/>
<circle cx="992.6" cy="857.7" r="3.78" fill="#d8ccb9" opacity="0.19"/>
<circle cx="1078.0" cy="37.8" r="1.08" fill="#0a0b0b" opacity="0.23"/>
<circle cx="1163.4" cy="117.9" r="1.75" fill="#827867" opacity="0.26"/>
<circle cx="1248.8" cy="198.0" r="2.43" fill="#827867" opacity="0.30"/>
<circle cx="1334.2" cy="278.1" r="3.10" fill="#d8ccb9" opacity="0.12"/>
<circle cx="19.6" cy="358.2" r="3.78" fill="#0a0b0b" opacity="0.15"/>
<circle cx="105.0" cy="438.3" r="1.08" fill="#827867" opacity="0.19"/>
<circle cx="190.4" cy="518.4" r="1.75" fill="#827867" opacity="0.23"/>
<circle cx="275.8" cy="598.5" r="2.43" fill="#d8ccb9" opacity="0.26"/>
<circle cx="361.2" cy="678.6" r="3.10" fill="#0a0b0b" opacity="0.30"/>
<circle cx="446.6" cy="758.7" r="3.78" fill="#827867" opacity="0.12"/>
<circle cx="532.0" cy="838.8" r="1.08" fill="#827867" opacity="0.15"/>
<circle cx="617.4" cy="18.9" r="1.75" fill="#d8ccb9" opacity="0.19"/>
<circle cx="702.8" cy="99.0" r="2.43" fill="#0a0b0b" opacity="0.23"/>
<circle cx="788.2" cy="179.1" r="3.10" fill="#827867" opacity="0.26"/>
<circle cx="873.6" cy="259.2" r="3.78" fill="#827867" opacity="0.30"/>
<circle cx="959.0" cy="339.3" r="1.08" fill="#d8ccb9" opacity="0.12"/>
<circle cx="1044.4" cy="419.4" r="1.75" fill="#0a0b0b" opacity="0.15"/>
<circle cx="1129.8" cy="499.5" r="2.43" fill="#827867" opacity="0.19"/>
<circle cx="1215.2" cy="579.6" r="3.10" fill="#827867" opacity="0.23"/>
<circle cx="1300.6" cy="659.7" r="3.78" fill="#d8ccb9" opacity="0.26"/>
<circle cx="1386.0" cy="739.8" r="1.08" fill="#0a0b0b" opacity="0.30"/>
<circle cx="71.4" cy="819.9" r="1.75" fill="#827867" opacity="0.12"/>
<circle cx="156.8" cy="0.0" r="2.43" fill="#827867" opacity="0.15"/>
<circle cx="242.2" cy="80.1" r="3.10" fill="#d8ccb9" opacity="0.19"/>
<circle cx="327.6" cy="160.2" r="3.78" fill="#0a0b0b" opacity="0.23"/>
<circle cx="413.0" cy="240.3" r="1.08" fill="#827867" opacity="0.26"/>
<circle cx="498.4" cy="320.4" r="1.75" fill="#827867" opacity="0.30"/>
<circle cx="583.8" cy="400.5" r="2.43" fill="#d8ccb9" opacity="0.12"/>
<circle cx="669.2" cy="480.6" r="3.10" fill="#0a0b0b" opacity="0.15"/>
<circle cx="754.6" cy="560.7" r="3.78" fill="#827867" opacity="0.19"/>
<circle cx="840.0" cy="640.8" r="1.08" fill="#827867" opacity="0.23"/>
<circle cx="925.4" cy="720.9" r="1.75" fill="#d8ccb9" opacity="0.26"/>
<circle cx="1010.8" cy="801.0" r="2.43" fill="#0a0b0b" opacity="0.30"/>
<circle cx="1096.2" cy="881.1" r="3.10" fill="#827867" opacity="0.12"/>
<circle cx="1181.6" cy="61.2" r="3.78" fill="#827867" opacity="0.15"/>
<circle cx="1267.0" cy="141.3" r="1.08" fill="#d8ccb9" opacity="0.19"/>
<circle cx="1352.4" cy="221.4" r="1.75" fill="#0a0b0b" opacity="0.23"/>
<circle cx="37.8" cy="301.5" r="2.43" fill="#827867" opacity="0.26"/>
<circle cx="123.2" cy="381.6" r="3.10" fill="#827867" opacity="0.30"/>
<circle cx="208.6" cy="461.7" r="3.78" fill="#d8ccb9" opacity="0.12"/>
<circle cx="294.0" cy="541.8" r="1.08" fill="#0a0b0b" opacity="0.15"/>
<circle cx="379.4" cy="621.9" r="1.75" fill="#827867" opacity="0.19"/>
<circle cx="464.8" cy="702.0" r="2.43" fill="#827867" opacity="0.23"/>
<circle cx="550.2" cy="782.1" r="3.10" fill="#d8ccb9" opacity="0.26"/>
<circle cx="635.6" cy="862.2" r="3.78" fill="#0a0b0b" opacity="0.30"/>
<circle cx="721.0" cy="42.3" r="1.08" fill="#827867" opacity="0.12"/>
<circle cx="806.4" cy="122.4" r="1.75" fill="#827867" opacity="0.15"/>
<circle cx="891.8" cy="202.5" r="2.43" fill="#d8ccb9" opacity="0.19"/>
<circle cx="977.2" cy="282.6" r="3.10" fill="#0a0b0b" opacity="0.23"/>
<circle cx="1062.6" cy="362.7" r="3.78" fill="#827867" opacity="0.26"/>
<circle cx="1148.0" cy="442.8" r="1.08" fill="#827867" opacity="0.30"/>
<circle cx="1233.4" cy="522.9" r="1.75" fill="#d8ccb9" opacity="0.12"/>
<circle cx="1318.8" cy="603.0" r="2.43" fill="#0a0b0b" opacity="0.15"/>
<circle cx="4.2" cy="683.1" r="3.10" fill="#827867" opacity="0.19"/>
<circle cx="89.6" cy="763.2" r="3.78" fill="#827867" opacity="0.23"/>
<circle cx="175.0" cy="843.3" r="1.08" fill="#d8ccb9" opacity="0.26"/>
<circle cx="260.4" cy="23.4" r="1.75" fill="#0a0b0b" opacity="0.30"/>
<circle cx="345.8" cy="103.5" r="2.43" fill="#827867" opacity="0.12"/>
<circle cx="431.2" cy="183.6" r="3.10" fill="#827867" opacity="0.15"/>
<circle cx="516.6" cy="263.7" r="3.78" fill="#d8ccb9" opacity="0.19"/>
<circle cx="602.0" cy="343.8" r="1.08" fill="#0a0b0b" opacity="0.23"/>
<circle cx="687.4" cy="423.9" r="1.75" fill="#827867" opacity="0.26"/>
<circle cx="772.8" cy="504.0" r="2.43" fill="#827867" opacity="0.30"/>
<circle cx="858.2" cy="584.1" r="3.10" fill="#d8ccb9" opacity="0.12"/>
<circle cx="943.6" cy="664.2" r="3.78" fill="#0a0b0b" opacity="0.15"/>
<circle cx="1029.0" cy="744.3" r="1.08" fill="#827867" opacity="0.19"/>
<circle cx="1114.4" cy="824.4" r="1.75" fill="#827867" opacity="0.23"/>
<circle cx="1199.8" cy="4.5" r="2.43" fill="#d8ccb9" opacity="0.26"/>
<circle cx="1285.2" cy="84.6" r="3.10" fill="#0a0b0b" opacity="0.30"/>
<circle cx="1370.6" cy="164.7" r="3.78" fill="#827867" opacity="0.12"/>
<circle cx="56.0" cy="244.8" r="1.08" fill="#827867" opacity="0.15"/>
<circle cx="141.4" cy="324.9" r="1.75" fill="#d8ccb9" opacity="0.19"/>
<circle cx="226.8" cy="405.0" r="2.43" fill="#0a0b0b" opacity="0.23"/>
<circle cx="312.2" cy="485.1" r="3.10" fill="#827867" opacity="0.26"/>
<circle cx="397.6" cy="565.2" r="3.78" fill="#827867" opacity="0.30"/>
<circle cx="483.0" cy="645.3" r="1.08" fill="#d8ccb9" opacity="0.12"/>
<circle cx="568.4" cy="725.4" r="1.75" fill="#0a0b0b" opacity="0.15"/>
<circle cx="653.8" cy="805.5" r="2.43" fill="#827867" opacity="0.19"/>
<circle cx="739.2" cy="885.6" r="3.10" fill="#827867" opacity="0.23"/>
<circle cx="824.6" cy="65.7" r="3.78" fill="#d8ccb9" opacity="0.26"/>
<circle cx="910.0" cy="145.8" r="1.08" fill="#0a0b0b" opacity="0.30"/>
<circle cx="995.4" cy="225.9" r="1.75" fill="#827867" opacity="0.12"/>
<circle cx="1080.8" cy="306.0" r="2.43" fill="#827867" opacity="0.15"/>
<circle cx="1166.2" cy="386.1" r="3.10" fill="#d8ccb9" opacity="0.19"/>
<circle cx="1251.6" cy="466.2" r="3.78" fill="#0a0b0b" opacity="0.23"/>
<circle cx="1337.0" cy="546.3" r="1.08" fill="#827867" opacity="0.26"/>
<circle cx="22.4" cy="626.4" r="1.75" fill="#827867" opacity="0.30"/>
<circle cx="107.8" cy="706.5" r="2.43" fill="#d8ccb9" opacity="0.12"/>
<circle cx="193.2" cy="786.6" r="3.10" fill="#0a0b0b" opacity="0.15"/>
<circle cx="278.6" cy="866.7" r="3.78" fill="#827867" opacity="0.19"/>
<circle cx="364.0" cy="46.8" r="1.08" fill="#827867" opacity="0.23"/>
<circle cx="449.4" cy="126.9" r="1.75" fill="#d8ccb9" opacity="0.26"/>
<circle cx="534.8" cy="207.0" r="2.43" fill="#0a0b0b" opacity="0.30"/>
<circle cx="620.2" cy="287.1" r="3.10" fill="#827867" opacity="0.12"/>
<circle cx="705.6" cy="367.2" r="3.78" fill="#827867" opacity="0.15"/>
<circle cx="791.0" cy="447.3" r="1.08" fill="#d8ccb9" opacity="0.19"/>
<circle cx="876.4" cy="527.4" r="1.75" fill="#0a0b0b" opacity="0.23"/>
<circle cx="961.8" cy="607.5" r="2.43" fill="#827867" opacity="0.26"/>
<circle cx="1047.2" cy="687.6" r="3.10" fill="#827867" opacity="0.30"/>
<circle cx="1132.6" cy="767.7" r="3.78" fill="#d8ccb9" opacity="0.12"/>
<circle cx="1218.0" cy="847.8" r="1.08" fill="#0a0b0b" opacity="0.15"/>
<circle cx="1303.4" cy="27.9" r="1.75" fill="#827867" opacity="0.19"/>
<circle cx="1388.8" cy="108.0" r="2.43" fill="#827867" opacity="0.23"/>
<circle cx="74.2" cy="188.1" r="3.10" fill="#d8ccb9" opacity="0.26"/>
<circle cx="159.6" cy="268.2" r="3.78" fill="#0a0b0b" opacity="0.30"/>
<circle cx="245.0" cy="348.3" r="1.08" fill="#827867" opacity="0.12"/>
<circle cx="330.4" cy="428.4" r="1.75" fill="#827867" opacity="0.15"/>
<circle cx="415.8" cy="508.5" r="2.43" fill="#d8ccb9" opacity="0.19"/>
<circle cx="501.2" cy="588.6" r="3.10" fill="#0a0b0b" opacity="0.23"/>
<circle cx="586.6" cy="668.7" r="3.78" fill="#827867" opacity="0.26"/>
<circle cx="672.0" cy="748.8" r="1.08" fill="#827867" opacity="0.30"/>
<circle cx="757.4" cy="828.9" r="1.75" fill="#d8ccb9" opacity="0.12"/>
<circle cx="842.8" cy="9.0" r="2.43" fill="#0a0b0b" opacity="0.15"/>
<circle cx="928.2" cy="89.1" r="3.10" fill="#827867" opacity="0.19"/>
<circle cx="1013.6" cy="169.2" r="3.78" fill="#827867" opacity="0.23"/>
<circle cx="1099.0" cy="249.3" r="1.08" fill="#d8ccb9" opacity="0.26"/>
<circle cx="1184.4" cy="329.4" r="1.75" fill="#0a0b0b" opacity="0.30"/>
<circle cx="1269.8" cy="409.5" r="2.43" fill="#827867" opacity="0.12"/>
<circle cx="1355.2" cy="489.6" r="3.10" fill="#827867" opacity="0.15"/>
<circle cx="40.6" cy="569.7" r="3.78" fill="#d8ccb9" opacity="0.19"/>
<circle cx="126.0" cy="649.8" r="1.08" fill="#0a0b0b" opacity="0.23"/>
<circle cx="211.4" cy="729.9" r="1.75" fill="#827867" opacity="0.26"/>
<circle cx="296.8" cy="810.0" r="2.43" fill="#827867" opacity="0.30"/>
<circle cx="382.2" cy="890.1" r="3.10" fill="#d8ccb9" opacity="0.12"/>
<circle cx="467.6" cy="70.2" r="3.78" fill="#0a0b0b" opacity="0.15"/>
<circle cx="553.0" cy="150.3" r="1.08" fill="#827867" opacity="0.19"/>
<circle cx="638.4" cy="230.4" r="1.75" fill="#827867" opacity="0.23"/>
<circle cx="723.8" cy="310.5" r="2.43" fill="#d8ccb9" opacity="0.26"/>
<circle cx="809.2" cy="390.6" r="3.10" fill="#0a0b0b" opacity="0.30"/>
<circle cx="894.6" cy="470.7" r="3.78" fill="#827867" opacity="0.12"/>
<circle cx="980.0" cy="550.8" r="1.08" fill="#827867" opacity="0.15"/>
<circle cx="1065.4" cy="630.9" r="1.75" fill="#d8ccb9" opacity="0.19"/>
<circle cx="1150.8" cy="711.0" r="2.43" fill="#0a0b0b" opacity="0.23"/>
<circle cx="1236.2" cy="791.1" r="3.10" fill="#827867" opacity="0.26"/>
<circle cx="1321.6" cy="871.2" r="3.78" fill="#827867" opacity="0.30"/>
<circle cx="7.0" cy="51.3" r="1.08" fill="#d8ccb9" opacity="0.12"/>
<circle cx="92.4" cy="131.4" r="1.75" fill="#0a0b0b" opacity="0.15"/>
<circle cx="177.8" cy="211.5" r="2.43" fill="#827867" opacity="0.19"/>
<circle cx="263.2" cy="291.6" r="3.10" fill="#827867" opacity="0.23"/>
<circle cx="348.6" cy="371.7" r="3.78" fill="#d8ccb9" opacity="0.26"/>
<circle cx="434.0" cy="451.8" r="1.08" fill="#0a0b0b" opacity="0.30"/>
<circle cx="519.4" cy="531.9" r="1.75" fill="#827867" opacity="0.12"/>
<circle cx="604.8" cy="612.0" r="2.43" fill="#827867" opacity="0.15"/>
<circle cx="690.2" cy="692.1" r="3.10" fill="#d8ccb9" opacity="0.19"/>
<circle cx="775.6" cy="772.2" r="3.78" fill="#0a0b0b" opacity="0.23"/>
<circle cx="861.0" cy="852.3" r="1.08" fill="#827867" opacity="0.26"/>
<circle cx="946.4" cy="32.4" r="1.75" fill="#827867" opacity="0.30"/>
<circle cx="1031.8" cy="112.5" r="2.43" fill="#d8ccb9" opacity="0.12"/>
<circle cx="1117.2" cy="192.6" r="3.10" fill="#0a0b0b" opacity="0.15"/>
<circle cx="1202.6" cy="272.7" r="3.78" fill="#827867" opacity="0.19"/>
<circle cx="1288.0" cy="352.8" r="1.08" fill="#827867" opacity="0.23"/>
<circle cx="1373.4" cy="432.9" r="1.75" fill="#d8ccb9" opacity="0.26"/>
<circle cx="58.8" cy="513.0" r="2.43" fill="#0a0b0b" opacity="0.30"/>
<circle cx="144.2" cy="593.1" r="3.10" fill="#827867" opacity="0.12"/>
<circle cx="229.6" cy="673.2" r="3.78" fill="#827867" opacity="0.15"/>
<circle cx="315.0" cy="753.3" r="1.08" fill="#d8ccb9" opacity="0.19"/>
<circle cx="400.4" cy="833.4" r="1.75" fill="#0a0b0b" opacity="0.23"/>
<circle cx="485.8" cy="13.5" r="2.43" fill="#827867" opacity="0.26"/>
<circle cx="571.2" cy="93.6" r="3.10" fill="#827867" opacity="0.30"/>
<circle cx="656.6" cy="173.7" r="3.78" fill="#d8ccb9" opacity="0.12"/>
<circle cx="742.0" cy="253.8" r="1.08" fill="#0a0b0b" opacity="0.15"/>
<circle cx="827.4" cy="333.9" r="1.75" fill="#827867" opacity="0.19"/>
<circle cx="912.8" cy="414.0" r="2.43" fill="#827867" opacity="0.23"/>
<circle cx="998.2" cy="494.1" r="3.10" fill="#d8ccb9" opacity="0.26"/>
<circle cx="1083.6" cy="574.2" r="3.78" fill="#0a0b0b" opacity="0.30"/>
<circle cx="1169.0" cy="654.3" r="1.08" fill="#827867" opacity="0.12"/>
<circle cx="1254.4" cy="734.4" r="1.75" fill="#827867" opacity="0.15"/>
<circle cx="1339.8" cy="814.5" r="2.43" fill="#d8ccb9" opacity="0.19"/>
<circle cx="25.2" cy="894.6" r="3.10" fill="#0a0b0b" opacity="0.23"/>
<circle cx="110.6" cy="74.7" r="3.78" fill="#827867" opacity="0.26"/>
<circle cx="196.0" cy="154.8" r="1.08" fill="#827867" opacity="0.30"/>
  <g transform="translate(168 306) rotate(-34) scale(1.7307692307692308)" opacity="0.78">
    <path d="M0 -78 C42 -48 58 12 4 88 C-44 32 -48 -38 0 -78Z" fill="#151918"/>
    <path d="M0 -62 C10 -20 8 32 0 72" fill="none" stroke="#d4c6ad" stroke-opacity="0.18" stroke-width="2"/>
    <path d="M0 -8 C20 -18 34 -26 48 -42 M0 18 C-22 6 -34 -10 -48 -30 M0 38 C18 32 32 23 45 12" fill="none" stroke="#d4c6ad" stroke-opacity="0.12" stroke-width="1.4"/>
  </g>
  <g transform="translate(1204 558) rotate(28) scale(1.6071428571428572)" opacity="0.78">
    <path d="M0 -78 C42 -48 58 12 4 88 C-44 32 -48 -38 0 -78Z" fill="#2d2923"/>
    <path d="M0 -62 C10 -20 8 32 0 72" fill="none" stroke="#d4c6ad" stroke-opacity="0.18" stroke-width="2"/>
    <path d="M0 -8 C20 -18 34 -26 48 -42 M0 18 C-22 6 -34 -10 -48 -30 M0 38 C18 32 32 23 45 12" fill="none" stroke="#d4c6ad" stroke-opacity="0.12" stroke-width="1.4"/>
  </g>
  <g transform="translate(420 756) rotate(-66) scale(1.3636363636363635)" opacity="0.78">
    <path d="M0 -78 C42 -48 58 12 4 88 C-44 32 -48 -38 0 -78Z" fill="#4b4035"/>
    <path d="M0 -62 C10 -20 8 32 0 72" fill="none" stroke="#d4c6ad" stroke-opacity="0.18" stroke-width="2"/>
    <path d="M0 -8 C20 -18 34 -26 48 -42 M0 18 C-22 6 -34 -10 -48 -30 M0 38 C18 32 32 23 45 12" fill="none" stroke="#d4c6ad" stroke-opacity="0.12" stroke-width="1.4"/>
  </g>
  <g transform="translate(812 144) rotate(96) scale(1.25)" opacity="0.78">
    <path d="M0 -78 C42 -48 58 12 4 88 C-44 32 -48 -38 0 -78Z" fill="#d1c4aa"/>
    <path d="M0 -62 C10 -20 8 32 0 72" fill="none" stroke="#d4c6ad" stroke-opacity="0.18" stroke-width="2"/>
    <path d="M0 -8 C20 -18 34 -26 48 -42 M0 18 C-22 6 -34 -10 -48 -30 M0 38 C18 32 32 23 45 12" fill="none" stroke="#d4c6ad" stroke-opacity="0.12" stroke-width="1.4"/>
  </g>
  <g transform="translate(84 702) rotate(24) scale(1.2857142857142858)" opacity="0.78">
    <path d="M0 -78 C42 -48 58 12 4 88 C-44 32 -48 -38 0 -78Z" fill="#0d1110"/>
    <path d="M0 -62 C10 -20 8 32 0 72" fill="none" stroke="#d4c6ad" stroke-opacity="0.18" stroke-width="2"/>
    <path d="M0 -8 C20 -18 34 -26 48 -42 M0 18 C-22 6 -34 -10 -48 -30 M0 38 C18 32 32 23 45 12" fill="none" stroke="#d4c6ad" stroke-opacity="0.12" stroke-width="1.4"/>
  </g>
  <g transform="rotate(-16 1092 180)" opacity="0.88">
    <ellipse cx="1092" cy="180" rx="162" ry="63.00000000000001" fill="none" stroke="#e8e3d8" stroke-opacity="0.46" stroke-width="5.4"/>
    <ellipse cx="1092" cy="180" rx="103.68" ry="32.760000000000005" fill="#cfc8ba" fill-opacity="0.11" stroke="#2b2d2d" stroke-opacity="0.35" stroke-width="2.7"/>
    <ellipse cx="1062.84" cy="168.66" rx="32.4" ry="6.300000000000001" fill="#fff" opacity="0.20"/>
  </g>
  <g transform="rotate(24 252 162)" opacity="0.88">
    <ellipse cx="252" cy="162" rx="117" ry="45" fill="none" stroke="#e8e3d8" stroke-opacity="0.46" stroke-width="5.4"/>
    <ellipse cx="252" cy="162" rx="74.88" ry="23.400000000000002" fill="#cfc8ba" fill-opacity="0.11" stroke="#2b2d2d" stroke-opacity="0.35" stroke-width="2.7"/>
    <ellipse cx="230.94" cy="153.9" rx="23.400000000000002" ry="4.5" fill="#fff" opacity="0.20"/>
  </g>
  <g transform="rotate(48 1232 432)" opacity="0.88">
    <ellipse cx="1232" cy="432" rx="108" ry="40.5" fill="none" stroke="#e8e3d8" stroke-opacity="0.46" stroke-width="5.4"/>
    <ellipse cx="1232" cy="432" rx="69.12" ry="21.060000000000002" fill="#cfc8ba" fill-opacity="0.11" stroke="#2b2d2d" stroke-opacity="0.35" stroke-width="2.7"/>
    <ellipse cx="1212.56" cy="424.71" rx="21.6" ry="4.05" fill="#fff" opacity="0.20"/>
  </g>

    <g transform="translate(1008 288) rotate(9)" filter="url(#photo-shadow)">
    <rect x="-126.00000000000001" y="-108" width="252.00000000000003" height="216" fill="#f0ebe0" opacity="0.95"/>
    <text x="-95.76" y="-47.52" font-family="Georgia, serif" font-size="18.900000000000002" fill="#151515">LEAD INTAKE</text>
    <rect x="-95.76" y="-10.8" width="105.84" height="38.879999999999995" fill="#0d1113"/>
    <rect x="-95.76" y="43.2" width="110.07360000000003" height="2" fill="#171717" opacity="0.28"/>
<rect x="-95.76" y="53.784000000000006" width="90.31680000000003" height="2" fill="#171717" opacity="0.335"/>
<rect x="-95.76" y="64.36800000000001" width="70.56000000000002" height="2" fill="#171717" opacity="0.39"/>
<rect x="-95.76" y="74.952" width="110.07360000000003" height="2" fill="#171717" opacity="0.44500000000000006"/>
<rect x="-95.76" y="85.536" width="90.31680000000003" height="2" fill="#171717" opacity="0.5"/>
  </g>
    <g transform="translate(364 252.00000000000003) rotate(-14)" filter="url(#photo-shadow)">
    <rect x="-99" y="-81" width="198" height="162" fill="#f0ebe0" opacity="0.95"/>
    <text x="-75.24" y="-35.64" font-family="Georgia, serif" font-size="14.85" fill="#151515">LEAD INTAKE</text>
    <rect x="-75.24" y="-8.1" width="83.16" height="29.16" fill="#0d1113"/>
    <rect x="-75.24" y="32.4" width="86.48640000000002" height="2" fill="#171717" opacity="0.28"/>
<rect x="-75.24" y="40.716" width="70.96320000000001" height="2" fill="#171717" opacity="0.335"/>
<rect x="-75.24" y="49.032" width="55.440000000000005" height="2" fill="#171717" opacity="0.39"/>
<rect x="-75.24" y="57.348" width="86.48640000000002" height="2" fill="#171717" opacity="0.44500000000000006"/>
<rect x="-75.24" y="65.664" width="70.96320000000001" height="2" fill="#171717" opacity="0.5"/>
  </g>
    <g transform="translate(1120 630) rotate(-18)" filter="url(#photo-shadow)">
    <rect x="-72" y="-135" width="144" height="270" rx="25.919999999999998" fill="#c9c7c1" opacity="0.88"/>
    <rect x="-66" y="-128" width="132" height="256" rx="20.160000000000004" fill="#f5f2ea" opacity="0.32"/>
    <text x="0" y="-16.2" text-anchor="middle" font-family="Arial, Helvetica, sans-serif" font-size="12.959999999999999" letter-spacing="1.6" fill="#252525" opacity="0.78">AUDIT</text>
    <text x="0" y="43.2" text-anchor="middle" font-family="Arial, Helvetica, sans-serif" font-size="7.92" letter-spacing="1" fill="#555" opacity="0.62">OUTERSCOPE</text>
  </g>
    <g transform="translate(280 630) rotate(15)" filter="url(#photo-shadow)">
    <rect x="-63.00000000000001" y="-112.5" width="126.00000000000001" height="225" rx="22.680000000000003" fill="#c9c7c1" opacity="0.88"/>
    <rect x="-57.00000000000001" y="-105.5" width="114.00000000000001" height="211" rx="17.640000000000004" fill="#f5f2ea" opacity="0.32"/>
    <text x="0" y="-13.5" text-anchor="middle" font-family="Arial, Helvetica, sans-serif" font-size="11.340000000000002" letter-spacing="1.6" fill="#252525" opacity="0.78">OPS</text>
    <text x="0" y="36" text-anchor="middle" font-family="Arial, Helvetica, sans-serif" font-size="6.930000000000001" letter-spacing="1" fill="#555" opacity="0.62">OUTERSCOPE</text>
  </g>

  <g transform="translate(728 486.00000000000006) rotate(-3)" filter="url(#photo-shadow)">
    <rect x="-136.08" y="-281.88" width="272.16" height="563.76" rx="35.38080000000001" fill="#080a0b"/>
    <rect x="-121.11120000000001" y="-262.8288" width="242.22240000000002" height="525.6576" rx="25.855200000000004" fill="#ece8dd"/>
    <rect x="-54.43200000000001" y="-275.076" width="108.86400000000002" height="9.525600000000003" rx="5.443200000000001" fill="#171717"/>
    <text x="0" y="-163.4904" text-anchor="middle" font-family="Georgia, serif" font-size="28.576800000000002" letter-spacing="2" fill="#2a2a27">AUTOMATION CORE</text>
    <text x="0" y="-118.38959999999999" text-anchor="middle" font-family="Arial, Helvetica, sans-serif" font-size="14.968800000000002" letter-spacing="4" fill="#7d7466">LEAD INTAKE</text>
    <rect x="-87.09120000000001" y="-62.0136" width="174.18240000000003" height="140.94" fill="#0d1113" opacity="0.88"/>
    <text x="0" y="-2.8188" text-anchor="middle" font-family="Arial Black, Arial, sans-serif" font-size="24.494400000000002" letter-spacing="1.6" fill="#f7f4ea">OS</text>
    <rect x="-78.9264" y="112.75200000000001" width="127.37088000000001" height="2" fill="#171717" opacity="0.28"/>
<rect x="-78.9264" y="124.99920000000002" width="104.50944000000001" height="2" fill="#171717" opacity="0.335"/>
<rect x="-78.9264" y="137.24640000000002" width="81.64800000000001" height="2" fill="#171717" opacity="0.39"/>
<rect x="-78.9264" y="149.49360000000001" width="127.37088000000001" height="2" fill="#171717" opacity="0.44500000000000006"/>
<rect x="-78.9264" y="161.7408" width="104.50944000000001" height="2" fill="#171717" opacity="0.5"/>
    <rect x="-78.9264" y="197.31599999999997" width="157.8528" height="42.282" fill="#d8d0c2" opacity="0.65"/>
  </g>
  <rect width="100%" height="100%" fill="#000" opacity="0.14"/>

</svg>
