<svg xmlns="http://www.w3.org/2000/svg" width="1400" height="900" viewBox="0 0 1400 900" role="img" aria-label="cube Lead Graph">
  <defs>
    <linearGradient id="steel" x1="0" y1="0" x2="1" y2="1">
      <stop offset="0" stop-color="#f7fbff"/>
      <stop offset="0.18" stop-color="#8d99a6"/>
      <stop offset="0.48" stop-color="#202832"/>
      <stop offset="0.72" stop-color="#cad7e6"/>
      <stop offset="1" stop-color="#111821"/>
    </linearGradient>
    <linearGradient id="ink" x1="0" y1="0" x2="1" y2="1">
      <stop offset="0" stop-color="#05070a"/>
      <stop offset="0.52" stop-color="#101824"/>
      <stop offset="1" stop-color="#030405"/>
    </linearGradient>
    <radialGradient id="pulse" cx="50%" cy="45%" r="70%">
      <stop offset="0" stop-color="#9bdcf5"/>
      <stop offset="0.26" stop-color="#1f6f91"/>
      <stop offset="0.68" stop-color="#071620"/>
      <stop offset="1" stop-color="#020304"/>
    </radialGradient>
    <filter id="glow" x="-40%" y="-40%" width="180%" height="180%">
      <feGaussianBlur stdDeviation="6" result="blur"/>
      <feColorMatrix in="blur" type="matrix" values="0 0 0 0 0.2 0 0 0 0 0.72 0 0 0 0 1 0 0 0 .8 0"/>
      <feMerge><feMergeNode/><feMergeNode in="SourceGraphic"/></feMerge>
    </filter>
    <pattern id="grid" width="44" height="44" patternUnits="userSpaceOnUse">
      <path d="M44 0H0v44" fill="none" stroke="#ffffff" stroke-opacity="0.08" stroke-width="1"/>
    </pattern>
  </defs>

  <defs>
    <filter id="photo-grain" x="-10%" y="-10%" width="120%" height="120%">
      <feTurbulence type="fractalNoise" baseFrequency="0.82" numOctaves="4" seed="19"/>
      <feColorMatrix type="saturate" values="0"/>
      <feComponentTransfer><feFuncA type="table" tableValues="0 0.34"/></feComponentTransfer>
    </filter>
    <filter id="photo-shadow" x="-40%" y="-40%" width="180%" height="180%">
      <feDropShadow dx="16.2" dy="23.4" stdDeviation="16.2" flood-color="#000" flood-opacity="0.55"/>
    </filter>
    <radialGradient id="photo-light" cx="28%" cy="18%" r="78%">
      <stop offset="0" stop-color="#d9d1c2" stop-opacity="0.46"/>
      <stop offset="0.42" stop-color="#c7c0b4" stop-opacity="0.16"/>
      <stop offset="1" stop-color="#050607" stop-opacity="1"/>
    </radialGradient>
  </defs>
  <rect width="100%" height="100%" fill="#1d2328"/>
  <rect width="100%" height="100%" fill="url(#photo-light)"/>
  <rect width="100%" height="100%" fill="#fff" filter="url(#photo-grain)" opacity="0.70"/>
  <rect width="100%" height="100%" fill="#000" opacity="0.06"/>
  <ellipse cx="103.6" cy="127.8" rx="90.0" ry="22.5" fill="#ece2d2" opacity="0.025" transform="rotate(-23 103.6 127.8)"/>
<ellipse cx="295.4" cy="202.5" rx="121.5" ry="35.1" fill="#ece2d2" opacity="0.035" transform="rotate(6 295.4 202.5)"/>
<ellipse cx="487.2" cy="277.2" rx="153.0" ry="47.7" fill="#ece2d2" opacity="0.045" transform="rotate(35 487.2 277.2)"/>
<ellipse cx="679.0" cy="351.9" rx="184.5" ry="22.5" fill="#ece2d2" opacity="0.055" transform="rotate(-26 679.0 351.9)"/>
<ellipse cx="870.8" cy="426.6" rx="90.0" ry="35.1" fill="#ece2d2" opacity="0.065" transform="rotate(3 870.8 426.6)"/>
<ellipse cx="1062.6" cy="501.3" rx="121.5" ry="47.7" fill="#ece2d2" opacity="0.025" transform="rotate(32 1062.6 501.3)"/>
<ellipse cx="1254.4" cy="576.0" rx="153.0" ry="22.5" fill="#ece2d2" opacity="0.035" transform="rotate(-29 1254.4 576.0)"/>
<ellipse cx="46.2" cy="650.7" rx="184.5" ry="35.1" fill="#ece2d2" opacity="0.045" transform="rotate(0 46.2 650.7)"/>
<ellipse cx="238.0" cy="725.4" rx="90.0" ry="47.7" fill="#ece2d2" opacity="0.055" transform="rotate(29 238.0 725.4)"/>
<ellipse cx="429.8" cy="800.1" rx="121.5" ry="22.5" fill="#ece2d2" opacity="0.065" transform="rotate(-32 429.8 800.1)"/>
<ellipse cx="621.6" cy="874.8" rx="153.0" ry="35.1" fill="#ece2d2" opacity="0.025" transform="rotate(-3 621.6 874.8)"/>
<ellipse cx="813.4" cy="49.5" rx="184.5" ry="47.7" fill="#ece2d2" opacity="0.035" transform="rotate(26 813.4 49.5)"/>
  <circle cx="445.2" cy="264.6" r="2.43" fill="#d8ccb9" opacity="0.12"/>
<circle cx="530.6" cy="344.7" r="3.10" fill="#0a0b0b" opacity="0.15"/>
<circle cx="616.0" cy="424.8" r="3.78" fill="#827867" opacity="0.19"/>
<circle cx="701.4" cy="504.9" r="1.08" fill="#827867" opacity="0.23"/>
<circle cx="786.8" cy="585.0" r="1.75" fill="#d8ccb9" opacity="0.26"/>
<circle cx="872.2" cy="665.1" r="2.43" fill="#0a0b0b" opacity="0.30"/>
<circle cx="957.6" cy="745.2" r="3.10" fill="#827867" opacity="0.12"/>
<circle cx="1043.0" cy="825.3" r="3.78" fill="#827867" opacity="0.15"/>
<circle cx="1128.4" cy="5.4" r="1.08" fill="#d8ccb9" opacity="0.19"/>
<circle cx="1213.8" cy="85.5" r="1.75" fill="#0a0b0b" opacity="0.23"/>
<circle cx="1299.2" cy="165.6" r="2.43" fill="#827867" opacity="0.26"/>
<circle cx="1384.6" cy="245.7" r="3.10" fill="#827867" opacity="0.30"/>
<circle cx="70.0" cy="325.8" r="3.78" fill="#d8ccb9" opacity="0.12"/>
<circle cx="155.4" cy="405.9" r="1.08" fill="#0a0b0b" opacity="0.15"/>
<circle cx="240.8" cy="486.0" r="1.75" fill="#827867" opacity="0.19"/>
<circle cx="326.2" cy="566.1" r="2.43" fill="#827867" opacity="0.23"/>
<circle cx="411.6" cy="646.2" r="3.10" fill="#d8ccb9" opacity="0.26"/>
<circle cx="497.0" cy="726.3" r="3.78" fill="#0a0b0b" opacity="0.30"/>
<circle cx="582.4" cy="806.4" r="1.08" fill="#827867" opacity="0.12"/>
<circle cx="667.8" cy="886.5" r="1.75" fill="#827867" opacity="0.15"/>
<circle cx="753.2" cy="66.6" r="2.43" fill="#d8ccb9" opacity="0.19"/>
<circle cx="838.6" cy="146.7" r="3.10" fill="#0a0b0b" opacity="0.23"/>
<circle cx="924.0" cy="226.8" r="3.78" fill="#827867" opacity="0.26"/>
<circle cx="1009.4" cy="306.9" r="1.08" fill="#827867" opacity="0.30"/>
<circle cx="1094.8" cy="387.0" r="1.75" fill="#d8ccb9" opacity="0.12"/>
<circle cx="1180.2" cy="467.1" r="2.43" fill="#0a0b0b" opacity="0.15"/>
<circle cx="1265.6" cy="547.2" r="3.10" fill="#827867" opacity="0.19"/>
<circle cx="1351.0" cy="627.3" r="3.78" fill="#827867" opacity="0.23"/>
<circle cx="36.4" cy="707.4" r="1.08" fill="#d8ccb9" opacity="0.26"/>
<circle cx="121.8" cy="787.5" r="1.75" fill="#0a0b0b" opacity="0.30"/>
<circle cx="207.2" cy="867.6" r="2.43" fill="#827867" opacity="0.12"/>
<circle cx="292.6" cy="47.7" r="3.10" fill="#827867" opacity="0.15"/>
<circle cx="378.0" cy="127.8" r="3.78" fill="#d8ccb9" opacity="0.19"/>
<circle cx="463.4" cy="207.9" r="1.08" fill="#0a0b0b" opacity="0.23"/>
<circle cx="548.8" cy="288.0" r="1.75" fill="#827867" opacity="0.26"/>
<circle cx="634.2" cy="368.1" r="2.43" fill="#827867" opacity="0.30"/>
<circle cx="719.6" cy="448.2" r="3.10" fill="#d8ccb9" opacity="0.12"/>
<circle cx="805.0" cy="528.3" r="3.78" fill="#0a0b0b" opacity="0.15"/>
<circle cx="890.4" cy="608.4" r="1.08" fill="#827867" opacity="0.19"/>
<circle cx="975.8" cy="688.5" r="1.75" fill="#827867" opacity="0.23"/>
<circle cx="1061.2" cy="768.6" r="2.43" fill="#d8ccb9" opacity="0.26"/>
<circle cx="1146.6" cy="848.7" r="3.10" fill="#0a0b0b" opacity="0.30"/>
<circle cx="1232.0" cy="28.8" r="3.78" fill="#827867" opacity="0.12"/>
<circle cx="1317.4" cy="108.9" r="1.08" fill="#827867" opacity="0.15"/>
<circle cx="2.8" cy="189.0" r="1.75" fill="#d8ccb9" opacity="0.19"/>
<circle cx="88.2" cy="269.1" r="2.43" fill="#0a0b0b" opacity="0.23"/>
<circle cx="173.6" cy="349.2" r="3.10" fill="#827867" opacity="0.26"/>
<circle cx="259.0" cy="429.3" r="3.78" fill="#827867" opacity="0.30"/>
<circle cx="344.4" cy="509.4" r="1.08" fill="#d8ccb9" opacity="0.12"/>
<circle cx="429.8" cy="589.5" r="1.75" fill="#0a0b0b" opacity="0.15"/>
<circle cx="515.2" cy="669.6" r="2.43" fill="#827867" opacity="0.19"/>
<circle cx="600.6" cy="749.7" r="3.10" fill="#827867" opacity="0.23"/>
<circle cx="686.0" cy="829.8" r="3.78" fill="#d8ccb9" opacity="0.26"/>
<circle cx="771.4" cy="9.9" r="1.08" fill="#0a0b0b" opacity="0.30"/>
<circle cx="856.8" cy="90.0" r="1.75" fill="#827867" opacity="0.12"/>
<circle cx="942.2" cy="170.1" r="2.43" fill="#827867" opacity="0.15"/>
<circle cx="1027.6" cy="250.2" r="3.10" fill="#d8ccb9" opacity="0.19"/>
<circle cx="1113.0" cy="330.3" r="3.78" fill="#0a0b0b" opacity="0.23"/>
<circle cx="1198.4" cy="410.4" r="1.08" fill="#827867" opacity="0.26"/>
<circle cx="1283.8" cy="490.5" r="1.75" fill="#827867" opacity="0.30"/>
<circle cx="1369.2" cy="570.6" r="2.43" fill="#d8ccb9" opacity="0.12"/>
<circle cx="54.6" cy="650.7" r="3.10" fill="#0a0b0b" opacity="0.15"/>
<circle cx="140.0" cy="730.8" r="3.78" fill="#827867" opacity="0.19"/>
<circle cx="225.4" cy="810.9" r="1.08" fill="#827867" opacity="0.23"/>
<circle cx="310.8" cy="891.0" r="1.75" fill="#d8ccb9" opacity="0.26"/>
<circle cx="396.2" cy="71.1" r="2.43" fill="#0a0b0b" opacity="0.30"/>
<circle cx="481.6" cy="151.2" r="3.10" fill="#827867" opacity="0.12"/>
<circle cx="567.0" cy="231.3" r="3.78" fill="#827867" opacity="0.15"/>
<circle cx="652.4" cy="311.4" r="1.08" fill="#d8ccb9" opacity="0.19"/>
<circle cx="737.8" cy="391.5" r="1.75" fill="#0a0b0b" opacity="0.23"/>
<circle cx="823.2" cy="471.6" r="2.43" fill="#827867" opacity="0.26"/>
<circle cx="908.6" cy="551.7" r="3.10" fill="#827867" opacity="0.30"/>
<circle cx="994.0" cy="631.8" r="3.78" fill="#d8ccb9" opacity="0.12"/>
<circle cx="1079.4" cy="711.9" r="1.08" fill="#0a0b0b" opacity="0.15"/>
<circle cx="1164.8" cy="792.0" r="1.75" fill="#827867" opacity="0.19"/>
<circle cx="1250.2" cy="872.1" r="2.43" fill="#827867" opacity="0.23"/>
<circle cx="1335.6" cy="52.2" r="3.10" fill="#d8ccb9" opacity="0.26"/>
<circle cx="21.0" cy="132.3" r="3.78" fill="#0a0b0b" opacity="0.30"/>
<circle cx="106.4" cy="212.4" r="1.08" fill="#827867" opacity="0.12"/>
<circle cx="191.8" cy="292.5" r="1.75" fill="#827867" opacity="0.15"/>
<circle cx="277.2" cy="372.6" r="2.43" fill="#d8ccb9" opacity="0.19"/>
<circle cx="362.6" cy="452.7" r="3.10" fill="#0a0b0b" opacity="0.23"/>
<circle cx="448.0" cy="532.8" r="3.78" fill="#827867" opacity="0.26"/>
<circle cx="533.4" cy="612.9" r="1.08" fill="#827867" opacity="0.30"/>
<circle cx="618.8" cy="693.0" r="1.75" fill="#d8ccb9" opacity="0.12"/>
<circle cx="704.2" cy="773.1" r="2.43" fill="#0a0b0b" opacity="0.15"/>
<circle cx="789.6" cy="853.2" r="3.10" fill="#827867" opacity="0.19"/>
<circle cx="875.0" cy="33.3" r="3.78" fill="#827867" opacity="0.23"/>
<circle cx="960.4" cy="113.4" r="1.08" fill="#d8ccb9" opacity="0.26"/>
<circle cx="1045.8" cy="193.5" r="1.75" fill="#0a0b0b" opacity="0.30"/>
<circle cx="1131.2" cy="273.6" r="2.43" fill="#827867" opacity="0.12"/>
<circle cx="1216.6" cy="353.7" r="3.10" fill="#827867" opacity="0.15"/>
<circle cx="1302.0" cy="433.8" r="3.78" fill="#d8ccb9" opacity="0.19"/>
<circle cx="1387.4" cy="513.9" r="1.08" fill="#0a0b0b" opacity="0.23"/>
<circle cx="72.8" cy="594.0" r="1.75" fill="#827867" opacity="0.26"/>
<circle cx="158.2" cy="674.1" r="2.43" fill="#827867" opacity="0.30"/>
<circle cx="243.6" cy="754.2" r="3.10" fill="#d8ccb9" opacity="0.12"/>
<circle cx="329.0" cy="834.3" r="3.78" fill="#0a0b0b" opacity="0.15"/>
<circle cx="414.4" cy="14.4" r="1.08" fill="#827867" opacity="0.19"/>
<circle cx="499.8" cy="94.5" r="1.75" fill="#827867" opacity="0.23"/>
<circle cx="585.2" cy="174.6" r="2.43" fill="#d8ccb9" opacity="0.26"/>
<circle cx="670.6" cy="254.7" r="3.10" fill="#0a0b0b" opacity="0.30"/>
<circle cx="756.0" cy="334.8" r="3.78" fill="#827867" opacity="0.12"/>
<circle cx="841.4" cy="414.9" r="1.08" fill="#827867" opacity="0.15"/>
<circle cx="926.8" cy="495.0" r="1.75" fill="#d8ccb9" opacity="0.19"/>
<circle cx="1012.2" cy="575.1" r="2.43" fill="#0a0b0b" opacity="0.23"/>
<circle cx="1097.6" cy="655.2" r="3.10" fill="#827867" opacity="0.26"/>
<circle cx="1183.0" cy="735.3" r="3.78" fill="#827867" opacity="0.30"/>
<circle cx="1268.4" cy="815.4" r="1.08" fill="#d8ccb9" opacity="0.12"/>
<circle cx="1353.8" cy="895.5" r="1.75" fill="#0a0b0b" opacity="0.15"/>
<circle cx="39.2" cy="75.6" r="2.43" fill="#827867" opacity="0.19"/>
<circle cx="124.6" cy="155.7" r="3.10" fill="#827867" opacity="0.23"/>
<circle cx="210.0" cy="235.8" r="3.78" fill="#d8ccb9" opacity="0.26"/>
<circle cx="295.4" cy="315.9" r="1.08" fill="#0a0b0b" opacity="0.30"/>
<circle cx="380.8" cy="396.0" r="1.75" fill="#827867" opacity="0.12"/>
<circle cx="466.2" cy="476.1" r="2.43" fill="#827867" opacity="0.15"/>
<circle cx="551.6" cy="556.2" r="3.10" fill="#d8ccb9" opacity="0.19"/>
<circle cx="637.0" cy="636.3" r="3.78" fill="#0a0b0b" opacity="0.23"/>
<circle cx="722.4" cy="716.4" r="1.08" fill="#827867" opacity="0.26"/>
<circle cx="807.8" cy="796.5" r="1.75" fill="#827867" opacity="0.30"/>
<circle cx="893.2" cy="876.6" r="2.43" fill="#d8ccb9" opacity="0.12"/>
<circle cx="978.6" cy="56.7" r="3.10" fill="#0a0b0b" opacity="0.15"/>
<circle cx="1064.0" cy="136.8" r="3.78" fill="#827867" opacity="0.19"/>
<circle cx="1149.4" cy="216.9" r="1.08" fill="#827867" opacity="0.23"/>
<circle cx="1234.8" cy="297.0" r="1.75" fill="#d8ccb9" opacity="0.26"/>
<circle cx="1320.2" cy="377.1" r="2.43" fill="#0a0b0b" opacity="0.30"/>
<circle cx="5.6" cy="457.2" r="3.10" fill="#827867" opacity="0.12"/>
<circle cx="91.0" cy="537.3" r="3.78" fill="#827867" opacity="0.15"/>
<circle cx="176.4" cy="617.4" r="1.08" fill="#d8ccb9" opacity="0.19"/>
<circle cx="261.8" cy="697.5" r="1.75" fill="#0a0b0b" opacity="0.23"/>
<circle cx="347.2" cy="777.6" r="2.43" fill="#827867" opacity="0.26"/>
<circle cx="432.6" cy="857.7" r="3.10" fill="#827867" opacity="0.30"/>
<circle cx="518.0" cy="37.8" r="3.78" fill="#d8ccb9" opacity="0.12"/>
<circle cx="603.4" cy="117.9" r="1.08" fill="#0a0b0b" opacity="0.15"/>
<circle cx="688.8" cy="198.0" r="1.75" fill="#827867" opacity="0.19"/>
<circle cx="774.2" cy="278.1" r="2.43" fill="#827867" opacity="0.23"/>
<circle cx="859.6" cy="358.2" r="3.10" fill="#d8ccb9" opacity="0.26"/>
<circle cx="945.0" cy="438.3" r="3.78" fill="#0a0b0b" opacity="0.30"/>
<circle cx="1030.4" cy="518.4" r="1.08" fill="#827867" opacity="0.12"/>
<circle cx="1115.8" cy="598.5" r="1.75" fill="#827867" opacity="0.15"/>
<circle cx="1201.2" cy="678.6" r="2.43" fill="#d8ccb9" opacity="0.19"/>
<circle cx="1286.6" cy="758.7" r="3.10" fill="#0a0b0b" opacity="0.23"/>
<circle cx="1372.0" cy="838.8" r="3.78" fill="#827867" opacity="0.26"/>
<circle cx="57.4" cy="18.9" r="1.08" fill="#827867" opacity="0.30"/>
<circle cx="142.8" cy="99.0" r="1.75" fill="#d8ccb9" opacity="0.12"/>
<circle cx="228.2" cy="179.1" r="2.43" fill="#0a0b0b" opacity="0.15"/>
<circle cx="313.6" cy="259.2" r="3.10" fill="#827867" opacity="0.19"/>
<circle cx="399.0" cy="339.3" r="3.78" fill="#827867" opacity="0.23"/>
<circle cx="484.4" cy="419.4" r="1.08" fill="#d8ccb9" opacity="0.26"/>
<circle cx="569.8" cy="499.5" r="1.75" fill="#0a0b0b" opacity="0.30"/>
<circle cx="655.2" cy="579.6" r="2.43" fill="#827867" opacity="0.12"/>
<circle cx="740.6" cy="659.7" r="3.10" fill="#827867" opacity="0.15"/>
<circle cx="826.0" cy="739.8" r="3.78" fill="#d8ccb9" opacity="0.19"/>
<circle cx="911.4" cy="819.9" r="1.08" fill="#0a0b0b" opacity="0.23"/>
<circle cx="996.8" cy="0.0" r="1.75" fill="#827867" opacity="0.26"/>
<circle cx="1082.2" cy="80.1" r="2.43" fill="#827867" opacity="0.30"/>
<circle cx="1167.6" cy="160.2" r="3.10" fill="#d8ccb9" opacity="0.12"/>
<circle cx="1253.0" cy="240.3" r="3.78" fill="#0a0b0b" opacity="0.15"/>
<circle cx="1338.4" cy="320.4" r="1.08" fill="#827867" opacity="0.19"/>
<circle cx="23.8" cy="400.5" r="1.75" fill="#827867" opacity="0.23"/>
<circle cx="109.2" cy="480.6" r="2.43" fill="#d8ccb9" opacity="0.26"/>
<circle cx="194.6" cy="560.7" r="3.10" fill="#0a0b0b" opacity="0.30"/>
<circle cx="280.0" cy="640.8" r="3.78" fill="#827867" opacity="0.12"/>
<circle cx="365.4" cy="720.9" r="1.08" fill="#827867" opacity="0.15"/>
<circle cx="450.8" cy="801.0" r="1.75" fill="#d8ccb9" opacity="0.19"/>
<circle cx="536.2" cy="881.1" r="2.43" fill="#0a0b0b" opacity="0.23"/>
<circle cx="621.6" cy="61.2" r="3.10" fill="#827867" opacity="0.26"/>
<circle cx="707.0" cy="141.3" r="3.78" fill="#827867" opacity="0.30"/>
<circle cx="792.4" cy="221.4" r="1.08" fill="#d8ccb9" opacity="0.12"/>
<circle cx="877.8" cy="301.5" r="1.75" fill="#0a0b0b" opacity="0.15"/>
<circle cx="963.2" cy="381.6" r="2.43" fill="#827867" opacity="0.19"/>
<circle cx="1048.6" cy="461.7" r="3.10" fill="#827867" opacity="0.23"/>
<circle cx="1134.0" cy="541.8" r="3.78" fill="#d8ccb9" opacity="0.26"/>
<circle cx="1219.4" cy="621.9" r="1.08" fill="#0a0b0b" opacity="0.30"/>
<circle cx="1304.8" cy="702.0" r="1.75" fill="#827867" opacity="0.12"/>
<circle cx="1390.2" cy="782.1" r="2.43" fill="#827867" opacity="0.15"/>
<circle cx="75.6" cy="862.2" r="3.10" fill="#d8ccb9" opacity="0.19"/>
<circle cx="161.0" cy="42.3" r="3.78" fill="#0a0b0b" opacity="0.23"/>
<circle cx="246.4" cy="122.4" r="1.08" fill="#827867" opacity="0.26"/>
<circle cx="331.8" cy="202.5" r="1.75" fill="#827867" opacity="0.30"/>
  <g transform="translate(168 306) rotate(-34) scale(1.7307692307692308)" opacity="0.78">
    <path d="M0 -78 C42 -48 58 12 4 88 C-44 32 -48 -38 0 -78Z" fill="#151918"/>
    <path d="M0 -62 C10 -20 8 32 0 72" fill="none" stroke="#d4c6ad" stroke-opacity="0.18" stroke-width="2"/>
    <path d="M0 -8 C20 -18 34 -26 48 -42 M0 18 C-22 6 -34 -10 -48 -30 M0 38 C18 32 32 23 45 12" fill="none" stroke="#d4c6ad" stroke-opacity="0.12" stroke-width="1.4"/>
  </g>
  <g transform="translate(1204 558) rotate(28) scale(1.6071428571428572)" opacity="0.78">
    <path d="M0 -78 C42 -48 58 12 4 88 C-44 32 -48 -38 0 -78Z" fill="#2d2923"/>
    <path d="M0 -62 C10 -20 8 32 0 72" fill="none" stroke="#d4c6ad" stroke-opacity="0.18" stroke-width="2"/>
    <path d="M0 -8 C20 -18 34 -26 48 -42 M0 18 C-22 6 -34 -10 -48 -30 M0 38 C18 32 32 23 45 12" fill="none" stroke="#d4c6ad" stroke-opacity="0.12" stroke-width="1.4"/>
  </g>
  <g transform="translate(420 756) rotate(-66) scale(1.3636363636363635)" opacity="0.78">
    <path d="M0 -78 C42 -48 58 12 4 88 C-44 32 -48 -38 0 -78Z" fill="#4b4035"/>
    <path d="M0 -62 C10 -20 8 32 0 72" fill="none" stroke="#d4c6ad" stroke-opacity="0.18" stroke-width="2"/>
    <path d="M0 -8 C20 -18 34 -26 48 -42 M0 18 C-22 6 -34 -10 -48 -30 M0 38 C18 32 32 23 45 12" fill="none" stroke="#d4c6ad" stroke-opacity="0.12" stroke-width="1.4"/>
  </g>
  <g transform="translate(812 144) rotate(96) scale(1.25)" opacity="0.78">
    <path d="M0 -78 C42 -48 58 12 4 88 C-44 32 -48 -38 0 -78Z" fill="#d1c4aa"/>
    <path d="M0 -62 C10 -20 8 32 0 72" fill="none" stroke="#d4c6ad" stroke-opacity="0.18" stroke-width="2"/>
    <path d="M0 -8 C20 -18 34 -26 48 -42 M0 18 C-22 6 -34 -10 -48 -30 M0 38 C18 32 32 23 45 12" fill="none" stroke="#d4c6ad" stroke-opacity="0.12" stroke-width="1.4"/>
  </g>
  <g transform="translate(84 702) rotate(24) scale(1.2857142857142858)" opacity="0.78">
    <path d="M0 -78 C42 -48 58 12 4 88 C-44 32 -48 -38 0 -78Z" fill="#0d1110"/>
    <path d="M0 -62 C10 -20 8 32 0 72" fill="none" stroke="#d4c6ad" stroke-opacity="0.18" stroke-width="2"/>
    <path d="M0 -8 C20 -18 34 -26 48 -42 M0 18 C-22 6 -34 -10 -48 -30 M0 38 C18 32 32 23 45 12" fill="none" stroke="#d4c6ad" stroke-opacity="0.12" stroke-width="1.4"/>
  </g>
  <g transform="rotate(-16 1092 180)" opacity="0.88">
    <ellipse cx="1092" cy="180" rx="162" ry="63.00000000000001" fill="none" stroke="#e8e3d8" stroke-opacity="0.46" stroke-width="5.4"/>
    <ellipse cx="1092" cy="180" rx="103.68" ry="32.760000000000005" fill="#cfc8ba" fill-opacity="0.11" stroke="#2b2d2d" stroke-opacity="0.35" stroke-width="2.7"/>
    <ellipse cx="1062.84" cy="168.66" rx="32.4" ry="6.300000000000001" fill="#fff" opacity="0.20"/>
  </g>
  <g transform="rotate(24 252 162)" opacity="0.88">
    <ellipse cx="252" cy="162" rx="117" ry="45" fill="none" stroke="#e8e3d8" stroke-opacity="0.46" stroke-width="5.4"/>
    <ellipse cx="252" cy="162" rx="74.88" ry="23.400000000000002" fill="#cfc8ba" fill-opacity="0.11" stroke="#2b2d2d" stroke-opacity="0.35" stroke-width="2.7"/>
    <ellipse cx="230.94" cy="153.9" rx="23.400000000000002" ry="4.5" fill="#fff" opacity="0.20"/>
  </g>
  <g transform="rotate(48 1232 432)" opacity="0.88">
    <ellipse cx="1232" cy="432" rx="108" ry="40.5" fill="none" stroke="#e8e3d8" stroke-opacity="0.46" stroke-width="5.4"/>
    <ellipse cx="1232" cy="432" rx="69.12" ry="21.060000000000002" fill="#cfc8ba" fill-opacity="0.11" stroke="#2b2d2d" stroke-opacity="0.35" stroke-width="2.7"/>
    <ellipse cx="1212.56" cy="424.71" rx="21.6" ry="4.05" fill="#fff" opacity="0.20"/>
  </g>

    <g transform="translate(1008 288) rotate(9)" filter="url(#photo-shadow)">
    <rect x="-126.00000000000001" y="-108" width="252.00000000000003" height="216" fill="#f0ebe0" opacity="0.95"/>
    <text x="-95.76" y="-47.52" font-family="Georgia, serif" font-size="18.900000000000002" fill="#151515">AI AUDIT</text>
    <rect x="-95.76" y="-10.8" width="105.84" height="38.879999999999995" fill="#0d1113"/>
    <rect x="-95.76" y="43.2" width="110.07360000000003" height="2" fill="#171717" opacity="0.28"/>
<rect x="-95.76" y="53.784000000000006" width="90.31680000000003" height="2" fill="#171717" opacity="0.335"/>
<rect x="-95.76" y="64.36800000000001" width="70.56000000000002" height="2" fill="#171717" opacity="0.39"/>
<rect x="-95.76" y="74.952" width="110.07360000000003" height="2" fill="#171717" opacity="0.44500000000000006"/>
<rect x="-95.76" y="85.536" width="90.31680000000003" height="2" fill="#171717" opacity="0.5"/>
  </g>
    <g transform="translate(364 252.00000000000003) rotate(-14)" filter="url(#photo-shadow)">
    <rect x="-99" y="-81" width="198" height="162" fill="#f0ebe0" opacity="0.95"/>
    <text x="-75.24" y="-35.64" font-family="Georgia, serif" font-size="14.85" fill="#151515">AI AUDIT</text>
    <rect x="-75.24" y="-8.1" width="83.16" height="29.16" fill="#0d1113"/>
    <rect x="-75.24" y="32.4" width="86.48640000000002" height="2" fill="#171717" opacity="0.28"/>
<rect x="-75.24" y="40.716" width="70.96320000000001" height="2" fill="#171717" opacity="0.335"/>
<rect x="-75.24" y="49.032" width="55.440000000000005" height="2" fill="#171717" opacity="0.39"/>
<rect x="-75.24" y="57.348" width="86.48640000000002" height="2" fill="#171717" opacity="0.44500000000000006"/>
<rect x="-75.24" y="65.664" width="70.96320000000001" height="2" fill="#171717" opacity="0.5"/>
  </g>
    <g transform="translate(1120 630) rotate(-18)" filter="url(#photo-shadow)">
    <rect x="-72" y="-135" width="144" height="270" rx="25.919999999999998" fill="#c9c7c1" opacity="0.88"/>
    <rect x="-66" y="-128" width="132" height="256" rx="20.160000000000004" fill="#f5f2ea" opacity="0.32"/>
    <text x="0" y="-16.2" text-anchor="middle" font-family="Arial, Helvetica, sans-serif" font-size="12.959999999999999" letter-spacing="1.6" fill="#252525" opacity="0.78">CRM</text>
    <text x="0" y="43.2" text-anchor="middle" font-family="Arial, Helvetica, sans-serif" font-size="7.92" letter-spacing="1" fill="#555" opacity="0.62">OUTERSCOPE</text>
  </g>
    <g transform="translate(280 630) rotate(15)" filter="url(#photo-shadow)">
    <rect x="-63.00000000000001" y="-112.5" width="126.00000000000001" height="225" rx="22.680000000000003" fill="#c9c7c1" opacity="0.88"/>
    <rect x="-57.00000000000001" y="-105.5" width="114.00000000000001" height="211" rx="17.640000000000004" fill="#f5f2ea" opacity="0.32"/>
    <text x="0" y="-13.5" text-anchor="middle" font-family="Arial, Helvetica, sans-serif" font-size="11.340000000000002" letter-spacing="1.6" fill="#252525" opacity="0.78">OPS</text>
    <text x="0" y="36" text-anchor="middle" font-family="Arial, Helvetica, sans-serif" font-size="6.930000000000001" letter-spacing="1" fill="#555" opacity="0.62">OUTERSCOPE</text>
  </g>

  <g transform="translate(602 486.00000000000006) rotate(5)" filter="url(#photo-shadow)">
    <rect x="-136.08" y="-281.88" width="272.16" height="563.76" rx="35.38080000000001" fill="#080a0b"/>
    <rect x="-121.11120000000001" y="-262.8288" width="242.22240000000002" height="525.6576" rx="25.855200000000004" fill="#ece8dd"/>
    <rect x="-54.43200000000001" y="-275.076" width="108.86400000000002" height="9.525600000000003" rx="5.443200000000001" fill="#171717"/>
    <text x="0" y="-163.4904" text-anchor="middle" font-family="Georgia, serif" font-size="28.576800000000002" letter-spacing="2" fill="#2a2a27">LEAD GRAPH</text>
    <text x="0" y="-118.38959999999999" text-anchor="middle" font-family="Arial, Helvetica, sans-serif" font-size="14.968800000000002" letter-spacing="4" fill="#7d7466">AI AUDIT</text>
    <rect x="-87.09120000000001" y="-62.0136" width="174.18240000000003" height="140.94" fill="#0d1113" opacity="0.88"/>
    <text x="0" y="-2.8188" text-anchor="middle" font-family="Arial Black, Arial, sans-serif" font-size="24.494400000000002" letter-spacing="1.6" fill="#f7f4ea">OS</text>
    <rect x="-78.9264" y="112.75200000000001" width="127.37088000000001" height="2" fill="#171717" opacity="0.28"/>
<rect x="-78.9264" y="124.99920000000002" width="104.50944000000001" height="2" fill="#171717" opacity="0.335"/>
<rect x="-78.9264" y="137.24640000000002" width="81.64800000000001" height="2" fill="#171717" opacity="0.39"/>
<rect x="-78.9264" y="149.49360000000001" width="127.37088000000001" height="2" fill="#171717" opacity="0.44500000000000006"/>
<rect x="-78.9264" y="161.7408" width="104.50944000000001" height="2" fill="#171717" opacity="0.5"/>
    <rect x="-78.9264" y="197.31599999999997" width="157.8528" height="42.282" fill="#d8d0c2" opacity="0.65"/>
  </g>
  <rect width="100%" height="100%" fill="#000" opacity="0.14"/>

</svg>
