<svg xmlns="http://www.w3.org/2000/svg" width="1400" height="900" viewBox="0 0 1400 900" role="img" aria-label="cube Audit Console">
  <defs>
    <linearGradient id="steel" x1="0" y1="0" x2="1" y2="1">
      <stop offset="0" stop-color="#f7fbff"/>
      <stop offset="0.18" stop-color="#8d99a6"/>
      <stop offset="0.48" stop-color="#202832"/>
      <stop offset="0.72" stop-color="#cad7e6"/>
      <stop offset="1" stop-color="#111821"/>
    </linearGradient>
    <linearGradient id="ink" x1="0" y1="0" x2="1" y2="1">
      <stop offset="0" stop-color="#05070a"/>
      <stop offset="0.52" stop-color="#101824"/>
      <stop offset="1" stop-color="#030405"/>
    </linearGradient>
    <radialGradient id="pulse" cx="50%" cy="45%" r="70%">
      <stop offset="0" stop-color="#9bdcf5"/>
      <stop offset="0.26" stop-color="#1f6f91"/>
      <stop offset="0.68" stop-color="#071620"/>
      <stop offset="1" stop-color="#020304"/>
    </radialGradient>
    <filter id="glow" x="-40%" y="-40%" width="180%" height="180%">
      <feGaussianBlur stdDeviation="6" result="blur"/>
      <feColorMatrix in="blur" type="matrix" values="0 0 0 0 0.2 0 0 0 0 0.72 0 0 0 0 1 0 0 0 .8 0"/>
      <feMerge><feMergeNode/><feMergeNode in="SourceGraphic"/></feMerge>
    </filter>
    <pattern id="grid" width="44" height="44" patternUnits="userSpaceOnUse">
      <path d="M44 0H0v44" fill="none" stroke="#ffffff" stroke-opacity="0.08" stroke-width="1"/>
    </pattern>
  </defs>

  <defs>
    <filter id="photo-grain" x="-10%" y="-10%" width="120%" height="120%">
      <feTurbulence type="fractalNoise" baseFrequency="0.82" numOctaves="4" seed="20"/>
      <feColorMatrix type="saturate" values="0"/>
      <feComponentTransfer><feFuncA type="table" tableValues="0 0.34"/></feComponentTransfer>
    </filter>
    <filter id="photo-shadow" x="-40%" y="-40%" width="180%" height="180%">
      <feDropShadow dx="16.2" dy="23.4" stdDeviation="16.2" flood-color="#000" flood-opacity="0.55"/>
    </filter>
    <radialGradient id="photo-light" cx="70%" cy="18%" r="78%">
      <stop offset="0" stop-color="#d9d1c2" stop-opacity="0.46"/>
      <stop offset="0.42" stop-color="#706457" stop-opacity="0.16"/>
      <stop offset="1" stop-color="#050607" stop-opacity="1"/>
    </radialGradient>
  </defs>
  <rect width="100%" height="100%" fill="#263037"/>
  <rect width="100%" height="100%" fill="url(#photo-light)"/>
  <rect width="100%" height="100%" fill="#fff" filter="url(#photo-grain)" opacity="0.70"/>
  <rect width="100%" height="100%" fill="#000" opacity="0.06"/>
  <ellipse cx="155.4" cy="191.7" rx="90.0" ry="22.5" fill="#ece2d2" opacity="0.025" transform="rotate(-12 155.4 191.7)"/>
<ellipse cx="347.2" cy="266.4" rx="121.5" ry="35.1" fill="#ece2d2" opacity="0.035" transform="rotate(17 347.2 266.4)"/>
<ellipse cx="539.0" cy="341.1" rx="153.0" ry="47.7" fill="#ece2d2" opacity="0.045" transform="rotate(-44 539.0 341.1)"/>
<ellipse cx="730.8" cy="415.8" rx="184.5" ry="22.5" fill="#ece2d2" opacity="0.055" transform="rotate(-15 730.8 415.8)"/>
<ellipse cx="922.6" cy="490.5" rx="90.0" ry="35.1" fill="#ece2d2" opacity="0.065" transform="rotate(14 922.6 490.5)"/>
<ellipse cx="1114.4" cy="565.2" rx="121.5" ry="47.7" fill="#ece2d2" opacity="0.025" transform="rotate(43 1114.4 565.2)"/>
<ellipse cx="1306.2" cy="639.9" rx="153.0" ry="22.5" fill="#ece2d2" opacity="0.035" transform="rotate(-18 1306.2 639.9)"/>
<ellipse cx="98.0" cy="714.6" rx="184.5" ry="35.1" fill="#ece2d2" opacity="0.045" transform="rotate(11 98.0 714.6)"/>
<ellipse cx="289.8" cy="789.3" rx="90.0" ry="47.7" fill="#ece2d2" opacity="0.055" transform="rotate(40 289.8 789.3)"/>
<ellipse cx="481.6" cy="864.0" rx="121.5" ry="22.5" fill="#ece2d2" opacity="0.065" transform="rotate(-21 481.6 864.0)"/>
<ellipse cx="673.4" cy="38.7" rx="153.0" ry="35.1" fill="#ece2d2" opacity="0.025" transform="rotate(8 673.4 38.7)"/>
<ellipse cx="865.2" cy="113.4" rx="184.5" ry="47.7" fill="#ece2d2" opacity="0.035" transform="rotate(37 865.2 113.4)"/>
  <circle cx="581.0" cy="312.3" r="3.10" fill="#d8ccb9" opacity="0.12"/>
<circle cx="666.4" cy="392.4" r="3.78" fill="#0a0b0b" opacity="0.15"/>
<circle cx="751.8" cy="472.5" r="1.08" fill="#827867" opacity="0.19"/>
<circle cx="837.2" cy="552.6" r="1.75" fill="#827867" opacity="0.23"/>
<circle cx="922.6" cy="632.7" r="2.43" fill="#d8ccb9" opacity="0.26"/>
<circle cx="1008.0" cy="712.8" r="3.10" fill="#0a0b0b" opacity="0.30"/>
<circle cx="1093.4" cy="792.9" r="3.78" fill="#827867" opacity="0.12"/>
<circle cx="1178.8" cy="873.0" r="1.08" fill="#827867" opacity="0.15"/>
<circle cx="1264.2" cy="53.1" r="1.75" fill="#d8ccb9" opacity="0.19"/>
<circle cx="1349.6" cy="133.2" r="2.43" fill="#0a0b0b" opacity="0.23"/>
<circle cx="35.0" cy="213.3" r="3.10" fill="#827867" opacity="0.26"/>
<circle cx="120.4" cy="293.4" r="3.78" fill="#827867" opacity="0.30"/>
<circle cx="205.8" cy="373.5" r="1.08" fill="#d8ccb9" opacity="0.12"/>
<circle cx="291.2" cy="453.6" r="1.75" fill="#0a0b0b" opacity="0.15"/>
<circle cx="376.6" cy="533.7" r="2.43" fill="#827867" opacity="0.19"/>
<circle cx="462.0" cy="613.8" r="3.10" fill="#827867" opacity="0.23"/>
<circle cx="547.4" cy="693.9" r="3.78" fill="#d8ccb9" opacity="0.26"/>
<circle cx="632.8" cy="774.0" r="1.08" fill="#0a0b0b" opacity="0.30"/>
<circle cx="718.2" cy="854.1" r="1.75" fill="#827867" opacity="0.12"/>
<circle cx="803.6" cy="34.2" r="2.43" fill="#827867" opacity="0.15"/>
<circle cx="889.0" cy="114.3" r="3.10" fill="#d8ccb9" opacity="0.19"/>
<circle cx="974.4" cy="194.4" r="3.78" fill="#0a0b0b" opacity="0.23"/>
<circle cx="1059.8" cy="274.5" r="1.08" fill="#827867" opacity="0.26"/>
<circle cx="1145.2" cy="354.6" r="1.75" fill="#827867" opacity="0.30"/>
<circle cx="1230.6" cy="434.7" r="2.43" fill="#d8ccb9" opacity="0.12"/>
<circle cx="1316.0" cy="514.8" r="3.10" fill="#0a0b0b" opacity="0.15"/>
<circle cx="1.4" cy="594.9" r="3.78" fill="#827867" opacity="0.19"/>
<circle cx="86.8" cy="675.0" r="1.08" fill="#827867" opacity="0.23"/>
<circle cx="172.2" cy="755.1" r="1.75" fill="#d8ccb9" opacity="0.26"/>
<circle cx="257.6" cy="835.2" r="2.43" fill="#0a0b0b" opacity="0.30"/>
<circle cx="343.0" cy="15.3" r="3.10" fill="#827867" opacity="0.12"/>
<circle cx="428.4" cy="95.4" r="3.78" fill="#827867" opacity="0.15"/>
<circle cx="513.8" cy="175.5" r="1.08" fill="#d8ccb9" opacity="0.19"/>
<circle cx="599.2" cy="255.6" r="1.75" fill="#0a0b0b" opacity="0.23"/>
<circle cx="684.6" cy="335.7" r="2.43" fill="#827867" opacity="0.26"/>
<circle cx="770.0" cy="415.8" r="3.10" fill="#827867" opacity="0.30"/>
<circle cx="855.4" cy="495.9" r="3.78" fill="#d8ccb9" opacity="0.12"/>
<circle cx="940.8" cy="576.0" r="1.08" fill="#0a0b0b" opacity="0.15"/>
<circle cx="1026.2" cy="656.1" r="1.75" fill="#827867" opacity="0.19"/>
<circle cx="1111.6" cy="736.2" r="2.43" fill="#827867" opacity="0.23"/>
<circle cx="1197.0" cy="816.3" r="3.10" fill="#d8ccb9" opacity="0.26"/>
<circle cx="1282.4" cy="896.4" r="3.78" fill="#0a0b0b" opacity="0.30"/>
<circle cx="1367.8" cy="76.5" r="1.08" fill="#827867" opacity="0.12"/>
<circle cx="53.2" cy="156.6" r="1.75" fill="#827867" opacity="0.15"/>
<circle cx="138.6" cy="236.7" r="2.43" fill="#d8ccb9" opacity="0.19"/>
<circle cx="224.0" cy="316.8" r="3.10" fill="#0a0b0b" opacity="0.23"/>
<circle cx="309.4" cy="396.9" r="3.78" fill="#827867" opacity="0.26"/>
<circle cx="394.8" cy="477.0" r="1.08" fill="#827867" opacity="0.30"/>
<circle cx="480.2" cy="557.1" r="1.75" fill="#d8ccb9" opacity="0.12"/>
<circle cx="565.6" cy="637.2" r="2.43" fill="#0a0b0b" opacity="0.15"/>
<circle cx="651.0" cy="717.3" r="3.10" fill="#827867" opacity="0.19"/>
<circle cx="736.4" cy="797.4" r="3.78" fill="#827867" opacity="0.23"/>
<circle cx="821.8" cy="877.5" r="1.08" fill="#d8ccb9" opacity="0.26"/>
<circle cx="907.2" cy="57.6" r="1.75" fill="#0a0b0b" opacity="0.30"/>
<circle cx="992.6" cy="137.7" r="2.43" fill="#827867" opacity="0.12"/>
<circle cx="1078.0" cy="217.8" r="3.10" fill="#827867" opacity="0.15"/>
<circle cx="1163.4" cy="297.9" r="3.78" fill="#d8ccb9" opacity="0.19"/>
<circle cx="1248.8" cy="378.0" r="1.08" fill="#0a0b0b" opacity="0.23"/>
<circle cx="1334.2" cy="458.1" r="1.75" fill="#827867" opacity="0.26"/>
<circle cx="19.6" cy="538.2" r="2.43" fill="#827867" opacity="0.30"/>
<circle cx="105.0" cy="618.3" r="3.10" fill="#d8ccb9" opacity="0.12"/>
<circle cx="190.4" cy="698.4" r="3.78" fill="#0a0b0b" opacity="0.15"/>
<circle cx="275.8" cy="778.5" r="1.08" fill="#827867" opacity="0.19"/>
<circle cx="361.2" cy="858.6" r="1.75" fill="#827867" opacity="0.23"/>
<circle cx="446.6" cy="38.7" r="2.43" fill="#d8ccb9" opacity="0.26"/>
<circle cx="532.0" cy="118.8" r="3.10" fill="#0a0b0b" opacity="0.30"/>
<circle cx="617.4" cy="198.9" r="3.78" fill="#827867" opacity="0.12"/>
<circle cx="702.8" cy="279.0" r="1.08" fill="#827867" opacity="0.15"/>
<circle cx="788.2" cy="359.1" r="1.75" fill="#d8ccb9" opacity="0.19"/>
<circle cx="873.6" cy="439.2" r="2.43" fill="#0a0b0b" opacity="0.23"/>
<circle cx="959.0" cy="519.3" r="3.10" fill="#827867" opacity="0.26"/>
<circle cx="1044.4" cy="599.4" r="3.78" fill="#827867" opacity="0.30"/>
<circle cx="1129.8" cy="679.5" r="1.08" fill="#d8ccb9" opacity="0.12"/>
<circle cx="1215.2" cy="759.6" r="1.75" fill="#0a0b0b" opacity="0.15"/>
<circle cx="1300.6" cy="839.7" r="2.43" fill="#827867" opacity="0.19"/>
<circle cx="1386.0" cy="19.8" r="3.10" fill="#827867" opacity="0.23"/>
<circle cx="71.4" cy="99.9" r="3.78" fill="#d8ccb9" opacity="0.26"/>
<circle cx="156.8" cy="180.0" r="1.08" fill="#0a0b0b" opacity="0.30"/>
<circle cx="242.2" cy="260.1" r="1.75" fill="#827867" opacity="0.12"/>
<circle cx="327.6" cy="340.2" r="2.43" fill="#827867" opacity="0.15"/>
<circle cx="413.0" cy="420.3" r="3.10" fill="#d8ccb9" opacity="0.19"/>
<circle cx="498.4" cy="500.4" r="3.78" fill="#0a0b0b" opacity="0.23"/>
<circle cx="583.8" cy="580.5" r="1.08" fill="#827867" opacity="0.26"/>
<circle cx="669.2" cy="660.6" r="1.75" fill="#827867" opacity="0.30"/>
<circle cx="754.6" cy="740.7" r="2.43" fill="#d8ccb9" opacity="0.12"/>
<circle cx="840.0" cy="820.8" r="3.10" fill="#0a0b0b" opacity="0.15"/>
<circle cx="925.4" cy="0.9" r="3.78" fill="#827867" opacity="0.19"/>
<circle cx="1010.8" cy="81.0" r="1.08" fill="#827867" opacity="0.23"/>
<circle cx="1096.2" cy="161.1" r="1.75" fill="#d8ccb9" opacity="0.26"/>
<circle cx="1181.6" cy="241.2" r="2.43" fill="#0a0b0b" opacity="0.30"/>
<circle cx="1267.0" cy="321.3" r="3.10" fill="#827867" opacity="0.12"/>
<circle cx="1352.4" cy="401.4" r="3.78" fill="#827867" opacity="0.15"/>
<circle cx="37.8" cy="481.5" r="1.08" fill="#d8ccb9" opacity="0.19"/>
<circle cx="123.2" cy="561.6" r="1.75" fill="#0a0b0b" opacity="0.23"/>
<circle cx="208.6" cy="641.7" r="2.43" fill="#827867" opacity="0.26"/>
<circle cx="294.0" cy="721.8" r="3.10" fill="#827867" opacity="0.30"/>
<circle cx="379.4" cy="801.9" r="3.78" fill="#d8ccb9" opacity="0.12"/>
<circle cx="464.8" cy="882.0" r="1.08" fill="#0a0b0b" opacity="0.15"/>
<circle cx="550.2" cy="62.1" r="1.75" fill="#827867" opacity="0.19"/>
<circle cx="635.6" cy="142.2" r="2.43" fill="#827867" opacity="0.23"/>
<circle cx="721.0" cy="222.3" r="3.10" fill="#d8ccb9" opacity="0.26"/>
<circle cx="806.4" cy="302.4" r="3.78" fill="#0a0b0b" opacity="0.30"/>
<circle cx="891.8" cy="382.5" r="1.08" fill="#827867" opacity="0.12"/>
<circle cx="977.2" cy="462.6" r="1.75" fill="#827867" opacity="0.15"/>
<circle cx="1062.6" cy="542.7" r="2.43" fill="#d8ccb9" opacity="0.19"/>
<circle cx="1148.0" cy="622.8" r="3.10" fill="#0a0b0b" opacity="0.23"/>
<circle cx="1233.4" cy="702.9" r="3.78" fill="#827867" opacity="0.26"/>
<circle cx="1318.8" cy="783.0" r="1.08" fill="#827867" opacity="0.30"/>
<circle cx="4.2" cy="863.1" r="1.75" fill="#d8ccb9" opacity="0.12"/>
<circle cx="89.6" cy="43.2" r="2.43" fill="#0a0b0b" opacity="0.15"/>
<circle cx="175.0" cy="123.3" r="3.10" fill="#827867" opacity="0.19"/>
<circle cx="260.4" cy="203.4" r="3.78" fill="#827867" opacity="0.23"/>
<circle cx="345.8" cy="283.5" r="1.08" fill="#d8ccb9" opacity="0.26"/>
<circle cx="431.2" cy="363.6" r="1.75" fill="#0a0b0b" opacity="0.30"/>
<circle cx="516.6" cy="443.7" r="2.43" fill="#827867" opacity="0.12"/>
<circle cx="602.0" cy="523.8" r="3.10" fill="#827867" opacity="0.15"/>
<circle cx="687.4" cy="603.9" r="3.78" fill="#d8ccb9" opacity="0.19"/>
<circle cx="772.8" cy="684.0" r="1.08" fill="#0a0b0b" opacity="0.23"/>
<circle cx="858.2" cy="764.1" r="1.75" fill="#827867" opacity="0.26"/>
<circle cx="943.6" cy="844.2" r="2.43" fill="#827867" opacity="0.30"/>
<circle cx="1029.0" cy="24.3" r="3.10" fill="#d8ccb9" opacity="0.12"/>
<circle cx="1114.4" cy="104.4" r="3.78" fill="#0a0b0b" opacity="0.15"/>
<circle cx="1199.8" cy="184.5" r="1.08" fill="#827867" opacity="0.19"/>
<circle cx="1285.2" cy="264.6" r="1.75" fill="#827867" opacity="0.23"/>
<circle cx="1370.6" cy="344.7" r="2.43" fill="#d8ccb9" opacity="0.26"/>
<circle cx="56.0" cy="424.8" r="3.10" fill="#0a0b0b" opacity="0.30"/>
<circle cx="141.4" cy="504.9" r="3.78" fill="#827867" opacity="0.12"/>
<circle cx="226.8" cy="585.0" r="1.08" fill="#827867" opacity="0.15"/>
<circle cx="312.2" cy="665.1" r="1.75" fill="#d8ccb9" opacity="0.19"/>
<circle cx="397.6" cy="745.2" r="2.43" fill="#0a0b0b" opacity="0.23"/>
<circle cx="483.0" cy="825.3" r="3.10" fill="#827867" opacity="0.26"/>
<circle cx="568.4" cy="5.4" r="3.78" fill="#827867" opacity="0.30"/>
<circle cx="653.8" cy="85.5" r="1.08" fill="#d8ccb9" opacity="0.12"/>
<circle cx="739.2" cy="165.6" r="1.75" fill="#0a0b0b" opacity="0.15"/>
<circle cx="824.6" cy="245.7" r="2.43" fill="#827867" opacity="0.19"/>
<circle cx="910.0" cy="325.8" r="3.10" fill="#827867" opacity="0.23"/>
<circle cx="995.4" cy="405.9" r="3.78" fill="#d8ccb9" opacity="0.26"/>
<circle cx="1080.8" cy="486.0" r="1.08" fill="#0a0b0b" opacity="0.30"/>
<circle cx="1166.2" cy="566.1" r="1.75" fill="#827867" opacity="0.12"/>
<circle cx="1251.6" cy="646.2" r="2.43" fill="#827867" opacity="0.15"/>
<circle cx="1337.0" cy="726.3" r="3.10" fill="#d8ccb9" opacity="0.19"/>
<circle cx="22.4" cy="806.4" r="3.78" fill="#0a0b0b" opacity="0.23"/>
<circle cx="107.8" cy="886.5" r="1.08" fill="#827867" opacity="0.26"/>
<circle cx="193.2" cy="66.6" r="1.75" fill="#827867" opacity="0.30"/>
<circle cx="278.6" cy="146.7" r="2.43" fill="#d8ccb9" opacity="0.12"/>
<circle cx="364.0" cy="226.8" r="3.10" fill="#0a0b0b" opacity="0.15"/>
<circle cx="449.4" cy="306.9" r="3.78" fill="#827867" opacity="0.19"/>
<circle cx="534.8" cy="387.0" r="1.08" fill="#827867" opacity="0.23"/>
<circle cx="620.2" cy="467.1" r="1.75" fill="#d8ccb9" opacity="0.26"/>
<circle cx="705.6" cy="547.2" r="2.43" fill="#0a0b0b" opacity="0.30"/>
<circle cx="791.0" cy="627.3" r="3.10" fill="#827867" opacity="0.12"/>
<circle cx="876.4" cy="707.4" r="3.78" fill="#827867" opacity="0.15"/>
<circle cx="961.8" cy="787.5" r="1.08" fill="#d8ccb9" opacity="0.19"/>
<circle cx="1047.2" cy="867.6" r="1.75" fill="#0a0b0b" opacity="0.23"/>
<circle cx="1132.6" cy="47.7" r="2.43" fill="#827867" opacity="0.26"/>
<circle cx="1218.0" cy="127.8" r="3.10" fill="#827867" opacity="0.30"/>
<circle cx="1303.4" cy="207.9" r="3.78" fill="#d8ccb9" opacity="0.12"/>
<circle cx="1388.8" cy="288.0" r="1.08" fill="#0a0b0b" opacity="0.15"/>
<circle cx="74.2" cy="368.1" r="1.75" fill="#827867" opacity="0.19"/>
<circle cx="159.6" cy="448.2" r="2.43" fill="#827867" opacity="0.23"/>
<circle cx="245.0" cy="528.3" r="3.10" fill="#d8ccb9" opacity="0.26"/>
<circle cx="330.4" cy="608.4" r="3.78" fill="#0a0b0b" opacity="0.30"/>
<circle cx="415.8" cy="688.5" r="1.08" fill="#827867" opacity="0.12"/>
<circle cx="501.2" cy="768.6" r="1.75" fill="#827867" opacity="0.15"/>
<circle cx="586.6" cy="848.7" r="2.43" fill="#d8ccb9" opacity="0.19"/>
<circle cx="672.0" cy="28.8" r="3.10" fill="#0a0b0b" opacity="0.23"/>
<circle cx="757.4" cy="108.9" r="3.78" fill="#827867" opacity="0.26"/>
<circle cx="842.8" cy="189.0" r="1.08" fill="#827867" opacity="0.30"/>
<circle cx="928.2" cy="269.1" r="1.75" fill="#d8ccb9" opacity="0.12"/>
<circle cx="1013.6" cy="349.2" r="2.43" fill="#0a0b0b" opacity="0.15"/>
<circle cx="1099.0" cy="429.3" r="3.10" fill="#827867" opacity="0.19"/>
<circle cx="1184.4" cy="509.4" r="3.78" fill="#827867" opacity="0.23"/>
<circle cx="1269.8" cy="589.5" r="1.08" fill="#d8ccb9" opacity="0.26"/>
<circle cx="1355.2" cy="669.6" r="1.75" fill="#0a0b0b" opacity="0.30"/>
<circle cx="40.6" cy="749.7" r="2.43" fill="#827867" opacity="0.12"/>
<circle cx="126.0" cy="829.8" r="3.10" fill="#827867" opacity="0.15"/>
<circle cx="211.4" cy="9.9" r="3.78" fill="#d8ccb9" opacity="0.19"/>
<circle cx="296.8" cy="90.0" r="1.08" fill="#0a0b0b" opacity="0.23"/>
<circle cx="382.2" cy="170.1" r="1.75" fill="#827867" opacity="0.26"/>
<circle cx="467.6" cy="250.2" r="2.43" fill="#827867" opacity="0.30"/>
  <g transform="translate(168 306) rotate(-34) scale(1.7307692307692308)" opacity="0.78">
    <path d="M0 -78 C42 -48 58 12 4 88 C-44 32 -48 -38 0 -78Z" fill="#151918"/>
    <path d="M0 -62 C10 -20 8 32 0 72" fill="none" stroke="#d4c6ad" stroke-opacity="0.18" stroke-width="2"/>
    <path d="M0 -8 C20 -18 34 -26 48 -42 M0 18 C-22 6 -34 -10 -48 -30 M0 38 C18 32 32 23 45 12" fill="none" stroke="#d4c6ad" stroke-opacity="0.12" stroke-width="1.4"/>
  </g>
  <g transform="translate(1204 558) rotate(28) scale(1.6071428571428572)" opacity="0.78">
    <path d="M0 -78 C42 -48 58 12 4 88 C-44 32 -48 -38 0 -78Z" fill="#2d2923"/>
    <path d="M0 -62 C10 -20 8 32 0 72" fill="none" stroke="#d4c6ad" stroke-opacity="0.18" stroke-width="2"/>
    <path d="M0 -8 C20 -18 34 -26 48 -42 M0 18 C-22 6 -34 -10 -48 -30 M0 38 C18 32 32 23 45 12" fill="none" stroke="#d4c6ad" stroke-opacity="0.12" stroke-width="1.4"/>
  </g>
  <g transform="translate(420 756) rotate(-66) scale(1.3636363636363635)" opacity="0.78">
    <path d="M0 -78 C42 -48 58 12 4 88 C-44 32 -48 -38 0 -78Z" fill="#4b4035"/>
    <path d="M0 -62 C10 -20 8 32 0 72" fill="none" stroke="#d4c6ad" stroke-opacity="0.18" stroke-width="2"/>
    <path d="M0 -8 C20 -18 34 -26 48 -42 M0 18 C-22 6 -34 -10 -48 -30 M0 38 C18 32 32 23 45 12" fill="none" stroke="#d4c6ad" stroke-opacity="0.12" stroke-width="1.4"/>
  </g>
  <g transform="translate(812 144) rotate(96) scale(1.25)" opacity="0.78">
    <path d="M0 -78 C42 -48 58 12 4 88 C-44 32 -48 -38 0 -78Z" fill="#d1c4aa"/>
    <path d="M0 -62 C10 -20 8 32 0 72" fill="none" stroke="#d4c6ad" stroke-opacity="0.18" stroke-width="2"/>
    <path d="M0 -8 C20 -18 34 -26 48 -42 M0 18 C-22 6 -34 -10 -48 -30 M0 38 C18 32 32 23 45 12" fill="none" stroke="#d4c6ad" stroke-opacity="0.12" stroke-width="1.4"/>
  </g>
  <g transform="translate(84 702) rotate(24) scale(1.2857142857142858)" opacity="0.78">
    <path d="M0 -78 C42 -48 58 12 4 88 C-44 32 -48 -38 0 -78Z" fill="#0d1110"/>
    <path d="M0 -62 C10 -20 8 32 0 72" fill="none" stroke="#d4c6ad" stroke-opacity="0.18" stroke-width="2"/>
    <path d="M0 -8 C20 -18 34 -26 48 -42 M0 18 C-22 6 -34 -10 -48 -30 M0 38 C18 32 32 23 45 12" fill="none" stroke="#d4c6ad" stroke-opacity="0.12" stroke-width="1.4"/>
  </g>
  <g transform="rotate(-16 1092 180)" opacity="0.88">
    <ellipse cx="1092" cy="180" rx="162" ry="63.00000000000001" fill="none" stroke="#e8e3d8" stroke-opacity="0.46" stroke-width="5.4"/>
    <ellipse cx="1092" cy="180" rx="103.68" ry="32.760000000000005" fill="#cfc8ba" fill-opacity="0.11" stroke="#2b2d2d" stroke-opacity="0.35" stroke-width="2.7"/>
    <ellipse cx="1062.84" cy="168.66" rx="32.4" ry="6.300000000000001" fill="#fff" opacity="0.20"/>
  </g>
  <g transform="rotate(24 252 162)" opacity="0.88">
    <ellipse cx="252" cy="162" rx="117" ry="45" fill="none" stroke="#e8e3d8" stroke-opacity="0.46" stroke-width="5.4"/>
    <ellipse cx="252" cy="162" rx="74.88" ry="23.400000000000002" fill="#cfc8ba" fill-opacity="0.11" stroke="#2b2d2d" stroke-opacity="0.35" stroke-width="2.7"/>
    <ellipse cx="230.94" cy="153.9" rx="23.400000000000002" ry="4.5" fill="#fff" opacity="0.20"/>
  </g>
  <g transform="rotate(48 1232 432)" opacity="0.88">
    <ellipse cx="1232" cy="432" rx="108" ry="40.5" fill="none" stroke="#e8e3d8" stroke-opacity="0.46" stroke-width="5.4"/>
    <ellipse cx="1232" cy="432" rx="69.12" ry="21.060000000000002" fill="#cfc8ba" fill-opacity="0.11" stroke="#2b2d2d" stroke-opacity="0.35" stroke-width="2.7"/>
    <ellipse cx="1212.56" cy="424.71" rx="21.6" ry="4.05" fill="#fff" opacity="0.20"/>
  </g>

    <g transform="translate(1008 288) rotate(9)" filter="url(#photo-shadow)">
    <rect x="-126.00000000000001" y="-108" width="252.00000000000003" height="216" fill="#f0ebe0" opacity="0.95"/>
    <text x="-95.76" y="-47.52" font-family="Georgia, serif" font-size="18.900000000000002" fill="#151515">CRM LAYER</text>
    <rect x="-95.76" y="-10.8" width="105.84" height="38.879999999999995" fill="#0d1113"/>
    <rect x="-95.76" y="43.2" width="110.07360000000003" height="2" fill="#171717" opacity="0.28"/>
<rect x="-95.76" y="53.784000000000006" width="90.31680000000003" height="2" fill="#171717" opacity="0.335"/>
<rect x="-95.76" y="64.36800000000001" width="70.56000000000002" height="2" fill="#171717" opacity="0.39"/>
<rect x="-95.76" y="74.952" width="110.07360000000003" height="2" fill="#171717" opacity="0.44500000000000006"/>
<rect x="-95.76" y="85.536" width="90.31680000000003" height="2" fill="#171717" opacity="0.5"/>
  </g>
    <g transform="translate(364 252.00000000000003) rotate(-14)" filter="url(#photo-shadow)">
    <rect x="-99" y="-81" width="198" height="162" fill="#f0ebe0" opacity="0.95"/>
    <text x="-75.24" y="-35.64" font-family="Georgia, serif" font-size="14.85" fill="#151515">CRM LAYER</text>
    <rect x="-75.24" y="-8.1" width="83.16" height="29.16" fill="#0d1113"/>
    <rect x="-75.24" y="32.4" width="86.48640000000002" height="2" fill="#171717" opacity="0.28"/>
<rect x="-75.24" y="40.716" width="70.96320000000001" height="2" fill="#171717" opacity="0.335"/>
<rect x="-75.24" y="49.032" width="55.440000000000005" height="2" fill="#171717" opacity="0.39"/>
<rect x="-75.24" y="57.348" width="86.48640000000002" height="2" fill="#171717" opacity="0.44500000000000006"/>
<rect x="-75.24" y="65.664" width="70.96320000000001" height="2" fill="#171717" opacity="0.5"/>
  </g>
    <g transform="translate(1120 630) rotate(-18)" filter="url(#photo-shadow)">
    <rect x="-72" y="-135" width="144" height="270" rx="25.919999999999998" fill="#c9c7c1" opacity="0.88"/>
    <rect x="-66" y="-128" width="132" height="256" rx="20.160000000000004" fill="#f5f2ea" opacity="0.32"/>
    <text x="0" y="-16.2" text-anchor="middle" font-family="Arial, Helvetica, sans-serif" font-size="12.959999999999999" letter-spacing="1.6" fill="#252525" opacity="0.78">AUDIT</text>
    <text x="0" y="43.2" text-anchor="middle" font-family="Arial, Helvetica, sans-serif" font-size="7.92" letter-spacing="1" fill="#555" opacity="0.62">OUTERSCOPE</text>
  </g>
    <g transform="translate(280 630) rotate(15)" filter="url(#photo-shadow)">
    <rect x="-63.00000000000001" y="-112.5" width="126.00000000000001" height="225" rx="22.680000000000003" fill="#c9c7c1" opacity="0.88"/>
    <rect x="-57.00000000000001" y="-105.5" width="114.00000000000001" height="211" rx="17.640000000000004" fill="#f5f2ea" opacity="0.32"/>
    <text x="0" y="-13.5" text-anchor="middle" font-family="Arial, Helvetica, sans-serif" font-size="11.340000000000002" letter-spacing="1.6" fill="#252525" opacity="0.78">OPS</text>
    <text x="0" y="36" text-anchor="middle" font-family="Arial, Helvetica, sans-serif" font-size="6.930000000000001" letter-spacing="1" fill="#555" opacity="0.62">OUTERSCOPE</text>
  </g>

  <g transform="translate(728 450) rotate(-4)" filter="url(#photo-shadow)">
    <rect x="-393.12" y="-243.00000000000003" width="786.24" height="486.00000000000006" rx="19.656000000000002" fill="#080a0b"/>
    <rect x="-361.67040000000003" y="-199.26000000000002" width="723.3408000000001" height="349.92" fill="#e8e3d8"/>
    <text x="-283.0464" y="-121.50000000000001" font-family="Arial Black, Arial, sans-serif" font-size="45.60192" letter-spacing="1.4" fill="#16191b">AUDIT CONSOLE</text>
    <text x="-283.0464" y="-87.48" font-family="Arial, Helvetica, sans-serif" font-size="19.656000000000002" letter-spacing="3" fill="#716759">CRM LAYER</text>
    <rect x="-283.0464" y="-38.88" width="259.4592" height="106.92000000000002" fill="#11171a"/>
    <rect x="23.5872" y="-38.88" width="259.4592" height="106.92000000000002" fill="#d4ccbd"/>
    <rect x="47.1744" y="9.72" width="153.3168" height="2.35872" fill="#171717" opacity="0.28"/>
<rect x="47.1744" y="24.462" width="125.7984" height="2.35872" fill="#171717" opacity="0.335"/>
<rect x="47.1744" y="39.204" width="98.28" height="2.35872" fill="#171717" opacity="0.39"/>
<rect x="47.1744" y="53.946" width="153.3168" height="2.35872" fill="#171717" opacity="0.44500000000000006"/>
<rect x="47.1744" y="68.688" width="125.7984" height="2.35872" fill="#171717" opacity="0.5"/>
    <path d="M-440.29440000000005 204.12 H440.29440000000005 L361.67040000000003 252.72000000000003 H-361.67040000000003Z" fill="#15181a"/>
  </g>
  <rect width="100%" height="100%" fill="#000" opacity="0.14"/>

</svg>
