<svg xmlns="http://www.w3.org/2000/svg" width="300" height="200" viewBox="0 0 300 200" role="img" aria-label="nav TOOLS">
  <defs>
    <linearGradient id="steel" x1="0" y1="0" x2="1" y2="1">
      <stop offset="0" stop-color="#f7fbff"/>
      <stop offset="0.18" stop-color="#8d99a6"/>
      <stop offset="0.48" stop-color="#202832"/>
      <stop offset="0.72" stop-color="#cad7e6"/>
      <stop offset="1" stop-color="#111821"/>
    </linearGradient>
    <linearGradient id="ink" x1="0" y1="0" x2="1" y2="1">
      <stop offset="0" stop-color="#05070a"/>
      <stop offset="0.52" stop-color="#101824"/>
      <stop offset="1" stop-color="#030405"/>
    </linearGradient>
    <radialGradient id="pulse" cx="50%" cy="45%" r="70%">
      <stop offset="0" stop-color="#9bdcf5"/>
      <stop offset="0.26" stop-color="#1f6f91"/>
      <stop offset="0.68" stop-color="#071620"/>
      <stop offset="1" stop-color="#020304"/>
    </radialGradient>
    <filter id="glow" x="-40%" y="-40%" width="180%" height="180%">
      <feGaussianBlur stdDeviation="6" result="blur"/>
      <feColorMatrix in="blur" type="matrix" values="0 0 0 0 0.2 0 0 0 0 0.72 0 0 0 0 1 0 0 0 .8 0"/>
      <feMerge><feMergeNode/><feMergeNode in="SourceGraphic"/></feMerge>
    </filter>
    <pattern id="grid" width="44" height="44" patternUnits="userSpaceOnUse">
      <path d="M44 0H0v44" fill="none" stroke="#ffffff" stroke-opacity="0.08" stroke-width="1"/>
    </pattern>
  </defs>

  <defs>
    <filter id="photo-grain" x="-10%" y="-10%" width="120%" height="120%">
      <feTurbulence type="fractalNoise" baseFrequency="0.82" numOctaves="4" seed="23"/>
      <feColorMatrix type="saturate" values="0"/>
      <feComponentTransfer><feFuncA type="table" tableValues="0 0.34"/></feComponentTransfer>
    </filter>
    <filter id="photo-shadow" x="-40%" y="-40%" width="180%" height="180%">
      <feDropShadow dx="3.5999999999999996" dy="5.2" stdDeviation="3.5999999999999996" flood-color="#000" flood-opacity="0.55"/>
    </filter>
    <radialGradient id="photo-light" cx="28%" cy="18%" r="78%">
      <stop offset="0" stop-color="#d9d1c2" stop-opacity="0.46"/>
      <stop offset="0.42" stop-color="#c7c0b4" stop-opacity="0.16"/>
      <stop offset="1" stop-color="#050607" stop-opacity="1"/>
    </radialGradient>
  </defs>
  <rect width="100%" height="100%" fill="#1d2328"/>
  <rect width="100%" height="100%" fill="url(#photo-light)"/>
  <rect width="100%" height="100%" fill="#fff" filter="url(#photo-grain)" opacity="0.70"/>
  <rect width="100%" height="100%" fill="#000" opacity="0.16"/>
  <ellipse cx="66.6" cy="85.2" rx="20.0" ry="5.0" fill="#ece2d2" opacity="0.025" transform="rotate(21 66.6 85.2)"/>
<ellipse cx="107.7" cy="101.8" rx="27.0" ry="7.8" fill="#ece2d2" opacity="0.035" transform="rotate(-40 107.7 101.8)"/>
<ellipse cx="148.8" cy="118.4" rx="34.0" ry="10.6" fill="#ece2d2" opacity="0.045" transform="rotate(-11 148.8 118.4)"/>
<ellipse cx="189.9" cy="135.0" rx="41.0" ry="5.0" fill="#ece2d2" opacity="0.055" transform="rotate(18 189.9 135.0)"/>
  <circle cx="202.5" cy="91.8" r="0.39" fill="#d8ccb9" opacity="0.12"/>
<circle cx="220.8" cy="109.6" r="0.54" fill="#0a0b0b" opacity="0.15"/>
<circle cx="239.1" cy="127.4" r="0.69" fill="#827867" opacity="0.19"/>
<circle cx="257.4" cy="145.2" r="0.84" fill="#827867" opacity="0.23"/>
<circle cx="275.7" cy="163.0" r="0.24" fill="#d8ccb9" opacity="0.26"/>
<circle cx="294.0" cy="180.8" r="0.39" fill="#0a0b0b" opacity="0.30"/>
<circle cx="12.3" cy="198.6" r="0.54" fill="#827867" opacity="0.12"/>
<circle cx="30.6" cy="16.4" r="0.69" fill="#827867" opacity="0.15"/>
<circle cx="48.9" cy="34.2" r="0.84" fill="#d8ccb9" opacity="0.19"/>
<circle cx="67.2" cy="52.0" r="0.24" fill="#0a0b0b" opacity="0.23"/>
<circle cx="85.5" cy="69.8" r="0.39" fill="#827867" opacity="0.26"/>
<circle cx="103.8" cy="87.6" r="0.54" fill="#827867" opacity="0.30"/>
<circle cx="122.1" cy="105.4" r="0.69" fill="#d8ccb9" opacity="0.12"/>
<circle cx="140.4" cy="123.2" r="0.84" fill="#0a0b0b" opacity="0.15"/>
<circle cx="158.7" cy="141.0" r="0.24" fill="#827867" opacity="0.19"/>
<circle cx="177.0" cy="158.8" r="0.39" fill="#827867" opacity="0.23"/>
<circle cx="195.3" cy="176.6" r="0.54" fill="#d8ccb9" opacity="0.26"/>
<circle cx="213.6" cy="194.4" r="0.69" fill="#0a0b0b" opacity="0.30"/>
<circle cx="231.9" cy="12.2" r="0.84" fill="#827867" opacity="0.12"/>
<circle cx="250.2" cy="30.0" r="0.24" fill="#827867" opacity="0.15"/>
<circle cx="268.5" cy="47.8" r="0.39" fill="#d8ccb9" opacity="0.19"/>
<circle cx="286.8" cy="65.6" r="0.54" fill="#0a0b0b" opacity="0.23"/>
<circle cx="5.1" cy="83.4" r="0.69" fill="#827867" opacity="0.26"/>
<circle cx="23.4" cy="101.2" r="0.84" fill="#827867" opacity="0.30"/>
<circle cx="41.7" cy="119.0" r="0.24" fill="#d8ccb9" opacity="0.12"/>
<circle cx="60.0" cy="136.8" r="0.39" fill="#0a0b0b" opacity="0.15"/>
<circle cx="78.3" cy="154.6" r="0.54" fill="#827867" opacity="0.19"/>
<circle cx="96.6" cy="172.4" r="0.69" fill="#827867" opacity="0.23"/>
<circle cx="114.9" cy="190.2" r="0.84" fill="#d8ccb9" opacity="0.26"/>
<circle cx="133.2" cy="8.0" r="0.24" fill="#0a0b0b" opacity="0.30"/>
<circle cx="151.5" cy="25.8" r="0.39" fill="#827867" opacity="0.12"/>
<circle cx="169.8" cy="43.6" r="0.54" fill="#827867" opacity="0.15"/>
<circle cx="188.1" cy="61.4" r="0.69" fill="#d8ccb9" opacity="0.19"/>
<circle cx="206.4" cy="79.2" r="0.84" fill="#0a0b0b" opacity="0.23"/>
<circle cx="224.7" cy="97.0" r="0.24" fill="#827867" opacity="0.26"/>
<circle cx="243.0" cy="114.8" r="0.39" fill="#827867" opacity="0.30"/>
<circle cx="261.3" cy="132.6" r="0.54" fill="#d8ccb9" opacity="0.12"/>
<circle cx="279.6" cy="150.4" r="0.69" fill="#0a0b0b" opacity="0.15"/>
<circle cx="297.9" cy="168.2" r="0.84" fill="#827867" opacity="0.19"/>
<circle cx="16.2" cy="186.0" r="0.24" fill="#827867" opacity="0.23"/>
<circle cx="34.5" cy="3.8" r="0.39" fill="#d8ccb9" opacity="0.26"/>
<circle cx="52.8" cy="21.6" r="0.54" fill="#0a0b0b" opacity="0.30"/>
  <g transform="translate(36 68) rotate(-34) scale(0.38461538461538464)" opacity="0.78">
    <path d="M0 -78 C42 -48 58 12 4 88 C-44 32 -48 -38 0 -78Z" fill="#151918"/>
    <path d="M0 -62 C10 -20 8 32 0 72" fill="none" stroke="#d4c6ad" stroke-opacity="0.18" stroke-width="2"/>
    <path d="M0 -8 C20 -18 34 -26 48 -42 M0 18 C-22 6 -34 -10 -48 -30 M0 38 C18 32 32 23 45 12" fill="none" stroke="#d4c6ad" stroke-opacity="0.12" stroke-width="1.4"/>
  </g>
  <g transform="translate(258 124) rotate(28) scale(0.35714285714285715)" opacity="0.78">
    <path d="M0 -78 C42 -48 58 12 4 88 C-44 32 -48 -38 0 -78Z" fill="#2d2923"/>
    <path d="M0 -62 C10 -20 8 32 0 72" fill="none" stroke="#d4c6ad" stroke-opacity="0.18" stroke-width="2"/>
    <path d="M0 -8 C20 -18 34 -26 48 -42 M0 18 C-22 6 -34 -10 -48 -30 M0 38 C18 32 32 23 45 12" fill="none" stroke="#d4c6ad" stroke-opacity="0.12" stroke-width="1.4"/>
  </g>
  <g transform="translate(90 168) rotate(-66) scale(0.30303030303030304)" opacity="0.78">
    <path d="M0 -78 C42 -48 58 12 4 88 C-44 32 -48 -38 0 -78Z" fill="#4b4035"/>
    <path d="M0 -62 C10 -20 8 32 0 72" fill="none" stroke="#d4c6ad" stroke-opacity="0.18" stroke-width="2"/>
    <path d="M0 -8 C20 -18 34 -26 48 -42 M0 18 C-22 6 -34 -10 -48 -30 M0 38 C18 32 32 23 45 12" fill="none" stroke="#d4c6ad" stroke-opacity="0.12" stroke-width="1.4"/>
  </g>
  <g transform="translate(174 32) rotate(96) scale(0.2777777777777778)" opacity="0.78">
    <path d="M0 -78 C42 -48 58 12 4 88 C-44 32 -48 -38 0 -78Z" fill="#d1c4aa"/>
    <path d="M0 -62 C10 -20 8 32 0 72" fill="none" stroke="#d4c6ad" stroke-opacity="0.18" stroke-width="2"/>
    <path d="M0 -8 C20 -18 34 -26 48 -42 M0 18 C-22 6 -34 -10 -48 -30 M0 38 C18 32 32 23 45 12" fill="none" stroke="#d4c6ad" stroke-opacity="0.12" stroke-width="1.4"/>
  </g>
  <g transform="translate(18 156) rotate(24) scale(0.2857142857142857)" opacity="0.78">
    <path d="M0 -78 C42 -48 58 12 4 88 C-44 32 -48 -38 0 -78Z" fill="#0d1110"/>
    <path d="M0 -62 C10 -20 8 32 0 72" fill="none" stroke="#d4c6ad" stroke-opacity="0.18" stroke-width="2"/>
    <path d="M0 -8 C20 -18 34 -26 48 -42 M0 18 C-22 6 -34 -10 -48 -30 M0 38 C18 32 32 23 45 12" fill="none" stroke="#d4c6ad" stroke-opacity="0.12" stroke-width="1.4"/>
  </g>
  <g transform="rotate(-16 234 40)" opacity="0.88">
    <ellipse cx="234" cy="40" rx="36" ry="14.000000000000002" fill="none" stroke="#e8e3d8" stroke-opacity="0.46" stroke-width="2"/>
    <ellipse cx="234" cy="40" rx="23.04" ry="7.280000000000001" fill="#cfc8ba" fill-opacity="0.11" stroke="#2b2d2d" stroke-opacity="0.35" stroke-width="1"/>
    <ellipse cx="227.52" cy="37.48" rx="7.2" ry="1.4000000000000004" fill="#fff" opacity="0.20"/>
  </g>
  <g transform="rotate(24 54 36)" opacity="0.88">
    <ellipse cx="54" cy="36" rx="26" ry="10" fill="none" stroke="#e8e3d8" stroke-opacity="0.46" stroke-width="2"/>
    <ellipse cx="54" cy="36" rx="16.64" ry="5.2" fill="#cfc8ba" fill-opacity="0.11" stroke="#2b2d2d" stroke-opacity="0.35" stroke-width="1"/>
    <ellipse cx="49.32" cy="34.2" rx="5.2" ry="1" fill="#fff" opacity="0.20"/>
  </g>
  <g transform="rotate(48 264 96)" opacity="0.88">
    <ellipse cx="264" cy="96" rx="24" ry="9" fill="none" stroke="#e8e3d8" stroke-opacity="0.46" stroke-width="2"/>
    <ellipse cx="264" cy="96" rx="15.36" ry="4.68" fill="#cfc8ba" fill-opacity="0.11" stroke="#2b2d2d" stroke-opacity="0.35" stroke-width="1"/>
    <ellipse cx="259.68" cy="94.38" rx="4.800000000000001" ry="0.9" fill="#fff" opacity="0.20"/>
  </g>

  <g transform="translate(156 100) rotate(-4)" filter="url(#photo-shadow)">
    <rect x="-63.959999999999994" y="-41" width="127.91999999999999" height="82" rx="3.198" fill="#080a0b"/>
    <rect x="-58.843199999999996" y="-33.62" width="117.68639999999999" height="59.04" fill="#e8e3d8"/>
    <text x="-46.051199999999994" y="-20.5" font-family="Arial Black, Arial, sans-serif" font-size="7.419359999999999" letter-spacing="1.4" fill="#16191b">TOOLS</text>
    <text x="-46.051199999999994" y="-14.76" font-family="Arial, Helvetica, sans-serif" font-size="3.198" letter-spacing="3" fill="#716759">OPS COPILOT</text>
    <rect x="-46.051199999999994" y="-6.5600000000000005" width="42.2136" height="18.04" fill="#11171a"/>
    <rect x="3.8375999999999997" y="-6.5600000000000005" width="42.2136" height="18.04" fill="#d4ccbd"/>
    <rect x="7.675199999999999" y="1.6400000000000001" width="24.944399999999998" height="2" fill="#171717" opacity="0.28"/>
<rect x="7.675199999999999" y="4.0385" width="20.4672" height="2" fill="#171717" opacity="0.335"/>
<rect x="7.675199999999999" y="6.436999999999999" width="15.989999999999998" height="2" fill="#171717" opacity="0.39"/>
<rect x="7.675199999999999" y="8.8355" width="24.944399999999998" height="2" fill="#171717" opacity="0.44500000000000006"/>
<rect x="7.675199999999999" y="11.234" width="20.4672" height="2" fill="#171717" opacity="0.5"/>
    <path d="M-71.6352 34.44 H71.6352 L58.843199999999996 42.64 H-58.843199999999996Z" fill="#15181a"/>
  </g>
  <rect width="100%" height="100%" fill="#000" opacity="0.14"/>

</svg>
