<svg xmlns="http://www.w3.org/2000/svg" width="980" height="1250" viewBox="0 0 980 1250" role="img" aria-label="archive Follow-Up Engine">
  <defs>
    <linearGradient id="steel" x1="0" y1="0" x2="1" y2="1">
      <stop offset="0" stop-color="#f7fbff"/>
      <stop offset="0.18" stop-color="#8d99a6"/>
      <stop offset="0.48" stop-color="#202832"/>
      <stop offset="0.72" stop-color="#cad7e6"/>
      <stop offset="1" stop-color="#111821"/>
    </linearGradient>
    <linearGradient id="ink" x1="0" y1="0" x2="1" y2="1">
      <stop offset="0" stop-color="#05070a"/>
      <stop offset="0.52" stop-color="#101824"/>
      <stop offset="1" stop-color="#030405"/>
    </linearGradient>
    <radialGradient id="pulse" cx="50%" cy="45%" r="70%">
      <stop offset="0" stop-color="#9bdcf5"/>
      <stop offset="0.26" stop-color="#1f6f91"/>
      <stop offset="0.68" stop-color="#071620"/>
      <stop offset="1" stop-color="#020304"/>
    </radialGradient>
    <filter id="glow" x="-40%" y="-40%" width="180%" height="180%">
      <feGaussianBlur stdDeviation="6" result="blur"/>
      <feColorMatrix in="blur" type="matrix" values="0 0 0 0 0.2 0 0 0 0 0.72 0 0 0 0 1 0 0 0 .8 0"/>
      <feMerge><feMergeNode/><feMergeNode in="SourceGraphic"/></feMerge>
    </filter>
    <pattern id="grid" width="44" height="44" patternUnits="userSpaceOnUse">
      <path d="M44 0H0v44" fill="none" stroke="#ffffff" stroke-opacity="0.08" stroke-width="1"/>
    </pattern>
  </defs>

  <defs>
    <filter id="photo-grain" x="-10%" y="-10%" width="120%" height="120%">
      <feTurbulence type="fractalNoise" baseFrequency="0.82" numOctaves="4" seed="22"/>
      <feColorMatrix type="saturate" values="0"/>
      <feComponentTransfer><feFuncA type="table" tableValues="0 0.34"/></feComponentTransfer>
    </filter>
    <filter id="photo-shadow" x="-40%" y="-40%" width="180%" height="180%">
      <feDropShadow dx="17.639999999999997" dy="25.48" stdDeviation="17.639999999999997" flood-color="#000" flood-opacity="0.55"/>
    </filter>
    <radialGradient id="photo-light" cx="70%" cy="18%" r="78%">
      <stop offset="0" stop-color="#d9d1c2" stop-opacity="0.46"/>
      <stop offset="0.42" stop-color="#9b8a76" stop-opacity="0.16"/>
      <stop offset="1" stop-color="#050607" stop-opacity="1"/>
    </radialGradient>
  </defs>
  <rect width="100%" height="100%" fill="#343a3c"/>
  <rect width="100%" height="100%" fill="url(#photo-light)"/>
  <rect width="100%" height="100%" fill="#fff" filter="url(#photo-grain)" opacity="0.70"/>
  <rect width="100%" height="100%" fill="#000" opacity="0.06"/>
  <ellipse cx="181.3" cy="443.8" rx="98.0" ry="24.5" fill="#ece2d2" opacity="0.025" transform="rotate(10 181.3 443.8)"/>
<ellipse cx="315.6" cy="547.5" rx="132.3" ry="38.2" fill="#ece2d2" opacity="0.035" transform="rotate(39 315.6 547.5)"/>
<ellipse cx="449.8" cy="651.3" rx="166.6" ry="51.9" fill="#ece2d2" opacity="0.045" transform="rotate(-22 449.8 651.3)"/>
<ellipse cx="584.1" cy="755.0" rx="200.9" ry="24.5" fill="#ece2d2" opacity="0.055" transform="rotate(7 584.1 755.0)"/>
<ellipse cx="718.3" cy="858.8" rx="98.0" ry="38.2" fill="#ece2d2" opacity="0.065" transform="rotate(36 718.3 858.8)"/>
<ellipse cx="852.6" cy="962.5" rx="132.3" ry="51.9" fill="#ece2d2" opacity="0.025" transform="rotate(-25 852.6 962.5)"/>
<ellipse cx="6.9" cy="1066.3" rx="166.6" ry="24.5" fill="#ece2d2" opacity="0.035" transform="rotate(4 6.9 1066.3)"/>
<ellipse cx="141.1" cy="1170.0" rx="200.9" ry="38.2" fill="#ece2d2" opacity="0.045" transform="rotate(33 141.1 1170.0)"/>
<ellipse cx="275.4" cy="23.8" rx="98.0" ry="51.9" fill="#ece2d2" opacity="0.055" transform="rotate(-28 275.4 23.8)"/>
<ellipse cx="409.6" cy="127.5" rx="132.3" ry="24.5" fill="#ece2d2" opacity="0.065" transform="rotate(1 409.6 127.5)"/>
<ellipse cx="543.9" cy="231.3" rx="166.6" ry="38.2" fill="#ece2d2" opacity="0.025" transform="rotate(30 543.9 231.3)"/>
<ellipse cx="678.2" cy="335.0" rx="200.9" ry="51.9" fill="#ece2d2" opacity="0.035" transform="rotate(-31 678.2 335.0)"/>
  <circle cx="688.0" cy="742.5" r="1.18" fill="#d8ccb9" opacity="0.12"/>
<circle cx="747.7" cy="853.8" r="1.91" fill="#0a0b0b" opacity="0.15"/>
<circle cx="807.5" cy="965.0" r="2.65" fill="#827867" opacity="0.19"/>
<circle cx="867.3" cy="1076.3" r="3.38" fill="#827867" opacity="0.23"/>
<circle cx="927.1" cy="1187.5" r="4.12" fill="#d8ccb9" opacity="0.26"/>
<circle cx="6.9" cy="48.8" r="1.18" fill="#0a0b0b" opacity="0.30"/>
<circle cx="66.6" cy="160.0" r="1.91" fill="#827867" opacity="0.12"/>
<circle cx="126.4" cy="271.3" r="2.65" fill="#827867" opacity="0.15"/>
<circle cx="186.2" cy="382.5" r="3.38" fill="#d8ccb9" opacity="0.19"/>
<circle cx="246.0" cy="493.8" r="4.12" fill="#0a0b0b" opacity="0.23"/>
<circle cx="305.8" cy="605.0" r="1.18" fill="#827867" opacity="0.26"/>
<circle cx="365.5" cy="716.2" r="1.91" fill="#827867" opacity="0.30"/>
<circle cx="425.3" cy="827.5" r="2.65" fill="#d8ccb9" opacity="0.12"/>
<circle cx="485.1" cy="938.8" r="3.38" fill="#0a0b0b" opacity="0.15"/>
<circle cx="544.9" cy="1050.0" r="4.12" fill="#827867" opacity="0.19"/>
<circle cx="604.7" cy="1161.3" r="1.18" fill="#827867" opacity="0.23"/>
<circle cx="664.4" cy="22.5" r="1.91" fill="#d8ccb9" opacity="0.26"/>
<circle cx="724.2" cy="133.8" r="2.65" fill="#0a0b0b" opacity="0.30"/>
<circle cx="784.0" cy="245.0" r="3.38" fill="#827867" opacity="0.12"/>
<circle cx="843.8" cy="356.2" r="4.12" fill="#827867" opacity="0.15"/>
<circle cx="903.6" cy="467.5" r="1.18" fill="#d8ccb9" opacity="0.19"/>
<circle cx="963.3" cy="578.8" r="1.91" fill="#0a0b0b" opacity="0.23"/>
<circle cx="43.1" cy="690.0" r="2.65" fill="#827867" opacity="0.26"/>
<circle cx="102.9" cy="801.3" r="3.38" fill="#827867" opacity="0.30"/>
<circle cx="162.7" cy="912.5" r="4.12" fill="#d8ccb9" opacity="0.12"/>
<circle cx="222.5" cy="1023.7" r="1.18" fill="#0a0b0b" opacity="0.15"/>
<circle cx="282.2" cy="1135.0" r="1.91" fill="#827867" opacity="0.19"/>
<circle cx="342.0" cy="1246.3" r="2.65" fill="#827867" opacity="0.23"/>
<circle cx="401.8" cy="107.5" r="3.38" fill="#d8ccb9" opacity="0.26"/>
<circle cx="461.6" cy="218.8" r="4.12" fill="#0a0b0b" opacity="0.30"/>
<circle cx="521.4" cy="330.0" r="1.18" fill="#827867" opacity="0.12"/>
<circle cx="581.1" cy="441.3" r="1.91" fill="#827867" opacity="0.15"/>
<circle cx="640.9" cy="552.5" r="2.65" fill="#d8ccb9" opacity="0.19"/>
<circle cx="700.7" cy="663.8" r="3.38" fill="#0a0b0b" opacity="0.23"/>
<circle cx="760.5" cy="775.0" r="4.12" fill="#827867" opacity="0.26"/>
<circle cx="820.3" cy="886.3" r="1.18" fill="#827867" opacity="0.30"/>
<circle cx="880.0" cy="997.5" r="1.91" fill="#d8ccb9" opacity="0.12"/>
<circle cx="939.8" cy="1108.8" r="2.65" fill="#0a0b0b" opacity="0.15"/>
<circle cx="19.6" cy="1220.0" r="3.38" fill="#827867" opacity="0.19"/>
<circle cx="79.4" cy="81.3" r="4.12" fill="#827867" opacity="0.23"/>
<circle cx="139.2" cy="192.5" r="1.18" fill="#d8ccb9" opacity="0.26"/>
<circle cx="198.9" cy="303.8" r="1.91" fill="#0a0b0b" opacity="0.30"/>
<circle cx="258.7" cy="415.0" r="2.65" fill="#827867" opacity="0.12"/>
<circle cx="318.5" cy="526.3" r="3.38" fill="#827867" opacity="0.15"/>
<circle cx="378.3" cy="637.5" r="4.12" fill="#d8ccb9" opacity="0.19"/>
<circle cx="438.1" cy="748.8" r="1.18" fill="#0a0b0b" opacity="0.23"/>
<circle cx="497.8" cy="860.0" r="1.91" fill="#827867" opacity="0.26"/>
<circle cx="557.6" cy="971.3" r="2.65" fill="#827867" opacity="0.30"/>
<circle cx="617.4" cy="1082.5" r="3.38" fill="#d8ccb9" opacity="0.12"/>
<circle cx="677.2" cy="1193.8" r="4.12" fill="#0a0b0b" opacity="0.15"/>
<circle cx="737.0" cy="55.0" r="1.18" fill="#827867" opacity="0.19"/>
<circle cx="796.7" cy="166.3" r="1.91" fill="#827867" opacity="0.23"/>
<circle cx="856.5" cy="277.5" r="2.65" fill="#d8ccb9" opacity="0.26"/>
<circle cx="916.3" cy="388.8" r="3.38" fill="#0a0b0b" opacity="0.30"/>
<circle cx="976.1" cy="500.0" r="4.12" fill="#827867" opacity="0.12"/>
<circle cx="55.9" cy="611.3" r="1.18" fill="#827867" opacity="0.15"/>
<circle cx="115.6" cy="722.5" r="1.91" fill="#d8ccb9" opacity="0.19"/>
<circle cx="175.4" cy="833.8" r="2.65" fill="#0a0b0b" opacity="0.23"/>
<circle cx="235.2" cy="945.0" r="3.38" fill="#827867" opacity="0.26"/>
<circle cx="295.0" cy="1056.3" r="4.12" fill="#827867" opacity="0.30"/>
<circle cx="354.8" cy="1167.5" r="1.18" fill="#d8ccb9" opacity="0.12"/>
<circle cx="414.5" cy="28.8" r="1.91" fill="#0a0b0b" opacity="0.15"/>
<circle cx="474.3" cy="140.0" r="2.65" fill="#827867" opacity="0.19"/>
<circle cx="534.1" cy="251.3" r="3.38" fill="#827867" opacity="0.23"/>
<circle cx="593.9" cy="362.5" r="4.12" fill="#d8ccb9" opacity="0.26"/>
<circle cx="653.7" cy="473.8" r="1.18" fill="#0a0b0b" opacity="0.30"/>
<circle cx="713.4" cy="585.0" r="1.91" fill="#827867" opacity="0.12"/>
<circle cx="773.2" cy="696.3" r="2.65" fill="#827867" opacity="0.15"/>
<circle cx="833.0" cy="807.5" r="3.38" fill="#d8ccb9" opacity="0.19"/>
<circle cx="892.8" cy="918.8" r="4.12" fill="#0a0b0b" opacity="0.23"/>
<circle cx="952.6" cy="1030.0" r="1.18" fill="#827867" opacity="0.26"/>
<circle cx="32.3" cy="1141.3" r="1.91" fill="#827867" opacity="0.30"/>
<circle cx="92.1" cy="2.5" r="2.65" fill="#d8ccb9" opacity="0.12"/>
<circle cx="151.9" cy="113.8" r="3.38" fill="#0a0b0b" opacity="0.15"/>
<circle cx="211.7" cy="225.0" r="4.12" fill="#827867" opacity="0.19"/>
<circle cx="271.5" cy="336.3" r="1.18" fill="#827867" opacity="0.23"/>
<circle cx="331.2" cy="447.5" r="1.91" fill="#d8ccb9" opacity="0.26"/>
<circle cx="391.0" cy="558.8" r="2.65" fill="#0a0b0b" opacity="0.30"/>
<circle cx="450.8" cy="670.0" r="3.38" fill="#827867" opacity="0.12"/>
<circle cx="510.6" cy="781.3" r="4.12" fill="#827867" opacity="0.15"/>
<circle cx="570.4" cy="892.5" r="1.18" fill="#d8ccb9" opacity="0.19"/>
<circle cx="630.1" cy="1003.8" r="1.91" fill="#0a0b0b" opacity="0.23"/>
<circle cx="689.9" cy="1115.0" r="2.65" fill="#827867" opacity="0.26"/>
<circle cx="749.7" cy="1226.3" r="3.38" fill="#827867" opacity="0.30"/>
<circle cx="809.5" cy="87.5" r="4.12" fill="#d8ccb9" opacity="0.12"/>
<circle cx="869.3" cy="198.8" r="1.18" fill="#0a0b0b" opacity="0.15"/>
<circle cx="929.0" cy="310.0" r="1.91" fill="#827867" opacity="0.19"/>
<circle cx="8.8" cy="421.3" r="2.65" fill="#827867" opacity="0.23"/>
<circle cx="68.6" cy="532.5" r="3.38" fill="#d8ccb9" opacity="0.26"/>
<circle cx="128.4" cy="643.8" r="4.12" fill="#0a0b0b" opacity="0.30"/>
<circle cx="188.2" cy="755.0" r="1.18" fill="#827867" opacity="0.12"/>
<circle cx="247.9" cy="866.2" r="1.91" fill="#827867" opacity="0.15"/>
<circle cx="307.7" cy="977.5" r="2.65" fill="#d8ccb9" opacity="0.19"/>
<circle cx="367.5" cy="1088.8" r="3.38" fill="#0a0b0b" opacity="0.23"/>
<circle cx="427.3" cy="1200.0" r="4.12" fill="#827867" opacity="0.26"/>
<circle cx="487.1" cy="61.3" r="1.18" fill="#827867" opacity="0.30"/>
<circle cx="546.8" cy="172.5" r="1.91" fill="#d8ccb9" opacity="0.12"/>
<circle cx="606.6" cy="283.8" r="2.65" fill="#0a0b0b" opacity="0.15"/>
<circle cx="666.4" cy="395.0" r="3.38" fill="#827867" opacity="0.19"/>
<circle cx="726.2" cy="506.3" r="4.12" fill="#827867" opacity="0.23"/>
<circle cx="786.0" cy="617.5" r="1.18" fill="#d8ccb9" opacity="0.26"/>
<circle cx="845.7" cy="728.8" r="1.91" fill="#0a0b0b" opacity="0.30"/>
<circle cx="905.5" cy="840.0" r="2.65" fill="#827867" opacity="0.12"/>
<circle cx="965.3" cy="951.3" r="3.38" fill="#827867" opacity="0.15"/>
<circle cx="45.1" cy="1062.5" r="4.12" fill="#d8ccb9" opacity="0.19"/>
<circle cx="104.9" cy="1173.8" r="1.18" fill="#0a0b0b" opacity="0.23"/>
<circle cx="164.6" cy="35.0" r="1.91" fill="#827867" opacity="0.26"/>
<circle cx="224.4" cy="146.3" r="2.65" fill="#827867" opacity="0.30"/>
<circle cx="284.2" cy="257.5" r="3.38" fill="#d8ccb9" opacity="0.12"/>
<circle cx="344.0" cy="368.8" r="4.12" fill="#0a0b0b" opacity="0.15"/>
<circle cx="403.8" cy="480.0" r="1.18" fill="#827867" opacity="0.19"/>
<circle cx="463.5" cy="591.3" r="1.91" fill="#827867" opacity="0.23"/>
<circle cx="523.3" cy="702.5" r="2.65" fill="#d8ccb9" opacity="0.26"/>
<circle cx="583.1" cy="813.8" r="3.38" fill="#0a0b0b" opacity="0.30"/>
<circle cx="642.9" cy="925.0" r="4.12" fill="#827867" opacity="0.12"/>
<circle cx="702.7" cy="1036.3" r="1.18" fill="#827867" opacity="0.15"/>
<circle cx="762.4" cy="1147.5" r="1.91" fill="#d8ccb9" opacity="0.19"/>
<circle cx="822.2" cy="8.8" r="2.65" fill="#0a0b0b" opacity="0.23"/>
<circle cx="882.0" cy="120.0" r="3.38" fill="#827867" opacity="0.26"/>
<circle cx="941.8" cy="231.3" r="4.12" fill="#827867" opacity="0.30"/>
<circle cx="21.6" cy="342.5" r="1.18" fill="#d8ccb9" opacity="0.12"/>
<circle cx="81.3" cy="453.8" r="1.91" fill="#0a0b0b" opacity="0.15"/>
<circle cx="141.1" cy="565.0" r="2.65" fill="#827867" opacity="0.19"/>
<circle cx="200.9" cy="676.3" r="3.38" fill="#827867" opacity="0.23"/>
<circle cx="260.7" cy="787.5" r="4.12" fill="#d8ccb9" opacity="0.26"/>
<circle cx="320.5" cy="898.8" r="1.18" fill="#0a0b0b" opacity="0.30"/>
<circle cx="380.2" cy="1010.0" r="1.91" fill="#827867" opacity="0.12"/>
<circle cx="440.0" cy="1121.3" r="2.65" fill="#827867" opacity="0.15"/>
<circle cx="499.8" cy="1232.5" r="3.38" fill="#d8ccb9" opacity="0.19"/>
<circle cx="559.6" cy="93.8" r="4.12" fill="#0a0b0b" opacity="0.23"/>
<circle cx="619.4" cy="205.0" r="1.18" fill="#827867" opacity="0.26"/>
<circle cx="679.1" cy="316.3" r="1.91" fill="#827867" opacity="0.30"/>
<circle cx="738.9" cy="427.5" r="2.65" fill="#d8ccb9" opacity="0.12"/>
<circle cx="798.7" cy="538.8" r="3.38" fill="#0a0b0b" opacity="0.15"/>
<circle cx="858.5" cy="650.0" r="4.12" fill="#827867" opacity="0.19"/>
<circle cx="918.3" cy="761.3" r="1.18" fill="#827867" opacity="0.23"/>
<circle cx="978.0" cy="872.5" r="1.91" fill="#d8ccb9" opacity="0.26"/>
<circle cx="57.8" cy="983.8" r="2.65" fill="#0a0b0b" opacity="0.30"/>
<circle cx="117.6" cy="1095.0" r="3.38" fill="#827867" opacity="0.12"/>
<circle cx="177.4" cy="1206.3" r="4.12" fill="#827867" opacity="0.15"/>
<circle cx="237.2" cy="67.5" r="1.18" fill="#d8ccb9" opacity="0.19"/>
<circle cx="296.9" cy="178.7" r="1.91" fill="#0a0b0b" opacity="0.23"/>
<circle cx="356.7" cy="290.0" r="2.65" fill="#827867" opacity="0.26"/>
<circle cx="416.5" cy="401.3" r="3.38" fill="#827867" opacity="0.30"/>
<circle cx="476.3" cy="512.5" r="4.12" fill="#d8ccb9" opacity="0.12"/>
<circle cx="536.1" cy="623.8" r="1.18" fill="#0a0b0b" opacity="0.15"/>
<circle cx="595.8" cy="735.0" r="1.91" fill="#827867" opacity="0.19"/>
<circle cx="655.6" cy="846.3" r="2.65" fill="#827867" opacity="0.23"/>
<circle cx="715.4" cy="957.5" r="3.38" fill="#d8ccb9" opacity="0.26"/>
<circle cx="775.2" cy="1068.8" r="4.12" fill="#0a0b0b" opacity="0.30"/>
<circle cx="835.0" cy="1180.0" r="1.18" fill="#827867" opacity="0.12"/>
<circle cx="894.7" cy="41.3" r="1.91" fill="#827867" opacity="0.15"/>
<circle cx="954.5" cy="152.5" r="2.65" fill="#d8ccb9" opacity="0.19"/>
<circle cx="34.3" cy="263.8" r="3.38" fill="#0a0b0b" opacity="0.23"/>
<circle cx="94.1" cy="375.0" r="4.12" fill="#827867" opacity="0.26"/>
<circle cx="153.9" cy="486.3" r="1.18" fill="#827867" opacity="0.30"/>
<circle cx="213.6" cy="597.5" r="1.91" fill="#d8ccb9" opacity="0.12"/>
<circle cx="273.4" cy="708.7" r="2.65" fill="#0a0b0b" opacity="0.15"/>
<circle cx="333.2" cy="820.0" r="3.38" fill="#827867" opacity="0.19"/>
<circle cx="393.0" cy="931.3" r="4.12" fill="#827867" opacity="0.23"/>
<circle cx="452.8" cy="1042.5" r="1.18" fill="#d8ccb9" opacity="0.26"/>
<circle cx="512.5" cy="1153.8" r="1.91" fill="#0a0b0b" opacity="0.30"/>
<circle cx="572.3" cy="15.0" r="2.65" fill="#827867" opacity="0.12"/>
<circle cx="632.1" cy="126.3" r="3.38" fill="#827867" opacity="0.15"/>
<circle cx="691.9" cy="237.5" r="4.12" fill="#d8ccb9" opacity="0.19"/>
<circle cx="751.7" cy="348.8" r="1.18" fill="#0a0b0b" opacity="0.23"/>
<circle cx="811.4" cy="460.0" r="1.91" fill="#827867" opacity="0.26"/>
<circle cx="871.2" cy="571.3" r="2.65" fill="#827867" opacity="0.30"/>
<circle cx="931.0" cy="682.5" r="3.38" fill="#d8ccb9" opacity="0.12"/>
<circle cx="10.8" cy="793.8" r="4.12" fill="#0a0b0b" opacity="0.15"/>
<circle cx="70.6" cy="905.0" r="1.18" fill="#827867" opacity="0.19"/>
<circle cx="130.3" cy="1016.2" r="1.91" fill="#827867" opacity="0.23"/>
<circle cx="190.1" cy="1127.5" r="2.65" fill="#d8ccb9" opacity="0.26"/>
<circle cx="249.9" cy="1238.8" r="3.38" fill="#0a0b0b" opacity="0.30"/>
<circle cx="309.7" cy="100.0" r="4.12" fill="#827867" opacity="0.12"/>
<circle cx="369.5" cy="211.3" r="1.18" fill="#827867" opacity="0.15"/>
<circle cx="429.2" cy="322.5" r="1.91" fill="#d8ccb9" opacity="0.19"/>
<circle cx="489.0" cy="433.7" r="2.65" fill="#0a0b0b" opacity="0.23"/>
<circle cx="548.8" cy="545.0" r="3.38" fill="#827867" opacity="0.26"/>
<circle cx="608.6" cy="656.3" r="4.12" fill="#827867" opacity="0.30"/>
<circle cx="668.4" cy="767.5" r="1.18" fill="#d8ccb9" opacity="0.12"/>
<circle cx="728.1" cy="878.8" r="1.91" fill="#0a0b0b" opacity="0.15"/>
<circle cx="787.9" cy="990.0" r="2.65" fill="#827867" opacity="0.19"/>
<circle cx="847.7" cy="1101.3" r="3.38" fill="#827867" opacity="0.23"/>
<circle cx="907.5" cy="1212.5" r="4.12" fill="#d8ccb9" opacity="0.26"/>
<circle cx="967.3" cy="73.8" r="1.18" fill="#0a0b0b" opacity="0.30"/>
<circle cx="47.0" cy="185.0" r="1.91" fill="#827867" opacity="0.12"/>
<circle cx="106.8" cy="296.3" r="2.65" fill="#827867" opacity="0.15"/>
<circle cx="166.6" cy="407.5" r="3.38" fill="#d8ccb9" opacity="0.19"/>
<circle cx="226.4" cy="518.8" r="4.12" fill="#0a0b0b" opacity="0.23"/>
<circle cx="286.2" cy="630.0" r="1.18" fill="#827867" opacity="0.26"/>
<circle cx="345.9" cy="741.3" r="1.91" fill="#827867" opacity="0.30"/>
<circle cx="405.7" cy="852.5" r="2.65" fill="#d8ccb9" opacity="0.12"/>
<circle cx="465.5" cy="963.8" r="3.38" fill="#0a0b0b" opacity="0.15"/>
<circle cx="525.3" cy="1075.0" r="4.12" fill="#827867" opacity="0.19"/>
<circle cx="585.1" cy="1186.3" r="1.18" fill="#827867" opacity="0.23"/>
<circle cx="644.8" cy="47.5" r="1.91" fill="#d8ccb9" opacity="0.26"/>
<circle cx="704.6" cy="158.8" r="2.65" fill="#0a0b0b" opacity="0.30"/>
<circle cx="764.4" cy="270.0" r="3.38" fill="#827867" opacity="0.12"/>
<circle cx="824.2" cy="381.3" r="4.12" fill="#827867" opacity="0.15"/>
<circle cx="884.0" cy="492.5" r="1.18" fill="#d8ccb9" opacity="0.19"/>
<circle cx="943.7" cy="603.8" r="1.91" fill="#0a0b0b" opacity="0.23"/>
<circle cx="23.5" cy="715.0" r="2.65" fill="#827867" opacity="0.26"/>
<circle cx="83.3" cy="826.3" r="3.38" fill="#827867" opacity="0.30"/>
<circle cx="143.1" cy="937.5" r="4.12" fill="#d8ccb9" opacity="0.12"/>
<circle cx="202.9" cy="1048.8" r="1.18" fill="#0a0b0b" opacity="0.15"/>
<circle cx="262.6" cy="1160.0" r="1.91" fill="#827867" opacity="0.19"/>
<circle cx="322.4" cy="21.3" r="2.65" fill="#827867" opacity="0.23"/>
<circle cx="382.2" cy="132.5" r="3.38" fill="#d8ccb9" opacity="0.26"/>
<circle cx="442.0" cy="243.8" r="4.12" fill="#0a0b0b" opacity="0.30"/>
<circle cx="501.8" cy="355.0" r="1.18" fill="#827867" opacity="0.12"/>
<circle cx="561.5" cy="466.3" r="1.91" fill="#827867" opacity="0.15"/>
<circle cx="621.3" cy="577.5" r="2.65" fill="#d8ccb9" opacity="0.19"/>
<circle cx="681.1" cy="688.8" r="3.38" fill="#0a0b0b" opacity="0.23"/>
<circle cx="740.9" cy="800.0" r="4.12" fill="#827867" opacity="0.26"/>
<circle cx="800.7" cy="911.3" r="1.18" fill="#827867" opacity="0.30"/>
<circle cx="860.4" cy="1022.5" r="1.91" fill="#d8ccb9" opacity="0.12"/>
<circle cx="920.2" cy="1133.8" r="2.65" fill="#0a0b0b" opacity="0.15"/>
<circle cx="0.0" cy="1245.0" r="3.38" fill="#827867" opacity="0.19"/>
<circle cx="59.8" cy="106.3" r="4.12" fill="#827867" opacity="0.23"/>
  <g transform="translate(117.6 425.00000000000006) rotate(-34) scale(1.8846153846153846)" opacity="0.78">
    <path d="M0 -78 C42 -48 58 12 4 88 C-44 32 -48 -38 0 -78Z" fill="#151918"/>
    <path d="M0 -62 C10 -20 8 32 0 72" fill="none" stroke="#d4c6ad" stroke-opacity="0.18" stroke-width="2"/>
    <path d="M0 -8 C20 -18 34 -26 48 -42 M0 18 C-22 6 -34 -10 -48 -30 M0 38 C18 32 32 23 45 12" fill="none" stroke="#d4c6ad" stroke-opacity="0.12" stroke-width="1.4"/>
  </g>
  <g transform="translate(842.8 775) rotate(28) scale(1.75)" opacity="0.78">
    <path d="M0 -78 C42 -48 58 12 4 88 C-44 32 -48 -38 0 -78Z" fill="#2d2923"/>
    <path d="M0 -62 C10 -20 8 32 0 72" fill="none" stroke="#d4c6ad" stroke-opacity="0.18" stroke-width="2"/>
    <path d="M0 -8 C20 -18 34 -26 48 -42 M0 18 C-22 6 -34 -10 -48 -30 M0 38 C18 32 32 23 45 12" fill="none" stroke="#d4c6ad" stroke-opacity="0.12" stroke-width="1.4"/>
  </g>
  <g transform="translate(294 1050) rotate(-66) scale(1.4848484848484849)" opacity="0.78">
    <path d="M0 -78 C42 -48 58 12 4 88 C-44 32 -48 -38 0 -78Z" fill="#4b4035"/>
    <path d="M0 -62 C10 -20 8 32 0 72" fill="none" stroke="#d4c6ad" stroke-opacity="0.18" stroke-width="2"/>
    <path d="M0 -8 C20 -18 34 -26 48 -42 M0 18 C-22 6 -34 -10 -48 -30 M0 38 C18 32 32 23 45 12" fill="none" stroke="#d4c6ad" stroke-opacity="0.12" stroke-width="1.4"/>
  </g>
  <g transform="translate(568.4 200) rotate(96) scale(1.3611111111111112)" opacity="0.78">
    <path d="M0 -78 C42 -48 58 12 4 88 C-44 32 -48 -38 0 -78Z" fill="#d1c4aa"/>
    <path d="M0 -62 C10 -20 8 32 0 72" fill="none" stroke="#d4c6ad" stroke-opacity="0.18" stroke-width="2"/>
    <path d="M0 -8 C20 -18 34 -26 48 -42 M0 18 C-22 6 -34 -10 -48 -30 M0 38 C18 32 32 23 45 12" fill="none" stroke="#d4c6ad" stroke-opacity="0.12" stroke-width="1.4"/>
  </g>
  <g transform="translate(58.8 975) rotate(24) scale(1.4)" opacity="0.78">
    <path d="M0 -78 C42 -48 58 12 4 88 C-44 32 -48 -38 0 -78Z" fill="#0d1110"/>
    <path d="M0 -62 C10 -20 8 32 0 72" fill="none" stroke="#d4c6ad" stroke-opacity="0.18" stroke-width="2"/>
    <path d="M0 -8 C20 -18 34 -26 48 -42 M0 18 C-22 6 -34 -10 -48 -30 M0 38 C18 32 32 23 45 12" fill="none" stroke="#d4c6ad" stroke-opacity="0.12" stroke-width="1.4"/>
  </g>
  <g transform="rotate(-16 764.4 250)" opacity="0.88">
    <ellipse cx="764.4" cy="250" rx="176.4" ry="68.60000000000001" fill="none" stroke="#e8e3d8" stroke-opacity="0.46" stroke-width="5.88"/>
    <ellipse cx="764.4" cy="250" rx="112.896" ry="35.672000000000004" fill="#cfc8ba" fill-opacity="0.11" stroke="#2b2d2d" stroke-opacity="0.35" stroke-width="2.94"/>
    <ellipse cx="732.648" cy="237.652" rx="35.28" ry="6.860000000000001" fill="#fff" opacity="0.20"/>
  </g>
  <g transform="rotate(24 176.4 225)" opacity="0.88">
    <ellipse cx="176.4" cy="225" rx="127.4" ry="49" fill="none" stroke="#e8e3d8" stroke-opacity="0.46" stroke-width="5.88"/>
    <ellipse cx="176.4" cy="225" rx="81.536" ry="25.48" fill="#cfc8ba" fill-opacity="0.11" stroke="#2b2d2d" stroke-opacity="0.35" stroke-width="2.94"/>
    <ellipse cx="153.46800000000002" cy="216.18" rx="25.480000000000004" ry="4.9" fill="#fff" opacity="0.20"/>
  </g>
  <g transform="rotate(48 862.4 600)" opacity="0.88">
    <ellipse cx="862.4" cy="600" rx="117.6" ry="44.1" fill="none" stroke="#e8e3d8" stroke-opacity="0.46" stroke-width="5.88"/>
    <ellipse cx="862.4" cy="600" rx="75.264" ry="22.932000000000002" fill="#cfc8ba" fill-opacity="0.11" stroke="#2b2d2d" stroke-opacity="0.35" stroke-width="2.94"/>
    <ellipse cx="841.232" cy="592.062" rx="23.52" ry="4.41" fill="#fff" opacity="0.20"/>
  </g>

    <g transform="translate(705.6 400) rotate(9)" filter="url(#photo-shadow)">
    <rect x="-137.20000000000002" y="-117.6" width="274.40000000000003" height="235.2" fill="#f0ebe0" opacity="0.95"/>
    <text x="-104.27200000000002" y="-51.744" font-family="Georgia, serif" font-size="20.580000000000002" fill="#151515">FOLLOW UP</text>
    <rect x="-104.27200000000002" y="-11.76" width="115.248" height="42.336" fill="#0d1113"/>
    <rect x="-104.27200000000002" y="47.04" width="119.85792000000004" height="2" fill="#171717" opacity="0.28"/>
<rect x="-104.27200000000002" y="58.564800000000005" width="98.34496000000003" height="2" fill="#171717" opacity="0.335"/>
<rect x="-104.27200000000002" y="70.0896" width="76.83200000000002" height="2" fill="#171717" opacity="0.39"/>
<rect x="-104.27200000000002" y="81.61440000000002" width="119.85792000000004" height="2" fill="#171717" opacity="0.44500000000000006"/>
<rect x="-104.27200000000002" y="93.13920000000002" width="98.34496000000003" height="2" fill="#171717" opacity="0.5"/>
  </g>
    <g transform="translate(254.8 350.00000000000006) rotate(-14)" filter="url(#photo-shadow)">
    <rect x="-107.8" y="-88.2" width="215.6" height="176.4" fill="#f0ebe0" opacity="0.95"/>
    <text x="-81.928" y="-38.808" font-family="Georgia, serif" font-size="16.169999999999998" fill="#151515">FOLLOW UP</text>
    <rect x="-81.928" y="-8.82" width="90.55199999999999" height="31.752" fill="#0d1113"/>
    <rect x="-81.928" y="35.28" width="94.17408" height="2" fill="#171717" opacity="0.28"/>
<rect x="-81.928" y="44.3352" width="77.27104" height="2" fill="#171717" opacity="0.335"/>
<rect x="-81.928" y="53.3904" width="60.368" height="2" fill="#171717" opacity="0.39"/>
<rect x="-81.928" y="62.4456" width="94.17408" height="2" fill="#171717" opacity="0.44500000000000006"/>
<rect x="-81.928" y="71.5008" width="77.27104" height="2" fill="#171717" opacity="0.5"/>
  </g>
    <g transform="translate(784 875) rotate(-18)" filter="url(#photo-shadow)">
    <rect x="-78.4" y="-147" width="156.8" height="294" rx="28.224" fill="#c9c7c1" opacity="0.88"/>
    <rect x="-72.4" y="-140" width="144.8" height="280" rx="21.952000000000005" fill="#f5f2ea" opacity="0.32"/>
    <text x="0" y="-17.64" text-anchor="middle" font-family="Arial, Helvetica, sans-serif" font-size="14.112" letter-spacing="1.6" fill="#252525" opacity="0.78">AUDIT</text>
    <text x="0" y="47.04" text-anchor="middle" font-family="Arial, Helvetica, sans-serif" font-size="8.624" letter-spacing="1" fill="#555" opacity="0.62">OUTERSCOPE</text>
  </g>
    <g transform="translate(196 875) rotate(15)" filter="url(#photo-shadow)">
    <rect x="-68.60000000000001" y="-122.5" width="137.20000000000002" height="245" rx="24.696" fill="#c9c7c1" opacity="0.88"/>
    <rect x="-62.60000000000001" y="-115.5" width="125.20000000000002" height="231" rx="19.208000000000006" fill="#f5f2ea" opacity="0.32"/>
    <text x="0" y="-14.7" text-anchor="middle" font-family="Arial, Helvetica, sans-serif" font-size="12.348" letter-spacing="1.6" fill="#252525" opacity="0.78">OPS</text>
    <text x="0" y="39.2" text-anchor="middle" font-family="Arial, Helvetica, sans-serif" font-size="7.546000000000001" letter-spacing="1" fill="#555" opacity="0.62">OUTERSCOPE</text>
  </g>

  <g transform="translate(470.4 625) rotate(2)" filter="url(#photo-shadow)">
    <rect x="-185.024" y="-381.612" width="370.048" height="763.224" rx="48.10624" fill="#080a0b"/>
    <rect x="-164.67136" y="-355.70864" width="329.34272" height="711.41728" rx="35.154560000000004" fill="#ece8dd"/>
    <rect x="-74.0096" y="-372.36080000000004" width="148.0192" height="12.951680000000001" rx="7.40096" fill="#171717"/>
    <text x="0" y="-221.33496" text-anchor="middle" font-family="Georgia, serif" font-size="38.855039999999995" letter-spacing="2" fill="#2a2a27">FOLLOW-UP ENGINE</text>
    <text x="0" y="-160.27704" text-anchor="middle" font-family="Arial, Helvetica, sans-serif" font-size="20.35264" letter-spacing="4" fill="#7d7466">FOLLOW UP</text>
    <rect x="-118.41536" y="-83.95464000000001" width="236.83072" height="190.806" fill="#0d1113" opacity="0.88"/>
    <text x="0" y="-3.81612" text-anchor="middle" font-family="Arial Black, Arial, sans-serif" font-size="33.30432" letter-spacing="1.6" fill="#f7f4ea">OS</text>
    <rect x="-107.31392" y="152.6448" width="173.182464" height="2.6643456" fill="#171717" opacity="0.28"/>
<rect x="-107.31392" y="169.29696" width="142.098432" height="2.6643456" fill="#171717" opacity="0.335"/>
<rect x="-107.31392" y="185.94912" width="111.0144" height="2.6643456" fill="#171717" opacity="0.39"/>
<rect x="-107.31392" y="202.60128" width="173.182464" height="2.6643456" fill="#171717" opacity="0.44500000000000006"/>
<rect x="-107.31392" y="219.25344" width="142.098432" height="2.6643456" fill="#171717" opacity="0.5"/>
    <rect x="-107.31392" y="267.1284" width="214.62784" height="57.241800000000005" fill="#d8d0c2" opacity="0.65"/>
  </g>
  <rect width="100%" height="100%" fill="#000" opacity="0.14"/>

</svg>
