<svg xmlns="http://www.w3.org/2000/svg" width="420" height="220" viewBox="0 0 420 220" role="img" aria-label="nav Staff Copilot">
  <defs>
    <linearGradient id="steel" x1="0" y1="0" x2="1" y2="1">
      <stop offset="0" stop-color="#f7fbff"/>
      <stop offset="0.18" stop-color="#8d99a6"/>
      <stop offset="0.48" stop-color="#202832"/>
      <stop offset="0.72" stop-color="#cad7e6"/>
      <stop offset="1" stop-color="#111821"/>
    </linearGradient>
    <linearGradient id="ink" x1="0" y1="0" x2="1" y2="1">
      <stop offset="0" stop-color="#05070a"/>
      <stop offset="0.52" stop-color="#101824"/>
      <stop offset="1" stop-color="#030405"/>
    </linearGradient>
    <radialGradient id="pulse" cx="50%" cy="45%" r="70%">
      <stop offset="0" stop-color="#9bdcf5"/>
      <stop offset="0.26" stop-color="#1f6f91"/>
      <stop offset="0.68" stop-color="#071620"/>
      <stop offset="1" stop-color="#020304"/>
    </radialGradient>
    <filter id="glow" x="-40%" y="-40%" width="180%" height="180%">
      <feGaussianBlur stdDeviation="6" result="blur"/>
      <feColorMatrix in="blur" type="matrix" values="0 0 0 0 0.2 0 0 0 0 0.72 0 0 0 0 1 0 0 0 .8 0"/>
      <feMerge><feMergeNode/><feMergeNode in="SourceGraphic"/></feMerge>
    </filter>
    <pattern id="grid" width="44" height="44" patternUnits="userSpaceOnUse">
      <path d="M44 0H0v44" fill="none" stroke="#ffffff" stroke-opacity="0.08" stroke-width="1"/>
    </pattern>
  </defs>

  <defs>
    <filter id="photo-grain" x="-10%" y="-10%" width="120%" height="120%">
      <feTurbulence type="fractalNoise" baseFrequency="0.82" numOctaves="4" seed="23"/>
      <feColorMatrix type="saturate" values="0"/>
      <feComponentTransfer><feFuncA type="table" tableValues="0 0.34"/></feComponentTransfer>
    </filter>
    <filter id="photo-shadow" x="-40%" y="-40%" width="180%" height="180%">
      <feDropShadow dx="3.9599999999999995" dy="5.72" stdDeviation="3.9599999999999995" flood-color="#000" flood-opacity="0.55"/>
    </filter>
    <radialGradient id="photo-light" cx="28%" cy="18%" r="78%">
      <stop offset="0" stop-color="#d9d1c2" stop-opacity="0.46"/>
      <stop offset="0.42" stop-color="#c7c0b4" stop-opacity="0.16"/>
      <stop offset="1" stop-color="#050607" stop-opacity="1"/>
    </radialGradient>
  </defs>
  <rect width="100%" height="100%" fill="#1d2328"/>
  <rect width="100%" height="100%" fill="url(#photo-light)"/>
  <rect width="100%" height="100%" fill="#fff" filter="url(#photo-grain)" opacity="0.70"/>
  <rect width="100%" height="100%" fill="#000" opacity="0.16"/>
  <ellipse cx="93.2" cy="93.7" rx="22.0" ry="5.5" fill="#ece2d2" opacity="0.025" transform="rotate(21 93.2 93.7)"/>
<ellipse cx="150.8" cy="112.0" rx="29.7" ry="8.6" fill="#ece2d2" opacity="0.035" transform="rotate(-40 150.8 112.0)"/>
<ellipse cx="208.3" cy="130.2" rx="37.4" ry="11.7" fill="#ece2d2" opacity="0.045" transform="rotate(-11 208.3 130.2)"/>
<ellipse cx="265.9" cy="148.5" rx="45.1" ry="5.5" fill="#ece2d2" opacity="0.055" transform="rotate(18 265.9 148.5)"/>
  <circle cx="283.5" cy="101.0" r="0.43" fill="#d8ccb9" opacity="0.12"/>
<circle cx="309.1" cy="120.6" r="0.59" fill="#0a0b0b" opacity="0.15"/>
<circle cx="334.7" cy="140.1" r="0.76" fill="#827867" opacity="0.19"/>
<circle cx="360.4" cy="159.7" r="0.92" fill="#827867" opacity="0.23"/>
<circle cx="386.0" cy="179.3" r="0.26" fill="#d8ccb9" opacity="0.26"/>
<circle cx="411.6" cy="198.9" r="0.43" fill="#0a0b0b" opacity="0.30"/>
<circle cx="17.2" cy="218.5" r="0.59" fill="#827867" opacity="0.12"/>
<circle cx="42.8" cy="18.0" r="0.76" fill="#827867" opacity="0.15"/>
<circle cx="68.5" cy="37.6" r="0.92" fill="#d8ccb9" opacity="0.19"/>
<circle cx="94.1" cy="57.2" r="0.26" fill="#0a0b0b" opacity="0.23"/>
<circle cx="119.7" cy="76.8" r="0.43" fill="#827867" opacity="0.26"/>
<circle cx="145.3" cy="96.4" r="0.59" fill="#827867" opacity="0.30"/>
<circle cx="170.9" cy="115.9" r="0.76" fill="#d8ccb9" opacity="0.12"/>
<circle cx="196.6" cy="135.5" r="0.92" fill="#0a0b0b" opacity="0.15"/>
<circle cx="222.2" cy="155.1" r="0.26" fill="#827867" opacity="0.19"/>
<circle cx="247.8" cy="174.7" r="0.43" fill="#827867" opacity="0.23"/>
<circle cx="273.4" cy="194.3" r="0.59" fill="#d8ccb9" opacity="0.26"/>
<circle cx="299.0" cy="213.8" r="0.76" fill="#0a0b0b" opacity="0.30"/>
<circle cx="324.7" cy="13.4" r="0.92" fill="#827867" opacity="0.12"/>
<circle cx="350.3" cy="33.0" r="0.26" fill="#827867" opacity="0.15"/>
<circle cx="375.9" cy="52.6" r="0.43" fill="#d8ccb9" opacity="0.19"/>
<circle cx="401.5" cy="72.2" r="0.59" fill="#0a0b0b" opacity="0.23"/>
<circle cx="7.1" cy="91.7" r="0.76" fill="#827867" opacity="0.26"/>
<circle cx="32.8" cy="111.3" r="0.92" fill="#827867" opacity="0.30"/>
<circle cx="58.4" cy="130.9" r="0.26" fill="#d8ccb9" opacity="0.12"/>
<circle cx="84.0" cy="150.5" r="0.43" fill="#0a0b0b" opacity="0.15"/>
<circle cx="109.6" cy="170.1" r="0.59" fill="#827867" opacity="0.19"/>
<circle cx="135.2" cy="189.6" r="0.76" fill="#827867" opacity="0.23"/>
<circle cx="160.9" cy="209.2" r="0.92" fill="#d8ccb9" opacity="0.26"/>
<circle cx="186.5" cy="8.8" r="0.26" fill="#0a0b0b" opacity="0.30"/>
<circle cx="212.1" cy="28.4" r="0.43" fill="#827867" opacity="0.12"/>
<circle cx="237.7" cy="48.0" r="0.59" fill="#827867" opacity="0.15"/>
<circle cx="263.3" cy="67.5" r="0.76" fill="#d8ccb9" opacity="0.19"/>
<circle cx="289.0" cy="87.1" r="0.92" fill="#0a0b0b" opacity="0.23"/>
<circle cx="314.6" cy="106.7" r="0.26" fill="#827867" opacity="0.26"/>
<circle cx="340.2" cy="126.3" r="0.43" fill="#827867" opacity="0.30"/>
<circle cx="365.8" cy="145.9" r="0.59" fill="#d8ccb9" opacity="0.12"/>
<circle cx="391.4" cy="165.4" r="0.76" fill="#0a0b0b" opacity="0.15"/>
<circle cx="417.1" cy="185.0" r="0.92" fill="#827867" opacity="0.19"/>
<circle cx="22.7" cy="204.6" r="0.26" fill="#827867" opacity="0.23"/>
<circle cx="48.3" cy="4.2" r="0.43" fill="#d8ccb9" opacity="0.26"/>
<circle cx="73.9" cy="23.8" r="0.59" fill="#0a0b0b" opacity="0.30"/>
  <g transform="translate(50.4 74.80000000000001) rotate(-34) scale(0.4230769230769231)" opacity="0.78">
    <path d="M0 -78 C42 -48 58 12 4 88 C-44 32 -48 -38 0 -78Z" fill="#151918"/>
    <path d="M0 -62 C10 -20 8 32 0 72" fill="none" stroke="#d4c6ad" stroke-opacity="0.18" stroke-width="2"/>
    <path d="M0 -8 C20 -18 34 -26 48 -42 M0 18 C-22 6 -34 -10 -48 -30 M0 38 C18 32 32 23 45 12" fill="none" stroke="#d4c6ad" stroke-opacity="0.12" stroke-width="1.4"/>
  </g>
  <g transform="translate(361.2 136.4) rotate(28) scale(0.39285714285714285)" opacity="0.78">
    <path d="M0 -78 C42 -48 58 12 4 88 C-44 32 -48 -38 0 -78Z" fill="#2d2923"/>
    <path d="M0 -62 C10 -20 8 32 0 72" fill="none" stroke="#d4c6ad" stroke-opacity="0.18" stroke-width="2"/>
    <path d="M0 -8 C20 -18 34 -26 48 -42 M0 18 C-22 6 -34 -10 -48 -30 M0 38 C18 32 32 23 45 12" fill="none" stroke="#d4c6ad" stroke-opacity="0.12" stroke-width="1.4"/>
  </g>
  <g transform="translate(126 184.79999999999998) rotate(-66) scale(0.3333333333333333)" opacity="0.78">
    <path d="M0 -78 C42 -48 58 12 4 88 C-44 32 -48 -38 0 -78Z" fill="#4b4035"/>
    <path d="M0 -62 C10 -20 8 32 0 72" fill="none" stroke="#d4c6ad" stroke-opacity="0.18" stroke-width="2"/>
    <path d="M0 -8 C20 -18 34 -26 48 -42 M0 18 C-22 6 -34 -10 -48 -30 M0 38 C18 32 32 23 45 12" fill="none" stroke="#d4c6ad" stroke-opacity="0.12" stroke-width="1.4"/>
  </g>
  <g transform="translate(243.6 35.2) rotate(96) scale(0.3055555555555556)" opacity="0.78">
    <path d="M0 -78 C42 -48 58 12 4 88 C-44 32 -48 -38 0 -78Z" fill="#d1c4aa"/>
    <path d="M0 -62 C10 -20 8 32 0 72" fill="none" stroke="#d4c6ad" stroke-opacity="0.18" stroke-width="2"/>
    <path d="M0 -8 C20 -18 34 -26 48 -42 M0 18 C-22 6 -34 -10 -48 -30 M0 38 C18 32 32 23 45 12" fill="none" stroke="#d4c6ad" stroke-opacity="0.12" stroke-width="1.4"/>
  </g>
  <g transform="translate(25.2 171.6) rotate(24) scale(0.3142857142857143)" opacity="0.78">
    <path d="M0 -78 C42 -48 58 12 4 88 C-44 32 -48 -38 0 -78Z" fill="#0d1110"/>
    <path d="M0 -62 C10 -20 8 32 0 72" fill="none" stroke="#d4c6ad" stroke-opacity="0.18" stroke-width="2"/>
    <path d="M0 -8 C20 -18 34 -26 48 -42 M0 18 C-22 6 -34 -10 -48 -30 M0 38 C18 32 32 23 45 12" fill="none" stroke="#d4c6ad" stroke-opacity="0.12" stroke-width="1.4"/>
  </g>
  <g transform="rotate(-16 327.6 44)" opacity="0.88">
    <ellipse cx="327.6" cy="44" rx="39.6" ry="15.400000000000002" fill="none" stroke="#e8e3d8" stroke-opacity="0.46" stroke-width="2"/>
    <ellipse cx="327.6" cy="44" rx="25.344" ry="8.008000000000001" fill="#cfc8ba" fill-opacity="0.11" stroke="#2b2d2d" stroke-opacity="0.35" stroke-width="1"/>
    <ellipse cx="320.47200000000004" cy="41.228" rx="7.920000000000001" ry="1.5400000000000003" fill="#fff" opacity="0.20"/>
  </g>
  <g transform="rotate(24 75.6 39.6)" opacity="0.88">
    <ellipse cx="75.6" cy="39.6" rx="28.6" ry="11" fill="none" stroke="#e8e3d8" stroke-opacity="0.46" stroke-width="2"/>
    <ellipse cx="75.6" cy="39.6" rx="18.304000000000002" ry="5.720000000000001" fill="#cfc8ba" fill-opacity="0.11" stroke="#2b2d2d" stroke-opacity="0.35" stroke-width="1"/>
    <ellipse cx="70.452" cy="37.620000000000005" rx="5.720000000000001" ry="1.1" fill="#fff" opacity="0.20"/>
  </g>
  <g transform="rotate(48 369.6 105.6)" opacity="0.88">
    <ellipse cx="369.6" cy="105.6" rx="26.4" ry="9.9" fill="none" stroke="#e8e3d8" stroke-opacity="0.46" stroke-width="2"/>
    <ellipse cx="369.6" cy="105.6" rx="16.896" ry="5.148000000000001" fill="#cfc8ba" fill-opacity="0.11" stroke="#2b2d2d" stroke-opacity="0.35" stroke-width="1"/>
    <ellipse cx="364.848" cy="103.818" rx="5.28" ry="0.9900000000000001" fill="#fff" opacity="0.20"/>
  </g>

  <g transform="translate(218.4 110) rotate(-4)" filter="url(#photo-shadow)">
    <rect x="-89.544" y="-45.099999999999994" width="179.088" height="90.19999999999999" rx="4.4772" fill="#080a0b"/>
    <rect x="-82.38048" y="-36.98199999999999" width="164.76096" height="64.94399999999999" fill="#e8e3d8"/>
    <text x="-64.47167999999999" y="-22.549999999999997" font-family="Arial Black, Arial, sans-serif" font-size="10.387104" letter-spacing="1.4" fill="#16191b">STAFF COPILOT</text>
    <text x="-64.47167999999999" y="-16.235999999999997" font-family="Arial, Helvetica, sans-serif" font-size="4.4772" letter-spacing="3" fill="#716759">OPS COPILOT</text>
    <rect x="-64.47167999999999" y="-7.215999999999999" width="59.09904" height="19.843999999999998" fill="#11171a"/>
    <rect x="5.37264" y="-7.215999999999999" width="59.09904" height="19.843999999999998" fill="#d4ccbd"/>
    <rect x="10.74528" y="1.8039999999999998" width="34.92216" height="2" fill="#171717" opacity="0.28"/>
<rect x="10.74528" y="5.161899999999999" width="28.65408" height="2" fill="#171717" opacity="0.335"/>
<rect x="10.74528" y="8.5198" width="22.386" height="2" fill="#171717" opacity="0.39"/>
<rect x="10.74528" y="11.877699999999999" width="34.92216" height="2" fill="#171717" opacity="0.44500000000000006"/>
<rect x="10.74528" y="15.2356" width="28.65408" height="2" fill="#171717" opacity="0.5"/>
    <path d="M-100.28928 37.88399999999999 H100.28928 L82.38048 46.903999999999996 H-82.38048Z" fill="#15181a"/>
  </g>
  <rect width="100%" height="100%" fill="#000" opacity="0.14"/>

</svg>
