<svg xmlns="http://www.w3.org/2000/svg" width="420" height="220" viewBox="0 0 420 220" role="img" aria-label="nav Lead Intake">
  <defs>
    <linearGradient id="steel" x1="0" y1="0" x2="1" y2="1">
      <stop offset="0" stop-color="#f7fbff"/>
      <stop offset="0.18" stop-color="#8d99a6"/>
      <stop offset="0.48" stop-color="#202832"/>
      <stop offset="0.72" stop-color="#cad7e6"/>
      <stop offset="1" stop-color="#111821"/>
    </linearGradient>
    <linearGradient id="ink" x1="0" y1="0" x2="1" y2="1">
      <stop offset="0" stop-color="#05070a"/>
      <stop offset="0.52" stop-color="#101824"/>
      <stop offset="1" stop-color="#030405"/>
    </linearGradient>
    <radialGradient id="pulse" cx="50%" cy="45%" r="70%">
      <stop offset="0" stop-color="#9bdcf5"/>
      <stop offset="0.26" stop-color="#1f6f91"/>
      <stop offset="0.68" stop-color="#071620"/>
      <stop offset="1" stop-color="#020304"/>
    </radialGradient>
    <filter id="glow" x="-40%" y="-40%" width="180%" height="180%">
      <feGaussianBlur stdDeviation="6" result="blur"/>
      <feColorMatrix in="blur" type="matrix" values="0 0 0 0 0.2 0 0 0 0 0.72 0 0 0 0 1 0 0 0 .8 0"/>
      <feMerge><feMergeNode/><feMergeNode in="SourceGraphic"/></feMerge>
    </filter>
    <pattern id="grid" width="44" height="44" patternUnits="userSpaceOnUse">
      <path d="M44 0H0v44" fill="none" stroke="#ffffff" stroke-opacity="0.08" stroke-width="1"/>
    </pattern>
  </defs>
  
  <defs>
    <filter id="photo-grain" x="-10%" y="-10%" width="120%" height="120%">
      <feTurbulence type="fractalNoise" baseFrequency="0.82" numOctaves="4" seed="18"/>
      <feColorMatrix type="saturate" values="0"/>
      <feComponentTransfer><feFuncA type="table" tableValues="0 0.34"/></feComponentTransfer>
    </filter>
    <filter id="photo-shadow" x="-40%" y="-40%" width="180%" height="180%">
      <feDropShadow dx="3.9599999999999995" dy="5.72" stdDeviation="3.9599999999999995" flood-color="#000" flood-opacity="0.55"/>
    </filter>
    <radialGradient id="photo-light" cx="70%" cy="18%" r="78%">
      <stop offset="0" stop-color="#d9d1c2" stop-opacity="0.46"/>
      <stop offset="0.42" stop-color="#9b8a76" stop-opacity="0.16"/>
      <stop offset="1" stop-color="#050607" stop-opacity="1"/>
    </radialGradient>
  </defs>
  <rect width="100%" height="100%" fill="#343a3c"/>
  <rect width="100%" height="100%" fill="url(#photo-light)"/>
  <rect width="100%" height="100%" fill="#fff" filter="url(#photo-grain)" opacity="0.70"/>
  <rect width="100%" height="100%" fill="#000" opacity="0.16"/>
  <ellipse cx="15.5" cy="15.6" rx="22.0" ry="5.5" fill="#ece2d2" opacity="0.025" transform="rotate(-34 15.5 15.6)"/>
<ellipse cx="73.1" cy="33.9" rx="29.7" ry="8.6" fill="#ece2d2" opacity="0.035" transform="rotate(-5 73.1 33.9)"/>
<ellipse cx="130.6" cy="52.1" rx="37.4" ry="11.7" fill="#ece2d2" opacity="0.045" transform="rotate(24 130.6 52.1)"/>
<ellipse cx="188.2" cy="70.4" rx="45.1" ry="5.5" fill="#ece2d2" opacity="0.055" transform="rotate(-37 188.2 70.4)"/>
  <circle cx="79.8" cy="42.7" r="0.43" fill="#d8ccb9" opacity="0.12"/>
<circle cx="105.4" cy="62.3" r="0.59" fill="#0a0b0b" opacity="0.15"/>
<circle cx="131.0" cy="81.8" r="0.76" fill="#827867" opacity="0.19"/>
<circle cx="156.7" cy="101.4" r="0.92" fill="#827867" opacity="0.23"/>
<circle cx="182.3" cy="121.0" r="0.26" fill="#d8ccb9" opacity="0.26"/>
<circle cx="207.9" cy="140.6" r="0.43" fill="#0a0b0b" opacity="0.30"/>
<circle cx="233.5" cy="160.2" r="0.59" fill="#827867" opacity="0.12"/>
<circle cx="259.1" cy="179.7" r="0.76" fill="#827867" opacity="0.15"/>
<circle cx="284.8" cy="199.3" r="0.92" fill="#d8ccb9" opacity="0.19"/>
<circle cx="310.4" cy="218.9" r="0.26" fill="#0a0b0b" opacity="0.23"/>
<circle cx="336.0" cy="18.5" r="0.43" fill="#827867" opacity="0.26"/>
<circle cx="361.6" cy="38.1" r="0.59" fill="#827867" opacity="0.30"/>
<circle cx="387.2" cy="57.6" r="0.76" fill="#d8ccb9" opacity="0.12"/>
<circle cx="412.9" cy="77.2" r="0.92" fill="#0a0b0b" opacity="0.15"/>
<circle cx="18.5" cy="96.8" r="0.26" fill="#827867" opacity="0.19"/>
<circle cx="44.1" cy="116.4" r="0.43" fill="#827867" opacity="0.23"/>
<circle cx="69.7" cy="136.0" r="0.59" fill="#d8ccb9" opacity="0.26"/>
<circle cx="95.3" cy="155.5" r="0.76" fill="#0a0b0b" opacity="0.30"/>
<circle cx="121.0" cy="175.1" r="0.92" fill="#827867" opacity="0.12"/>
<circle cx="146.6" cy="194.7" r="0.26" fill="#827867" opacity="0.15"/>
<circle cx="172.2" cy="214.3" r="0.43" fill="#d8ccb9" opacity="0.19"/>
<circle cx="197.8" cy="13.9" r="0.59" fill="#0a0b0b" opacity="0.23"/>
<circle cx="223.4" cy="33.4" r="0.76" fill="#827867" opacity="0.26"/>
<circle cx="249.1" cy="53.0" r="0.92" fill="#827867" opacity="0.30"/>
<circle cx="274.7" cy="72.6" r="0.26" fill="#d8ccb9" opacity="0.12"/>
<circle cx="300.3" cy="92.2" r="0.43" fill="#0a0b0b" opacity="0.15"/>
<circle cx="325.9" cy="111.8" r="0.59" fill="#827867" opacity="0.19"/>
<circle cx="351.5" cy="131.3" r="0.76" fill="#827867" opacity="0.23"/>
<circle cx="377.2" cy="150.9" r="0.92" fill="#d8ccb9" opacity="0.26"/>
<circle cx="402.8" cy="170.5" r="0.26" fill="#0a0b0b" opacity="0.30"/>
<circle cx="8.4" cy="190.1" r="0.43" fill="#827867" opacity="0.12"/>
<circle cx="34.0" cy="209.7" r="0.59" fill="#827867" opacity="0.15"/>
<circle cx="59.6" cy="9.2" r="0.76" fill="#d8ccb9" opacity="0.19"/>
<circle cx="85.3" cy="28.8" r="0.92" fill="#0a0b0b" opacity="0.23"/>
<circle cx="110.9" cy="48.4" r="0.26" fill="#827867" opacity="0.26"/>
<circle cx="136.5" cy="68.0" r="0.43" fill="#827867" opacity="0.30"/>
<circle cx="162.1" cy="87.6" r="0.59" fill="#d8ccb9" opacity="0.12"/>
<circle cx="187.7" cy="107.1" r="0.76" fill="#0a0b0b" opacity="0.15"/>
<circle cx="213.4" cy="126.7" r="0.92" fill="#827867" opacity="0.19"/>
<circle cx="239.0" cy="146.3" r="0.26" fill="#827867" opacity="0.23"/>
<circle cx="264.6" cy="165.9" r="0.43" fill="#d8ccb9" opacity="0.26"/>
<circle cx="290.2" cy="185.5" r="0.59" fill="#0a0b0b" opacity="0.30"/>
  <g transform="translate(50.4 74.80000000000001) rotate(-34) scale(0.4230769230769231)" opacity="0.78">
    <path d="M0 -78 C42 -48 58 12 4 88 C-44 32 -48 -38 0 -78Z" fill="#151918"/>
    <path d="M0 -62 C10 -20 8 32 0 72" fill="none" stroke="#d4c6ad" stroke-opacity="0.18" stroke-width="2"/>
    <path d="M0 -8 C20 -18 34 -26 48 -42 M0 18 C-22 6 -34 -10 -48 -30 M0 38 C18 32 32 23 45 12" fill="none" stroke="#d4c6ad" stroke-opacity="0.12" stroke-width="1.4"/>
  </g>
  <g transform="translate(361.2 136.4) rotate(28) scale(0.39285714285714285)" opacity="0.78">
    <path d="M0 -78 C42 -48 58 12 4 88 C-44 32 -48 -38 0 -78Z" fill="#2d2923"/>
    <path d="M0 -62 C10 -20 8 32 0 72" fill="none" stroke="#d4c6ad" stroke-opacity="0.18" stroke-width="2"/>
    <path d="M0 -8 C20 -18 34 -26 48 -42 M0 18 C-22 6 -34 -10 -48 -30 M0 38 C18 32 32 23 45 12" fill="none" stroke="#d4c6ad" stroke-opacity="0.12" stroke-width="1.4"/>
  </g>
  <g transform="translate(126 184.79999999999998) rotate(-66) scale(0.3333333333333333)" opacity="0.78">
    <path d="M0 -78 C42 -48 58 12 4 88 C-44 32 -48 -38 0 -78Z" fill="#4b4035"/>
    <path d="M0 -62 C10 -20 8 32 0 72" fill="none" stroke="#d4c6ad" stroke-opacity="0.18" stroke-width="2"/>
    <path d="M0 -8 C20 -18 34 -26 48 -42 M0 18 C-22 6 -34 -10 -48 -30 M0 38 C18 32 32 23 45 12" fill="none" stroke="#d4c6ad" stroke-opacity="0.12" stroke-width="1.4"/>
  </g>
  <g transform="translate(243.6 35.2) rotate(96) scale(0.3055555555555556)" opacity="0.78">
    <path d="M0 -78 C42 -48 58 12 4 88 C-44 32 -48 -38 0 -78Z" fill="#d1c4aa"/>
    <path d="M0 -62 C10 -20 8 32 0 72" fill="none" stroke="#d4c6ad" stroke-opacity="0.18" stroke-width="2"/>
    <path d="M0 -8 C20 -18 34 -26 48 -42 M0 18 C-22 6 -34 -10 -48 -30 M0 38 C18 32 32 23 45 12" fill="none" stroke="#d4c6ad" stroke-opacity="0.12" stroke-width="1.4"/>
  </g>
  <g transform="translate(25.2 171.6) rotate(24) scale(0.3142857142857143)" opacity="0.78">
    <path d="M0 -78 C42 -48 58 12 4 88 C-44 32 -48 -38 0 -78Z" fill="#0d1110"/>
    <path d="M0 -62 C10 -20 8 32 0 72" fill="none" stroke="#d4c6ad" stroke-opacity="0.18" stroke-width="2"/>
    <path d="M0 -8 C20 -18 34 -26 48 -42 M0 18 C-22 6 -34 -10 -48 -30 M0 38 C18 32 32 23 45 12" fill="none" stroke="#d4c6ad" stroke-opacity="0.12" stroke-width="1.4"/>
  </g>
  <g transform="rotate(-16 327.6 44)" opacity="0.88">
    <ellipse cx="327.6" cy="44" rx="39.6" ry="15.400000000000002" fill="none" stroke="#e8e3d8" stroke-opacity="0.46" stroke-width="2"/>
    <ellipse cx="327.6" cy="44" rx="25.344" ry="8.008000000000001" fill="#cfc8ba" fill-opacity="0.11" stroke="#2b2d2d" stroke-opacity="0.35" stroke-width="1"/>
    <ellipse cx="320.47200000000004" cy="41.228" rx="7.920000000000001" ry="1.5400000000000003" fill="#fff" opacity="0.20"/>
  </g>
  <g transform="rotate(24 75.6 39.6)" opacity="0.88">
    <ellipse cx="75.6" cy="39.6" rx="28.6" ry="11" fill="none" stroke="#e8e3d8" stroke-opacity="0.46" stroke-width="2"/>
    <ellipse cx="75.6" cy="39.6" rx="18.304000000000002" ry="5.720000000000001" fill="#cfc8ba" fill-opacity="0.11" stroke="#2b2d2d" stroke-opacity="0.35" stroke-width="1"/>
    <ellipse cx="70.452" cy="37.620000000000005" rx="5.720000000000001" ry="1.1" fill="#fff" opacity="0.20"/>
  </g>
  <g transform="rotate(48 369.6 105.6)" opacity="0.88">
    <ellipse cx="369.6" cy="105.6" rx="26.4" ry="9.9" fill="none" stroke="#e8e3d8" stroke-opacity="0.46" stroke-width="2"/>
    <ellipse cx="369.6" cy="105.6" rx="16.896" ry="5.148000000000001" fill="#cfc8ba" fill-opacity="0.11" stroke="#2b2d2d" stroke-opacity="0.35" stroke-width="1"/>
    <ellipse cx="364.848" cy="103.818" rx="5.28" ry="0.9900000000000001" fill="#fff" opacity="0.20"/>
  </g>
  
  <g transform="translate(218.4 118.80000000000001) rotate(-3)" filter="url(#photo-shadow)">
    <rect x="-25.256" y="-52.315999999999995" width="50.512" height="104.63199999999999" rx="6.56656" fill="#080a0b"/>
    <rect x="-22.47784" y="-48.780159999999995" width="44.95568" height="97.56031999999999" rx="4.79864" fill="#ece8dd"/>
    <rect x="-10.102400000000001" y="-51.0532" width="20.204800000000002" height="1.7679200000000002" rx="1.01024" fill="#171717"/>
    <text x="0" y="-30.343279999999996" text-anchor="middle" font-family="Georgia, serif" font-size="5.30376" letter-spacing="2" fill="#2a2a27">LEAD INTAKE</text>
    <text x="0" y="-21.97272" text-anchor="middle" font-family="Arial, Helvetica, sans-serif" font-size="2.77816" letter-spacing="4" fill="#7d7466">LEAD INTAKE</text>
    <rect x="-16.16384" y="-11.509519999999998" width="32.32768" height="26.157999999999998" fill="#0d1113" opacity="0.88"/>
    <text x="0" y="-0.52316" text-anchor="middle" font-family="Arial Black, Arial, sans-serif" font-size="4.54608" letter-spacing="1.6" fill="#f7f4ea">OS</text>
    <rect x="-14.64848" y="20.9264" width="23.639616" height="2" fill="#171717" opacity="0.28"/>
<rect x="-14.64848" y="23.199440000000003" width="19.396608" height="2" fill="#171717" opacity="0.335"/>
<rect x="-14.64848" y="25.47248" width="15.153599999999999" height="2" fill="#171717" opacity="0.39"/>
<rect x="-14.64848" y="27.74552" width="23.639616" height="2" fill="#171717" opacity="0.44500000000000006"/>
<rect x="-14.64848" y="30.01856" width="19.396608" height="2" fill="#171717" opacity="0.5"/>
    <rect x="-14.64848" y="36.621199999999995" width="29.29696" height="7.847399999999999" fill="#d8d0c2" opacity="0.65"/>
  </g>
  <rect width="100%" height="100%" fill="#000" opacity="0.14"/>

</svg>
