<svg xmlns="http://www.w3.org/2000/svg" width="420" height="220" viewBox="0 0 420 220" role="img" aria-label="nav Audit Engine">
  <defs>
    <linearGradient id="steel" x1="0" y1="0" x2="1" y2="1">
      <stop offset="0" stop-color="#f7fbff"/>
      <stop offset="0.18" stop-color="#8d99a6"/>
      <stop offset="0.48" stop-color="#202832"/>
      <stop offset="0.72" stop-color="#cad7e6"/>
      <stop offset="1" stop-color="#111821"/>
    </linearGradient>
    <linearGradient id="ink" x1="0" y1="0" x2="1" y2="1">
      <stop offset="0" stop-color="#05070a"/>
      <stop offset="0.52" stop-color="#101824"/>
      <stop offset="1" stop-color="#030405"/>
    </linearGradient>
    <radialGradient id="pulse" cx="50%" cy="45%" r="70%">
      <stop offset="0" stop-color="#9bdcf5"/>
      <stop offset="0.26" stop-color="#1f6f91"/>
      <stop offset="0.68" stop-color="#071620"/>
      <stop offset="1" stop-color="#020304"/>
    </radialGradient>
    <filter id="glow" x="-40%" y="-40%" width="180%" height="180%">
      <feGaussianBlur stdDeviation="6" result="blur"/>
      <feColorMatrix in="blur" type="matrix" values="0 0 0 0 0.2 0 0 0 0 0.72 0 0 0 0 1 0 0 0 .8 0"/>
      <feMerge><feMergeNode/><feMergeNode in="SourceGraphic"/></feMerge>
    </filter>
    <pattern id="grid" width="44" height="44" patternUnits="userSpaceOnUse">
      <path d="M44 0H0v44" fill="none" stroke="#ffffff" stroke-opacity="0.08" stroke-width="1"/>
    </pattern>
  </defs>
  
  <defs>
    <filter id="photo-grain" x="-10%" y="-10%" width="120%" height="120%">
      <feTurbulence type="fractalNoise" baseFrequency="0.82" numOctaves="4" seed="19"/>
      <feColorMatrix type="saturate" values="0"/>
      <feComponentTransfer><feFuncA type="table" tableValues="0 0.34"/></feComponentTransfer>
    </filter>
    <filter id="photo-shadow" x="-40%" y="-40%" width="180%" height="180%">
      <feDropShadow dx="3.9599999999999995" dy="5.72" stdDeviation="3.9599999999999995" flood-color="#000" flood-opacity="0.55"/>
    </filter>
    <radialGradient id="photo-light" cx="28%" cy="18%" r="78%">
      <stop offset="0" stop-color="#d9d1c2" stop-opacity="0.46"/>
      <stop offset="0.42" stop-color="#c7c0b4" stop-opacity="0.16"/>
      <stop offset="1" stop-color="#050607" stop-opacity="1"/>
    </radialGradient>
  </defs>
  <rect width="100%" height="100%" fill="#1d2328"/>
  <rect width="100%" height="100%" fill="url(#photo-light)"/>
  <rect width="100%" height="100%" fill="#fff" filter="url(#photo-grain)" opacity="0.70"/>
  <rect width="100%" height="100%" fill="#000" opacity="0.16"/>
  <ellipse cx="31.1" cy="31.2" rx="22.0" ry="5.5" fill="#ece2d2" opacity="0.025" transform="rotate(-23 31.1 31.2)"/>
<ellipse cx="88.6" cy="49.5" rx="29.7" ry="8.6" fill="#ece2d2" opacity="0.035" transform="rotate(6 88.6 49.5)"/>
<ellipse cx="146.2" cy="67.8" rx="37.4" ry="11.7" fill="#ece2d2" opacity="0.045" transform="rotate(35 146.2 67.8)"/>
<ellipse cx="203.7" cy="86.0" rx="45.1" ry="5.5" fill="#ece2d2" opacity="0.055" transform="rotate(-26 203.7 86.0)"/>
  <circle cx="120.5" cy="54.3" r="0.59" fill="#d8ccb9" opacity="0.12"/>
<circle cx="146.2" cy="73.9" r="0.76" fill="#0a0b0b" opacity="0.15"/>
<circle cx="171.8" cy="93.5" r="0.92" fill="#827867" opacity="0.19"/>
<circle cx="197.4" cy="113.1" r="0.26" fill="#827867" opacity="0.23"/>
<circle cx="223.0" cy="132.7" r="0.43" fill="#d8ccb9" opacity="0.26"/>
<circle cx="248.6" cy="152.2" r="0.59" fill="#0a0b0b" opacity="0.30"/>
<circle cx="274.3" cy="171.8" r="0.76" fill="#827867" opacity="0.12"/>
<circle cx="299.9" cy="191.4" r="0.92" fill="#827867" opacity="0.15"/>
<circle cx="325.5" cy="211.0" r="0.26" fill="#d8ccb9" opacity="0.19"/>
<circle cx="351.1" cy="10.6" r="0.43" fill="#0a0b0b" opacity="0.23"/>
<circle cx="376.7" cy="30.1" r="0.59" fill="#827867" opacity="0.26"/>
<circle cx="402.4" cy="49.7" r="0.76" fill="#827867" opacity="0.30"/>
<circle cx="8.0" cy="69.3" r="0.92" fill="#d8ccb9" opacity="0.12"/>
<circle cx="33.6" cy="88.9" r="0.26" fill="#0a0b0b" opacity="0.15"/>
<circle cx="59.2" cy="108.5" r="0.43" fill="#827867" opacity="0.19"/>
<circle cx="84.8" cy="128.0" r="0.59" fill="#827867" opacity="0.23"/>
<circle cx="110.5" cy="147.6" r="0.76" fill="#d8ccb9" opacity="0.26"/>
<circle cx="136.1" cy="167.2" r="0.92" fill="#0a0b0b" opacity="0.30"/>
<circle cx="161.7" cy="186.8" r="0.26" fill="#827867" opacity="0.12"/>
<circle cx="187.3" cy="206.4" r="0.43" fill="#827867" opacity="0.15"/>
<circle cx="212.9" cy="5.9" r="0.59" fill="#d8ccb9" opacity="0.19"/>
<circle cx="238.6" cy="25.5" r="0.76" fill="#0a0b0b" opacity="0.23"/>
<circle cx="264.2" cy="45.1" r="0.92" fill="#827867" opacity="0.26"/>
<circle cx="289.8" cy="64.7" r="0.26" fill="#827867" opacity="0.30"/>
<circle cx="315.4" cy="84.3" r="0.43" fill="#d8ccb9" opacity="0.12"/>
<circle cx="341.0" cy="103.8" r="0.59" fill="#0a0b0b" opacity="0.15"/>
<circle cx="366.7" cy="123.4" r="0.76" fill="#827867" opacity="0.19"/>
<circle cx="392.3" cy="143.0" r="0.92" fill="#827867" opacity="0.23"/>
<circle cx="417.9" cy="162.6" r="0.26" fill="#d8ccb9" opacity="0.26"/>
<circle cx="23.5" cy="182.2" r="0.43" fill="#0a0b0b" opacity="0.30"/>
<circle cx="49.1" cy="201.7" r="0.59" fill="#827867" opacity="0.12"/>
<circle cx="74.8" cy="1.3" r="0.76" fill="#827867" opacity="0.15"/>
<circle cx="100.4" cy="20.9" r="0.92" fill="#d8ccb9" opacity="0.19"/>
<circle cx="126.0" cy="40.5" r="0.26" fill="#0a0b0b" opacity="0.23"/>
<circle cx="151.6" cy="60.1" r="0.43" fill="#827867" opacity="0.26"/>
<circle cx="177.2" cy="79.6" r="0.59" fill="#827867" opacity="0.30"/>
<circle cx="202.9" cy="99.2" r="0.76" fill="#d8ccb9" opacity="0.12"/>
<circle cx="228.5" cy="118.8" r="0.92" fill="#0a0b0b" opacity="0.15"/>
<circle cx="254.1" cy="138.4" r="0.26" fill="#827867" opacity="0.19"/>
<circle cx="279.7" cy="158.0" r="0.43" fill="#827867" opacity="0.23"/>
<circle cx="305.3" cy="177.5" r="0.59" fill="#d8ccb9" opacity="0.26"/>
<circle cx="331.0" cy="197.1" r="0.76" fill="#0a0b0b" opacity="0.30"/>
  <g transform="translate(50.4 74.80000000000001) rotate(-34) scale(0.4230769230769231)" opacity="0.78">
    <path d="M0 -78 C42 -48 58 12 4 88 C-44 32 -48 -38 0 -78Z" fill="#151918"/>
    <path d="M0 -62 C10 -20 8 32 0 72" fill="none" stroke="#d4c6ad" stroke-opacity="0.18" stroke-width="2"/>
    <path d="M0 -8 C20 -18 34 -26 48 -42 M0 18 C-22 6 -34 -10 -48 -30 M0 38 C18 32 32 23 45 12" fill="none" stroke="#d4c6ad" stroke-opacity="0.12" stroke-width="1.4"/>
  </g>
  <g transform="translate(361.2 136.4) rotate(28) scale(0.39285714285714285)" opacity="0.78">
    <path d="M0 -78 C42 -48 58 12 4 88 C-44 32 -48 -38 0 -78Z" fill="#2d2923"/>
    <path d="M0 -62 C10 -20 8 32 0 72" fill="none" stroke="#d4c6ad" stroke-opacity="0.18" stroke-width="2"/>
    <path d="M0 -8 C20 -18 34 -26 48 -42 M0 18 C-22 6 -34 -10 -48 -30 M0 38 C18 32 32 23 45 12" fill="none" stroke="#d4c6ad" stroke-opacity="0.12" stroke-width="1.4"/>
  </g>
  <g transform="translate(126 184.79999999999998) rotate(-66) scale(0.3333333333333333)" opacity="0.78">
    <path d="M0 -78 C42 -48 58 12 4 88 C-44 32 -48 -38 0 -78Z" fill="#4b4035"/>
    <path d="M0 -62 C10 -20 8 32 0 72" fill="none" stroke="#d4c6ad" stroke-opacity="0.18" stroke-width="2"/>
    <path d="M0 -8 C20 -18 34 -26 48 -42 M0 18 C-22 6 -34 -10 -48 -30 M0 38 C18 32 32 23 45 12" fill="none" stroke="#d4c6ad" stroke-opacity="0.12" stroke-width="1.4"/>
  </g>
  <g transform="translate(243.6 35.2) rotate(96) scale(0.3055555555555556)" opacity="0.78">
    <path d="M0 -78 C42 -48 58 12 4 88 C-44 32 -48 -38 0 -78Z" fill="#d1c4aa"/>
    <path d="M0 -62 C10 -20 8 32 0 72" fill="none" stroke="#d4c6ad" stroke-opacity="0.18" stroke-width="2"/>
    <path d="M0 -8 C20 -18 34 -26 48 -42 M0 18 C-22 6 -34 -10 -48 -30 M0 38 C18 32 32 23 45 12" fill="none" stroke="#d4c6ad" stroke-opacity="0.12" stroke-width="1.4"/>
  </g>
  <g transform="translate(25.2 171.6) rotate(24) scale(0.3142857142857143)" opacity="0.78">
    <path d="M0 -78 C42 -48 58 12 4 88 C-44 32 -48 -38 0 -78Z" fill="#0d1110"/>
    <path d="M0 -62 C10 -20 8 32 0 72" fill="none" stroke="#d4c6ad" stroke-opacity="0.18" stroke-width="2"/>
    <path d="M0 -8 C20 -18 34 -26 48 -42 M0 18 C-22 6 -34 -10 -48 -30 M0 38 C18 32 32 23 45 12" fill="none" stroke="#d4c6ad" stroke-opacity="0.12" stroke-width="1.4"/>
  </g>
  <g transform="rotate(-16 327.6 44)" opacity="0.88">
    <ellipse cx="327.6" cy="44" rx="39.6" ry="15.400000000000002" fill="none" stroke="#e8e3d8" stroke-opacity="0.46" stroke-width="2"/>
    <ellipse cx="327.6" cy="44" rx="25.344" ry="8.008000000000001" fill="#cfc8ba" fill-opacity="0.11" stroke="#2b2d2d" stroke-opacity="0.35" stroke-width="1"/>
    <ellipse cx="320.47200000000004" cy="41.228" rx="7.920000000000001" ry="1.5400000000000003" fill="#fff" opacity="0.20"/>
  </g>
  <g transform="rotate(24 75.6 39.6)" opacity="0.88">
    <ellipse cx="75.6" cy="39.6" rx="28.6" ry="11" fill="none" stroke="#e8e3d8" stroke-opacity="0.46" stroke-width="2"/>
    <ellipse cx="75.6" cy="39.6" rx="18.304000000000002" ry="5.720000000000001" fill="#cfc8ba" fill-opacity="0.11" stroke="#2b2d2d" stroke-opacity="0.35" stroke-width="1"/>
    <ellipse cx="70.452" cy="37.620000000000005" rx="5.720000000000001" ry="1.1" fill="#fff" opacity="0.20"/>
  </g>
  <g transform="rotate(48 369.6 105.6)" opacity="0.88">
    <ellipse cx="369.6" cy="105.6" rx="26.4" ry="9.9" fill="none" stroke="#e8e3d8" stroke-opacity="0.46" stroke-width="2"/>
    <ellipse cx="369.6" cy="105.6" rx="16.896" ry="5.148000000000001" fill="#cfc8ba" fill-opacity="0.11" stroke="#2b2d2d" stroke-opacity="0.35" stroke-width="1"/>
    <ellipse cx="364.848" cy="103.818" rx="5.28" ry="0.9900000000000001" fill="#fff" opacity="0.20"/>
  </g>
  
  <g transform="translate(180.6 118.80000000000001) rotate(5)" filter="url(#photo-shadow)">
    <rect x="-25.256" y="-52.315999999999995" width="50.512" height="104.63199999999999" rx="6.56656" fill="#080a0b"/>
    <rect x="-22.47784" y="-48.780159999999995" width="44.95568" height="97.56031999999999" rx="4.79864" fill="#ece8dd"/>
    <rect x="-10.102400000000001" y="-51.0532" width="20.204800000000002" height="1.7679200000000002" rx="1.01024" fill="#171717"/>
    <text x="0" y="-30.343279999999996" text-anchor="middle" font-family="Georgia, serif" font-size="5.30376" letter-spacing="2" fill="#2a2a27">AUDIT ENGINE</text>
    <text x="0" y="-21.97272" text-anchor="middle" font-family="Arial, Helvetica, sans-serif" font-size="2.77816" letter-spacing="4" fill="#7d7466">AI AUDIT</text>
    <rect x="-16.16384" y="-11.509519999999998" width="32.32768" height="26.157999999999998" fill="#0d1113" opacity="0.88"/>
    <text x="0" y="-0.52316" text-anchor="middle" font-family="Arial Black, Arial, sans-serif" font-size="4.54608" letter-spacing="1.6" fill="#f7f4ea">OS</text>
    <rect x="-14.64848" y="20.9264" width="23.639616" height="2" fill="#171717" opacity="0.28"/>
<rect x="-14.64848" y="23.199440000000003" width="19.396608" height="2" fill="#171717" opacity="0.335"/>
<rect x="-14.64848" y="25.47248" width="15.153599999999999" height="2" fill="#171717" opacity="0.39"/>
<rect x="-14.64848" y="27.74552" width="23.639616" height="2" fill="#171717" opacity="0.44500000000000006"/>
<rect x="-14.64848" y="30.01856" width="19.396608" height="2" fill="#171717" opacity="0.5"/>
    <rect x="-14.64848" y="36.621199999999995" width="29.29696" height="7.847399999999999" fill="#d8d0c2" opacity="0.65"/>
  </g>
  <rect width="100%" height="100%" fill="#000" opacity="0.14"/>

</svg>
