<svg xmlns="http://www.w3.org/2000/svg" width="420" height="220" viewBox="0 0 420 220" role="img" aria-label="nav CRM Sync">
  <defs>
    <linearGradient id="steel" x1="0" y1="0" x2="1" y2="1">
      <stop offset="0" stop-color="#f7fbff"/>
      <stop offset="0.18" stop-color="#8d99a6"/>
      <stop offset="0.48" stop-color="#202832"/>
      <stop offset="0.72" stop-color="#cad7e6"/>
      <stop offset="1" stop-color="#111821"/>
    </linearGradient>
    <linearGradient id="ink" x1="0" y1="0" x2="1" y2="1">
      <stop offset="0" stop-color="#05070a"/>
      <stop offset="0.52" stop-color="#101824"/>
      <stop offset="1" stop-color="#030405"/>
    </linearGradient>
    <radialGradient id="pulse" cx="50%" cy="45%" r="70%">
      <stop offset="0" stop-color="#9bdcf5"/>
      <stop offset="0.26" stop-color="#1f6f91"/>
      <stop offset="0.68" stop-color="#071620"/>
      <stop offset="1" stop-color="#020304"/>
    </radialGradient>
    <filter id="glow" x="-40%" y="-40%" width="180%" height="180%">
      <feGaussianBlur stdDeviation="6" result="blur"/>
      <feColorMatrix in="blur" type="matrix" values="0 0 0 0 0.2 0 0 0 0 0.72 0 0 0 0 1 0 0 0 .8 0"/>
      <feMerge><feMergeNode/><feMergeNode in="SourceGraphic"/></feMerge>
    </filter>
    <pattern id="grid" width="44" height="44" patternUnits="userSpaceOnUse">
      <path d="M44 0H0v44" fill="none" stroke="#ffffff" stroke-opacity="0.08" stroke-width="1"/>
    </pattern>
  </defs>
  
  <defs>
    <filter id="photo-grain" x="-10%" y="-10%" width="120%" height="120%">
      <feTurbulence type="fractalNoise" baseFrequency="0.82" numOctaves="4" seed="21"/>
      <feColorMatrix type="saturate" values="0"/>
      <feComponentTransfer><feFuncA type="table" tableValues="0 0.34"/></feComponentTransfer>
    </filter>
    <filter id="photo-shadow" x="-40%" y="-40%" width="180%" height="180%">
      <feDropShadow dx="3.9599999999999995" dy="5.72" stdDeviation="3.9599999999999995" flood-color="#000" flood-opacity="0.55"/>
    </filter>
    <radialGradient id="photo-light" cx="28%" cy="18%" r="78%">
      <stop offset="0" stop-color="#d9d1c2" stop-opacity="0.46"/>
      <stop offset="0.42" stop-color="#d8d1c4" stop-opacity="0.16"/>
      <stop offset="1" stop-color="#050607" stop-opacity="1"/>
    </radialGradient>
  </defs>
  <rect width="100%" height="100%" fill="#101519"/>
  <rect width="100%" height="100%" fill="url(#photo-light)"/>
  <rect width="100%" height="100%" fill="#fff" filter="url(#photo-grain)" opacity="0.70"/>
  <rect width="100%" height="100%" fill="#000" opacity="0.16"/>
  <ellipse cx="62.2" cy="62.5" rx="22.0" ry="5.5" fill="#ece2d2" opacity="0.025" transform="rotate(-1 62.2 62.5)"/>
<ellipse cx="119.7" cy="80.7" rx="29.7" ry="8.6" fill="#ece2d2" opacity="0.035" transform="rotate(28 119.7 80.7)"/>
<ellipse cx="177.2" cy="99.0" rx="37.4" ry="11.7" fill="#ece2d2" opacity="0.045" transform="rotate(-33 177.2 99.0)"/>
<ellipse cx="234.8" cy="117.3" rx="45.1" ry="5.5" fill="#ece2d2" opacity="0.055" transform="rotate(-4 234.8 117.3)"/>
  <circle cx="202.0" cy="77.7" r="0.92" fill="#d8ccb9" opacity="0.12"/>
<circle cx="227.6" cy="97.2" r="0.26" fill="#0a0b0b" opacity="0.15"/>
<circle cx="253.3" cy="116.8" r="0.43" fill="#827867" opacity="0.19"/>
<circle cx="278.9" cy="136.4" r="0.59" fill="#827867" opacity="0.23"/>
<circle cx="304.5" cy="156.0" r="0.76" fill="#d8ccb9" opacity="0.26"/>
<circle cx="330.1" cy="175.6" r="0.92" fill="#0a0b0b" opacity="0.30"/>
<circle cx="355.7" cy="195.1" r="0.26" fill="#827867" opacity="0.12"/>
<circle cx="381.4" cy="214.7" r="0.43" fill="#827867" opacity="0.15"/>
<circle cx="407.0" cy="14.3" r="0.59" fill="#d8ccb9" opacity="0.19"/>
<circle cx="12.6" cy="33.9" r="0.76" fill="#0a0b0b" opacity="0.23"/>
<circle cx="38.2" cy="53.5" r="0.92" fill="#827867" opacity="0.26"/>
<circle cx="63.8" cy="73.0" r="0.26" fill="#827867" opacity="0.30"/>
<circle cx="89.5" cy="92.6" r="0.43" fill="#d8ccb9" opacity="0.12"/>
<circle cx="115.1" cy="112.2" r="0.59" fill="#0a0b0b" opacity="0.15"/>
<circle cx="140.7" cy="131.8" r="0.76" fill="#827867" opacity="0.19"/>
<circle cx="166.3" cy="151.4" r="0.92" fill="#827867" opacity="0.23"/>
<circle cx="191.9" cy="170.9" r="0.26" fill="#d8ccb9" opacity="0.26"/>
<circle cx="217.6" cy="190.5" r="0.43" fill="#0a0b0b" opacity="0.30"/>
<circle cx="243.2" cy="210.1" r="0.59" fill="#827867" opacity="0.12"/>
<circle cx="268.8" cy="9.7" r="0.76" fill="#827867" opacity="0.15"/>
<circle cx="294.4" cy="29.3" r="0.92" fill="#d8ccb9" opacity="0.19"/>
<circle cx="320.0" cy="48.8" r="0.26" fill="#0a0b0b" opacity="0.23"/>
<circle cx="345.7" cy="68.4" r="0.43" fill="#827867" opacity="0.26"/>
<circle cx="371.3" cy="88.0" r="0.59" fill="#827867" opacity="0.30"/>
<circle cx="396.9" cy="107.6" r="0.76" fill="#d8ccb9" opacity="0.12"/>
<circle cx="2.5" cy="127.2" r="0.92" fill="#0a0b0b" opacity="0.15"/>
<circle cx="28.1" cy="146.7" r="0.26" fill="#827867" opacity="0.19"/>
<circle cx="53.8" cy="166.3" r="0.43" fill="#827867" opacity="0.23"/>
<circle cx="79.4" cy="185.9" r="0.59" fill="#d8ccb9" opacity="0.26"/>
<circle cx="105.0" cy="205.5" r="0.76" fill="#0a0b0b" opacity="0.30"/>
<circle cx="130.6" cy="5.1" r="0.92" fill="#827867" opacity="0.12"/>
<circle cx="156.2" cy="24.6" r="0.26" fill="#827867" opacity="0.15"/>
<circle cx="181.9" cy="44.2" r="0.43" fill="#d8ccb9" opacity="0.19"/>
<circle cx="207.5" cy="63.8" r="0.59" fill="#0a0b0b" opacity="0.23"/>
<circle cx="233.1" cy="83.4" r="0.76" fill="#827867" opacity="0.26"/>
<circle cx="258.7" cy="103.0" r="0.92" fill="#827867" opacity="0.30"/>
<circle cx="284.3" cy="122.5" r="0.26" fill="#d8ccb9" opacity="0.12"/>
<circle cx="310.0" cy="142.1" r="0.43" fill="#0a0b0b" opacity="0.15"/>
<circle cx="335.6" cy="161.7" r="0.59" fill="#827867" opacity="0.19"/>
<circle cx="361.2" cy="181.3" r="0.76" fill="#827867" opacity="0.23"/>
<circle cx="386.8" cy="200.9" r="0.92" fill="#d8ccb9" opacity="0.26"/>
<circle cx="412.4" cy="0.4" r="0.26" fill="#0a0b0b" opacity="0.30"/>
  <g transform="translate(50.4 74.80000000000001) rotate(-34) scale(0.4230769230769231)" opacity="0.78">
    <path d="M0 -78 C42 -48 58 12 4 88 C-44 32 -48 -38 0 -78Z" fill="#151918"/>
    <path d="M0 -62 C10 -20 8 32 0 72" fill="none" stroke="#d4c6ad" stroke-opacity="0.18" stroke-width="2"/>
    <path d="M0 -8 C20 -18 34 -26 48 -42 M0 18 C-22 6 -34 -10 -48 -30 M0 38 C18 32 32 23 45 12" fill="none" stroke="#d4c6ad" stroke-opacity="0.12" stroke-width="1.4"/>
  </g>
  <g transform="translate(361.2 136.4) rotate(28) scale(0.39285714285714285)" opacity="0.78">
    <path d="M0 -78 C42 -48 58 12 4 88 C-44 32 -48 -38 0 -78Z" fill="#2d2923"/>
    <path d="M0 -62 C10 -20 8 32 0 72" fill="none" stroke="#d4c6ad" stroke-opacity="0.18" stroke-width="2"/>
    <path d="M0 -8 C20 -18 34 -26 48 -42 M0 18 C-22 6 -34 -10 -48 -30 M0 38 C18 32 32 23 45 12" fill="none" stroke="#d4c6ad" stroke-opacity="0.12" stroke-width="1.4"/>
  </g>
  <g transform="translate(126 184.79999999999998) rotate(-66) scale(0.3333333333333333)" opacity="0.78">
    <path d="M0 -78 C42 -48 58 12 4 88 C-44 32 -48 -38 0 -78Z" fill="#4b4035"/>
    <path d="M0 -62 C10 -20 8 32 0 72" fill="none" stroke="#d4c6ad" stroke-opacity="0.18" stroke-width="2"/>
    <path d="M0 -8 C20 -18 34 -26 48 -42 M0 18 C-22 6 -34 -10 -48 -30 M0 38 C18 32 32 23 45 12" fill="none" stroke="#d4c6ad" stroke-opacity="0.12" stroke-width="1.4"/>
  </g>
  <g transform="translate(243.6 35.2) rotate(96) scale(0.3055555555555556)" opacity="0.78">
    <path d="M0 -78 C42 -48 58 12 4 88 C-44 32 -48 -38 0 -78Z" fill="#d1c4aa"/>
    <path d="M0 -62 C10 -20 8 32 0 72" fill="none" stroke="#d4c6ad" stroke-opacity="0.18" stroke-width="2"/>
    <path d="M0 -8 C20 -18 34 -26 48 -42 M0 18 C-22 6 -34 -10 -48 -30 M0 38 C18 32 32 23 45 12" fill="none" stroke="#d4c6ad" stroke-opacity="0.12" stroke-width="1.4"/>
  </g>
  <g transform="translate(25.2 171.6) rotate(24) scale(0.3142857142857143)" opacity="0.78">
    <path d="M0 -78 C42 -48 58 12 4 88 C-44 32 -48 -38 0 -78Z" fill="#0d1110"/>
    <path d="M0 -62 C10 -20 8 32 0 72" fill="none" stroke="#d4c6ad" stroke-opacity="0.18" stroke-width="2"/>
    <path d="M0 -8 C20 -18 34 -26 48 -42 M0 18 C-22 6 -34 -10 -48 -30 M0 38 C18 32 32 23 45 12" fill="none" stroke="#d4c6ad" stroke-opacity="0.12" stroke-width="1.4"/>
  </g>
  <g transform="rotate(-16 327.6 44)" opacity="0.88">
    <ellipse cx="327.6" cy="44" rx="39.6" ry="15.400000000000002" fill="none" stroke="#e8e3d8" stroke-opacity="0.46" stroke-width="2"/>
    <ellipse cx="327.6" cy="44" rx="25.344" ry="8.008000000000001" fill="#cfc8ba" fill-opacity="0.11" stroke="#2b2d2d" stroke-opacity="0.35" stroke-width="1"/>
    <ellipse cx="320.47200000000004" cy="41.228" rx="7.920000000000001" ry="1.5400000000000003" fill="#fff" opacity="0.20"/>
  </g>
  <g transform="rotate(24 75.6 39.6)" opacity="0.88">
    <ellipse cx="75.6" cy="39.6" rx="28.6" ry="11" fill="none" stroke="#e8e3d8" stroke-opacity="0.46" stroke-width="2"/>
    <ellipse cx="75.6" cy="39.6" rx="18.304000000000002" ry="5.720000000000001" fill="#cfc8ba" fill-opacity="0.11" stroke="#2b2d2d" stroke-opacity="0.35" stroke-width="1"/>
    <ellipse cx="70.452" cy="37.620000000000005" rx="5.720000000000001" ry="1.1" fill="#fff" opacity="0.20"/>
  </g>
  <g transform="rotate(48 369.6 105.6)" opacity="0.88">
    <ellipse cx="369.6" cy="105.6" rx="26.4" ry="9.9" fill="none" stroke="#e8e3d8" stroke-opacity="0.46" stroke-width="2"/>
    <ellipse cx="369.6" cy="105.6" rx="16.896" ry="5.148000000000001" fill="#cfc8ba" fill-opacity="0.11" stroke="#2b2d2d" stroke-opacity="0.35" stroke-width="1"/>
    <ellipse cx="364.848" cy="103.818" rx="5.28" ry="0.9900000000000001" fill="#fff" opacity="0.20"/>
  </g>
  
  <g transform="translate(180.6 118.80000000000001) rotate(5)" filter="url(#photo-shadow)">
    <rect x="-25.256" y="-52.315999999999995" width="50.512" height="104.63199999999999" rx="6.56656" fill="#080a0b"/>
    <rect x="-22.47784" y="-48.780159999999995" width="44.95568" height="97.56031999999999" rx="4.79864" fill="#ece8dd"/>
    <rect x="-10.102400000000001" y="-51.0532" width="20.204800000000002" height="1.7679200000000002" rx="1.01024" fill="#171717"/>
    <text x="0" y="-30.343279999999996" text-anchor="middle" font-family="Georgia, serif" font-size="5.30376" letter-spacing="2" fill="#2a2a27">CRM SYNC</text>
    <text x="0" y="-21.97272" text-anchor="middle" font-family="Arial, Helvetica, sans-serif" font-size="2.77816" letter-spacing="4" fill="#7d7466">PROOF ENGINE</text>
    <rect x="-16.16384" y="-11.509519999999998" width="32.32768" height="26.157999999999998" fill="#0d1113" opacity="0.88"/>
    <text x="0" y="-0.52316" text-anchor="middle" font-family="Arial Black, Arial, sans-serif" font-size="4.54608" letter-spacing="1.6" fill="#f7f4ea">OS</text>
    <rect x="-14.64848" y="20.9264" width="23.639616" height="2" fill="#171717" opacity="0.28"/>
<rect x="-14.64848" y="23.199440000000003" width="19.396608" height="2" fill="#171717" opacity="0.335"/>
<rect x="-14.64848" y="25.47248" width="15.153599999999999" height="2" fill="#171717" opacity="0.39"/>
<rect x="-14.64848" y="27.74552" width="23.639616" height="2" fill="#171717" opacity="0.44500000000000006"/>
<rect x="-14.64848" y="30.01856" width="19.396608" height="2" fill="#171717" opacity="0.5"/>
    <rect x="-14.64848" y="36.621199999999995" width="29.29696" height="7.847399999999999" fill="#d8d0c2" opacity="0.65"/>
  </g>
  <rect width="100%" height="100%" fill="#000" opacity="0.14"/>

</svg>
