<svg xmlns="http://www.w3.org/2000/svg" width="1400" height="900" viewBox="0 0 1400 900" role="img" aria-label="cube Inbox Engine">
  <defs>
    <linearGradient id="steel" x1="0" y1="0" x2="1" y2="1">
      <stop offset="0" stop-color="#f7fbff"/>
      <stop offset="0.18" stop-color="#8d99a6"/>
      <stop offset="0.48" stop-color="#202832"/>
      <stop offset="0.72" stop-color="#cad7e6"/>
      <stop offset="1" stop-color="#111821"/>
    </linearGradient>
    <linearGradient id="ink" x1="0" y1="0" x2="1" y2="1">
      <stop offset="0" stop-color="#05070a"/>
      <stop offset="0.52" stop-color="#101824"/>
      <stop offset="1" stop-color="#030405"/>
    </linearGradient>
    <radialGradient id="pulse" cx="50%" cy="45%" r="70%">
      <stop offset="0" stop-color="#9bdcf5"/>
      <stop offset="0.26" stop-color="#1f6f91"/>
      <stop offset="0.68" stop-color="#071620"/>
      <stop offset="1" stop-color="#020304"/>
    </radialGradient>
    <filter id="glow" x="-40%" y="-40%" width="180%" height="180%">
      <feGaussianBlur stdDeviation="6" result="blur"/>
      <feColorMatrix in="blur" type="matrix" values="0 0 0 0 0.2 0 0 0 0 0.72 0 0 0 0 1 0 0 0 .8 0"/>
      <feMerge><feMergeNode/><feMergeNode in="SourceGraphic"/></feMerge>
    </filter>
    <pattern id="grid" width="44" height="44" patternUnits="userSpaceOnUse">
      <path d="M44 0H0v44" fill="none" stroke="#ffffff" stroke-opacity="0.08" stroke-width="1"/>
    </pattern>
  </defs>
  
  <defs>
    <filter id="photo-grain" x="-10%" y="-10%" width="120%" height="120%">
      <feTurbulence type="fractalNoise" baseFrequency="0.82" numOctaves="4" seed="22"/>
      <feColorMatrix type="saturate" values="0"/>
      <feComponentTransfer><feFuncA type="table" tableValues="0 0.34"/></feComponentTransfer>
    </filter>
    <filter id="photo-shadow" x="-40%" y="-40%" width="180%" height="180%">
      <feDropShadow dx="16.2" dy="23.4" stdDeviation="16.2" flood-color="#000" flood-opacity="0.55"/>
    </filter>
    <radialGradient id="photo-light" cx="70%" cy="18%" r="78%">
      <stop offset="0" stop-color="#d9d1c2" stop-opacity="0.46"/>
      <stop offset="0.42" stop-color="#9b8a76" stop-opacity="0.16"/>
      <stop offset="1" stop-color="#050607" stop-opacity="1"/>
    </radialGradient>
  </defs>
  <rect width="100%" height="100%" fill="#343a3c"/>
  <rect width="100%" height="100%" fill="url(#photo-light)"/>
  <rect width="100%" height="100%" fill="#fff" filter="url(#photo-grain)" opacity="0.70"/>
  <rect width="100%" height="100%" fill="#000" opacity="0.06"/>
  <ellipse cx="259.0" cy="319.5" rx="90.0" ry="22.5" fill="#ece2d2" opacity="0.025" transform="rotate(10 259.0 319.5)"/>
<ellipse cx="450.8" cy="394.2" rx="121.5" ry="35.1" fill="#ece2d2" opacity="0.035" transform="rotate(39 450.8 394.2)"/>
<ellipse cx="642.6" cy="468.9" rx="153.0" ry="47.7" fill="#ece2d2" opacity="0.045" transform="rotate(-22 642.6 468.9)"/>
<ellipse cx="834.4" cy="543.6" rx="184.5" ry="22.5" fill="#ece2d2" opacity="0.055" transform="rotate(7 834.4 543.6)"/>
<ellipse cx="1026.2" cy="618.3" rx="90.0" ry="35.1" fill="#ece2d2" opacity="0.065" transform="rotate(36 1026.2 618.3)"/>
<ellipse cx="1218.0" cy="693.0" rx="121.5" ry="47.7" fill="#ece2d2" opacity="0.025" transform="rotate(-25 1218.0 693.0)"/>
<ellipse cx="9.8" cy="767.7" rx="153.0" ry="22.5" fill="#ece2d2" opacity="0.035" transform="rotate(4 9.8 767.7)"/>
<ellipse cx="201.6" cy="842.4" rx="184.5" ry="35.1" fill="#ece2d2" opacity="0.045" transform="rotate(33 201.6 842.4)"/>
<ellipse cx="393.4" cy="17.1" rx="90.0" ry="47.7" fill="#ece2d2" opacity="0.055" transform="rotate(-28 393.4 17.1)"/>
<ellipse cx="585.2" cy="91.8" rx="121.5" ry="22.5" fill="#ece2d2" opacity="0.065" transform="rotate(1 585.2 91.8)"/>
<ellipse cx="777.0" cy="166.5" rx="153.0" ry="35.1" fill="#ece2d2" opacity="0.025" transform="rotate(30 777.0 166.5)"/>
<ellipse cx="968.8" cy="241.2" rx="184.5" ry="47.7" fill="#ece2d2" opacity="0.035" transform="rotate(-31 968.8 241.2)"/>
  <circle cx="852.6" cy="407.7" r="1.08" fill="#d8ccb9" opacity="0.12"/>
<circle cx="938.0" cy="487.8" r="1.75" fill="#0a0b0b" opacity="0.15"/>
<circle cx="1023.4" cy="567.9" r="2.43" fill="#827867" opacity="0.19"/>
<circle cx="1108.8" cy="648.0" r="3.10" fill="#827867" opacity="0.23"/>
<circle cx="1194.2" cy="728.1" r="3.78" fill="#d8ccb9" opacity="0.26"/>
<circle cx="1279.6" cy="808.2" r="1.08" fill="#0a0b0b" opacity="0.30"/>
<circle cx="1365.0" cy="888.3" r="1.75" fill="#827867" opacity="0.12"/>
<circle cx="50.4" cy="68.4" r="2.43" fill="#827867" opacity="0.15"/>
<circle cx="135.8" cy="148.5" r="3.10" fill="#d8ccb9" opacity="0.19"/>
<circle cx="221.2" cy="228.6" r="3.78" fill="#0a0b0b" opacity="0.23"/>
<circle cx="306.6" cy="308.7" r="1.08" fill="#827867" opacity="0.26"/>
<circle cx="392.0" cy="388.8" r="1.75" fill="#827867" opacity="0.30"/>
<circle cx="477.4" cy="468.9" r="2.43" fill="#d8ccb9" opacity="0.12"/>
<circle cx="562.8" cy="549.0" r="3.10" fill="#0a0b0b" opacity="0.15"/>
<circle cx="648.2" cy="629.1" r="3.78" fill="#827867" opacity="0.19"/>
<circle cx="733.6" cy="709.2" r="1.08" fill="#827867" opacity="0.23"/>
<circle cx="819.0" cy="789.3" r="1.75" fill="#d8ccb9" opacity="0.26"/>
<circle cx="904.4" cy="869.4" r="2.43" fill="#0a0b0b" opacity="0.30"/>
<circle cx="989.8" cy="49.5" r="3.10" fill="#827867" opacity="0.12"/>
<circle cx="1075.2" cy="129.6" r="3.78" fill="#827867" opacity="0.15"/>
<circle cx="1160.6" cy="209.7" r="1.08" fill="#d8ccb9" opacity="0.19"/>
<circle cx="1246.0" cy="289.8" r="1.75" fill="#0a0b0b" opacity="0.23"/>
<circle cx="1331.4" cy="369.9" r="2.43" fill="#827867" opacity="0.26"/>
<circle cx="16.8" cy="450.0" r="3.10" fill="#827867" opacity="0.30"/>
<circle cx="102.2" cy="530.1" r="3.78" fill="#d8ccb9" opacity="0.12"/>
<circle cx="187.6" cy="610.2" r="1.08" fill="#0a0b0b" opacity="0.15"/>
<circle cx="273.0" cy="690.3" r="1.75" fill="#827867" opacity="0.19"/>
<circle cx="358.4" cy="770.4" r="2.43" fill="#827867" opacity="0.23"/>
<circle cx="443.8" cy="850.5" r="3.10" fill="#d8ccb9" opacity="0.26"/>
<circle cx="529.2" cy="30.6" r="3.78" fill="#0a0b0b" opacity="0.30"/>
<circle cx="614.6" cy="110.7" r="1.08" fill="#827867" opacity="0.12"/>
<circle cx="700.0" cy="190.8" r="1.75" fill="#827867" opacity="0.15"/>
<circle cx="785.4" cy="270.9" r="2.43" fill="#d8ccb9" opacity="0.19"/>
<circle cx="870.8" cy="351.0" r="3.10" fill="#0a0b0b" opacity="0.23"/>
<circle cx="956.2" cy="431.1" r="3.78" fill="#827867" opacity="0.26"/>
<circle cx="1041.6" cy="511.2" r="1.08" fill="#827867" opacity="0.30"/>
<circle cx="1127.0" cy="591.3" r="1.75" fill="#d8ccb9" opacity="0.12"/>
<circle cx="1212.4" cy="671.4" r="2.43" fill="#0a0b0b" opacity="0.15"/>
<circle cx="1297.8" cy="751.5" r="3.10" fill="#827867" opacity="0.19"/>
<circle cx="1383.2" cy="831.6" r="3.78" fill="#827867" opacity="0.23"/>
<circle cx="68.6" cy="11.7" r="1.08" fill="#d8ccb9" opacity="0.26"/>
<circle cx="154.0" cy="91.8" r="1.75" fill="#0a0b0b" opacity="0.30"/>
<circle cx="239.4" cy="171.9" r="2.43" fill="#827867" opacity="0.12"/>
<circle cx="324.8" cy="252.0" r="3.10" fill="#827867" opacity="0.15"/>
<circle cx="410.2" cy="332.1" r="3.78" fill="#d8ccb9" opacity="0.19"/>
<circle cx="495.6" cy="412.2" r="1.08" fill="#0a0b0b" opacity="0.23"/>
<circle cx="581.0" cy="492.3" r="1.75" fill="#827867" opacity="0.26"/>
<circle cx="666.4" cy="572.4" r="2.43" fill="#827867" opacity="0.30"/>
<circle cx="751.8" cy="652.5" r="3.10" fill="#d8ccb9" opacity="0.12"/>
<circle cx="837.2" cy="732.6" r="3.78" fill="#0a0b0b" opacity="0.15"/>
<circle cx="922.6" cy="812.7" r="1.08" fill="#827867" opacity="0.19"/>
<circle cx="1008.0" cy="892.8" r="1.75" fill="#827867" opacity="0.23"/>
<circle cx="1093.4" cy="72.9" r="2.43" fill="#d8ccb9" opacity="0.26"/>
<circle cx="1178.8" cy="153.0" r="3.10" fill="#0a0b0b" opacity="0.30"/>
<circle cx="1264.2" cy="233.1" r="3.78" fill="#827867" opacity="0.12"/>
<circle cx="1349.6" cy="313.2" r="1.08" fill="#827867" opacity="0.15"/>
<circle cx="35.0" cy="393.3" r="1.75" fill="#d8ccb9" opacity="0.19"/>
<circle cx="120.4" cy="473.4" r="2.43" fill="#0a0b0b" opacity="0.23"/>
<circle cx="205.8" cy="553.5" r="3.10" fill="#827867" opacity="0.26"/>
<circle cx="291.2" cy="633.6" r="3.78" fill="#827867" opacity="0.30"/>
<circle cx="376.6" cy="713.7" r="1.08" fill="#d8ccb9" opacity="0.12"/>
<circle cx="462.0" cy="793.8" r="1.75" fill="#0a0b0b" opacity="0.15"/>
<circle cx="547.4" cy="873.9" r="2.43" fill="#827867" opacity="0.19"/>
<circle cx="632.8" cy="54.0" r="3.10" fill="#827867" opacity="0.23"/>
<circle cx="718.2" cy="134.1" r="3.78" fill="#d8ccb9" opacity="0.26"/>
<circle cx="803.6" cy="214.2" r="1.08" fill="#0a0b0b" opacity="0.30"/>
<circle cx="889.0" cy="294.3" r="1.75" fill="#827867" opacity="0.12"/>
<circle cx="974.4" cy="374.4" r="2.43" fill="#827867" opacity="0.15"/>
<circle cx="1059.8" cy="454.5" r="3.10" fill="#d8ccb9" opacity="0.19"/>
<circle cx="1145.2" cy="534.6" r="3.78" fill="#0a0b0b" opacity="0.23"/>
<circle cx="1230.6" cy="614.7" r="1.08" fill="#827867" opacity="0.26"/>
<circle cx="1316.0" cy="694.8" r="1.75" fill="#827867" opacity="0.30"/>
<circle cx="1.4" cy="774.9" r="2.43" fill="#d8ccb9" opacity="0.12"/>
<circle cx="86.8" cy="855.0" r="3.10" fill="#0a0b0b" opacity="0.15"/>
<circle cx="172.2" cy="35.1" r="3.78" fill="#827867" opacity="0.19"/>
<circle cx="257.6" cy="115.2" r="1.08" fill="#827867" opacity="0.23"/>
<circle cx="343.0" cy="195.3" r="1.75" fill="#d8ccb9" opacity="0.26"/>
<circle cx="428.4" cy="275.4" r="2.43" fill="#0a0b0b" opacity="0.30"/>
<circle cx="513.8" cy="355.5" r="3.10" fill="#827867" opacity="0.12"/>
<circle cx="599.2" cy="435.6" r="3.78" fill="#827867" opacity="0.15"/>
<circle cx="684.6" cy="515.7" r="1.08" fill="#d8ccb9" opacity="0.19"/>
<circle cx="770.0" cy="595.8" r="1.75" fill="#0a0b0b" opacity="0.23"/>
<circle cx="855.4" cy="675.9" r="2.43" fill="#827867" opacity="0.26"/>
<circle cx="940.8" cy="756.0" r="3.10" fill="#827867" opacity="0.30"/>
<circle cx="1026.2" cy="836.1" r="3.78" fill="#d8ccb9" opacity="0.12"/>
<circle cx="1111.6" cy="16.2" r="1.08" fill="#0a0b0b" opacity="0.15"/>
<circle cx="1197.0" cy="96.3" r="1.75" fill="#827867" opacity="0.19"/>
<circle cx="1282.4" cy="176.4" r="2.43" fill="#827867" opacity="0.23"/>
<circle cx="1367.8" cy="256.5" r="3.10" fill="#d8ccb9" opacity="0.26"/>
<circle cx="53.2" cy="336.6" r="3.78" fill="#0a0b0b" opacity="0.30"/>
<circle cx="138.6" cy="416.7" r="1.08" fill="#827867" opacity="0.12"/>
<circle cx="224.0" cy="496.8" r="1.75" fill="#827867" opacity="0.15"/>
<circle cx="309.4" cy="576.9" r="2.43" fill="#d8ccb9" opacity="0.19"/>
<circle cx="394.8" cy="657.0" r="3.10" fill="#0a0b0b" opacity="0.23"/>
<circle cx="480.2" cy="737.1" r="3.78" fill="#827867" opacity="0.26"/>
<circle cx="565.6" cy="817.2" r="1.08" fill="#827867" opacity="0.30"/>
<circle cx="651.0" cy="897.3" r="1.75" fill="#d8ccb9" opacity="0.12"/>
<circle cx="736.4" cy="77.4" r="2.43" fill="#0a0b0b" opacity="0.15"/>
<circle cx="821.8" cy="157.5" r="3.10" fill="#827867" opacity="0.19"/>
<circle cx="907.2" cy="237.6" r="3.78" fill="#827867" opacity="0.23"/>
<circle cx="992.6" cy="317.7" r="1.08" fill="#d8ccb9" opacity="0.26"/>
<circle cx="1078.0" cy="397.8" r="1.75" fill="#0a0b0b" opacity="0.30"/>
<circle cx="1163.4" cy="477.9" r="2.43" fill="#827867" opacity="0.12"/>
<circle cx="1248.8" cy="558.0" r="3.10" fill="#827867" opacity="0.15"/>
<circle cx="1334.2" cy="638.1" r="3.78" fill="#d8ccb9" opacity="0.19"/>
<circle cx="19.6" cy="718.2" r="1.08" fill="#0a0b0b" opacity="0.23"/>
<circle cx="105.0" cy="798.3" r="1.75" fill="#827867" opacity="0.26"/>
<circle cx="190.4" cy="878.4" r="2.43" fill="#827867" opacity="0.30"/>
<circle cx="275.8" cy="58.5" r="3.10" fill="#d8ccb9" opacity="0.12"/>
<circle cx="361.2" cy="138.6" r="3.78" fill="#0a0b0b" opacity="0.15"/>
<circle cx="446.6" cy="218.7" r="1.08" fill="#827867" opacity="0.19"/>
<circle cx="532.0" cy="298.8" r="1.75" fill="#827867" opacity="0.23"/>
<circle cx="617.4" cy="378.9" r="2.43" fill="#d8ccb9" opacity="0.26"/>
<circle cx="702.8" cy="459.0" r="3.10" fill="#0a0b0b" opacity="0.30"/>
<circle cx="788.2" cy="539.1" r="3.78" fill="#827867" opacity="0.12"/>
<circle cx="873.6" cy="619.2" r="1.08" fill="#827867" opacity="0.15"/>
<circle cx="959.0" cy="699.3" r="1.75" fill="#d8ccb9" opacity="0.19"/>
<circle cx="1044.4" cy="779.4" r="2.43" fill="#0a0b0b" opacity="0.23"/>
<circle cx="1129.8" cy="859.5" r="3.10" fill="#827867" opacity="0.26"/>
<circle cx="1215.2" cy="39.6" r="3.78" fill="#827867" opacity="0.30"/>
<circle cx="1300.6" cy="119.7" r="1.08" fill="#d8ccb9" opacity="0.12"/>
<circle cx="1386.0" cy="199.8" r="1.75" fill="#0a0b0b" opacity="0.15"/>
<circle cx="71.4" cy="279.9" r="2.43" fill="#827867" opacity="0.19"/>
<circle cx="156.8" cy="360.0" r="3.10" fill="#827867" opacity="0.23"/>
<circle cx="242.2" cy="440.1" r="3.78" fill="#d8ccb9" opacity="0.26"/>
<circle cx="327.6" cy="520.2" r="1.08" fill="#0a0b0b" opacity="0.30"/>
<circle cx="413.0" cy="600.3" r="1.75" fill="#827867" opacity="0.12"/>
<circle cx="498.4" cy="680.4" r="2.43" fill="#827867" opacity="0.15"/>
<circle cx="583.8" cy="760.5" r="3.10" fill="#d8ccb9" opacity="0.19"/>
<circle cx="669.2" cy="840.6" r="3.78" fill="#0a0b0b" opacity="0.23"/>
<circle cx="754.6" cy="20.7" r="1.08" fill="#827867" opacity="0.26"/>
<circle cx="840.0" cy="100.8" r="1.75" fill="#827867" opacity="0.30"/>
<circle cx="925.4" cy="180.9" r="2.43" fill="#d8ccb9" opacity="0.12"/>
<circle cx="1010.8" cy="261.0" r="3.10" fill="#0a0b0b" opacity="0.15"/>
<circle cx="1096.2" cy="341.1" r="3.78" fill="#827867" opacity="0.19"/>
<circle cx="1181.6" cy="421.2" r="1.08" fill="#827867" opacity="0.23"/>
<circle cx="1267.0" cy="501.3" r="1.75" fill="#d8ccb9" opacity="0.26"/>
<circle cx="1352.4" cy="581.4" r="2.43" fill="#0a0b0b" opacity="0.30"/>
<circle cx="37.8" cy="661.5" r="3.10" fill="#827867" opacity="0.12"/>
<circle cx="123.2" cy="741.6" r="3.78" fill="#827867" opacity="0.15"/>
<circle cx="208.6" cy="821.7" r="1.08" fill="#d8ccb9" opacity="0.19"/>
<circle cx="294.0" cy="1.8" r="1.75" fill="#0a0b0b" opacity="0.23"/>
<circle cx="379.4" cy="81.9" r="2.43" fill="#827867" opacity="0.26"/>
<circle cx="464.8" cy="162.0" r="3.10" fill="#827867" opacity="0.30"/>
<circle cx="550.2" cy="242.1" r="3.78" fill="#d8ccb9" opacity="0.12"/>
<circle cx="635.6" cy="322.2" r="1.08" fill="#0a0b0b" opacity="0.15"/>
<circle cx="721.0" cy="402.3" r="1.75" fill="#827867" opacity="0.19"/>
<circle cx="806.4" cy="482.4" r="2.43" fill="#827867" opacity="0.23"/>
<circle cx="891.8" cy="562.5" r="3.10" fill="#d8ccb9" opacity="0.26"/>
<circle cx="977.2" cy="642.6" r="3.78" fill="#0a0b0b" opacity="0.30"/>
<circle cx="1062.6" cy="722.7" r="1.08" fill="#827867" opacity="0.12"/>
<circle cx="1148.0" cy="802.8" r="1.75" fill="#827867" opacity="0.15"/>
<circle cx="1233.4" cy="882.9" r="2.43" fill="#d8ccb9" opacity="0.19"/>
<circle cx="1318.8" cy="63.0" r="3.10" fill="#0a0b0b" opacity="0.23"/>
<circle cx="4.2" cy="143.1" r="3.78" fill="#827867" opacity="0.26"/>
<circle cx="89.6" cy="223.2" r="1.08" fill="#827867" opacity="0.30"/>
<circle cx="175.0" cy="303.3" r="1.75" fill="#d8ccb9" opacity="0.12"/>
<circle cx="260.4" cy="383.4" r="2.43" fill="#0a0b0b" opacity="0.15"/>
<circle cx="345.8" cy="463.5" r="3.10" fill="#827867" opacity="0.19"/>
<circle cx="431.2" cy="543.6" r="3.78" fill="#827867" opacity="0.23"/>
<circle cx="516.6" cy="623.7" r="1.08" fill="#d8ccb9" opacity="0.26"/>
<circle cx="602.0" cy="703.8" r="1.75" fill="#0a0b0b" opacity="0.30"/>
<circle cx="687.4" cy="783.9" r="2.43" fill="#827867" opacity="0.12"/>
<circle cx="772.8" cy="864.0" r="3.10" fill="#827867" opacity="0.15"/>
<circle cx="858.2" cy="44.1" r="3.78" fill="#d8ccb9" opacity="0.19"/>
<circle cx="943.6" cy="124.2" r="1.08" fill="#0a0b0b" opacity="0.23"/>
<circle cx="1029.0" cy="204.3" r="1.75" fill="#827867" opacity="0.26"/>
<circle cx="1114.4" cy="284.4" r="2.43" fill="#827867" opacity="0.30"/>
<circle cx="1199.8" cy="364.5" r="3.10" fill="#d8ccb9" opacity="0.12"/>
<circle cx="1285.2" cy="444.6" r="3.78" fill="#0a0b0b" opacity="0.15"/>
<circle cx="1370.6" cy="524.7" r="1.08" fill="#827867" opacity="0.19"/>
<circle cx="56.0" cy="604.8" r="1.75" fill="#827867" opacity="0.23"/>
<circle cx="141.4" cy="684.9" r="2.43" fill="#d8ccb9" opacity="0.26"/>
<circle cx="226.8" cy="765.0" r="3.10" fill="#0a0b0b" opacity="0.30"/>
<circle cx="312.2" cy="845.1" r="3.78" fill="#827867" opacity="0.12"/>
<circle cx="397.6" cy="25.2" r="1.08" fill="#827867" opacity="0.15"/>
<circle cx="483.0" cy="105.3" r="1.75" fill="#d8ccb9" opacity="0.19"/>
<circle cx="568.4" cy="185.4" r="2.43" fill="#0a0b0b" opacity="0.23"/>
<circle cx="653.8" cy="265.5" r="3.10" fill="#827867" opacity="0.26"/>
<circle cx="739.2" cy="345.6" r="3.78" fill="#827867" opacity="0.30"/>
  <g transform="translate(168 306) rotate(-34) scale(1.7307692307692308)" opacity="0.78">
    <path d="M0 -78 C42 -48 58 12 4 88 C-44 32 -48 -38 0 -78Z" fill="#151918"/>
    <path d="M0 -62 C10 -20 8 32 0 72" fill="none" stroke="#d4c6ad" stroke-opacity="0.18" stroke-width="2"/>
    <path d="M0 -8 C20 -18 34 -26 48 -42 M0 18 C-22 6 -34 -10 -48 -30 M0 38 C18 32 32 23 45 12" fill="none" stroke="#d4c6ad" stroke-opacity="0.12" stroke-width="1.4"/>
  </g>
  <g transform="translate(1204 558) rotate(28) scale(1.6071428571428572)" opacity="0.78">
    <path d="M0 -78 C42 -48 58 12 4 88 C-44 32 -48 -38 0 -78Z" fill="#2d2923"/>
    <path d="M0 -62 C10 -20 8 32 0 72" fill="none" stroke="#d4c6ad" stroke-opacity="0.18" stroke-width="2"/>
    <path d="M0 -8 C20 -18 34 -26 48 -42 M0 18 C-22 6 -34 -10 -48 -30 M0 38 C18 32 32 23 45 12" fill="none" stroke="#d4c6ad" stroke-opacity="0.12" stroke-width="1.4"/>
  </g>
  <g transform="translate(420 756) rotate(-66) scale(1.3636363636363635)" opacity="0.78">
    <path d="M0 -78 C42 -48 58 12 4 88 C-44 32 -48 -38 0 -78Z" fill="#4b4035"/>
    <path d="M0 -62 C10 -20 8 32 0 72" fill="none" stroke="#d4c6ad" stroke-opacity="0.18" stroke-width="2"/>
    <path d="M0 -8 C20 -18 34 -26 48 -42 M0 18 C-22 6 -34 -10 -48 -30 M0 38 C18 32 32 23 45 12" fill="none" stroke="#d4c6ad" stroke-opacity="0.12" stroke-width="1.4"/>
  </g>
  <g transform="translate(812 144) rotate(96) scale(1.25)" opacity="0.78">
    <path d="M0 -78 C42 -48 58 12 4 88 C-44 32 -48 -38 0 -78Z" fill="#d1c4aa"/>
    <path d="M0 -62 C10 -20 8 32 0 72" fill="none" stroke="#d4c6ad" stroke-opacity="0.18" stroke-width="2"/>
    <path d="M0 -8 C20 -18 34 -26 48 -42 M0 18 C-22 6 -34 -10 -48 -30 M0 38 C18 32 32 23 45 12" fill="none" stroke="#d4c6ad" stroke-opacity="0.12" stroke-width="1.4"/>
  </g>
  <g transform="translate(84 702) rotate(24) scale(1.2857142857142858)" opacity="0.78">
    <path d="M0 -78 C42 -48 58 12 4 88 C-44 32 -48 -38 0 -78Z" fill="#0d1110"/>
    <path d="M0 -62 C10 -20 8 32 0 72" fill="none" stroke="#d4c6ad" stroke-opacity="0.18" stroke-width="2"/>
    <path d="M0 -8 C20 -18 34 -26 48 -42 M0 18 C-22 6 -34 -10 -48 -30 M0 38 C18 32 32 23 45 12" fill="none" stroke="#d4c6ad" stroke-opacity="0.12" stroke-width="1.4"/>
  </g>
  <g transform="rotate(-16 1092 180)" opacity="0.88">
    <ellipse cx="1092" cy="180" rx="162" ry="63.00000000000001" fill="none" stroke="#e8e3d8" stroke-opacity="0.46" stroke-width="5.4"/>
    <ellipse cx="1092" cy="180" rx="103.68" ry="32.760000000000005" fill="#cfc8ba" fill-opacity="0.11" stroke="#2b2d2d" stroke-opacity="0.35" stroke-width="2.7"/>
    <ellipse cx="1062.84" cy="168.66" rx="32.4" ry="6.300000000000001" fill="#fff" opacity="0.20"/>
  </g>
  <g transform="rotate(24 252 162)" opacity="0.88">
    <ellipse cx="252" cy="162" rx="117" ry="45" fill="none" stroke="#e8e3d8" stroke-opacity="0.46" stroke-width="5.4"/>
    <ellipse cx="252" cy="162" rx="74.88" ry="23.400000000000002" fill="#cfc8ba" fill-opacity="0.11" stroke="#2b2d2d" stroke-opacity="0.35" stroke-width="2.7"/>
    <ellipse cx="230.94" cy="153.9" rx="23.400000000000002" ry="4.5" fill="#fff" opacity="0.20"/>
  </g>
  <g transform="rotate(48 1232 432)" opacity="0.88">
    <ellipse cx="1232" cy="432" rx="108" ry="40.5" fill="none" stroke="#e8e3d8" stroke-opacity="0.46" stroke-width="5.4"/>
    <ellipse cx="1232" cy="432" rx="69.12" ry="21.060000000000002" fill="#cfc8ba" fill-opacity="0.11" stroke="#2b2d2d" stroke-opacity="0.35" stroke-width="2.7"/>
    <ellipse cx="1212.56" cy="424.71" rx="21.6" ry="4.05" fill="#fff" opacity="0.20"/>
  </g>
  
    <g transform="translate(1008 288) rotate(9)" filter="url(#photo-shadow)">
    <rect x="-126.00000000000001" y="-108" width="252.00000000000003" height="216" fill="#f0ebe0" opacity="0.95"/>
    <text x="-95.76" y="-47.52" font-family="Georgia, serif" font-size="18.900000000000002" fill="#151515">FOLLOW UP</text>
    <rect x="-95.76" y="-10.8" width="105.84" height="38.879999999999995" fill="#0d1113"/>
    <rect x="-95.76" y="43.2" width="110.07360000000003" height="2" fill="#171717" opacity="0.28"/>
<rect x="-95.76" y="53.784000000000006" width="90.31680000000003" height="2" fill="#171717" opacity="0.335"/>
<rect x="-95.76" y="64.36800000000001" width="70.56000000000002" height="2" fill="#171717" opacity="0.39"/>
<rect x="-95.76" y="74.952" width="110.07360000000003" height="2" fill="#171717" opacity="0.44500000000000006"/>
<rect x="-95.76" y="85.536" width="90.31680000000003" height="2" fill="#171717" opacity="0.5"/>
  </g>
    <g transform="translate(364 252.00000000000003) rotate(-14)" filter="url(#photo-shadow)">
    <rect x="-99" y="-81" width="198" height="162" fill="#f0ebe0" opacity="0.95"/>
    <text x="-75.24" y="-35.64" font-family="Georgia, serif" font-size="14.85" fill="#151515">FOLLOW UP</text>
    <rect x="-75.24" y="-8.1" width="83.16" height="29.16" fill="#0d1113"/>
    <rect x="-75.24" y="32.4" width="86.48640000000002" height="2" fill="#171717" opacity="0.28"/>
<rect x="-75.24" y="40.716" width="70.96320000000001" height="2" fill="#171717" opacity="0.335"/>
<rect x="-75.24" y="49.032" width="55.440000000000005" height="2" fill="#171717" opacity="0.39"/>
<rect x="-75.24" y="57.348" width="86.48640000000002" height="2" fill="#171717" opacity="0.44500000000000006"/>
<rect x="-75.24" y="65.664" width="70.96320000000001" height="2" fill="#171717" opacity="0.5"/>
  </g>
    <g transform="translate(1120 630) rotate(-18)" filter="url(#photo-shadow)">
    <rect x="-72" y="-135" width="144" height="270" rx="25.919999999999998" fill="#c9c7c1" opacity="0.88"/>
    <rect x="-66" y="-128" width="132" height="256" rx="20.160000000000004" fill="#f5f2ea" opacity="0.32"/>
    <text x="0" y="-16.2" text-anchor="middle" font-family="Arial, Helvetica, sans-serif" font-size="12.959999999999999" letter-spacing="1.6" fill="#252525" opacity="0.78">AUDIT</text>
    <text x="0" y="43.2" text-anchor="middle" font-family="Arial, Helvetica, sans-serif" font-size="7.92" letter-spacing="1" fill="#555" opacity="0.62">OUTERSCOPE</text>
  </g>
    <g transform="translate(280 630) rotate(15)" filter="url(#photo-shadow)">
    <rect x="-63.00000000000001" y="-112.5" width="126.00000000000001" height="225" rx="22.680000000000003" fill="#c9c7c1" opacity="0.88"/>
    <rect x="-57.00000000000001" y="-105.5" width="114.00000000000001" height="211" rx="17.640000000000004" fill="#f5f2ea" opacity="0.32"/>
    <text x="0" y="-13.5" text-anchor="middle" font-family="Arial, Helvetica, sans-serif" font-size="11.340000000000002" letter-spacing="1.6" fill="#252525" opacity="0.78">OPS</text>
    <text x="0" y="36" text-anchor="middle" font-family="Arial, Helvetica, sans-serif" font-size="6.930000000000001" letter-spacing="1" fill="#555" opacity="0.62">OUTERSCOPE</text>
  </g>
  
  <g transform="translate(728 486.00000000000006) rotate(-3)" filter="url(#photo-shadow)">
    <rect x="-136.08" y="-281.88" width="272.16" height="563.76" rx="35.38080000000001" fill="#080a0b"/>
    <rect x="-121.11120000000001" y="-262.8288" width="242.22240000000002" height="525.6576" rx="25.855200000000004" fill="#ece8dd"/>
    <rect x="-54.43200000000001" y="-275.076" width="108.86400000000002" height="9.525600000000003" rx="5.443200000000001" fill="#171717"/>
    <text x="0" y="-163.4904" text-anchor="middle" font-family="Georgia, serif" font-size="28.576800000000002" letter-spacing="2" fill="#2a2a27">INBOX ENGINE</text>
    <text x="0" y="-118.38959999999999" text-anchor="middle" font-family="Arial, Helvetica, sans-serif" font-size="14.968800000000002" letter-spacing="4" fill="#7d7466">FOLLOW UP</text>
    <rect x="-87.09120000000001" y="-62.0136" width="174.18240000000003" height="140.94" fill="#0d1113" opacity="0.88"/>
    <text x="0" y="-2.8188" text-anchor="middle" font-family="Arial Black, Arial, sans-serif" font-size="24.494400000000002" letter-spacing="1.6" fill="#f7f4ea">OS</text>
    <rect x="-78.9264" y="112.75200000000001" width="127.37088000000001" height="2" fill="#171717" opacity="0.28"/>
<rect x="-78.9264" y="124.99920000000002" width="104.50944000000001" height="2" fill="#171717" opacity="0.335"/>
<rect x="-78.9264" y="137.24640000000002" width="81.64800000000001" height="2" fill="#171717" opacity="0.39"/>
<rect x="-78.9264" y="149.49360000000001" width="127.37088000000001" height="2" fill="#171717" opacity="0.44500000000000006"/>
<rect x="-78.9264" y="161.7408" width="104.50944000000001" height="2" fill="#171717" opacity="0.5"/>
    <rect x="-78.9264" y="197.31599999999997" width="157.8528" height="42.282" fill="#d8d0c2" opacity="0.65"/>
  </g>
  <rect width="100%" height="100%" fill="#000" opacity="0.14"/>

</svg>
