<svg xmlns="http://www.w3.org/2000/svg" width="1400" height="900" viewBox="0 0 1400 900" role="img" aria-label="cube Reporting Layer">
  <defs>
    <linearGradient id="steel" x1="0" y1="0" x2="1" y2="1">
      <stop offset="0" stop-color="#f7fbff"/>
      <stop offset="0.18" stop-color="#8d99a6"/>
      <stop offset="0.48" stop-color="#202832"/>
      <stop offset="0.72" stop-color="#cad7e6"/>
      <stop offset="1" stop-color="#111821"/>
    </linearGradient>
    <linearGradient id="ink" x1="0" y1="0" x2="1" y2="1">
      <stop offset="0" stop-color="#05070a"/>
      <stop offset="0.52" stop-color="#101824"/>
      <stop offset="1" stop-color="#030405"/>
    </linearGradient>
    <radialGradient id="pulse" cx="50%" cy="45%" r="70%">
      <stop offset="0" stop-color="#9bdcf5"/>
      <stop offset="0.26" stop-color="#1f6f91"/>
      <stop offset="0.68" stop-color="#071620"/>
      <stop offset="1" stop-color="#020304"/>
    </radialGradient>
    <filter id="glow" x="-40%" y="-40%" width="180%" height="180%">
      <feGaussianBlur stdDeviation="6" result="blur"/>
      <feColorMatrix in="blur" type="matrix" values="0 0 0 0 0.2 0 0 0 0 0.72 0 0 0 0 1 0 0 0 .8 0"/>
      <feMerge><feMergeNode/><feMergeNode in="SourceGraphic"/></feMerge>
    </filter>
    <pattern id="grid" width="44" height="44" patternUnits="userSpaceOnUse">
      <path d="M44 0H0v44" fill="none" stroke="#ffffff" stroke-opacity="0.08" stroke-width="1"/>
    </pattern>
  </defs>

  <defs>
    <filter id="photo-grain" x="-10%" y="-10%" width="120%" height="120%">
      <feTurbulence type="fractalNoise" baseFrequency="0.82" numOctaves="4" seed="23"/>
      <feColorMatrix type="saturate" values="0"/>
      <feComponentTransfer><feFuncA type="table" tableValues="0 0.34"/></feComponentTransfer>
    </filter>
    <filter id="photo-shadow" x="-40%" y="-40%" width="180%" height="180%">
      <feDropShadow dx="16.2" dy="23.4" stdDeviation="16.2" flood-color="#000" flood-opacity="0.55"/>
    </filter>
    <radialGradient id="photo-light" cx="28%" cy="18%" r="78%">
      <stop offset="0" stop-color="#d9d1c2" stop-opacity="0.46"/>
      <stop offset="0.42" stop-color="#c7c0b4" stop-opacity="0.16"/>
      <stop offset="1" stop-color="#050607" stop-opacity="1"/>
    </radialGradient>
  </defs>
  <rect width="100%" height="100%" fill="#1d2328"/>
  <rect width="100%" height="100%" fill="url(#photo-light)"/>
  <rect width="100%" height="100%" fill="#fff" filter="url(#photo-grain)" opacity="0.70"/>
  <rect width="100%" height="100%" fill="#000" opacity="0.06"/>
  <ellipse cx="310.8" cy="383.4" rx="90.0" ry="22.5" fill="#ece2d2" opacity="0.025" transform="rotate(21 310.8 383.4)"/>
<ellipse cx="502.6" cy="458.1" rx="121.5" ry="35.1" fill="#ece2d2" opacity="0.035" transform="rotate(-40 502.6 458.1)"/>
<ellipse cx="694.4" cy="532.8" rx="153.0" ry="47.7" fill="#ece2d2" opacity="0.045" transform="rotate(-11 694.4 532.8)"/>
<ellipse cx="886.2" cy="607.5" rx="184.5" ry="22.5" fill="#ece2d2" opacity="0.055" transform="rotate(18 886.2 607.5)"/>
<ellipse cx="1078.0" cy="682.2" rx="90.0" ry="35.1" fill="#ece2d2" opacity="0.065" transform="rotate(-43 1078.0 682.2)"/>
<ellipse cx="1269.8" cy="756.9" rx="121.5" ry="47.7" fill="#ece2d2" opacity="0.025" transform="rotate(-14 1269.8 756.9)"/>
<ellipse cx="61.6" cy="831.6" rx="153.0" ry="22.5" fill="#ece2d2" opacity="0.035" transform="rotate(15 61.6 831.6)"/>
<ellipse cx="253.4" cy="6.3" rx="184.5" ry="35.1" fill="#ece2d2" opacity="0.045" transform="rotate(44 253.4 6.3)"/>
<ellipse cx="445.2" cy="81.0" rx="90.0" ry="47.7" fill="#ece2d2" opacity="0.055" transform="rotate(-17 445.2 81.0)"/>
<ellipse cx="637.0" cy="155.7" rx="121.5" ry="22.5" fill="#ece2d2" opacity="0.065" transform="rotate(12 637.0 155.7)"/>
<ellipse cx="828.8" cy="230.4" rx="153.0" ry="35.1" fill="#ece2d2" opacity="0.025" transform="rotate(41 828.8 230.4)"/>
<ellipse cx="1020.6" cy="305.1" rx="184.5" ry="47.7" fill="#ece2d2" opacity="0.035" transform="rotate(-20 1020.6 305.1)"/>
  <circle cx="988.4" cy="455.4" r="1.75" fill="#d8ccb9" opacity="0.12"/>
<circle cx="1073.8" cy="535.5" r="2.43" fill="#0a0b0b" opacity="0.15"/>
<circle cx="1159.2" cy="615.6" r="3.10" fill="#827867" opacity="0.19"/>
<circle cx="1244.6" cy="695.7" r="3.78" fill="#827867" opacity="0.23"/>
<circle cx="1330.0" cy="775.8" r="1.08" fill="#d8ccb9" opacity="0.26"/>
<circle cx="15.4" cy="855.9" r="1.75" fill="#0a0b0b" opacity="0.30"/>
<circle cx="100.8" cy="36.0" r="2.43" fill="#827867" opacity="0.12"/>
<circle cx="186.2" cy="116.1" r="3.10" fill="#827867" opacity="0.15"/>
<circle cx="271.6" cy="196.2" r="3.78" fill="#d8ccb9" opacity="0.19"/>
<circle cx="357.0" cy="276.3" r="1.08" fill="#0a0b0b" opacity="0.23"/>
<circle cx="442.4" cy="356.4" r="1.75" fill="#827867" opacity="0.26"/>
<circle cx="527.8" cy="436.5" r="2.43" fill="#827867" opacity="0.30"/>
<circle cx="613.2" cy="516.6" r="3.10" fill="#d8ccb9" opacity="0.12"/>
<circle cx="698.6" cy="596.7" r="3.78" fill="#0a0b0b" opacity="0.15"/>
<circle cx="784.0" cy="676.8" r="1.08" fill="#827867" opacity="0.19"/>
<circle cx="869.4" cy="756.9" r="1.75" fill="#827867" opacity="0.23"/>
<circle cx="954.8" cy="837.0" r="2.43" fill="#d8ccb9" opacity="0.26"/>
<circle cx="1040.2" cy="17.1" r="3.10" fill="#0a0b0b" opacity="0.30"/>
<circle cx="1125.6" cy="97.2" r="3.78" fill="#827867" opacity="0.12"/>
<circle cx="1211.0" cy="177.3" r="1.08" fill="#827867" opacity="0.15"/>
<circle cx="1296.4" cy="257.4" r="1.75" fill="#d8ccb9" opacity="0.19"/>
<circle cx="1381.8" cy="337.5" r="2.43" fill="#0a0b0b" opacity="0.23"/>
<circle cx="67.2" cy="417.6" r="3.10" fill="#827867" opacity="0.26"/>
<circle cx="152.6" cy="497.7" r="3.78" fill="#827867" opacity="0.30"/>
<circle cx="238.0" cy="577.8" r="1.08" fill="#d8ccb9" opacity="0.12"/>
<circle cx="323.4" cy="657.9" r="1.75" fill="#0a0b0b" opacity="0.15"/>
<circle cx="408.8" cy="738.0" r="2.43" fill="#827867" opacity="0.19"/>
<circle cx="494.2" cy="818.1" r="3.10" fill="#827867" opacity="0.23"/>
<circle cx="579.6" cy="898.2" r="3.78" fill="#d8ccb9" opacity="0.26"/>
<circle cx="665.0" cy="78.3" r="1.08" fill="#0a0b0b" opacity="0.30"/>
<circle cx="750.4" cy="158.4" r="1.75" fill="#827867" opacity="0.12"/>
<circle cx="835.8" cy="238.5" r="2.43" fill="#827867" opacity="0.15"/>
<circle cx="921.2" cy="318.6" r="3.10" fill="#d8ccb9" opacity="0.19"/>
<circle cx="1006.6" cy="398.7" r="3.78" fill="#0a0b0b" opacity="0.23"/>
<circle cx="1092.0" cy="478.8" r="1.08" fill="#827867" opacity="0.26"/>
<circle cx="1177.4" cy="558.9" r="1.75" fill="#827867" opacity="0.30"/>
<circle cx="1262.8" cy="639.0" r="2.43" fill="#d8ccb9" opacity="0.12"/>
<circle cx="1348.2" cy="719.1" r="3.10" fill="#0a0b0b" opacity="0.15"/>
<circle cx="33.6" cy="799.2" r="3.78" fill="#827867" opacity="0.19"/>
<circle cx="119.0" cy="879.3" r="1.08" fill="#827867" opacity="0.23"/>
<circle cx="204.4" cy="59.4" r="1.75" fill="#d8ccb9" opacity="0.26"/>
<circle cx="289.8" cy="139.5" r="2.43" fill="#0a0b0b" opacity="0.30"/>
<circle cx="375.2" cy="219.6" r="3.10" fill="#827867" opacity="0.12"/>
<circle cx="460.6" cy="299.7" r="3.78" fill="#827867" opacity="0.15"/>
<circle cx="546.0" cy="379.8" r="1.08" fill="#d8ccb9" opacity="0.19"/>
<circle cx="631.4" cy="459.9" r="1.75" fill="#0a0b0b" opacity="0.23"/>
<circle cx="716.8" cy="540.0" r="2.43" fill="#827867" opacity="0.26"/>
<circle cx="802.2" cy="620.1" r="3.10" fill="#827867" opacity="0.30"/>
<circle cx="887.6" cy="700.2" r="3.78" fill="#d8ccb9" opacity="0.12"/>
<circle cx="973.0" cy="780.3" r="1.08" fill="#0a0b0b" opacity="0.15"/>
<circle cx="1058.4" cy="860.4" r="1.75" fill="#827867" opacity="0.19"/>
<circle cx="1143.8" cy="40.5" r="2.43" fill="#827867" opacity="0.23"/>
<circle cx="1229.2" cy="120.6" r="3.10" fill="#d8ccb9" opacity="0.26"/>
<circle cx="1314.6" cy="200.7" r="3.78" fill="#0a0b0b" opacity="0.30"/>
<circle cx="0.0" cy="280.8" r="1.08" fill="#827867" opacity="0.12"/>
<circle cx="85.4" cy="360.9" r="1.75" fill="#827867" opacity="0.15"/>
<circle cx="170.8" cy="441.0" r="2.43" fill="#d8ccb9" opacity="0.19"/>
<circle cx="256.2" cy="521.1" r="3.10" fill="#0a0b0b" opacity="0.23"/>
<circle cx="341.6" cy="601.2" r="3.78" fill="#827867" opacity="0.26"/>
<circle cx="427.0" cy="681.3" r="1.08" fill="#827867" opacity="0.30"/>
<circle cx="512.4" cy="761.4" r="1.75" fill="#d8ccb9" opacity="0.12"/>
<circle cx="597.8" cy="841.5" r="2.43" fill="#0a0b0b" opacity="0.15"/>
<circle cx="683.2" cy="21.6" r="3.10" fill="#827867" opacity="0.19"/>
<circle cx="768.6" cy="101.7" r="3.78" fill="#827867" opacity="0.23"/>
<circle cx="854.0" cy="181.8" r="1.08" fill="#d8ccb9" opacity="0.26"/>
<circle cx="939.4" cy="261.9" r="1.75" fill="#0a0b0b" opacity="0.30"/>
<circle cx="1024.8" cy="342.0" r="2.43" fill="#827867" opacity="0.12"/>
<circle cx="1110.2" cy="422.1" r="3.10" fill="#827867" opacity="0.15"/>
<circle cx="1195.6" cy="502.2" r="3.78" fill="#d8ccb9" opacity="0.19"/>
<circle cx="1281.0" cy="582.3" r="1.08" fill="#0a0b0b" opacity="0.23"/>
<circle cx="1366.4" cy="662.4" r="1.75" fill="#827867" opacity="0.26"/>
<circle cx="51.8" cy="742.5" r="2.43" fill="#827867" opacity="0.30"/>
<circle cx="137.2" cy="822.6" r="3.10" fill="#d8ccb9" opacity="0.12"/>
<circle cx="222.6" cy="2.7" r="3.78" fill="#0a0b0b" opacity="0.15"/>
<circle cx="308.0" cy="82.8" r="1.08" fill="#827867" opacity="0.19"/>
<circle cx="393.4" cy="162.9" r="1.75" fill="#827867" opacity="0.23"/>
<circle cx="478.8" cy="243.0" r="2.43" fill="#d8ccb9" opacity="0.26"/>
<circle cx="564.2" cy="323.1" r="3.10" fill="#0a0b0b" opacity="0.30"/>
<circle cx="649.6" cy="403.2" r="3.78" fill="#827867" opacity="0.12"/>
<circle cx="735.0" cy="483.3" r="1.08" fill="#827867" opacity="0.15"/>
<circle cx="820.4" cy="563.4" r="1.75" fill="#d8ccb9" opacity="0.19"/>
<circle cx="905.8" cy="643.5" r="2.43" fill="#0a0b0b" opacity="0.23"/>
<circle cx="991.2" cy="723.6" r="3.10" fill="#827867" opacity="0.26"/>
<circle cx="1076.6" cy="803.7" r="3.78" fill="#827867" opacity="0.30"/>
<circle cx="1162.0" cy="883.8" r="1.08" fill="#d8ccb9" opacity="0.12"/>
<circle cx="1247.4" cy="63.9" r="1.75" fill="#0a0b0b" opacity="0.15"/>
<circle cx="1332.8" cy="144.0" r="2.43" fill="#827867" opacity="0.19"/>
<circle cx="18.2" cy="224.1" r="3.10" fill="#827867" opacity="0.23"/>
<circle cx="103.6" cy="304.2" r="3.78" fill="#d8ccb9" opacity="0.26"/>
<circle cx="189.0" cy="384.3" r="1.08" fill="#0a0b0b" opacity="0.30"/>
<circle cx="274.4" cy="464.4" r="1.75" fill="#827867" opacity="0.12"/>
<circle cx="359.8" cy="544.5" r="2.43" fill="#827867" opacity="0.15"/>
<circle cx="445.2" cy="624.6" r="3.10" fill="#d8ccb9" opacity="0.19"/>
<circle cx="530.6" cy="704.7" r="3.78" fill="#0a0b0b" opacity="0.23"/>
<circle cx="616.0" cy="784.8" r="1.08" fill="#827867" opacity="0.26"/>
<circle cx="701.4" cy="864.9" r="1.75" fill="#827867" opacity="0.30"/>
<circle cx="786.8" cy="45.0" r="2.43" fill="#d8ccb9" opacity="0.12"/>
<circle cx="872.2" cy="125.1" r="3.10" fill="#0a0b0b" opacity="0.15"/>
<circle cx="957.6" cy="205.2" r="3.78" fill="#827867" opacity="0.19"/>
<circle cx="1043.0" cy="285.3" r="1.08" fill="#827867" opacity="0.23"/>
<circle cx="1128.4" cy="365.4" r="1.75" fill="#d8ccb9" opacity="0.26"/>
<circle cx="1213.8" cy="445.5" r="2.43" fill="#0a0b0b" opacity="0.30"/>
<circle cx="1299.2" cy="525.6" r="3.10" fill="#827867" opacity="0.12"/>
<circle cx="1384.6" cy="605.7" r="3.78" fill="#827867" opacity="0.15"/>
<circle cx="70.0" cy="685.8" r="1.08" fill="#d8ccb9" opacity="0.19"/>
<circle cx="155.4" cy="765.9" r="1.75" fill="#0a0b0b" opacity="0.23"/>
<circle cx="240.8" cy="846.0" r="2.43" fill="#827867" opacity="0.26"/>
<circle cx="326.2" cy="26.1" r="3.10" fill="#827867" opacity="0.30"/>
<circle cx="411.6" cy="106.2" r="3.78" fill="#d8ccb9" opacity="0.12"/>
<circle cx="497.0" cy="186.3" r="1.08" fill="#0a0b0b" opacity="0.15"/>
<circle cx="582.4" cy="266.4" r="1.75" fill="#827867" opacity="0.19"/>
<circle cx="667.8" cy="346.5" r="2.43" fill="#827867" opacity="0.23"/>
<circle cx="753.2" cy="426.6" r="3.10" fill="#d8ccb9" opacity="0.26"/>
<circle cx="838.6" cy="506.7" r="3.78" fill="#0a0b0b" opacity="0.30"/>
<circle cx="924.0" cy="586.8" r="1.08" fill="#827867" opacity="0.12"/>
<circle cx="1009.4" cy="666.9" r="1.75" fill="#827867" opacity="0.15"/>
<circle cx="1094.8" cy="747.0" r="2.43" fill="#d8ccb9" opacity="0.19"/>
<circle cx="1180.2" cy="827.1" r="3.10" fill="#0a0b0b" opacity="0.23"/>
<circle cx="1265.6" cy="7.2" r="3.78" fill="#827867" opacity="0.26"/>
<circle cx="1351.0" cy="87.3" r="1.08" fill="#827867" opacity="0.30"/>
<circle cx="36.4" cy="167.4" r="1.75" fill="#d8ccb9" opacity="0.12"/>
<circle cx="121.8" cy="247.5" r="2.43" fill="#0a0b0b" opacity="0.15"/>
<circle cx="207.2" cy="327.6" r="3.10" fill="#827867" opacity="0.19"/>
<circle cx="292.6" cy="407.7" r="3.78" fill="#827867" opacity="0.23"/>
<circle cx="378.0" cy="487.8" r="1.08" fill="#d8ccb9" opacity="0.26"/>
<circle cx="463.4" cy="567.9" r="1.75" fill="#0a0b0b" opacity="0.30"/>
<circle cx="548.8" cy="648.0" r="2.43" fill="#827867" opacity="0.12"/>
<circle cx="634.2" cy="728.1" r="3.10" fill="#827867" opacity="0.15"/>
<circle cx="719.6" cy="808.2" r="3.78" fill="#d8ccb9" opacity="0.19"/>
<circle cx="805.0" cy="888.3" r="1.08" fill="#0a0b0b" opacity="0.23"/>
<circle cx="890.4" cy="68.4" r="1.75" fill="#827867" opacity="0.26"/>
<circle cx="975.8" cy="148.5" r="2.43" fill="#827867" opacity="0.30"/>
<circle cx="1061.2" cy="228.6" r="3.10" fill="#d8ccb9" opacity="0.12"/>
<circle cx="1146.6" cy="308.7" r="3.78" fill="#0a0b0b" opacity="0.15"/>
<circle cx="1232.0" cy="388.8" r="1.08" fill="#827867" opacity="0.19"/>
<circle cx="1317.4" cy="468.9" r="1.75" fill="#827867" opacity="0.23"/>
<circle cx="2.8" cy="549.0" r="2.43" fill="#d8ccb9" opacity="0.26"/>
<circle cx="88.2" cy="629.1" r="3.10" fill="#0a0b0b" opacity="0.30"/>
<circle cx="173.6" cy="709.2" r="3.78" fill="#827867" opacity="0.12"/>
<circle cx="259.0" cy="789.3" r="1.08" fill="#827867" opacity="0.15"/>
<circle cx="344.4" cy="869.4" r="1.75" fill="#d8ccb9" opacity="0.19"/>
<circle cx="429.8" cy="49.5" r="2.43" fill="#0a0b0b" opacity="0.23"/>
<circle cx="515.2" cy="129.6" r="3.10" fill="#827867" opacity="0.26"/>
<circle cx="600.6" cy="209.7" r="3.78" fill="#827867" opacity="0.30"/>
<circle cx="686.0" cy="289.8" r="1.08" fill="#d8ccb9" opacity="0.12"/>
<circle cx="771.4" cy="369.9" r="1.75" fill="#0a0b0b" opacity="0.15"/>
<circle cx="856.8" cy="450.0" r="2.43" fill="#827867" opacity="0.19"/>
<circle cx="942.2" cy="530.1" r="3.10" fill="#827867" opacity="0.23"/>
<circle cx="1027.6" cy="610.2" r="3.78" fill="#d8ccb9" opacity="0.26"/>
<circle cx="1113.0" cy="690.3" r="1.08" fill="#0a0b0b" opacity="0.30"/>
<circle cx="1198.4" cy="770.4" r="1.75" fill="#827867" opacity="0.12"/>
<circle cx="1283.8" cy="850.5" r="2.43" fill="#827867" opacity="0.15"/>
<circle cx="1369.2" cy="30.6" r="3.10" fill="#d8ccb9" opacity="0.19"/>
<circle cx="54.6" cy="110.7" r="3.78" fill="#0a0b0b" opacity="0.23"/>
<circle cx="140.0" cy="190.8" r="1.08" fill="#827867" opacity="0.26"/>
<circle cx="225.4" cy="270.9" r="1.75" fill="#827867" opacity="0.30"/>
<circle cx="310.8" cy="351.0" r="2.43" fill="#d8ccb9" opacity="0.12"/>
<circle cx="396.2" cy="431.1" r="3.10" fill="#0a0b0b" opacity="0.15"/>
<circle cx="481.6" cy="511.2" r="3.78" fill="#827867" opacity="0.19"/>
<circle cx="567.0" cy="591.3" r="1.08" fill="#827867" opacity="0.23"/>
<circle cx="652.4" cy="671.4" r="1.75" fill="#d8ccb9" opacity="0.26"/>
<circle cx="737.8" cy="751.5" r="2.43" fill="#0a0b0b" opacity="0.30"/>
<circle cx="823.2" cy="831.6" r="3.10" fill="#827867" opacity="0.12"/>
<circle cx="908.6" cy="11.7" r="3.78" fill="#827867" opacity="0.15"/>
<circle cx="994.0" cy="91.8" r="1.08" fill="#d8ccb9" opacity="0.19"/>
<circle cx="1079.4" cy="171.9" r="1.75" fill="#0a0b0b" opacity="0.23"/>
<circle cx="1164.8" cy="252.0" r="2.43" fill="#827867" opacity="0.26"/>
<circle cx="1250.2" cy="332.1" r="3.10" fill="#827867" opacity="0.30"/>
<circle cx="1335.6" cy="412.2" r="3.78" fill="#d8ccb9" opacity="0.12"/>
<circle cx="21.0" cy="492.3" r="1.08" fill="#0a0b0b" opacity="0.15"/>
<circle cx="106.4" cy="572.4" r="1.75" fill="#827867" opacity="0.19"/>
<circle cx="191.8" cy="652.5" r="2.43" fill="#827867" opacity="0.23"/>
<circle cx="277.2" cy="732.6" r="3.10" fill="#d8ccb9" opacity="0.26"/>
<circle cx="362.6" cy="812.7" r="3.78" fill="#0a0b0b" opacity="0.30"/>
<circle cx="448.0" cy="892.8" r="1.08" fill="#827867" opacity="0.12"/>
<circle cx="533.4" cy="72.9" r="1.75" fill="#827867" opacity="0.15"/>
<circle cx="618.8" cy="153.0" r="2.43" fill="#d8ccb9" opacity="0.19"/>
<circle cx="704.2" cy="233.1" r="3.10" fill="#0a0b0b" opacity="0.23"/>
<circle cx="789.6" cy="313.2" r="3.78" fill="#827867" opacity="0.26"/>
<circle cx="875.0" cy="393.3" r="1.08" fill="#827867" opacity="0.30"/>
  <g transform="translate(168 306) rotate(-34) scale(1.7307692307692308)" opacity="0.78">
    <path d="M0 -78 C42 -48 58 12 4 88 C-44 32 -48 -38 0 -78Z" fill="#151918"/>
    <path d="M0 -62 C10 -20 8 32 0 72" fill="none" stroke="#d4c6ad" stroke-opacity="0.18" stroke-width="2"/>
    <path d="M0 -8 C20 -18 34 -26 48 -42 M0 18 C-22 6 -34 -10 -48 -30 M0 38 C18 32 32 23 45 12" fill="none" stroke="#d4c6ad" stroke-opacity="0.12" stroke-width="1.4"/>
  </g>
  <g transform="translate(1204 558) rotate(28) scale(1.6071428571428572)" opacity="0.78">
    <path d="M0 -78 C42 -48 58 12 4 88 C-44 32 -48 -38 0 -78Z" fill="#2d2923"/>
    <path d="M0 -62 C10 -20 8 32 0 72" fill="none" stroke="#d4c6ad" stroke-opacity="0.18" stroke-width="2"/>
    <path d="M0 -8 C20 -18 34 -26 48 -42 M0 18 C-22 6 -34 -10 -48 -30 M0 38 C18 32 32 23 45 12" fill="none" stroke="#d4c6ad" stroke-opacity="0.12" stroke-width="1.4"/>
  </g>
  <g transform="translate(420 756) rotate(-66) scale(1.3636363636363635)" opacity="0.78">
    <path d="M0 -78 C42 -48 58 12 4 88 C-44 32 -48 -38 0 -78Z" fill="#4b4035"/>
    <path d="M0 -62 C10 -20 8 32 0 72" fill="none" stroke="#d4c6ad" stroke-opacity="0.18" stroke-width="2"/>
    <path d="M0 -8 C20 -18 34 -26 48 -42 M0 18 C-22 6 -34 -10 -48 -30 M0 38 C18 32 32 23 45 12" fill="none" stroke="#d4c6ad" stroke-opacity="0.12" stroke-width="1.4"/>
  </g>
  <g transform="translate(812 144) rotate(96) scale(1.25)" opacity="0.78">
    <path d="M0 -78 C42 -48 58 12 4 88 C-44 32 -48 -38 0 -78Z" fill="#d1c4aa"/>
    <path d="M0 -62 C10 -20 8 32 0 72" fill="none" stroke="#d4c6ad" stroke-opacity="0.18" stroke-width="2"/>
    <path d="M0 -8 C20 -18 34 -26 48 -42 M0 18 C-22 6 -34 -10 -48 -30 M0 38 C18 32 32 23 45 12" fill="none" stroke="#d4c6ad" stroke-opacity="0.12" stroke-width="1.4"/>
  </g>
  <g transform="translate(84 702) rotate(24) scale(1.2857142857142858)" opacity="0.78">
    <path d="M0 -78 C42 -48 58 12 4 88 C-44 32 -48 -38 0 -78Z" fill="#0d1110"/>
    <path d="M0 -62 C10 -20 8 32 0 72" fill="none" stroke="#d4c6ad" stroke-opacity="0.18" stroke-width="2"/>
    <path d="M0 -8 C20 -18 34 -26 48 -42 M0 18 C-22 6 -34 -10 -48 -30 M0 38 C18 32 32 23 45 12" fill="none" stroke="#d4c6ad" stroke-opacity="0.12" stroke-width="1.4"/>
  </g>
  <g transform="rotate(-16 1092 180)" opacity="0.88">
    <ellipse cx="1092" cy="180" rx="162" ry="63.00000000000001" fill="none" stroke="#e8e3d8" stroke-opacity="0.46" stroke-width="5.4"/>
    <ellipse cx="1092" cy="180" rx="103.68" ry="32.760000000000005" fill="#cfc8ba" fill-opacity="0.11" stroke="#2b2d2d" stroke-opacity="0.35" stroke-width="2.7"/>
    <ellipse cx="1062.84" cy="168.66" rx="32.4" ry="6.300000000000001" fill="#fff" opacity="0.20"/>
  </g>
  <g transform="rotate(24 252 162)" opacity="0.88">
    <ellipse cx="252" cy="162" rx="117" ry="45" fill="none" stroke="#e8e3d8" stroke-opacity="0.46" stroke-width="5.4"/>
    <ellipse cx="252" cy="162" rx="74.88" ry="23.400000000000002" fill="#cfc8ba" fill-opacity="0.11" stroke="#2b2d2d" stroke-opacity="0.35" stroke-width="2.7"/>
    <ellipse cx="230.94" cy="153.9" rx="23.400000000000002" ry="4.5" fill="#fff" opacity="0.20"/>
  </g>
  <g transform="rotate(48 1232 432)" opacity="0.88">
    <ellipse cx="1232" cy="432" rx="108" ry="40.5" fill="none" stroke="#e8e3d8" stroke-opacity="0.46" stroke-width="5.4"/>
    <ellipse cx="1232" cy="432" rx="69.12" ry="21.060000000000002" fill="#cfc8ba" fill-opacity="0.11" stroke="#2b2d2d" stroke-opacity="0.35" stroke-width="2.7"/>
    <ellipse cx="1212.56" cy="424.71" rx="21.6" ry="4.05" fill="#fff" opacity="0.20"/>
  </g>

    <g transform="translate(1008 288) rotate(9)" filter="url(#photo-shadow)">
    <rect x="-126.00000000000001" y="-108" width="252.00000000000003" height="216" fill="#f0ebe0" opacity="0.95"/>
    <text x="-95.76" y="-47.52" font-family="Georgia, serif" font-size="18.900000000000002" fill="#151515">OPS COPILOT</text>
    <rect x="-95.76" y="-10.8" width="105.84" height="38.879999999999995" fill="#0d1113"/>
    <rect x="-95.76" y="43.2" width="110.07360000000003" height="2" fill="#171717" opacity="0.28"/>
<rect x="-95.76" y="53.784000000000006" width="90.31680000000003" height="2" fill="#171717" opacity="0.335"/>
<rect x="-95.76" y="64.36800000000001" width="70.56000000000002" height="2" fill="#171717" opacity="0.39"/>
<rect x="-95.76" y="74.952" width="110.07360000000003" height="2" fill="#171717" opacity="0.44500000000000006"/>
<rect x="-95.76" y="85.536" width="90.31680000000003" height="2" fill="#171717" opacity="0.5"/>
  </g>
    <g transform="translate(364 252.00000000000003) rotate(-14)" filter="url(#photo-shadow)">
    <rect x="-99" y="-81" width="198" height="162" fill="#f0ebe0" opacity="0.95"/>
    <text x="-75.24" y="-35.64" font-family="Georgia, serif" font-size="14.85" fill="#151515">OPS COPILOT</text>
    <rect x="-75.24" y="-8.1" width="83.16" height="29.16" fill="#0d1113"/>
    <rect x="-75.24" y="32.4" width="86.48640000000002" height="2" fill="#171717" opacity="0.28"/>
<rect x="-75.24" y="40.716" width="70.96320000000001" height="2" fill="#171717" opacity="0.335"/>
<rect x="-75.24" y="49.032" width="55.440000000000005" height="2" fill="#171717" opacity="0.39"/>
<rect x="-75.24" y="57.348" width="86.48640000000002" height="2" fill="#171717" opacity="0.44500000000000006"/>
<rect x="-75.24" y="65.664" width="70.96320000000001" height="2" fill="#171717" opacity="0.5"/>
  </g>
    <g transform="translate(1120 630) rotate(-18)" filter="url(#photo-shadow)">
    <rect x="-72" y="-135" width="144" height="270" rx="25.919999999999998" fill="#c9c7c1" opacity="0.88"/>
    <rect x="-66" y="-128" width="132" height="256" rx="20.160000000000004" fill="#f5f2ea" opacity="0.32"/>
    <text x="0" y="-16.2" text-anchor="middle" font-family="Arial, Helvetica, sans-serif" font-size="12.959999999999999" letter-spacing="1.6" fill="#252525" opacity="0.78">CRM</text>
    <text x="0" y="43.2" text-anchor="middle" font-family="Arial, Helvetica, sans-serif" font-size="7.92" letter-spacing="1" fill="#555" opacity="0.62">OUTERSCOPE</text>
  </g>
    <g transform="translate(280 630) rotate(15)" filter="url(#photo-shadow)">
    <rect x="-63.00000000000001" y="-112.5" width="126.00000000000001" height="225" rx="22.680000000000003" fill="#c9c7c1" opacity="0.88"/>
    <rect x="-57.00000000000001" y="-105.5" width="114.00000000000001" height="211" rx="17.640000000000004" fill="#f5f2ea" opacity="0.32"/>
    <text x="0" y="-13.5" text-anchor="middle" font-family="Arial, Helvetica, sans-serif" font-size="11.340000000000002" letter-spacing="1.6" fill="#252525" opacity="0.78">OPS</text>
    <text x="0" y="36" text-anchor="middle" font-family="Arial, Helvetica, sans-serif" font-size="6.930000000000001" letter-spacing="1" fill="#555" opacity="0.62">OUTERSCOPE</text>
  </g>

  <g transform="translate(728 450) rotate(-4)" filter="url(#photo-shadow)">
    <rect x="-393.12" y="-243.00000000000003" width="786.24" height="486.00000000000006" rx="19.656000000000002" fill="#080a0b"/>
    <rect x="-361.67040000000003" y="-199.26000000000002" width="723.3408000000001" height="349.92" fill="#e8e3d8"/>
    <text x="-283.0464" y="-121.50000000000001" font-family="Arial Black, Arial, sans-serif" font-size="45.60192" letter-spacing="1.4" fill="#16191b">REPORTING LAYER</text>
    <text x="-283.0464" y="-87.48" font-family="Arial, Helvetica, sans-serif" font-size="19.656000000000002" letter-spacing="3" fill="#716759">OPS COPILOT</text>
    <rect x="-283.0464" y="-38.88" width="259.4592" height="106.92000000000002" fill="#11171a"/>
    <rect x="23.5872" y="-38.88" width="259.4592" height="106.92000000000002" fill="#d4ccbd"/>
    <rect x="47.1744" y="9.72" width="153.3168" height="2.35872" fill="#171717" opacity="0.28"/>
<rect x="47.1744" y="24.462" width="125.7984" height="2.35872" fill="#171717" opacity="0.335"/>
<rect x="47.1744" y="39.204" width="98.28" height="2.35872" fill="#171717" opacity="0.39"/>
<rect x="47.1744" y="53.946" width="153.3168" height="2.35872" fill="#171717" opacity="0.44500000000000006"/>
<rect x="47.1744" y="68.688" width="125.7984" height="2.35872" fill="#171717" opacity="0.5"/>
    <path d="M-440.29440000000005 204.12 H440.29440000000005 L361.67040000000003 252.72000000000003 H-361.67040000000003Z" fill="#15181a"/>
  </g>
  <rect width="100%" height="100%" fill="#000" opacity="0.14"/>

</svg>
