<svg xmlns="http://www.w3.org/2000/svg" width="1920" height="1080" viewBox="0 0 1920 1080" role="img" aria-label="hero Lead Intake Lens">
  <defs>
    <linearGradient id="steel" x1="0" y1="0" x2="1" y2="1">
      <stop offset="0" stop-color="#f7fbff"/>
      <stop offset="0.18" stop-color="#8d99a6"/>
      <stop offset="0.48" stop-color="#202832"/>
      <stop offset="0.72" stop-color="#cad7e6"/>
      <stop offset="1" stop-color="#111821"/>
    </linearGradient>
    <linearGradient id="ink" x1="0" y1="0" x2="1" y2="1">
      <stop offset="0" stop-color="#05070a"/>
      <stop offset="0.52" stop-color="#101824"/>
      <stop offset="1" stop-color="#030405"/>
    </linearGradient>
    <radialGradient id="pulse" cx="50%" cy="45%" r="70%">
      <stop offset="0" stop-color="#9bdcf5"/>
      <stop offset="0.26" stop-color="#1f6f91"/>
      <stop offset="0.68" stop-color="#071620"/>
      <stop offset="1" stop-color="#020304"/>
    </radialGradient>
    <filter id="glow" x="-40%" y="-40%" width="180%" height="180%">
      <feGaussianBlur stdDeviation="6" result="blur"/>
      <feColorMatrix in="blur" type="matrix" values="0 0 0 0 0.2 0 0 0 0 0.72 0 0 0 0 1 0 0 0 .8 0"/>
      <feMerge><feMergeNode/><feMergeNode in="SourceGraphic"/></feMerge>
    </filter>
    <pattern id="grid" width="44" height="44" patternUnits="userSpaceOnUse">
      <path d="M44 0H0v44" fill="none" stroke="#ffffff" stroke-opacity="0.08" stroke-width="1"/>
    </pattern>
  </defs>

  <defs>
    <filter id="photo-grain" x="-10%" y="-10%" width="120%" height="120%">
      <feTurbulence type="fractalNoise" baseFrequency="0.82" numOctaves="4" seed="19"/>
      <feColorMatrix type="saturate" values="0"/>
      <feComponentTransfer><feFuncA type="table" tableValues="0 0.34"/></feComponentTransfer>
    </filter>
    <filter id="photo-shadow" x="-40%" y="-40%" width="180%" height="180%">
      <feDropShadow dx="19.439999999999998" dy="28.08" stdDeviation="19.439999999999998" flood-color="#000" flood-opacity="0.55"/>
    </filter>
    <radialGradient id="photo-light" cx="28%" cy="18%" r="78%">
      <stop offset="0" stop-color="#d9d1c2" stop-opacity="0.46"/>
      <stop offset="0.42" stop-color="#c7c0b4" stop-opacity="0.16"/>
      <stop offset="1" stop-color="#050607" stop-opacity="1"/>
    </radialGradient>
  </defs>
  <rect width="100%" height="100%" fill="#1d2328"/>
  <rect width="100%" height="100%" fill="url(#photo-light)"/>
  <rect width="100%" height="100%" fill="#fff" filter="url(#photo-grain)" opacity="0.70"/>
  <rect width="100%" height="100%" fill="#000" opacity="0.06"/>
  <ellipse cx="142.1" cy="153.4" rx="108.0" ry="27.0" fill="#ece2d2" opacity="0.025" transform="rotate(-23 142.1 153.4)"/>
<ellipse cx="405.1" cy="243.0" rx="145.8" ry="42.1" fill="#ece2d2" opacity="0.035" transform="rotate(6 405.1 243.0)"/>
<ellipse cx="668.2" cy="332.6" rx="183.6" ry="57.2" fill="#ece2d2" opacity="0.045" transform="rotate(35 668.2 332.6)"/>
<ellipse cx="931.2" cy="422.3" rx="221.4" ry="27.0" fill="#ece2d2" opacity="0.055" transform="rotate(-26 931.2 422.3)"/>
<ellipse cx="1194.2" cy="511.9" rx="108.0" ry="42.1" fill="#ece2d2" opacity="0.065" transform="rotate(3 1194.2 511.9)"/>
<ellipse cx="1457.3" cy="601.6" rx="145.8" ry="57.2" fill="#ece2d2" opacity="0.025" transform="rotate(32 1457.3 601.6)"/>
<ellipse cx="1720.3" cy="691.2" rx="183.6" ry="27.0" fill="#ece2d2" opacity="0.035" transform="rotate(-29 1720.3 691.2)"/>
<ellipse cx="63.4" cy="780.8" rx="221.4" ry="42.1" fill="#ece2d2" opacity="0.045" transform="rotate(0 63.4 780.8)"/>
<ellipse cx="326.4" cy="870.5" rx="108.0" ry="57.2" fill="#ece2d2" opacity="0.055" transform="rotate(29 326.4 870.5)"/>
<ellipse cx="589.4" cy="960.1" rx="145.8" ry="27.0" fill="#ece2d2" opacity="0.065" transform="rotate(-32 589.4 960.1)"/>
<ellipse cx="852.5" cy="1049.8" rx="183.6" ry="42.1" fill="#ece2d2" opacity="0.025" transform="rotate(-3 852.5 1049.8)"/>
<ellipse cx="1115.5" cy="59.4" rx="221.4" ry="57.2" fill="#ece2d2" opacity="0.035" transform="rotate(26 1115.5 59.4)"/>
  <circle cx="610.6" cy="317.5" r="2.92" fill="#d8ccb9" opacity="0.12"/>
<circle cx="727.7" cy="413.6" r="3.73" fill="#0a0b0b" opacity="0.15"/>
<circle cx="844.8" cy="509.8" r="4.54" fill="#827867" opacity="0.19"/>
<circle cx="961.9" cy="605.9" r="1.30" fill="#827867" opacity="0.23"/>
<circle cx="1079.0" cy="702.0" r="2.11" fill="#d8ccb9" opacity="0.26"/>
<circle cx="1196.2" cy="798.1" r="2.92" fill="#0a0b0b" opacity="0.30"/>
<circle cx="1313.3" cy="894.2" r="3.73" fill="#827867" opacity="0.12"/>
<circle cx="1430.4" cy="990.4" r="4.54" fill="#827867" opacity="0.15"/>
<circle cx="1547.5" cy="6.5" r="1.30" fill="#d8ccb9" opacity="0.19"/>
<circle cx="1664.6" cy="102.6" r="2.11" fill="#0a0b0b" opacity="0.23"/>
<circle cx="1781.8" cy="198.7" r="2.92" fill="#827867" opacity="0.26"/>
<circle cx="1898.9" cy="294.8" r="3.73" fill="#827867" opacity="0.30"/>
<circle cx="96.0" cy="391.0" r="4.54" fill="#d8ccb9" opacity="0.12"/>
<circle cx="213.1" cy="487.1" r="1.30" fill="#0a0b0b" opacity="0.15"/>
<circle cx="330.2" cy="583.2" r="2.11" fill="#827867" opacity="0.19"/>
<circle cx="447.4" cy="679.3" r="2.92" fill="#827867" opacity="0.23"/>
<circle cx="564.5" cy="775.4" r="3.73" fill="#d8ccb9" opacity="0.26"/>
<circle cx="681.6" cy="871.6" r="4.54" fill="#0a0b0b" opacity="0.30"/>
<circle cx="798.7" cy="967.7" r="1.30" fill="#827867" opacity="0.12"/>
<circle cx="915.8" cy="1063.8" r="2.11" fill="#827867" opacity="0.15"/>
<circle cx="1033.0" cy="79.9" r="2.92" fill="#d8ccb9" opacity="0.19"/>
<circle cx="1150.1" cy="176.0" r="3.73" fill="#0a0b0b" opacity="0.23"/>
<circle cx="1267.2" cy="272.2" r="4.54" fill="#827867" opacity="0.26"/>
<circle cx="1384.3" cy="368.3" r="1.30" fill="#827867" opacity="0.30"/>
<circle cx="1501.4" cy="464.4" r="2.11" fill="#d8ccb9" opacity="0.12"/>
<circle cx="1618.6" cy="560.5" r="2.92" fill="#0a0b0b" opacity="0.15"/>
<circle cx="1735.7" cy="656.6" r="3.73" fill="#827867" opacity="0.19"/>
<circle cx="1852.8" cy="752.8" r="4.54" fill="#827867" opacity="0.23"/>
<circle cx="49.9" cy="848.9" r="1.30" fill="#d8ccb9" opacity="0.26"/>
<circle cx="167.0" cy="945.0" r="2.11" fill="#0a0b0b" opacity="0.30"/>
<circle cx="284.2" cy="1041.1" r="2.92" fill="#827867" opacity="0.12"/>
<circle cx="401.3" cy="57.2" r="3.73" fill="#827867" opacity="0.15"/>
<circle cx="518.4" cy="153.4" r="4.54" fill="#d8ccb9" opacity="0.19"/>
<circle cx="635.5" cy="249.5" r="1.30" fill="#0a0b0b" opacity="0.23"/>
<circle cx="752.6" cy="345.6" r="2.11" fill="#827867" opacity="0.26"/>
<circle cx="869.8" cy="441.7" r="2.92" fill="#827867" opacity="0.30"/>
<circle cx="986.9" cy="537.8" r="3.73" fill="#d8ccb9" opacity="0.12"/>
<circle cx="1104.0" cy="634.0" r="4.54" fill="#0a0b0b" opacity="0.15"/>
<circle cx="1221.1" cy="730.1" r="1.30" fill="#827867" opacity="0.19"/>
<circle cx="1338.2" cy="826.2" r="2.11" fill="#827867" opacity="0.23"/>
<circle cx="1455.4" cy="922.3" r="2.92" fill="#d8ccb9" opacity="0.26"/>
<circle cx="1572.5" cy="1018.4" r="3.73" fill="#0a0b0b" opacity="0.30"/>
<circle cx="1689.6" cy="34.6" r="4.54" fill="#827867" opacity="0.12"/>
<circle cx="1806.7" cy="130.7" r="1.30" fill="#827867" opacity="0.15"/>
<circle cx="3.8" cy="226.8" r="2.11" fill="#d8ccb9" opacity="0.19"/>
<circle cx="121.0" cy="322.9" r="2.92" fill="#0a0b0b" opacity="0.23"/>
<circle cx="238.1" cy="419.0" r="3.73" fill="#827867" opacity="0.26"/>
<circle cx="355.2" cy="515.2" r="4.54" fill="#827867" opacity="0.30"/>
<circle cx="472.3" cy="611.3" r="1.30" fill="#d8ccb9" opacity="0.12"/>
<circle cx="589.4" cy="707.4" r="2.11" fill="#0a0b0b" opacity="0.15"/>
<circle cx="706.6" cy="803.5" r="2.92" fill="#827867" opacity="0.19"/>
<circle cx="823.7" cy="899.6" r="3.73" fill="#827867" opacity="0.23"/>
<circle cx="940.8" cy="995.8" r="4.54" fill="#d8ccb9" opacity="0.26"/>
<circle cx="1057.9" cy="11.9" r="1.30" fill="#0a0b0b" opacity="0.30"/>
<circle cx="1175.0" cy="108.0" r="2.11" fill="#827867" opacity="0.12"/>
<circle cx="1292.2" cy="204.1" r="2.92" fill="#827867" opacity="0.15"/>
<circle cx="1409.3" cy="300.2" r="3.73" fill="#d8ccb9" opacity="0.19"/>
<circle cx="1526.4" cy="396.4" r="4.54" fill="#0a0b0b" opacity="0.23"/>
<circle cx="1643.5" cy="492.5" r="1.30" fill="#827867" opacity="0.26"/>
<circle cx="1760.6" cy="588.6" r="2.11" fill="#827867" opacity="0.30"/>
<circle cx="1877.8" cy="684.7" r="2.92" fill="#d8ccb9" opacity="0.12"/>
<circle cx="74.9" cy="780.8" r="3.73" fill="#0a0b0b" opacity="0.15"/>
<circle cx="192.0" cy="877.0" r="4.54" fill="#827867" opacity="0.19"/>
<circle cx="309.1" cy="973.1" r="1.30" fill="#827867" opacity="0.23"/>
<circle cx="426.2" cy="1069.2" r="2.11" fill="#d8ccb9" opacity="0.26"/>
<circle cx="543.4" cy="85.3" r="2.92" fill="#0a0b0b" opacity="0.30"/>
<circle cx="660.5" cy="181.4" r="3.73" fill="#827867" opacity="0.12"/>
<circle cx="777.6" cy="277.6" r="4.54" fill="#827867" opacity="0.15"/>
<circle cx="894.7" cy="373.7" r="1.30" fill="#d8ccb9" opacity="0.19"/>
<circle cx="1011.8" cy="469.8" r="2.11" fill="#0a0b0b" opacity="0.23"/>
<circle cx="1129.0" cy="565.9" r="2.92" fill="#827867" opacity="0.26"/>
<circle cx="1246.1" cy="662.0" r="3.73" fill="#827867" opacity="0.30"/>
<circle cx="1363.2" cy="758.2" r="4.54" fill="#d8ccb9" opacity="0.12"/>
<circle cx="1480.3" cy="854.3" r="1.30" fill="#0a0b0b" opacity="0.15"/>
<circle cx="1597.4" cy="950.4" r="2.11" fill="#827867" opacity="0.19"/>
<circle cx="1714.6" cy="1046.5" r="2.92" fill="#827867" opacity="0.23"/>
<circle cx="1831.7" cy="62.6" r="3.73" fill="#d8ccb9" opacity="0.26"/>
<circle cx="28.8" cy="158.8" r="4.54" fill="#0a0b0b" opacity="0.30"/>
<circle cx="145.9" cy="254.9" r="1.30" fill="#827867" opacity="0.12"/>
<circle cx="263.0" cy="351.0" r="2.11" fill="#827867" opacity="0.15"/>
<circle cx="380.2" cy="447.1" r="2.92" fill="#d8ccb9" opacity="0.19"/>
<circle cx="497.3" cy="543.2" r="3.73" fill="#0a0b0b" opacity="0.23"/>
<circle cx="614.4" cy="639.4" r="4.54" fill="#827867" opacity="0.26"/>
<circle cx="731.5" cy="735.5" r="1.30" fill="#827867" opacity="0.30"/>
<circle cx="848.6" cy="831.6" r="2.11" fill="#d8ccb9" opacity="0.12"/>
<circle cx="965.8" cy="927.7" r="2.92" fill="#0a0b0b" opacity="0.15"/>
<circle cx="1082.9" cy="1023.8" r="3.73" fill="#827867" opacity="0.19"/>
<circle cx="1200.0" cy="40.0" r="4.54" fill="#827867" opacity="0.23"/>
<circle cx="1317.1" cy="136.1" r="1.30" fill="#d8ccb9" opacity="0.26"/>
<circle cx="1434.2" cy="232.2" r="2.11" fill="#0a0b0b" opacity="0.30"/>
<circle cx="1551.4" cy="328.3" r="2.92" fill="#827867" opacity="0.12"/>
<circle cx="1668.5" cy="424.4" r="3.73" fill="#827867" opacity="0.15"/>
<circle cx="1785.6" cy="520.6" r="4.54" fill="#d8ccb9" opacity="0.19"/>
<circle cx="1902.7" cy="616.7" r="1.30" fill="#0a0b0b" opacity="0.23"/>
<circle cx="99.8" cy="712.8" r="2.11" fill="#827867" opacity="0.26"/>
<circle cx="217.0" cy="808.9" r="2.92" fill="#827867" opacity="0.30"/>
<circle cx="334.1" cy="905.0" r="3.73" fill="#d8ccb9" opacity="0.12"/>
<circle cx="451.2" cy="1001.2" r="4.54" fill="#0a0b0b" opacity="0.15"/>
<circle cx="568.3" cy="17.3" r="1.30" fill="#827867" opacity="0.19"/>
<circle cx="685.4" cy="113.4" r="2.11" fill="#827867" opacity="0.23"/>
<circle cx="802.6" cy="209.5" r="2.92" fill="#d8ccb9" opacity="0.26"/>
<circle cx="919.7" cy="305.6" r="3.73" fill="#0a0b0b" opacity="0.30"/>
<circle cx="1036.8" cy="401.8" r="4.54" fill="#827867" opacity="0.12"/>
<circle cx="1153.9" cy="497.9" r="1.30" fill="#827867" opacity="0.15"/>
<circle cx="1271.0" cy="594.0" r="2.11" fill="#d8ccb9" opacity="0.19"/>
<circle cx="1388.2" cy="690.1" r="2.92" fill="#0a0b0b" opacity="0.23"/>
<circle cx="1505.3" cy="786.2" r="3.73" fill="#827867" opacity="0.26"/>
<circle cx="1622.4" cy="882.4" r="4.54" fill="#827867" opacity="0.30"/>
<circle cx="1739.5" cy="978.5" r="1.30" fill="#d8ccb9" opacity="0.12"/>
<circle cx="1856.6" cy="1074.6" r="2.11" fill="#0a0b0b" opacity="0.15"/>
<circle cx="53.8" cy="90.7" r="2.92" fill="#827867" opacity="0.19"/>
<circle cx="170.9" cy="186.8" r="3.73" fill="#827867" opacity="0.23"/>
<circle cx="288.0" cy="283.0" r="4.54" fill="#d8ccb9" opacity="0.26"/>
<circle cx="405.1" cy="379.1" r="1.30" fill="#0a0b0b" opacity="0.30"/>
<circle cx="522.2" cy="475.2" r="2.11" fill="#827867" opacity="0.12"/>
<circle cx="639.4" cy="571.3" r="2.92" fill="#827867" opacity="0.15"/>
<circle cx="756.5" cy="667.4" r="3.73" fill="#d8ccb9" opacity="0.19"/>
<circle cx="873.6" cy="763.6" r="4.54" fill="#0a0b0b" opacity="0.23"/>
<circle cx="990.7" cy="859.7" r="1.30" fill="#827867" opacity="0.26"/>
<circle cx="1107.8" cy="955.8" r="2.11" fill="#827867" opacity="0.30"/>
<circle cx="1225.0" cy="1051.9" r="2.92" fill="#d8ccb9" opacity="0.12"/>
<circle cx="1342.1" cy="68.0" r="3.73" fill="#0a0b0b" opacity="0.15"/>
<circle cx="1459.2" cy="164.2" r="4.54" fill="#827867" opacity="0.19"/>
<circle cx="1576.3" cy="260.3" r="1.30" fill="#827867" opacity="0.23"/>
<circle cx="1693.4" cy="356.4" r="2.11" fill="#d8ccb9" opacity="0.26"/>
<circle cx="1810.6" cy="452.5" r="2.92" fill="#0a0b0b" opacity="0.30"/>
<circle cx="7.7" cy="548.6" r="3.73" fill="#827867" opacity="0.12"/>
<circle cx="124.8" cy="644.8" r="4.54" fill="#827867" opacity="0.15"/>
<circle cx="241.9" cy="740.9" r="1.30" fill="#d8ccb9" opacity="0.19"/>
<circle cx="359.0" cy="837.0" r="2.11" fill="#0a0b0b" opacity="0.23"/>
<circle cx="476.2" cy="933.1" r="2.92" fill="#827867" opacity="0.26"/>
<circle cx="593.3" cy="1029.2" r="3.73" fill="#827867" opacity="0.30"/>
<circle cx="710.4" cy="45.4" r="4.54" fill="#d8ccb9" opacity="0.12"/>
<circle cx="827.5" cy="141.5" r="1.30" fill="#0a0b0b" opacity="0.15"/>
<circle cx="944.6" cy="237.6" r="2.11" fill="#827867" opacity="0.19"/>
<circle cx="1061.8" cy="333.7" r="2.92" fill="#827867" opacity="0.23"/>
<circle cx="1178.9" cy="429.8" r="3.73" fill="#d8ccb9" opacity="0.26"/>
<circle cx="1296.0" cy="526.0" r="4.54" fill="#0a0b0b" opacity="0.30"/>
<circle cx="1413.1" cy="622.1" r="1.30" fill="#827867" opacity="0.12"/>
<circle cx="1530.2" cy="718.2" r="2.11" fill="#827867" opacity="0.15"/>
<circle cx="1647.4" cy="814.3" r="2.92" fill="#d8ccb9" opacity="0.19"/>
<circle cx="1764.5" cy="910.4" r="3.73" fill="#0a0b0b" opacity="0.23"/>
<circle cx="1881.6" cy="1006.6" r="4.54" fill="#827867" opacity="0.26"/>
<circle cx="78.7" cy="22.7" r="1.30" fill="#827867" opacity="0.30"/>
<circle cx="195.8" cy="118.8" r="2.11" fill="#d8ccb9" opacity="0.12"/>
<circle cx="313.0" cy="214.9" r="2.92" fill="#0a0b0b" opacity="0.15"/>
<circle cx="430.1" cy="311.0" r="3.73" fill="#827867" opacity="0.19"/>
<circle cx="547.2" cy="407.2" r="4.54" fill="#827867" opacity="0.23"/>
<circle cx="664.3" cy="503.3" r="1.30" fill="#d8ccb9" opacity="0.26"/>
<circle cx="781.4" cy="599.4" r="2.11" fill="#0a0b0b" opacity="0.30"/>
<circle cx="898.6" cy="695.5" r="2.92" fill="#827867" opacity="0.12"/>
<circle cx="1015.7" cy="791.6" r="3.73" fill="#827867" opacity="0.15"/>
<circle cx="1132.8" cy="887.8" r="4.54" fill="#d8ccb9" opacity="0.19"/>
<circle cx="1249.9" cy="983.9" r="1.30" fill="#0a0b0b" opacity="0.23"/>
<circle cx="1367.0" cy="0.0" r="2.11" fill="#827867" opacity="0.26"/>
<circle cx="1484.2" cy="96.1" r="2.92" fill="#827867" opacity="0.30"/>
<circle cx="1601.3" cy="192.2" r="3.73" fill="#d8ccb9" opacity="0.12"/>
<circle cx="1718.4" cy="288.4" r="4.54" fill="#0a0b0b" opacity="0.15"/>
<circle cx="1835.5" cy="384.5" r="1.30" fill="#827867" opacity="0.19"/>
<circle cx="32.6" cy="480.6" r="2.11" fill="#827867" opacity="0.23"/>
<circle cx="149.8" cy="576.7" r="2.92" fill="#d8ccb9" opacity="0.26"/>
<circle cx="266.9" cy="672.8" r="3.73" fill="#0a0b0b" opacity="0.30"/>
<circle cx="384.0" cy="769.0" r="4.54" fill="#827867" opacity="0.12"/>
<circle cx="501.1" cy="865.1" r="1.30" fill="#827867" opacity="0.15"/>
<circle cx="618.2" cy="961.2" r="2.11" fill="#d8ccb9" opacity="0.19"/>
<circle cx="735.4" cy="1057.3" r="2.92" fill="#0a0b0b" opacity="0.23"/>
<circle cx="852.5" cy="73.4" r="3.73" fill="#827867" opacity="0.26"/>
<circle cx="969.6" cy="169.6" r="4.54" fill="#827867" opacity="0.30"/>
<circle cx="1086.7" cy="265.7" r="1.30" fill="#d8ccb9" opacity="0.12"/>
<circle cx="1203.8" cy="361.8" r="2.11" fill="#0a0b0b" opacity="0.15"/>
<circle cx="1321.0" cy="457.9" r="2.92" fill="#827867" opacity="0.19"/>
<circle cx="1438.1" cy="554.0" r="3.73" fill="#827867" opacity="0.23"/>
<circle cx="1555.2" cy="650.2" r="4.54" fill="#d8ccb9" opacity="0.26"/>
<circle cx="1672.3" cy="746.3" r="1.30" fill="#0a0b0b" opacity="0.30"/>
<circle cx="1789.4" cy="842.4" r="2.11" fill="#827867" opacity="0.12"/>
<circle cx="1906.6" cy="938.5" r="2.92" fill="#827867" opacity="0.15"/>
<circle cx="103.7" cy="1034.6" r="3.73" fill="#d8ccb9" opacity="0.19"/>
<circle cx="220.8" cy="50.8" r="4.54" fill="#0a0b0b" opacity="0.23"/>
<circle cx="337.9" cy="146.9" r="1.30" fill="#827867" opacity="0.26"/>
<circle cx="455.0" cy="243.0" r="2.11" fill="#827867" opacity="0.30"/>
  <g transform="translate(230.39999999999998 367.20000000000005) rotate(-34) scale(2.076923076923077)" opacity="0.78">
    <path d="M0 -78 C42 -48 58 12 4 88 C-44 32 -48 -38 0 -78Z" fill="#151918"/>
    <path d="M0 -62 C10 -20 8 32 0 72" fill="none" stroke="#d4c6ad" stroke-opacity="0.18" stroke-width="2"/>
    <path d="M0 -8 C20 -18 34 -26 48 -42 M0 18 C-22 6 -34 -10 -48 -30 M0 38 C18 32 32 23 45 12" fill="none" stroke="#d4c6ad" stroke-opacity="0.12" stroke-width="1.4"/>
  </g>
  <g transform="translate(1651.2 669.6) rotate(28) scale(1.9285714285714286)" opacity="0.78">
    <path d="M0 -78 C42 -48 58 12 4 88 C-44 32 -48 -38 0 -78Z" fill="#2d2923"/>
    <path d="M0 -62 C10 -20 8 32 0 72" fill="none" stroke="#d4c6ad" stroke-opacity="0.18" stroke-width="2"/>
    <path d="M0 -8 C20 -18 34 -26 48 -42 M0 18 C-22 6 -34 -10 -48 -30 M0 38 C18 32 32 23 45 12" fill="none" stroke="#d4c6ad" stroke-opacity="0.12" stroke-width="1.4"/>
  </g>
  <g transform="translate(576 907.1999999999999) rotate(-66) scale(1.6363636363636365)" opacity="0.78">
    <path d="M0 -78 C42 -48 58 12 4 88 C-44 32 -48 -38 0 -78Z" fill="#4b4035"/>
    <path d="M0 -62 C10 -20 8 32 0 72" fill="none" stroke="#d4c6ad" stroke-opacity="0.18" stroke-width="2"/>
    <path d="M0 -8 C20 -18 34 -26 48 -42 M0 18 C-22 6 -34 -10 -48 -30 M0 38 C18 32 32 23 45 12" fill="none" stroke="#d4c6ad" stroke-opacity="0.12" stroke-width="1.4"/>
  </g>
  <g transform="translate(1113.6 172.8) rotate(96) scale(1.5)" opacity="0.78">
    <path d="M0 -78 C42 -48 58 12 4 88 C-44 32 -48 -38 0 -78Z" fill="#d1c4aa"/>
    <path d="M0 -62 C10 -20 8 32 0 72" fill="none" stroke="#d4c6ad" stroke-opacity="0.18" stroke-width="2"/>
    <path d="M0 -8 C20 -18 34 -26 48 -42 M0 18 C-22 6 -34 -10 -48 -30 M0 38 C18 32 32 23 45 12" fill="none" stroke="#d4c6ad" stroke-opacity="0.12" stroke-width="1.4"/>
  </g>
  <g transform="translate(115.19999999999999 842.4) rotate(24) scale(1.542857142857143)" opacity="0.78">
    <path d="M0 -78 C42 -48 58 12 4 88 C-44 32 -48 -38 0 -78Z" fill="#0d1110"/>
    <path d="M0 -62 C10 -20 8 32 0 72" fill="none" stroke="#d4c6ad" stroke-opacity="0.18" stroke-width="2"/>
    <path d="M0 -8 C20 -18 34 -26 48 -42 M0 18 C-22 6 -34 -10 -48 -30 M0 38 C18 32 32 23 45 12" fill="none" stroke="#d4c6ad" stroke-opacity="0.12" stroke-width="1.4"/>
  </g>
  <g transform="rotate(-16 1497.6000000000001 216)" opacity="0.88">
    <ellipse cx="1497.6000000000001" cy="216" rx="194.4" ry="75.60000000000001" fill="none" stroke="#e8e3d8" stroke-opacity="0.46" stroke-width="6.48"/>
    <ellipse cx="1497.6000000000001" cy="216" rx="124.41600000000001" ry="39.312000000000005" fill="#cfc8ba" fill-opacity="0.11" stroke="#2b2d2d" stroke-opacity="0.35" stroke-width="3.24"/>
    <ellipse cx="1462.6080000000002" cy="202.392" rx="38.88" ry="7.560000000000001" fill="#fff" opacity="0.20"/>
  </g>
  <g transform="rotate(24 345.59999999999997 194.4)" opacity="0.88">
    <ellipse cx="345.59999999999997" cy="194.4" rx="140.4" ry="54" fill="none" stroke="#e8e3d8" stroke-opacity="0.46" stroke-width="6.48"/>
    <ellipse cx="345.59999999999997" cy="194.4" rx="89.85600000000001" ry="28.080000000000002" fill="#cfc8ba" fill-opacity="0.11" stroke="#2b2d2d" stroke-opacity="0.35" stroke-width="3.24"/>
    <ellipse cx="320.328" cy="184.68" rx="28.080000000000002" ry="5.4" fill="#fff" opacity="0.20"/>
  </g>
  <g transform="rotate(48 1689.6 518.4)" opacity="0.88">
    <ellipse cx="1689.6" cy="518.4" rx="129.6" ry="48.6" fill="none" stroke="#e8e3d8" stroke-opacity="0.46" stroke-width="6.48"/>
    <ellipse cx="1689.6" cy="518.4" rx="82.944" ry="25.272000000000002" fill="#cfc8ba" fill-opacity="0.11" stroke="#2b2d2d" stroke-opacity="0.35" stroke-width="3.24"/>
    <ellipse cx="1666.272" cy="509.652" rx="25.92" ry="4.86" fill="#fff" opacity="0.20"/>
  </g>

    <g transform="translate(1382.3999999999999 345.6) rotate(9)" filter="url(#photo-shadow)">
    <rect x="-151.20000000000002" y="-129.6" width="302.40000000000003" height="259.2" fill="#f0ebe0" opacity="0.95"/>
    <text x="-114.91200000000002" y="-57.024" font-family="Georgia, serif" font-size="22.680000000000003" fill="#151515">AI AUDIT</text>
    <rect x="-114.91200000000002" y="-12.96" width="127.00800000000001" height="46.656" fill="#0d1113"/>
    <rect x="-114.91200000000002" y="51.84" width="132.08832" height="2.032128" fill="#171717" opacity="0.28"/>
<rect x="-114.91200000000002" y="64.5408" width="108.38016000000002" height="2.032128" fill="#171717" opacity="0.335"/>
<rect x="-114.91200000000002" y="77.2416" width="84.67200000000001" height="2.032128" fill="#171717" opacity="0.39"/>
<rect x="-114.91200000000002" y="89.9424" width="132.08832" height="2.032128" fill="#171717" opacity="0.44500000000000006"/>
<rect x="-114.91200000000002" y="102.64320000000001" width="108.38016000000002" height="2.032128" fill="#171717" opacity="0.5"/>
  </g>
    <g transform="translate(499.20000000000005 302.40000000000003) rotate(-14)" filter="url(#photo-shadow)">
    <rect x="-118.8" y="-97.2" width="237.6" height="194.4" fill="#f0ebe0" opacity="0.95"/>
    <text x="-90.288" y="-42.768" font-family="Georgia, serif" font-size="17.82" fill="#151515">AI AUDIT</text>
    <rect x="-90.288" y="-9.72" width="99.79199999999999" height="34.992" fill="#0d1113"/>
    <rect x="-90.288" y="38.88" width="103.78368000000002" height="2" fill="#171717" opacity="0.28"/>
<rect x="-90.288" y="48.8592" width="85.15584000000001" height="2" fill="#171717" opacity="0.335"/>
<rect x="-90.288" y="58.83840000000001" width="66.528" height="2" fill="#171717" opacity="0.39"/>
<rect x="-90.288" y="68.8176" width="103.78368000000002" height="2" fill="#171717" opacity="0.44500000000000006"/>
<rect x="-90.288" y="78.7968" width="85.15584000000001" height="2" fill="#171717" opacity="0.5"/>
  </g>
    <g transform="translate(1536 756) rotate(-18)" filter="url(#photo-shadow)">
    <rect x="-86.4" y="-162" width="172.8" height="324" rx="31.104" fill="#c9c7c1" opacity="0.88"/>
    <rect x="-80.4" y="-155" width="160.8" height="310" rx="24.192000000000004" fill="#f5f2ea" opacity="0.32"/>
    <text x="0" y="-19.439999999999998" text-anchor="middle" font-family="Arial, Helvetica, sans-serif" font-size="15.552" letter-spacing="1.6" fill="#252525" opacity="0.78">CRM</text>
    <text x="0" y="51.84" text-anchor="middle" font-family="Arial, Helvetica, sans-serif" font-size="9.504000000000001" letter-spacing="1" fill="#555" opacity="0.62">OUTERSCOPE</text>
  </g>
    <g transform="translate(384 756) rotate(15)" filter="url(#photo-shadow)">
    <rect x="-75.60000000000001" y="-135" width="151.20000000000002" height="270" rx="27.216" fill="#c9c7c1" opacity="0.88"/>
    <rect x="-69.60000000000001" y="-128" width="139.20000000000002" height="256" rx="21.168000000000003" fill="#f5f2ea" opacity="0.32"/>
    <text x="0" y="-16.2" text-anchor="middle" font-family="Arial, Helvetica, sans-serif" font-size="13.608" letter-spacing="1.6" fill="#252525" opacity="0.78">OPS</text>
    <text x="0" y="43.2" text-anchor="middle" font-family="Arial, Helvetica, sans-serif" font-size="8.316" letter-spacing="1" fill="#555" opacity="0.62">OUTERSCOPE</text>
  </g>

  <g transform="translate(825.6 583.2) rotate(5)" filter="url(#photo-shadow)">
    <rect x="-163.29600000000002" y="-338.25600000000003" width="326.59200000000004" height="676.5120000000001" rx="42.45696000000001" fill="#080a0b"/>
    <rect x="-145.33344000000002" y="-315.39456" width="290.66688000000005" height="630.78912" rx="31.026240000000005" fill="#ece8dd"/>
    <rect x="-65.31840000000001" y="-330.0912" width="130.63680000000002" height="11.430720000000003" rx="6.531840000000001" fill="#171717"/>
    <text x="0" y="-196.18848" text-anchor="middle" font-family="Georgia, serif" font-size="34.29216" letter-spacing="2" fill="#2a2a27">LEAD INTAKE LENS</text>
    <text x="0" y="-142.06752" text-anchor="middle" font-family="Arial, Helvetica, sans-serif" font-size="17.962560000000003" letter-spacing="4" fill="#7d7466">AI AUDIT</text>
    <rect x="-104.50944000000001" y="-74.41632000000001" width="209.01888000000002" height="169.12800000000001" fill="#0d1113" opacity="0.88"/>
    <text x="0" y="-3.3825600000000002" text-anchor="middle" font-family="Arial Black, Arial, sans-serif" font-size="29.393280000000004" letter-spacing="1.6" fill="#f7f4ea">OS</text>
    <rect x="-94.71168" y="135.3024" width="152.84505600000003" height="2.3514624000000004" fill="#171717" opacity="0.28"/>
<rect x="-94.71168" y="149.99904" width="125.41132800000001" height="2.3514624000000004" fill="#171717" opacity="0.335"/>
<rect x="-94.71168" y="164.69568" width="97.97760000000001" height="2.3514624000000004" fill="#171717" opacity="0.39"/>
<rect x="-94.71168" y="179.39232" width="152.84505600000003" height="2.3514624000000004" fill="#171717" opacity="0.44500000000000006"/>
<rect x="-94.71168" y="194.08896000000001" width="125.41132800000001" height="2.3514624000000004" fill="#171717" opacity="0.5"/>
    <rect x="-94.71168" y="236.7792" width="189.42336" height="50.738400000000006" fill="#d8d0c2" opacity="0.65"/>
  </g>
  <rect width="100%" height="100%" fill="#000" opacity="0.08"/>

</svg>
