<svg xmlns="http://www.w3.org/2000/svg" width="1920" height="1080" viewBox="0 0 1920 1080" role="img" aria-label="hero Proof Engine">
  <defs>
    <linearGradient id="steel" x1="0" y1="0" x2="1" y2="1">
      <stop offset="0" stop-color="#f7fbff"/>
      <stop offset="0.18" stop-color="#8d99a6"/>
      <stop offset="0.48" stop-color="#202832"/>
      <stop offset="0.72" stop-color="#cad7e6"/>
      <stop offset="1" stop-color="#111821"/>
    </linearGradient>
    <linearGradient id="ink" x1="0" y1="0" x2="1" y2="1">
      <stop offset="0" stop-color="#05070a"/>
      <stop offset="0.52" stop-color="#101824"/>
      <stop offset="1" stop-color="#030405"/>
    </linearGradient>
    <radialGradient id="pulse" cx="50%" cy="45%" r="70%">
      <stop offset="0" stop-color="#9bdcf5"/>
      <stop offset="0.26" stop-color="#1f6f91"/>
      <stop offset="0.68" stop-color="#071620"/>
      <stop offset="1" stop-color="#020304"/>
    </radialGradient>
    <filter id="glow" x="-40%" y="-40%" width="180%" height="180%">
      <feGaussianBlur stdDeviation="6" result="blur"/>
      <feColorMatrix in="blur" type="matrix" values="0 0 0 0 0.2 0 0 0 0 0.72 0 0 0 0 1 0 0 0 .8 0"/>
      <feMerge><feMergeNode/><feMergeNode in="SourceGraphic"/></feMerge>
    </filter>
    <pattern id="grid" width="44" height="44" patternUnits="userSpaceOnUse">
      <path d="M44 0H0v44" fill="none" stroke="#ffffff" stroke-opacity="0.08" stroke-width="1"/>
    </pattern>
  </defs>

  <defs>
    <filter id="photo-grain" x="-10%" y="-10%" width="120%" height="120%">
      <feTurbulence type="fractalNoise" baseFrequency="0.82" numOctaves="4" seed="22"/>
      <feColorMatrix type="saturate" values="0"/>
      <feComponentTransfer><feFuncA type="table" tableValues="0 0.34"/></feComponentTransfer>
    </filter>
    <filter id="photo-shadow" x="-40%" y="-40%" width="180%" height="180%">
      <feDropShadow dx="19.439999999999998" dy="28.08" stdDeviation="19.439999999999998" flood-color="#000" flood-opacity="0.55"/>
    </filter>
    <radialGradient id="photo-light" cx="70%" cy="18%" r="78%">
      <stop offset="0" stop-color="#d9d1c2" stop-opacity="0.46"/>
      <stop offset="0.42" stop-color="#9b8a76" stop-opacity="0.16"/>
      <stop offset="1" stop-color="#050607" stop-opacity="1"/>
    </radialGradient>
  </defs>
  <rect width="100%" height="100%" fill="#343a3c"/>
  <rect width="100%" height="100%" fill="url(#photo-light)"/>
  <rect width="100%" height="100%" fill="#fff" filter="url(#photo-grain)" opacity="0.70"/>
  <rect width="100%" height="100%" fill="#000" opacity="0.06"/>
  <ellipse cx="355.2" cy="383.4" rx="108.0" ry="27.0" fill="#ece2d2" opacity="0.025" transform="rotate(10 355.2 383.4)"/>
<ellipse cx="618.2" cy="473.0" rx="145.8" ry="42.1" fill="#ece2d2" opacity="0.035" transform="rotate(39 618.2 473.0)"/>
<ellipse cx="881.3" cy="562.7" rx="183.6" ry="57.2" fill="#ece2d2" opacity="0.045" transform="rotate(-22 881.3 562.7)"/>
<ellipse cx="1144.3" cy="652.3" rx="221.4" ry="27.0" fill="#ece2d2" opacity="0.055" transform="rotate(7 1144.3 652.3)"/>
<ellipse cx="1407.4" cy="742.0" rx="108.0" ry="42.1" fill="#ece2d2" opacity="0.065" transform="rotate(36 1407.4 742.0)"/>
<ellipse cx="1670.4" cy="831.6" rx="145.8" ry="57.2" fill="#ece2d2" opacity="0.025" transform="rotate(-25 1670.4 831.6)"/>
<ellipse cx="13.4" cy="921.2" rx="183.6" ry="27.0" fill="#ece2d2" opacity="0.035" transform="rotate(4 13.4 921.2)"/>
<ellipse cx="276.5" cy="1010.9" rx="221.4" ry="42.1" fill="#ece2d2" opacity="0.045" transform="rotate(33 276.5 1010.9)"/>
<ellipse cx="539.5" cy="20.5" rx="108.0" ry="57.2" fill="#ece2d2" opacity="0.055" transform="rotate(-28 539.5 20.5)"/>
<ellipse cx="802.6" cy="110.2" rx="145.8" ry="27.0" fill="#ece2d2" opacity="0.065" transform="rotate(1 802.6 110.2)"/>
<ellipse cx="1065.6" cy="199.8" rx="183.6" ry="42.1" fill="#ece2d2" opacity="0.025" transform="rotate(30 1065.6 199.8)"/>
<ellipse cx="1328.6" cy="289.4" rx="221.4" ry="57.2" fill="#ece2d2" opacity="0.035" transform="rotate(-31 1328.6 289.4)"/>
  <circle cx="1169.3" cy="489.2" r="1.30" fill="#d8ccb9" opacity="0.12"/>
<circle cx="1286.4" cy="585.4" r="2.11" fill="#0a0b0b" opacity="0.15"/>
<circle cx="1403.5" cy="681.5" r="2.92" fill="#827867" opacity="0.19"/>
<circle cx="1520.6" cy="777.6" r="3.73" fill="#827867" opacity="0.23"/>
<circle cx="1637.8" cy="873.7" r="4.54" fill="#d8ccb9" opacity="0.26"/>
<circle cx="1754.9" cy="969.8" r="1.30" fill="#0a0b0b" opacity="0.30"/>
<circle cx="1872.0" cy="1066.0" r="2.11" fill="#827867" opacity="0.12"/>
<circle cx="69.1" cy="82.1" r="2.92" fill="#827867" opacity="0.15"/>
<circle cx="186.2" cy="178.2" r="3.73" fill="#d8ccb9" opacity="0.19"/>
<circle cx="303.4" cy="274.3" r="4.54" fill="#0a0b0b" opacity="0.23"/>
<circle cx="420.5" cy="370.4" r="1.30" fill="#827867" opacity="0.26"/>
<circle cx="537.6" cy="466.6" r="2.11" fill="#827867" opacity="0.30"/>
<circle cx="654.7" cy="562.7" r="2.92" fill="#d8ccb9" opacity="0.12"/>
<circle cx="771.8" cy="658.8" r="3.73" fill="#0a0b0b" opacity="0.15"/>
<circle cx="889.0" cy="754.9" r="4.54" fill="#827867" opacity="0.19"/>
<circle cx="1006.1" cy="851.0" r="1.30" fill="#827867" opacity="0.23"/>
<circle cx="1123.2" cy="947.2" r="2.11" fill="#d8ccb9" opacity="0.26"/>
<circle cx="1240.3" cy="1043.3" r="2.92" fill="#0a0b0b" opacity="0.30"/>
<circle cx="1357.4" cy="59.4" r="3.73" fill="#827867" opacity="0.12"/>
<circle cx="1474.6" cy="155.5" r="4.54" fill="#827867" opacity="0.15"/>
<circle cx="1591.7" cy="251.6" r="1.30" fill="#d8ccb9" opacity="0.19"/>
<circle cx="1708.8" cy="347.8" r="2.11" fill="#0a0b0b" opacity="0.23"/>
<circle cx="1825.9" cy="443.9" r="2.92" fill="#827867" opacity="0.26"/>
<circle cx="23.0" cy="540.0" r="3.73" fill="#827867" opacity="0.30"/>
<circle cx="140.2" cy="636.1" r="4.54" fill="#d8ccb9" opacity="0.12"/>
<circle cx="257.3" cy="732.2" r="1.30" fill="#0a0b0b" opacity="0.15"/>
<circle cx="374.4" cy="828.4" r="2.11" fill="#827867" opacity="0.19"/>
<circle cx="491.5" cy="924.5" r="2.92" fill="#827867" opacity="0.23"/>
<circle cx="608.6" cy="1020.6" r="3.73" fill="#d8ccb9" opacity="0.26"/>
<circle cx="725.8" cy="36.7" r="4.54" fill="#0a0b0b" opacity="0.30"/>
<circle cx="842.9" cy="132.8" r="1.30" fill="#827867" opacity="0.12"/>
<circle cx="960.0" cy="229.0" r="2.11" fill="#827867" opacity="0.15"/>
<circle cx="1077.1" cy="325.1" r="2.92" fill="#d8ccb9" opacity="0.19"/>
<circle cx="1194.2" cy="421.2" r="3.73" fill="#0a0b0b" opacity="0.23"/>
<circle cx="1311.4" cy="517.3" r="4.54" fill="#827867" opacity="0.26"/>
<circle cx="1428.5" cy="613.4" r="1.30" fill="#827867" opacity="0.30"/>
<circle cx="1545.6" cy="709.6" r="2.11" fill="#d8ccb9" opacity="0.12"/>
<circle cx="1662.7" cy="805.7" r="2.92" fill="#0a0b0b" opacity="0.15"/>
<circle cx="1779.8" cy="901.8" r="3.73" fill="#827867" opacity="0.19"/>
<circle cx="1897.0" cy="997.9" r="4.54" fill="#827867" opacity="0.23"/>
<circle cx="94.1" cy="14.0" r="1.30" fill="#d8ccb9" opacity="0.26"/>
<circle cx="211.2" cy="110.2" r="2.11" fill="#0a0b0b" opacity="0.30"/>
<circle cx="328.3" cy="206.3" r="2.92" fill="#827867" opacity="0.12"/>
<circle cx="445.4" cy="302.4" r="3.73" fill="#827867" opacity="0.15"/>
<circle cx="562.6" cy="398.5" r="4.54" fill="#d8ccb9" opacity="0.19"/>
<circle cx="679.7" cy="494.6" r="1.30" fill="#0a0b0b" opacity="0.23"/>
<circle cx="796.8" cy="590.8" r="2.11" fill="#827867" opacity="0.26"/>
<circle cx="913.9" cy="686.9" r="2.92" fill="#827867" opacity="0.30"/>
<circle cx="1031.0" cy="783.0" r="3.73" fill="#d8ccb9" opacity="0.12"/>
<circle cx="1148.2" cy="879.1" r="4.54" fill="#0a0b0b" opacity="0.15"/>
<circle cx="1265.3" cy="975.2" r="1.30" fill="#827867" opacity="0.19"/>
<circle cx="1382.4" cy="1071.4" r="2.11" fill="#827867" opacity="0.23"/>
<circle cx="1499.5" cy="87.5" r="2.92" fill="#d8ccb9" opacity="0.26"/>
<circle cx="1616.6" cy="183.6" r="3.73" fill="#0a0b0b" opacity="0.30"/>
<circle cx="1733.8" cy="279.7" r="4.54" fill="#827867" opacity="0.12"/>
<circle cx="1850.9" cy="375.8" r="1.30" fill="#827867" opacity="0.15"/>
<circle cx="48.0" cy="472.0" r="2.11" fill="#d8ccb9" opacity="0.19"/>
<circle cx="165.1" cy="568.1" r="2.92" fill="#0a0b0b" opacity="0.23"/>
<circle cx="282.2" cy="664.2" r="3.73" fill="#827867" opacity="0.26"/>
<circle cx="399.4" cy="760.3" r="4.54" fill="#827867" opacity="0.30"/>
<circle cx="516.5" cy="856.4" r="1.30" fill="#d8ccb9" opacity="0.12"/>
<circle cx="633.6" cy="952.6" r="2.11" fill="#0a0b0b" opacity="0.15"/>
<circle cx="750.7" cy="1048.7" r="2.92" fill="#827867" opacity="0.19"/>
<circle cx="867.8" cy="64.8" r="3.73" fill="#827867" opacity="0.23"/>
<circle cx="985.0" cy="160.9" r="4.54" fill="#d8ccb9" opacity="0.26"/>
<circle cx="1102.1" cy="257.0" r="1.30" fill="#0a0b0b" opacity="0.30"/>
<circle cx="1219.2" cy="353.2" r="2.11" fill="#827867" opacity="0.12"/>
<circle cx="1336.3" cy="449.3" r="2.92" fill="#827867" opacity="0.15"/>
<circle cx="1453.4" cy="545.4" r="3.73" fill="#d8ccb9" opacity="0.19"/>
<circle cx="1570.6" cy="641.5" r="4.54" fill="#0a0b0b" opacity="0.23"/>
<circle cx="1687.7" cy="737.6" r="1.30" fill="#827867" opacity="0.26"/>
<circle cx="1804.8" cy="833.8" r="2.11" fill="#827867" opacity="0.30"/>
<circle cx="1.9" cy="929.9" r="2.92" fill="#d8ccb9" opacity="0.12"/>
<circle cx="119.0" cy="1026.0" r="3.73" fill="#0a0b0b" opacity="0.15"/>
<circle cx="236.2" cy="42.1" r="4.54" fill="#827867" opacity="0.19"/>
<circle cx="353.3" cy="138.2" r="1.30" fill="#827867" opacity="0.23"/>
<circle cx="470.4" cy="234.4" r="2.11" fill="#d8ccb9" opacity="0.26"/>
<circle cx="587.5" cy="330.5" r="2.92" fill="#0a0b0b" opacity="0.30"/>
<circle cx="704.6" cy="426.6" r="3.73" fill="#827867" opacity="0.12"/>
<circle cx="821.8" cy="522.7" r="4.54" fill="#827867" opacity="0.15"/>
<circle cx="938.9" cy="618.8" r="1.30" fill="#d8ccb9" opacity="0.19"/>
<circle cx="1056.0" cy="715.0" r="2.11" fill="#0a0b0b" opacity="0.23"/>
<circle cx="1173.1" cy="811.1" r="2.92" fill="#827867" opacity="0.26"/>
<circle cx="1290.2" cy="907.2" r="3.73" fill="#827867" opacity="0.30"/>
<circle cx="1407.4" cy="1003.3" r="4.54" fill="#d8ccb9" opacity="0.12"/>
<circle cx="1524.5" cy="19.4" r="1.30" fill="#0a0b0b" opacity="0.15"/>
<circle cx="1641.6" cy="115.6" r="2.11" fill="#827867" opacity="0.19"/>
<circle cx="1758.7" cy="211.7" r="2.92" fill="#827867" opacity="0.23"/>
<circle cx="1875.8" cy="307.8" r="3.73" fill="#d8ccb9" opacity="0.26"/>
<circle cx="73.0" cy="403.9" r="4.54" fill="#0a0b0b" opacity="0.30"/>
<circle cx="190.1" cy="500.0" r="1.30" fill="#827867" opacity="0.12"/>
<circle cx="307.2" cy="596.2" r="2.11" fill="#827867" opacity="0.15"/>
<circle cx="424.3" cy="692.3" r="2.92" fill="#d8ccb9" opacity="0.19"/>
<circle cx="541.4" cy="788.4" r="3.73" fill="#0a0b0b" opacity="0.23"/>
<circle cx="658.6" cy="884.5" r="4.54" fill="#827867" opacity="0.26"/>
<circle cx="775.7" cy="980.6" r="1.30" fill="#827867" opacity="0.30"/>
<circle cx="892.8" cy="1076.8" r="2.11" fill="#d8ccb9" opacity="0.12"/>
<circle cx="1009.9" cy="92.9" r="2.92" fill="#0a0b0b" opacity="0.15"/>
<circle cx="1127.0" cy="189.0" r="3.73" fill="#827867" opacity="0.19"/>
<circle cx="1244.2" cy="285.1" r="4.54" fill="#827867" opacity="0.23"/>
<circle cx="1361.3" cy="381.2" r="1.30" fill="#d8ccb9" opacity="0.26"/>
<circle cx="1478.4" cy="477.4" r="2.11" fill="#0a0b0b" opacity="0.30"/>
<circle cx="1595.5" cy="573.5" r="2.92" fill="#827867" opacity="0.12"/>
<circle cx="1712.6" cy="669.6" r="3.73" fill="#827867" opacity="0.15"/>
<circle cx="1829.8" cy="765.7" r="4.54" fill="#d8ccb9" opacity="0.19"/>
<circle cx="26.9" cy="861.8" r="1.30" fill="#0a0b0b" opacity="0.23"/>
<circle cx="144.0" cy="958.0" r="2.11" fill="#827867" opacity="0.26"/>
<circle cx="261.1" cy="1054.1" r="2.92" fill="#827867" opacity="0.30"/>
<circle cx="378.2" cy="70.2" r="3.73" fill="#d8ccb9" opacity="0.12"/>
<circle cx="495.4" cy="166.3" r="4.54" fill="#0a0b0b" opacity="0.15"/>
<circle cx="612.5" cy="262.4" r="1.30" fill="#827867" opacity="0.19"/>
<circle cx="729.6" cy="358.6" r="2.11" fill="#827867" opacity="0.23"/>
<circle cx="846.7" cy="454.7" r="2.92" fill="#d8ccb9" opacity="0.26"/>
<circle cx="963.8" cy="550.8" r="3.73" fill="#0a0b0b" opacity="0.30"/>
<circle cx="1081.0" cy="646.9" r="4.54" fill="#827867" opacity="0.12"/>
<circle cx="1198.1" cy="743.0" r="1.30" fill="#827867" opacity="0.15"/>
<circle cx="1315.2" cy="839.2" r="2.11" fill="#d8ccb9" opacity="0.19"/>
<circle cx="1432.3" cy="935.3" r="2.92" fill="#0a0b0b" opacity="0.23"/>
<circle cx="1549.4" cy="1031.4" r="3.73" fill="#827867" opacity="0.26"/>
<circle cx="1666.6" cy="47.5" r="4.54" fill="#827867" opacity="0.30"/>
<circle cx="1783.7" cy="143.6" r="1.30" fill="#d8ccb9" opacity="0.12"/>
<circle cx="1900.8" cy="239.8" r="2.11" fill="#0a0b0b" opacity="0.15"/>
<circle cx="97.9" cy="335.9" r="2.92" fill="#827867" opacity="0.19"/>
<circle cx="215.0" cy="432.0" r="3.73" fill="#827867" opacity="0.23"/>
<circle cx="332.2" cy="528.1" r="4.54" fill="#d8ccb9" opacity="0.26"/>
<circle cx="449.3" cy="624.2" r="1.30" fill="#0a0b0b" opacity="0.30"/>
<circle cx="566.4" cy="720.4" r="2.11" fill="#827867" opacity="0.12"/>
<circle cx="683.5" cy="816.5" r="2.92" fill="#827867" opacity="0.15"/>
<circle cx="800.6" cy="912.6" r="3.73" fill="#d8ccb9" opacity="0.19"/>
<circle cx="917.8" cy="1008.7" r="4.54" fill="#0a0b0b" opacity="0.23"/>
<circle cx="1034.9" cy="24.8" r="1.30" fill="#827867" opacity="0.26"/>
<circle cx="1152.0" cy="121.0" r="2.11" fill="#827867" opacity="0.30"/>
<circle cx="1269.1" cy="217.1" r="2.92" fill="#d8ccb9" opacity="0.12"/>
<circle cx="1386.2" cy="313.2" r="3.73" fill="#0a0b0b" opacity="0.15"/>
<circle cx="1503.4" cy="409.3" r="4.54" fill="#827867" opacity="0.19"/>
<circle cx="1620.5" cy="505.4" r="1.30" fill="#827867" opacity="0.23"/>
<circle cx="1737.6" cy="601.6" r="2.11" fill="#d8ccb9" opacity="0.26"/>
<circle cx="1854.7" cy="697.7" r="2.92" fill="#0a0b0b" opacity="0.30"/>
<circle cx="51.8" cy="793.8" r="3.73" fill="#827867" opacity="0.12"/>
<circle cx="169.0" cy="889.9" r="4.54" fill="#827867" opacity="0.15"/>
<circle cx="286.1" cy="986.0" r="1.30" fill="#d8ccb9" opacity="0.19"/>
<circle cx="403.2" cy="2.2" r="2.11" fill="#0a0b0b" opacity="0.23"/>
<circle cx="520.3" cy="98.3" r="2.92" fill="#827867" opacity="0.26"/>
<circle cx="637.4" cy="194.4" r="3.73" fill="#827867" opacity="0.30"/>
<circle cx="754.6" cy="290.5" r="4.54" fill="#d8ccb9" opacity="0.12"/>
<circle cx="871.7" cy="386.6" r="1.30" fill="#0a0b0b" opacity="0.15"/>
<circle cx="988.8" cy="482.8" r="2.11" fill="#827867" opacity="0.19"/>
<circle cx="1105.9" cy="578.9" r="2.92" fill="#827867" opacity="0.23"/>
<circle cx="1223.0" cy="675.0" r="3.73" fill="#d8ccb9" opacity="0.26"/>
<circle cx="1340.2" cy="771.1" r="4.54" fill="#0a0b0b" opacity="0.30"/>
<circle cx="1457.3" cy="867.2" r="1.30" fill="#827867" opacity="0.12"/>
<circle cx="1574.4" cy="963.4" r="2.11" fill="#827867" opacity="0.15"/>
<circle cx="1691.5" cy="1059.5" r="2.92" fill="#d8ccb9" opacity="0.19"/>
<circle cx="1808.6" cy="75.6" r="3.73" fill="#0a0b0b" opacity="0.23"/>
<circle cx="5.8" cy="171.7" r="4.54" fill="#827867" opacity="0.26"/>
<circle cx="122.9" cy="267.8" r="1.30" fill="#827867" opacity="0.30"/>
<circle cx="240.0" cy="364.0" r="2.11" fill="#d8ccb9" opacity="0.12"/>
<circle cx="357.1" cy="460.1" r="2.92" fill="#0a0b0b" opacity="0.15"/>
<circle cx="474.2" cy="556.2" r="3.73" fill="#827867" opacity="0.19"/>
<circle cx="591.4" cy="652.3" r="4.54" fill="#827867" opacity="0.23"/>
<circle cx="708.5" cy="748.4" r="1.30" fill="#d8ccb9" opacity="0.26"/>
<circle cx="825.6" cy="844.6" r="2.11" fill="#0a0b0b" opacity="0.30"/>
<circle cx="942.7" cy="940.7" r="2.92" fill="#827867" opacity="0.12"/>
<circle cx="1059.8" cy="1036.8" r="3.73" fill="#827867" opacity="0.15"/>
<circle cx="1177.0" cy="52.9" r="4.54" fill="#d8ccb9" opacity="0.19"/>
<circle cx="1294.1" cy="149.0" r="1.30" fill="#0a0b0b" opacity="0.23"/>
<circle cx="1411.2" cy="245.2" r="2.11" fill="#827867" opacity="0.26"/>
<circle cx="1528.3" cy="341.3" r="2.92" fill="#827867" opacity="0.30"/>
<circle cx="1645.4" cy="437.4" r="3.73" fill="#d8ccb9" opacity="0.12"/>
<circle cx="1762.6" cy="533.5" r="4.54" fill="#0a0b0b" opacity="0.15"/>
<circle cx="1879.7" cy="629.6" r="1.30" fill="#827867" opacity="0.19"/>
<circle cx="76.8" cy="725.8" r="2.11" fill="#827867" opacity="0.23"/>
<circle cx="193.9" cy="821.9" r="2.92" fill="#d8ccb9" opacity="0.26"/>
<circle cx="311.0" cy="918.0" r="3.73" fill="#0a0b0b" opacity="0.30"/>
<circle cx="428.2" cy="1014.1" r="4.54" fill="#827867" opacity="0.12"/>
<circle cx="545.3" cy="30.2" r="1.30" fill="#827867" opacity="0.15"/>
<circle cx="662.4" cy="126.4" r="2.11" fill="#d8ccb9" opacity="0.19"/>
<circle cx="779.5" cy="222.5" r="2.92" fill="#0a0b0b" opacity="0.23"/>
<circle cx="896.6" cy="318.6" r="3.73" fill="#827867" opacity="0.26"/>
<circle cx="1013.8" cy="414.7" r="4.54" fill="#827867" opacity="0.30"/>
  <g transform="translate(230.39999999999998 367.20000000000005) rotate(-34) scale(2.076923076923077)" opacity="0.78">
    <path d="M0 -78 C42 -48 58 12 4 88 C-44 32 -48 -38 0 -78Z" fill="#151918"/>
    <path d="M0 -62 C10 -20 8 32 0 72" fill="none" stroke="#d4c6ad" stroke-opacity="0.18" stroke-width="2"/>
    <path d="M0 -8 C20 -18 34 -26 48 -42 M0 18 C-22 6 -34 -10 -48 -30 M0 38 C18 32 32 23 45 12" fill="none" stroke="#d4c6ad" stroke-opacity="0.12" stroke-width="1.4"/>
  </g>
  <g transform="translate(1651.2 669.6) rotate(28) scale(1.9285714285714286)" opacity="0.78">
    <path d="M0 -78 C42 -48 58 12 4 88 C-44 32 -48 -38 0 -78Z" fill="#2d2923"/>
    <path d="M0 -62 C10 -20 8 32 0 72" fill="none" stroke="#d4c6ad" stroke-opacity="0.18" stroke-width="2"/>
    <path d="M0 -8 C20 -18 34 -26 48 -42 M0 18 C-22 6 -34 -10 -48 -30 M0 38 C18 32 32 23 45 12" fill="none" stroke="#d4c6ad" stroke-opacity="0.12" stroke-width="1.4"/>
  </g>
  <g transform="translate(576 907.1999999999999) rotate(-66) scale(1.6363636363636365)" opacity="0.78">
    <path d="M0 -78 C42 -48 58 12 4 88 C-44 32 -48 -38 0 -78Z" fill="#4b4035"/>
    <path d="M0 -62 C10 -20 8 32 0 72" fill="none" stroke="#d4c6ad" stroke-opacity="0.18" stroke-width="2"/>
    <path d="M0 -8 C20 -18 34 -26 48 -42 M0 18 C-22 6 -34 -10 -48 -30 M0 38 C18 32 32 23 45 12" fill="none" stroke="#d4c6ad" stroke-opacity="0.12" stroke-width="1.4"/>
  </g>
  <g transform="translate(1113.6 172.8) rotate(96) scale(1.5)" opacity="0.78">
    <path d="M0 -78 C42 -48 58 12 4 88 C-44 32 -48 -38 0 -78Z" fill="#d1c4aa"/>
    <path d="M0 -62 C10 -20 8 32 0 72" fill="none" stroke="#d4c6ad" stroke-opacity="0.18" stroke-width="2"/>
    <path d="M0 -8 C20 -18 34 -26 48 -42 M0 18 C-22 6 -34 -10 -48 -30 M0 38 C18 32 32 23 45 12" fill="none" stroke="#d4c6ad" stroke-opacity="0.12" stroke-width="1.4"/>
  </g>
  <g transform="translate(115.19999999999999 842.4) rotate(24) scale(1.542857142857143)" opacity="0.78">
    <path d="M0 -78 C42 -48 58 12 4 88 C-44 32 -48 -38 0 -78Z" fill="#0d1110"/>
    <path d="M0 -62 C10 -20 8 32 0 72" fill="none" stroke="#d4c6ad" stroke-opacity="0.18" stroke-width="2"/>
    <path d="M0 -8 C20 -18 34 -26 48 -42 M0 18 C-22 6 -34 -10 -48 -30 M0 38 C18 32 32 23 45 12" fill="none" stroke="#d4c6ad" stroke-opacity="0.12" stroke-width="1.4"/>
  </g>
  <g transform="rotate(-16 1497.6000000000001 216)" opacity="0.88">
    <ellipse cx="1497.6000000000001" cy="216" rx="194.4" ry="75.60000000000001" fill="none" stroke="#e8e3d8" stroke-opacity="0.46" stroke-width="6.48"/>
    <ellipse cx="1497.6000000000001" cy="216" rx="124.41600000000001" ry="39.312000000000005" fill="#cfc8ba" fill-opacity="0.11" stroke="#2b2d2d" stroke-opacity="0.35" stroke-width="3.24"/>
    <ellipse cx="1462.6080000000002" cy="202.392" rx="38.88" ry="7.560000000000001" fill="#fff" opacity="0.20"/>
  </g>
  <g transform="rotate(24 345.59999999999997 194.4)" opacity="0.88">
    <ellipse cx="345.59999999999997" cy="194.4" rx="140.4" ry="54" fill="none" stroke="#e8e3d8" stroke-opacity="0.46" stroke-width="6.48"/>
    <ellipse cx="345.59999999999997" cy="194.4" rx="89.85600000000001" ry="28.080000000000002" fill="#cfc8ba" fill-opacity="0.11" stroke="#2b2d2d" stroke-opacity="0.35" stroke-width="3.24"/>
    <ellipse cx="320.328" cy="184.68" rx="28.080000000000002" ry="5.4" fill="#fff" opacity="0.20"/>
  </g>
  <g transform="rotate(48 1689.6 518.4)" opacity="0.88">
    <ellipse cx="1689.6" cy="518.4" rx="129.6" ry="48.6" fill="none" stroke="#e8e3d8" stroke-opacity="0.46" stroke-width="6.48"/>
    <ellipse cx="1689.6" cy="518.4" rx="82.944" ry="25.272000000000002" fill="#cfc8ba" fill-opacity="0.11" stroke="#2b2d2d" stroke-opacity="0.35" stroke-width="3.24"/>
    <ellipse cx="1666.272" cy="509.652" rx="25.92" ry="4.86" fill="#fff" opacity="0.20"/>
  </g>

    <g transform="translate(1382.3999999999999 345.6) rotate(9)" filter="url(#photo-shadow)">
    <rect x="-151.20000000000002" y="-129.6" width="302.40000000000003" height="259.2" fill="#f0ebe0" opacity="0.95"/>
    <text x="-114.91200000000002" y="-57.024" font-family="Georgia, serif" font-size="22.680000000000003" fill="#151515">FOLLOW UP</text>
    <rect x="-114.91200000000002" y="-12.96" width="127.00800000000001" height="46.656" fill="#0d1113"/>
    <rect x="-114.91200000000002" y="51.84" width="132.08832" height="2.032128" fill="#171717" opacity="0.28"/>
<rect x="-114.91200000000002" y="64.5408" width="108.38016000000002" height="2.032128" fill="#171717" opacity="0.335"/>
<rect x="-114.91200000000002" y="77.2416" width="84.67200000000001" height="2.032128" fill="#171717" opacity="0.39"/>
<rect x="-114.91200000000002" y="89.9424" width="132.08832" height="2.032128" fill="#171717" opacity="0.44500000000000006"/>
<rect x="-114.91200000000002" y="102.64320000000001" width="108.38016000000002" height="2.032128" fill="#171717" opacity="0.5"/>
  </g>
    <g transform="translate(499.20000000000005 302.40000000000003) rotate(-14)" filter="url(#photo-shadow)">
    <rect x="-118.8" y="-97.2" width="237.6" height="194.4" fill="#f0ebe0" opacity="0.95"/>
    <text x="-90.288" y="-42.768" font-family="Georgia, serif" font-size="17.82" fill="#151515">FOLLOW UP</text>
    <rect x="-90.288" y="-9.72" width="99.79199999999999" height="34.992" fill="#0d1113"/>
    <rect x="-90.288" y="38.88" width="103.78368000000002" height="2" fill="#171717" opacity="0.28"/>
<rect x="-90.288" y="48.8592" width="85.15584000000001" height="2" fill="#171717" opacity="0.335"/>
<rect x="-90.288" y="58.83840000000001" width="66.528" height="2" fill="#171717" opacity="0.39"/>
<rect x="-90.288" y="68.8176" width="103.78368000000002" height="2" fill="#171717" opacity="0.44500000000000006"/>
<rect x="-90.288" y="78.7968" width="85.15584000000001" height="2" fill="#171717" opacity="0.5"/>
  </g>
    <g transform="translate(1536 756) rotate(-18)" filter="url(#photo-shadow)">
    <rect x="-86.4" y="-162" width="172.8" height="324" rx="31.104" fill="#c9c7c1" opacity="0.88"/>
    <rect x="-80.4" y="-155" width="160.8" height="310" rx="24.192000000000004" fill="#f5f2ea" opacity="0.32"/>
    <text x="0" y="-19.439999999999998" text-anchor="middle" font-family="Arial, Helvetica, sans-serif" font-size="15.552" letter-spacing="1.6" fill="#252525" opacity="0.78">AUDIT</text>
    <text x="0" y="51.84" text-anchor="middle" font-family="Arial, Helvetica, sans-serif" font-size="9.504000000000001" letter-spacing="1" fill="#555" opacity="0.62">OUTERSCOPE</text>
  </g>
    <g transform="translate(384 756) rotate(15)" filter="url(#photo-shadow)">
    <rect x="-75.60000000000001" y="-135" width="151.20000000000002" height="270" rx="27.216" fill="#c9c7c1" opacity="0.88"/>
    <rect x="-69.60000000000001" y="-128" width="139.20000000000002" height="256" rx="21.168000000000003" fill="#f5f2ea" opacity="0.32"/>
    <text x="0" y="-16.2" text-anchor="middle" font-family="Arial, Helvetica, sans-serif" font-size="13.608" letter-spacing="1.6" fill="#252525" opacity="0.78">OPS</text>
    <text x="0" y="43.2" text-anchor="middle" font-family="Arial, Helvetica, sans-serif" font-size="8.316" letter-spacing="1" fill="#555" opacity="0.62">OUTERSCOPE</text>
  </g>

  <g transform="translate(998.4000000000001 583.2) rotate(-3)" filter="url(#photo-shadow)">
    <rect x="-163.29600000000002" y="-338.25600000000003" width="326.59200000000004" height="676.5120000000001" rx="42.45696000000001" fill="#080a0b"/>
    <rect x="-145.33344000000002" y="-315.39456" width="290.66688000000005" height="630.78912" rx="31.026240000000005" fill="#ece8dd"/>
    <rect x="-65.31840000000001" y="-330.0912" width="130.63680000000002" height="11.430720000000003" rx="6.531840000000001" fill="#171717"/>
    <text x="0" y="-196.18848" text-anchor="middle" font-family="Georgia, serif" font-size="34.29216" letter-spacing="2" fill="#2a2a27">PROOF ENGINE</text>
    <text x="0" y="-142.06752" text-anchor="middle" font-family="Arial, Helvetica, sans-serif" font-size="17.962560000000003" letter-spacing="4" fill="#7d7466">FOLLOW UP</text>
    <rect x="-104.50944000000001" y="-74.41632000000001" width="209.01888000000002" height="169.12800000000001" fill="#0d1113" opacity="0.88"/>
    <text x="0" y="-3.3825600000000002" text-anchor="middle" font-family="Arial Black, Arial, sans-serif" font-size="29.393280000000004" letter-spacing="1.6" fill="#f7f4ea">OS</text>
    <rect x="-94.71168" y="135.3024" width="152.84505600000003" height="2.3514624000000004" fill="#171717" opacity="0.28"/>
<rect x="-94.71168" y="149.99904" width="125.41132800000001" height="2.3514624000000004" fill="#171717" opacity="0.335"/>
<rect x="-94.71168" y="164.69568" width="97.97760000000001" height="2.3514624000000004" fill="#171717" opacity="0.39"/>
<rect x="-94.71168" y="179.39232" width="152.84505600000003" height="2.3514624000000004" fill="#171717" opacity="0.44500000000000006"/>
<rect x="-94.71168" y="194.08896000000001" width="125.41132800000001" height="2.3514624000000004" fill="#171717" opacity="0.5"/>
    <rect x="-94.71168" y="236.7792" width="189.42336" height="50.738400000000006" fill="#d8d0c2" opacity="0.65"/>
  </g>
  <rect width="100%" height="100%" fill="#000" opacity="0.08"/>

</svg>
