<svg xmlns="http://www.w3.org/2000/svg" width="1920" height="1080" viewBox="0 0 1920 1080" role="img" aria-label="hero CRM Signal Layer">
  <defs>
    <linearGradient id="steel" x1="0" y1="0" x2="1" y2="1">
      <stop offset="0" stop-color="#f7fbff"/>
      <stop offset="0.18" stop-color="#8d99a6"/>
      <stop offset="0.48" stop-color="#202832"/>
      <stop offset="0.72" stop-color="#cad7e6"/>
      <stop offset="1" stop-color="#111821"/>
    </linearGradient>
    <linearGradient id="ink" x1="0" y1="0" x2="1" y2="1">
      <stop offset="0" stop-color="#05070a"/>
      <stop offset="0.52" stop-color="#101824"/>
      <stop offset="1" stop-color="#030405"/>
    </linearGradient>
    <radialGradient id="pulse" cx="50%" cy="45%" r="70%">
      <stop offset="0" stop-color="#9bdcf5"/>
      <stop offset="0.26" stop-color="#1f6f91"/>
      <stop offset="0.68" stop-color="#071620"/>
      <stop offset="1" stop-color="#020304"/>
    </radialGradient>
    <filter id="glow" x="-40%" y="-40%" width="180%" height="180%">
      <feGaussianBlur stdDeviation="6" result="blur"/>
      <feColorMatrix in="blur" type="matrix" values="0 0 0 0 0.2 0 0 0 0 0.72 0 0 0 0 1 0 0 0 .8 0"/>
      <feMerge><feMergeNode/><feMergeNode in="SourceGraphic"/></feMerge>
    </filter>
    <pattern id="grid" width="44" height="44" patternUnits="userSpaceOnUse">
      <path d="M44 0H0v44" fill="none" stroke="#ffffff" stroke-opacity="0.08" stroke-width="1"/>
    </pattern>
  </defs>

  <defs>
    <filter id="photo-grain" x="-10%" y="-10%" width="120%" height="120%">
      <feTurbulence type="fractalNoise" baseFrequency="0.82" numOctaves="4" seed="21"/>
      <feColorMatrix type="saturate" values="0"/>
      <feComponentTransfer><feFuncA type="table" tableValues="0 0.34"/></feComponentTransfer>
    </filter>
    <filter id="photo-shadow" x="-40%" y="-40%" width="180%" height="180%">
      <feDropShadow dx="19.439999999999998" dy="28.08" stdDeviation="19.439999999999998" flood-color="#000" flood-opacity="0.55"/>
    </filter>
    <radialGradient id="photo-light" cx="28%" cy="18%" r="78%">
      <stop offset="0" stop-color="#d9d1c2" stop-opacity="0.46"/>
      <stop offset="0.42" stop-color="#d8d1c4" stop-opacity="0.16"/>
      <stop offset="1" stop-color="#050607" stop-opacity="1"/>
    </radialGradient>
  </defs>
  <rect width="100%" height="100%" fill="#101519"/>
  <rect width="100%" height="100%" fill="url(#photo-light)"/>
  <rect width="100%" height="100%" fill="#fff" filter="url(#photo-grain)" opacity="0.70"/>
  <rect width="100%" height="100%" fill="#000" opacity="0.06"/>
  <ellipse cx="284.2" cy="306.7" rx="108.0" ry="27.0" fill="#ece2d2" opacity="0.025" transform="rotate(-1 284.2 306.7)"/>
<ellipse cx="547.2" cy="396.4" rx="145.8" ry="42.1" fill="#ece2d2" opacity="0.035" transform="rotate(28 547.2 396.4)"/>
<ellipse cx="810.2" cy="486.0" rx="183.6" ry="57.2" fill="#ece2d2" opacity="0.045" transform="rotate(-33 810.2 486.0)"/>
<ellipse cx="1073.3" cy="575.6" rx="221.4" ry="27.0" fill="#ece2d2" opacity="0.055" transform="rotate(-4 1073.3 575.6)"/>
<ellipse cx="1336.3" cy="665.3" rx="108.0" ry="42.1" fill="#ece2d2" opacity="0.065" transform="rotate(25 1336.3 665.3)"/>
<ellipse cx="1599.4" cy="754.9" rx="145.8" ry="57.2" fill="#ece2d2" opacity="0.025" transform="rotate(-36 1599.4 754.9)"/>
<ellipse cx="1862.4" cy="844.6" rx="183.6" ry="27.0" fill="#ece2d2" opacity="0.035" transform="rotate(-7 1862.4 844.6)"/>
<ellipse cx="205.4" cy="934.2" rx="221.4" ry="42.1" fill="#ece2d2" opacity="0.045" transform="rotate(22 205.4 934.2)"/>
<ellipse cx="468.5" cy="1023.8" rx="108.0" ry="57.2" fill="#ece2d2" opacity="0.055" transform="rotate(-39 468.5 1023.8)"/>
<ellipse cx="731.5" cy="33.5" rx="145.8" ry="27.0" fill="#ece2d2" opacity="0.065" transform="rotate(-10 731.5 33.5)"/>
<ellipse cx="994.6" cy="123.1" rx="183.6" ry="42.1" fill="#ece2d2" opacity="0.025" transform="rotate(19 994.6 123.1)"/>
<ellipse cx="1257.6" cy="212.8" rx="221.4" ry="57.2" fill="#ece2d2" opacity="0.035" transform="rotate(-42 1257.6 212.8)"/>
  <circle cx="983.0" cy="432.0" r="4.54" fill="#d8ccb9" opacity="0.12"/>
<circle cx="1100.2" cy="528.1" r="1.30" fill="#0a0b0b" opacity="0.15"/>
<circle cx="1217.3" cy="624.2" r="2.11" fill="#827867" opacity="0.19"/>
<circle cx="1334.4" cy="720.4" r="2.92" fill="#827867" opacity="0.23"/>
<circle cx="1451.5" cy="816.5" r="3.73" fill="#d8ccb9" opacity="0.26"/>
<circle cx="1568.6" cy="912.6" r="4.54" fill="#0a0b0b" opacity="0.30"/>
<circle cx="1685.8" cy="1008.7" r="1.30" fill="#827867" opacity="0.12"/>
<circle cx="1802.9" cy="24.8" r="2.11" fill="#827867" opacity="0.15"/>
<circle cx="0.0" cy="121.0" r="2.92" fill="#d8ccb9" opacity="0.19"/>
<circle cx="117.1" cy="217.1" r="3.73" fill="#0a0b0b" opacity="0.23"/>
<circle cx="234.2" cy="313.2" r="4.54" fill="#827867" opacity="0.26"/>
<circle cx="351.4" cy="409.3" r="1.30" fill="#827867" opacity="0.30"/>
<circle cx="468.5" cy="505.4" r="2.11" fill="#d8ccb9" opacity="0.12"/>
<circle cx="585.6" cy="601.6" r="2.92" fill="#0a0b0b" opacity="0.15"/>
<circle cx="702.7" cy="697.7" r="3.73" fill="#827867" opacity="0.19"/>
<circle cx="819.8" cy="793.8" r="4.54" fill="#827867" opacity="0.23"/>
<circle cx="937.0" cy="889.9" r="1.30" fill="#d8ccb9" opacity="0.26"/>
<circle cx="1054.1" cy="986.0" r="2.11" fill="#0a0b0b" opacity="0.30"/>
<circle cx="1171.2" cy="2.2" r="2.92" fill="#827867" opacity="0.12"/>
<circle cx="1288.3" cy="98.3" r="3.73" fill="#827867" opacity="0.15"/>
<circle cx="1405.4" cy="194.4" r="4.54" fill="#d8ccb9" opacity="0.19"/>
<circle cx="1522.6" cy="290.5" r="1.30" fill="#0a0b0b" opacity="0.23"/>
<circle cx="1639.7" cy="386.6" r="2.11" fill="#827867" opacity="0.26"/>
<circle cx="1756.8" cy="482.8" r="2.92" fill="#827867" opacity="0.30"/>
<circle cx="1873.9" cy="578.9" r="3.73" fill="#d8ccb9" opacity="0.12"/>
<circle cx="71.0" cy="675.0" r="4.54" fill="#0a0b0b" opacity="0.15"/>
<circle cx="188.2" cy="771.1" r="1.30" fill="#827867" opacity="0.19"/>
<circle cx="305.3" cy="867.2" r="2.11" fill="#827867" opacity="0.23"/>
<circle cx="422.4" cy="963.4" r="2.92" fill="#d8ccb9" opacity="0.26"/>
<circle cx="539.5" cy="1059.5" r="3.73" fill="#0a0b0b" opacity="0.30"/>
<circle cx="656.6" cy="75.6" r="4.54" fill="#827867" opacity="0.12"/>
<circle cx="773.8" cy="171.7" r="1.30" fill="#827867" opacity="0.15"/>
<circle cx="890.9" cy="267.8" r="2.11" fill="#d8ccb9" opacity="0.19"/>
<circle cx="1008.0" cy="364.0" r="2.92" fill="#0a0b0b" opacity="0.23"/>
<circle cx="1125.1" cy="460.1" r="3.73" fill="#827867" opacity="0.26"/>
<circle cx="1242.2" cy="556.2" r="4.54" fill="#827867" opacity="0.30"/>
<circle cx="1359.4" cy="652.3" r="1.30" fill="#d8ccb9" opacity="0.12"/>
<circle cx="1476.5" cy="748.4" r="2.11" fill="#0a0b0b" opacity="0.15"/>
<circle cx="1593.6" cy="844.6" r="2.92" fill="#827867" opacity="0.19"/>
<circle cx="1710.7" cy="940.7" r="3.73" fill="#827867" opacity="0.23"/>
<circle cx="1827.8" cy="1036.8" r="4.54" fill="#d8ccb9" opacity="0.26"/>
<circle cx="25.0" cy="52.9" r="1.30" fill="#0a0b0b" opacity="0.30"/>
<circle cx="142.1" cy="149.0" r="2.11" fill="#827867" opacity="0.12"/>
<circle cx="259.2" cy="245.2" r="2.92" fill="#827867" opacity="0.15"/>
<circle cx="376.3" cy="341.3" r="3.73" fill="#d8ccb9" opacity="0.19"/>
<circle cx="493.4" cy="437.4" r="4.54" fill="#0a0b0b" opacity="0.23"/>
<circle cx="610.6" cy="533.5" r="1.30" fill="#827867" opacity="0.26"/>
<circle cx="727.7" cy="629.6" r="2.11" fill="#827867" opacity="0.30"/>
<circle cx="844.8" cy="725.8" r="2.92" fill="#d8ccb9" opacity="0.12"/>
<circle cx="961.9" cy="821.9" r="3.73" fill="#0a0b0b" opacity="0.15"/>
<circle cx="1079.0" cy="918.0" r="4.54" fill="#827867" opacity="0.19"/>
<circle cx="1196.2" cy="1014.1" r="1.30" fill="#827867" opacity="0.23"/>
<circle cx="1313.3" cy="30.2" r="2.11" fill="#d8ccb9" opacity="0.26"/>
<circle cx="1430.4" cy="126.4" r="2.92" fill="#0a0b0b" opacity="0.30"/>
<circle cx="1547.5" cy="222.5" r="3.73" fill="#827867" opacity="0.12"/>
<circle cx="1664.6" cy="318.6" r="4.54" fill="#827867" opacity="0.15"/>
<circle cx="1781.8" cy="414.7" r="1.30" fill="#d8ccb9" opacity="0.19"/>
<circle cx="1898.9" cy="510.8" r="2.11" fill="#0a0b0b" opacity="0.23"/>
<circle cx="96.0" cy="607.0" r="2.92" fill="#827867" opacity="0.26"/>
<circle cx="213.1" cy="703.1" r="3.73" fill="#827867" opacity="0.30"/>
<circle cx="330.2" cy="799.2" r="4.54" fill="#d8ccb9" opacity="0.12"/>
<circle cx="447.4" cy="895.3" r="1.30" fill="#0a0b0b" opacity="0.15"/>
<circle cx="564.5" cy="991.4" r="2.11" fill="#827867" opacity="0.19"/>
<circle cx="681.6" cy="7.6" r="2.92" fill="#827867" opacity="0.23"/>
<circle cx="798.7" cy="103.7" r="3.73" fill="#d8ccb9" opacity="0.26"/>
<circle cx="915.8" cy="199.8" r="4.54" fill="#0a0b0b" opacity="0.30"/>
<circle cx="1033.0" cy="295.9" r="1.30" fill="#827867" opacity="0.12"/>
<circle cx="1150.1" cy="392.0" r="2.11" fill="#827867" opacity="0.15"/>
<circle cx="1267.2" cy="488.2" r="2.92" fill="#d8ccb9" opacity="0.19"/>
<circle cx="1384.3" cy="584.3" r="3.73" fill="#0a0b0b" opacity="0.23"/>
<circle cx="1501.4" cy="680.4" r="4.54" fill="#827867" opacity="0.26"/>
<circle cx="1618.6" cy="776.5" r="1.30" fill="#827867" opacity="0.30"/>
<circle cx="1735.7" cy="872.6" r="2.11" fill="#d8ccb9" opacity="0.12"/>
<circle cx="1852.8" cy="968.8" r="2.92" fill="#0a0b0b" opacity="0.15"/>
<circle cx="49.9" cy="1064.9" r="3.73" fill="#827867" opacity="0.19"/>
<circle cx="167.0" cy="81.0" r="4.54" fill="#827867" opacity="0.23"/>
<circle cx="284.2" cy="177.1" r="1.30" fill="#d8ccb9" opacity="0.26"/>
<circle cx="401.3" cy="273.2" r="2.11" fill="#0a0b0b" opacity="0.30"/>
<circle cx="518.4" cy="369.4" r="2.92" fill="#827867" opacity="0.12"/>
<circle cx="635.5" cy="465.5" r="3.73" fill="#827867" opacity="0.15"/>
<circle cx="752.6" cy="561.6" r="4.54" fill="#d8ccb9" opacity="0.19"/>
<circle cx="869.8" cy="657.7" r="1.30" fill="#0a0b0b" opacity="0.23"/>
<circle cx="986.9" cy="753.8" r="2.11" fill="#827867" opacity="0.26"/>
<circle cx="1104.0" cy="850.0" r="2.92" fill="#827867" opacity="0.30"/>
<circle cx="1221.1" cy="946.1" r="3.73" fill="#d8ccb9" opacity="0.12"/>
<circle cx="1338.2" cy="1042.2" r="4.54" fill="#0a0b0b" opacity="0.15"/>
<circle cx="1455.4" cy="58.3" r="1.30" fill="#827867" opacity="0.19"/>
<circle cx="1572.5" cy="154.4" r="2.11" fill="#827867" opacity="0.23"/>
<circle cx="1689.6" cy="250.6" r="2.92" fill="#d8ccb9" opacity="0.26"/>
<circle cx="1806.7" cy="346.7" r="3.73" fill="#0a0b0b" opacity="0.30"/>
<circle cx="3.8" cy="442.8" r="4.54" fill="#827867" opacity="0.12"/>
<circle cx="121.0" cy="538.9" r="1.30" fill="#827867" opacity="0.15"/>
<circle cx="238.1" cy="635.0" r="2.11" fill="#d8ccb9" opacity="0.19"/>
<circle cx="355.2" cy="731.2" r="2.92" fill="#0a0b0b" opacity="0.23"/>
<circle cx="472.3" cy="827.3" r="3.73" fill="#827867" opacity="0.26"/>
<circle cx="589.4" cy="923.4" r="4.54" fill="#827867" opacity="0.30"/>
<circle cx="706.6" cy="1019.5" r="1.30" fill="#d8ccb9" opacity="0.12"/>
<circle cx="823.7" cy="35.6" r="2.11" fill="#0a0b0b" opacity="0.15"/>
<circle cx="940.8" cy="131.8" r="2.92" fill="#827867" opacity="0.19"/>
<circle cx="1057.9" cy="227.9" r="3.73" fill="#827867" opacity="0.23"/>
<circle cx="1175.0" cy="324.0" r="4.54" fill="#d8ccb9" opacity="0.26"/>
<circle cx="1292.2" cy="420.1" r="1.30" fill="#0a0b0b" opacity="0.30"/>
<circle cx="1409.3" cy="516.2" r="2.11" fill="#827867" opacity="0.12"/>
<circle cx="1526.4" cy="612.4" r="2.92" fill="#827867" opacity="0.15"/>
<circle cx="1643.5" cy="708.5" r="3.73" fill="#d8ccb9" opacity="0.19"/>
<circle cx="1760.6" cy="804.6" r="4.54" fill="#0a0b0b" opacity="0.23"/>
<circle cx="1877.8" cy="900.7" r="1.30" fill="#827867" opacity="0.26"/>
<circle cx="74.9" cy="996.8" r="2.11" fill="#827867" opacity="0.30"/>
<circle cx="192.0" cy="13.0" r="2.92" fill="#d8ccb9" opacity="0.12"/>
<circle cx="309.1" cy="109.1" r="3.73" fill="#0a0b0b" opacity="0.15"/>
<circle cx="426.2" cy="205.2" r="4.54" fill="#827867" opacity="0.19"/>
<circle cx="543.4" cy="301.3" r="1.30" fill="#827867" opacity="0.23"/>
<circle cx="660.5" cy="397.4" r="2.11" fill="#d8ccb9" opacity="0.26"/>
<circle cx="777.6" cy="493.6" r="2.92" fill="#0a0b0b" opacity="0.30"/>
<circle cx="894.7" cy="589.7" r="3.73" fill="#827867" opacity="0.12"/>
<circle cx="1011.8" cy="685.8" r="4.54" fill="#827867" opacity="0.15"/>
<circle cx="1129.0" cy="781.9" r="1.30" fill="#d8ccb9" opacity="0.19"/>
<circle cx="1246.1" cy="878.0" r="2.11" fill="#0a0b0b" opacity="0.23"/>
<circle cx="1363.2" cy="974.2" r="2.92" fill="#827867" opacity="0.26"/>
<circle cx="1480.3" cy="1070.3" r="3.73" fill="#827867" opacity="0.30"/>
<circle cx="1597.4" cy="86.4" r="4.54" fill="#d8ccb9" opacity="0.12"/>
<circle cx="1714.6" cy="182.5" r="1.30" fill="#0a0b0b" opacity="0.15"/>
<circle cx="1831.7" cy="278.6" r="2.11" fill="#827867" opacity="0.19"/>
<circle cx="28.8" cy="374.8" r="2.92" fill="#827867" opacity="0.23"/>
<circle cx="145.9" cy="470.9" r="3.73" fill="#d8ccb9" opacity="0.26"/>
<circle cx="263.0" cy="567.0" r="4.54" fill="#0a0b0b" opacity="0.30"/>
<circle cx="380.2" cy="663.1" r="1.30" fill="#827867" opacity="0.12"/>
<circle cx="497.3" cy="759.2" r="2.11" fill="#827867" opacity="0.15"/>
<circle cx="614.4" cy="855.4" r="2.92" fill="#d8ccb9" opacity="0.19"/>
<circle cx="731.5" cy="951.5" r="3.73" fill="#0a0b0b" opacity="0.23"/>
<circle cx="848.6" cy="1047.6" r="4.54" fill="#827867" opacity="0.26"/>
<circle cx="965.8" cy="63.7" r="1.30" fill="#827867" opacity="0.30"/>
<circle cx="1082.9" cy="159.8" r="2.11" fill="#d8ccb9" opacity="0.12"/>
<circle cx="1200.0" cy="256.0" r="2.92" fill="#0a0b0b" opacity="0.15"/>
<circle cx="1317.1" cy="352.1" r="3.73" fill="#827867" opacity="0.19"/>
<circle cx="1434.2" cy="448.2" r="4.54" fill="#827867" opacity="0.23"/>
<circle cx="1551.4" cy="544.3" r="1.30" fill="#d8ccb9" opacity="0.26"/>
<circle cx="1668.5" cy="640.4" r="2.11" fill="#0a0b0b" opacity="0.30"/>
<circle cx="1785.6" cy="736.6" r="2.92" fill="#827867" opacity="0.12"/>
<circle cx="1902.7" cy="832.7" r="3.73" fill="#827867" opacity="0.15"/>
<circle cx="99.8" cy="928.8" r="4.54" fill="#d8ccb9" opacity="0.19"/>
<circle cx="217.0" cy="1024.9" r="1.30" fill="#0a0b0b" opacity="0.23"/>
<circle cx="334.1" cy="41.0" r="2.11" fill="#827867" opacity="0.26"/>
<circle cx="451.2" cy="137.2" r="2.92" fill="#827867" opacity="0.30"/>
<circle cx="568.3" cy="233.3" r="3.73" fill="#d8ccb9" opacity="0.12"/>
<circle cx="685.4" cy="329.4" r="4.54" fill="#0a0b0b" opacity="0.15"/>
<circle cx="802.6" cy="425.5" r="1.30" fill="#827867" opacity="0.19"/>
<circle cx="919.7" cy="521.6" r="2.11" fill="#827867" opacity="0.23"/>
<circle cx="1036.8" cy="617.8" r="2.92" fill="#d8ccb9" opacity="0.26"/>
<circle cx="1153.9" cy="713.9" r="3.73" fill="#0a0b0b" opacity="0.30"/>
<circle cx="1271.0" cy="810.0" r="4.54" fill="#827867" opacity="0.12"/>
<circle cx="1388.2" cy="906.1" r="1.30" fill="#827867" opacity="0.15"/>
<circle cx="1505.3" cy="1002.2" r="2.11" fill="#d8ccb9" opacity="0.19"/>
<circle cx="1622.4" cy="18.4" r="2.92" fill="#0a0b0b" opacity="0.23"/>
<circle cx="1739.5" cy="114.5" r="3.73" fill="#827867" opacity="0.26"/>
<circle cx="1856.6" cy="210.6" r="4.54" fill="#827867" opacity="0.30"/>
<circle cx="53.8" cy="306.7" r="1.30" fill="#d8ccb9" opacity="0.12"/>
<circle cx="170.9" cy="402.8" r="2.11" fill="#0a0b0b" opacity="0.15"/>
<circle cx="288.0" cy="499.0" r="2.92" fill="#827867" opacity="0.19"/>
<circle cx="405.1" cy="595.1" r="3.73" fill="#827867" opacity="0.23"/>
<circle cx="522.2" cy="691.2" r="4.54" fill="#d8ccb9" opacity="0.26"/>
<circle cx="639.4" cy="787.3" r="1.30" fill="#0a0b0b" opacity="0.30"/>
<circle cx="756.5" cy="883.4" r="2.11" fill="#827867" opacity="0.12"/>
<circle cx="873.6" cy="979.6" r="2.92" fill="#827867" opacity="0.15"/>
<circle cx="990.7" cy="1075.7" r="3.73" fill="#d8ccb9" opacity="0.19"/>
<circle cx="1107.8" cy="91.8" r="4.54" fill="#0a0b0b" opacity="0.23"/>
<circle cx="1225.0" cy="187.9" r="1.30" fill="#827867" opacity="0.26"/>
<circle cx="1342.1" cy="284.0" r="2.11" fill="#827867" opacity="0.30"/>
<circle cx="1459.2" cy="380.2" r="2.92" fill="#d8ccb9" opacity="0.12"/>
<circle cx="1576.3" cy="476.3" r="3.73" fill="#0a0b0b" opacity="0.15"/>
<circle cx="1693.4" cy="572.4" r="4.54" fill="#827867" opacity="0.19"/>
<circle cx="1810.6" cy="668.5" r="1.30" fill="#827867" opacity="0.23"/>
<circle cx="7.7" cy="764.6" r="2.11" fill="#d8ccb9" opacity="0.26"/>
<circle cx="124.8" cy="860.8" r="2.92" fill="#0a0b0b" opacity="0.30"/>
<circle cx="241.9" cy="956.9" r="3.73" fill="#827867" opacity="0.12"/>
<circle cx="359.0" cy="1053.0" r="4.54" fill="#827867" opacity="0.15"/>
<circle cx="476.2" cy="69.1" r="1.30" fill="#d8ccb9" opacity="0.19"/>
<circle cx="593.3" cy="165.2" r="2.11" fill="#0a0b0b" opacity="0.23"/>
<circle cx="710.4" cy="261.4" r="2.92" fill="#827867" opacity="0.26"/>
<circle cx="827.5" cy="357.5" r="3.73" fill="#827867" opacity="0.30"/>
  <g transform="translate(230.39999999999998 367.20000000000005) rotate(-34) scale(2.076923076923077)" opacity="0.78">
    <path d="M0 -78 C42 -48 58 12 4 88 C-44 32 -48 -38 0 -78Z" fill="#151918"/>
    <path d="M0 -62 C10 -20 8 32 0 72" fill="none" stroke="#d4c6ad" stroke-opacity="0.18" stroke-width="2"/>
    <path d="M0 -8 C20 -18 34 -26 48 -42 M0 18 C-22 6 -34 -10 -48 -30 M0 38 C18 32 32 23 45 12" fill="none" stroke="#d4c6ad" stroke-opacity="0.12" stroke-width="1.4"/>
  </g>
  <g transform="translate(1651.2 669.6) rotate(28) scale(1.9285714285714286)" opacity="0.78">
    <path d="M0 -78 C42 -48 58 12 4 88 C-44 32 -48 -38 0 -78Z" fill="#2d2923"/>
    <path d="M0 -62 C10 -20 8 32 0 72" fill="none" stroke="#d4c6ad" stroke-opacity="0.18" stroke-width="2"/>
    <path d="M0 -8 C20 -18 34 -26 48 -42 M0 18 C-22 6 -34 -10 -48 -30 M0 38 C18 32 32 23 45 12" fill="none" stroke="#d4c6ad" stroke-opacity="0.12" stroke-width="1.4"/>
  </g>
  <g transform="translate(576 907.1999999999999) rotate(-66) scale(1.6363636363636365)" opacity="0.78">
    <path d="M0 -78 C42 -48 58 12 4 88 C-44 32 -48 -38 0 -78Z" fill="#4b4035"/>
    <path d="M0 -62 C10 -20 8 32 0 72" fill="none" stroke="#d4c6ad" stroke-opacity="0.18" stroke-width="2"/>
    <path d="M0 -8 C20 -18 34 -26 48 -42 M0 18 C-22 6 -34 -10 -48 -30 M0 38 C18 32 32 23 45 12" fill="none" stroke="#d4c6ad" stroke-opacity="0.12" stroke-width="1.4"/>
  </g>
  <g transform="translate(1113.6 172.8) rotate(96) scale(1.5)" opacity="0.78">
    <path d="M0 -78 C42 -48 58 12 4 88 C-44 32 -48 -38 0 -78Z" fill="#d1c4aa"/>
    <path d="M0 -62 C10 -20 8 32 0 72" fill="none" stroke="#d4c6ad" stroke-opacity="0.18" stroke-width="2"/>
    <path d="M0 -8 C20 -18 34 -26 48 -42 M0 18 C-22 6 -34 -10 -48 -30 M0 38 C18 32 32 23 45 12" fill="none" stroke="#d4c6ad" stroke-opacity="0.12" stroke-width="1.4"/>
  </g>
  <g transform="translate(115.19999999999999 842.4) rotate(24) scale(1.542857142857143)" opacity="0.78">
    <path d="M0 -78 C42 -48 58 12 4 88 C-44 32 -48 -38 0 -78Z" fill="#0d1110"/>
    <path d="M0 -62 C10 -20 8 32 0 72" fill="none" stroke="#d4c6ad" stroke-opacity="0.18" stroke-width="2"/>
    <path d="M0 -8 C20 -18 34 -26 48 -42 M0 18 C-22 6 -34 -10 -48 -30 M0 38 C18 32 32 23 45 12" fill="none" stroke="#d4c6ad" stroke-opacity="0.12" stroke-width="1.4"/>
  </g>
  <g transform="rotate(-16 1497.6000000000001 216)" opacity="0.88">
    <ellipse cx="1497.6000000000001" cy="216" rx="194.4" ry="75.60000000000001" fill="none" stroke="#e8e3d8" stroke-opacity="0.46" stroke-width="6.48"/>
    <ellipse cx="1497.6000000000001" cy="216" rx="124.41600000000001" ry="39.312000000000005" fill="#cfc8ba" fill-opacity="0.11" stroke="#2b2d2d" stroke-opacity="0.35" stroke-width="3.24"/>
    <ellipse cx="1462.6080000000002" cy="202.392" rx="38.88" ry="7.560000000000001" fill="#fff" opacity="0.20"/>
  </g>
  <g transform="rotate(24 345.59999999999997 194.4)" opacity="0.88">
    <ellipse cx="345.59999999999997" cy="194.4" rx="140.4" ry="54" fill="none" stroke="#e8e3d8" stroke-opacity="0.46" stroke-width="6.48"/>
    <ellipse cx="345.59999999999997" cy="194.4" rx="89.85600000000001" ry="28.080000000000002" fill="#cfc8ba" fill-opacity="0.11" stroke="#2b2d2d" stroke-opacity="0.35" stroke-width="3.24"/>
    <ellipse cx="320.328" cy="184.68" rx="28.080000000000002" ry="5.4" fill="#fff" opacity="0.20"/>
  </g>
  <g transform="rotate(48 1689.6 518.4)" opacity="0.88">
    <ellipse cx="1689.6" cy="518.4" rx="129.6" ry="48.6" fill="none" stroke="#e8e3d8" stroke-opacity="0.46" stroke-width="6.48"/>
    <ellipse cx="1689.6" cy="518.4" rx="82.944" ry="25.272000000000002" fill="#cfc8ba" fill-opacity="0.11" stroke="#2b2d2d" stroke-opacity="0.35" stroke-width="3.24"/>
    <ellipse cx="1666.272" cy="509.652" rx="25.92" ry="4.86" fill="#fff" opacity="0.20"/>
  </g>

    <g transform="translate(1382.3999999999999 345.6) rotate(9)" filter="url(#photo-shadow)">
    <rect x="-151.20000000000002" y="-129.6" width="302.40000000000003" height="259.2" fill="#f0ebe0" opacity="0.95"/>
    <text x="-114.91200000000002" y="-57.024" font-family="Georgia, serif" font-size="22.680000000000003" fill="#151515">PROOF ENGINE</text>
    <rect x="-114.91200000000002" y="-12.96" width="127.00800000000001" height="46.656" fill="#0d1113"/>
    <rect x="-114.91200000000002" y="51.84" width="132.08832" height="2.032128" fill="#171717" opacity="0.28"/>
<rect x="-114.91200000000002" y="64.5408" width="108.38016000000002" height="2.032128" fill="#171717" opacity="0.335"/>
<rect x="-114.91200000000002" y="77.2416" width="84.67200000000001" height="2.032128" fill="#171717" opacity="0.39"/>
<rect x="-114.91200000000002" y="89.9424" width="132.08832" height="2.032128" fill="#171717" opacity="0.44500000000000006"/>
<rect x="-114.91200000000002" y="102.64320000000001" width="108.38016000000002" height="2.032128" fill="#171717" opacity="0.5"/>
  </g>
    <g transform="translate(499.20000000000005 302.40000000000003) rotate(-14)" filter="url(#photo-shadow)">
    <rect x="-118.8" y="-97.2" width="237.6" height="194.4" fill="#f0ebe0" opacity="0.95"/>
    <text x="-90.288" y="-42.768" font-family="Georgia, serif" font-size="17.82" fill="#151515">PROOF ENGINE</text>
    <rect x="-90.288" y="-9.72" width="99.79199999999999" height="34.992" fill="#0d1113"/>
    <rect x="-90.288" y="38.88" width="103.78368000000002" height="2" fill="#171717" opacity="0.28"/>
<rect x="-90.288" y="48.8592" width="85.15584000000001" height="2" fill="#171717" opacity="0.335"/>
<rect x="-90.288" y="58.83840000000001" width="66.528" height="2" fill="#171717" opacity="0.39"/>
<rect x="-90.288" y="68.8176" width="103.78368000000002" height="2" fill="#171717" opacity="0.44500000000000006"/>
<rect x="-90.288" y="78.7968" width="85.15584000000001" height="2" fill="#171717" opacity="0.5"/>
  </g>
    <g transform="translate(1536 756) rotate(-18)" filter="url(#photo-shadow)">
    <rect x="-86.4" y="-162" width="172.8" height="324" rx="31.104" fill="#c9c7c1" opacity="0.88"/>
    <rect x="-80.4" y="-155" width="160.8" height="310" rx="24.192000000000004" fill="#f5f2ea" opacity="0.32"/>
    <text x="0" y="-19.439999999999998" text-anchor="middle" font-family="Arial, Helvetica, sans-serif" font-size="15.552" letter-spacing="1.6" fill="#252525" opacity="0.78">CRM</text>
    <text x="0" y="51.84" text-anchor="middle" font-family="Arial, Helvetica, sans-serif" font-size="9.504000000000001" letter-spacing="1" fill="#555" opacity="0.62">OUTERSCOPE</text>
  </g>
    <g transform="translate(384 756) rotate(15)" filter="url(#photo-shadow)">
    <rect x="-75.60000000000001" y="-135" width="151.20000000000002" height="270" rx="27.216" fill="#c9c7c1" opacity="0.88"/>
    <rect x="-69.60000000000001" y="-128" width="139.20000000000002" height="256" rx="21.168000000000003" fill="#f5f2ea" opacity="0.32"/>
    <text x="0" y="-16.2" text-anchor="middle" font-family="Arial, Helvetica, sans-serif" font-size="13.608" letter-spacing="1.6" fill="#252525" opacity="0.78">OPS</text>
    <text x="0" y="43.2" text-anchor="middle" font-family="Arial, Helvetica, sans-serif" font-size="8.316" letter-spacing="1" fill="#555" opacity="0.62">OUTERSCOPE</text>
  </g>

  <g transform="translate(825.6 583.2) rotate(5)" filter="url(#photo-shadow)">
    <rect x="-163.29600000000002" y="-338.25600000000003" width="326.59200000000004" height="676.5120000000001" rx="42.45696000000001" fill="#080a0b"/>
    <rect x="-145.33344000000002" y="-315.39456" width="290.66688000000005" height="630.78912" rx="31.026240000000005" fill="#ece8dd"/>
    <rect x="-65.31840000000001" y="-330.0912" width="130.63680000000002" height="11.430720000000003" rx="6.531840000000001" fill="#171717"/>
    <text x="0" y="-196.18848" text-anchor="middle" font-family="Georgia, serif" font-size="34.29216" letter-spacing="2" fill="#2a2a27">CRM SIGNAL LAYER</text>
    <text x="0" y="-142.06752" text-anchor="middle" font-family="Arial, Helvetica, sans-serif" font-size="17.962560000000003" letter-spacing="4" fill="#7d7466">PROOF ENGINE</text>
    <rect x="-104.50944000000001" y="-74.41632000000001" width="209.01888000000002" height="169.12800000000001" fill="#0d1113" opacity="0.88"/>
    <text x="0" y="-3.3825600000000002" text-anchor="middle" font-family="Arial Black, Arial, sans-serif" font-size="29.393280000000004" letter-spacing="1.6" fill="#f7f4ea">OS</text>
    <rect x="-94.71168" y="135.3024" width="152.84505600000003" height="2.3514624000000004" fill="#171717" opacity="0.28"/>
<rect x="-94.71168" y="149.99904" width="125.41132800000001" height="2.3514624000000004" fill="#171717" opacity="0.335"/>
<rect x="-94.71168" y="164.69568" width="97.97760000000001" height="2.3514624000000004" fill="#171717" opacity="0.39"/>
<rect x="-94.71168" y="179.39232" width="152.84505600000003" height="2.3514624000000004" fill="#171717" opacity="0.44500000000000006"/>
<rect x="-94.71168" y="194.08896000000001" width="125.41132800000001" height="2.3514624000000004" fill="#171717" opacity="0.5"/>
    <rect x="-94.71168" y="236.7792" width="189.42336" height="50.738400000000006" fill="#d8d0c2" opacity="0.65"/>
  </g>
  <rect width="100%" height="100%" fill="#000" opacity="0.08"/>

</svg>
