<svg xmlns="http://www.w3.org/2000/svg" width="430" height="290" viewBox="0 0 430 290" role="img" aria-label="Outerscope loading tile">
  <defs>
    <linearGradient id="steel" x1="0" y1="0" x2="1" y2="1">
      <stop offset="0" stop-color="#f7fbff"/>
      <stop offset="0.18" stop-color="#8d99a6"/>
      <stop offset="0.48" stop-color="#202832"/>
      <stop offset="0.72" stop-color="#cad7e6"/>
      <stop offset="1" stop-color="#111821"/>
    </linearGradient>
    <linearGradient id="ink" x1="0" y1="0" x2="1" y2="1">
      <stop offset="0" stop-color="#05070a"/>
      <stop offset="0.52" stop-color="#101824"/>
      <stop offset="1" stop-color="#030405"/>
    </linearGradient>
    <radialGradient id="pulse" cx="50%" cy="45%" r="70%">
      <stop offset="0" stop-color="#9bdcf5"/>
      <stop offset="0.26" stop-color="#1f6f91"/>
      <stop offset="0.68" stop-color="#071620"/>
      <stop offset="1" stop-color="#020304"/>
    </radialGradient>
    <filter id="glow" x="-40%" y="-40%" width="180%" height="180%">
      <feGaussianBlur stdDeviation="6" result="blur"/>
      <feColorMatrix in="blur" type="matrix" values="0 0 0 0 0.2 0 0 0 0 0.72 0 0 0 0 1 0 0 0 .8 0"/>
      <feMerge><feMergeNode/><feMergeNode in="SourceGraphic"/></feMerge>
    </filter>
    <pattern id="grid" width="44" height="44" patternUnits="userSpaceOnUse">
      <path d="M44 0H0v44" fill="none" stroke="#ffffff" stroke-opacity="0.08" stroke-width="1"/>
    </pattern>
  </defs>
  
  <rect width="430" height="290" fill="#050505"/>
  <rect width="430" height="290" fill="url(#grid)" opacity="0.10"/>
  <ellipse cx="218" cy="142" rx="120" ry="78" fill="#cfd6dc" opacity="0.06"/>
  <rect x="132" y="62" width="166" height="166" rx="34" fill="#0c0d0e" stroke="#d9dde0" stroke-opacity="0.22" stroke-width="2"/>
  <rect x="145" y="75" width="140" height="140" rx="27" fill="#e9ece8" opacity="0.92"/>
  <circle cx="177" cy="145" r="27" fill="none" stroke="#07090a" stroke-width="11"/>
  <path d="M212 174c14 13 48 10 56-12 8-24-16-34-40-39-23-5-34-13-27-29 10-22 47-21 62 0" fill="none" stroke="#07090a" stroke-width="11" stroke-linecap="round"/>
  <text x="215" y="246" text-anchor="middle" font-family="Arial, Helvetica, sans-serif" font-size="14" letter-spacing="5" fill="#d6d8d6" opacity="0.78">OUTERSCOPE</text>
  <rect width="430" height="290" filter="url(#glow)" opacity="0.05"/>

</svg>
