<svg xmlns="http://www.w3.org/2000/svg" width="980" height="1250" viewBox="0 0 980 1250" role="img" aria-label="archive CRM Layer">
  <defs>
    <linearGradient id="steel" x1="0" y1="0" x2="1" y2="1">
      <stop offset="0" stop-color="#f7fbff"/>
      <stop offset="0.18" stop-color="#8d99a6"/>
      <stop offset="0.48" stop-color="#202832"/>
      <stop offset="0.72" stop-color="#cad7e6"/>
      <stop offset="1" stop-color="#111821"/>
    </linearGradient>
    <linearGradient id="ink" x1="0" y1="0" x2="1" y2="1">
      <stop offset="0" stop-color="#05070a"/>
      <stop offset="0.52" stop-color="#101824"/>
      <stop offset="1" stop-color="#030405"/>
    </linearGradient>
    <radialGradient id="pulse" cx="50%" cy="45%" r="70%">
      <stop offset="0" stop-color="#9bdcf5"/>
      <stop offset="0.26" stop-color="#1f6f91"/>
      <stop offset="0.68" stop-color="#071620"/>
      <stop offset="1" stop-color="#020304"/>
    </radialGradient>
    <filter id="glow" x="-40%" y="-40%" width="180%" height="180%">
      <feGaussianBlur stdDeviation="6" result="blur"/>
      <feColorMatrix in="blur" type="matrix" values="0 0 0 0 0.2 0 0 0 0 0.72 0 0 0 0 1 0 0 0 .8 0"/>
      <feMerge><feMergeNode/><feMergeNode in="SourceGraphic"/></feMerge>
    </filter>
    <pattern id="grid" width="44" height="44" patternUnits="userSpaceOnUse">
      <path d="M44 0H0v44" fill="none" stroke="#ffffff" stroke-opacity="0.08" stroke-width="1"/>
    </pattern>
  </defs>

  <defs>
    <filter id="photo-grain" x="-10%" y="-10%" width="120%" height="120%">
      <feTurbulence type="fractalNoise" baseFrequency="0.82" numOctaves="4" seed="20"/>
      <feColorMatrix type="saturate" values="0"/>
      <feComponentTransfer><feFuncA type="table" tableValues="0 0.34"/></feComponentTransfer>
    </filter>
    <filter id="photo-shadow" x="-40%" y="-40%" width="180%" height="180%">
      <feDropShadow dx="17.639999999999997" dy="25.48" stdDeviation="17.639999999999997" flood-color="#000" flood-opacity="0.55"/>
    </filter>
    <radialGradient id="photo-light" cx="70%" cy="18%" r="78%">
      <stop offset="0" stop-color="#d9d1c2" stop-opacity="0.46"/>
      <stop offset="0.42" stop-color="#706457" stop-opacity="0.16"/>
      <stop offset="1" stop-color="#050607" stop-opacity="1"/>
    </radialGradient>
  </defs>
  <rect width="100%" height="100%" fill="#263037"/>
  <rect width="100%" height="100%" fill="url(#photo-light)"/>
  <rect width="100%" height="100%" fill="#fff" filter="url(#photo-grain)" opacity="0.70"/>
  <rect width="100%" height="100%" fill="#000" opacity="0.06"/>
  <ellipse cx="108.8" cy="266.3" rx="98.0" ry="24.5" fill="#ece2d2" opacity="0.025" transform="rotate(-12 108.8 266.3)"/>
<ellipse cx="243.0" cy="370.0" rx="132.3" ry="38.2" fill="#ece2d2" opacity="0.035" transform="rotate(17 243.0 370.0)"/>
<ellipse cx="377.3" cy="473.8" rx="166.6" ry="51.9" fill="#ece2d2" opacity="0.045" transform="rotate(-44 377.3 473.8)"/>
<ellipse cx="511.6" cy="577.5" rx="200.9" ry="24.5" fill="#ece2d2" opacity="0.055" transform="rotate(-15 511.6 577.5)"/>
<ellipse cx="645.8" cy="681.3" rx="98.0" ry="38.2" fill="#ece2d2" opacity="0.065" transform="rotate(14 645.8 681.3)"/>
<ellipse cx="780.1" cy="785.0" rx="132.3" ry="51.9" fill="#ece2d2" opacity="0.025" transform="rotate(43 780.1 785.0)"/>
<ellipse cx="914.3" cy="888.8" rx="166.6" ry="24.5" fill="#ece2d2" opacity="0.035" transform="rotate(-18 914.3 888.8)"/>
<ellipse cx="68.6" cy="992.5" rx="200.9" ry="38.2" fill="#ece2d2" opacity="0.045" transform="rotate(11 68.6 992.5)"/>
<ellipse cx="202.9" cy="1096.3" rx="98.0" ry="51.9" fill="#ece2d2" opacity="0.055" transform="rotate(40 202.9 1096.3)"/>
<ellipse cx="337.1" cy="1200.0" rx="132.3" ry="24.5" fill="#ece2d2" opacity="0.065" transform="rotate(-21 337.1 1200.0)"/>
<ellipse cx="471.4" cy="53.7" rx="166.6" ry="38.2" fill="#ece2d2" opacity="0.025" transform="rotate(8 471.4 53.7)"/>
<ellipse cx="605.6" cy="157.5" rx="200.9" ry="51.9" fill="#ece2d2" opacity="0.035" transform="rotate(37 605.6 157.5)"/>
  <circle cx="497.8" cy="610.0" r="3.38" fill="#d8ccb9" opacity="0.12"/>
<circle cx="557.6" cy="721.3" r="4.12" fill="#0a0b0b" opacity="0.15"/>
<circle cx="617.4" cy="832.5" r="1.18" fill="#827867" opacity="0.19"/>
<circle cx="677.2" cy="943.8" r="1.91" fill="#827867" opacity="0.23"/>
<circle cx="737.0" cy="1055.0" r="2.65" fill="#d8ccb9" opacity="0.26"/>
<circle cx="796.7" cy="1166.3" r="3.38" fill="#0a0b0b" opacity="0.30"/>
<circle cx="856.5" cy="27.5" r="4.12" fill="#827867" opacity="0.12"/>
<circle cx="916.3" cy="138.8" r="1.18" fill="#827867" opacity="0.15"/>
<circle cx="976.1" cy="250.0" r="1.91" fill="#d8ccb9" opacity="0.19"/>
<circle cx="55.9" cy="361.3" r="2.65" fill="#0a0b0b" opacity="0.23"/>
<circle cx="115.6" cy="472.5" r="3.38" fill="#827867" opacity="0.26"/>
<circle cx="175.4" cy="583.8" r="4.12" fill="#827867" opacity="0.30"/>
<circle cx="235.2" cy="695.0" r="1.18" fill="#d8ccb9" opacity="0.12"/>
<circle cx="295.0" cy="806.3" r="1.91" fill="#0a0b0b" opacity="0.15"/>
<circle cx="354.8" cy="917.5" r="2.65" fill="#827867" opacity="0.19"/>
<circle cx="414.5" cy="1028.8" r="3.38" fill="#827867" opacity="0.23"/>
<circle cx="474.3" cy="1140.0" r="4.12" fill="#d8ccb9" opacity="0.26"/>
<circle cx="534.1" cy="1.3" r="1.18" fill="#0a0b0b" opacity="0.30"/>
<circle cx="593.9" cy="112.5" r="1.91" fill="#827867" opacity="0.12"/>
<circle cx="653.7" cy="223.8" r="2.65" fill="#827867" opacity="0.15"/>
<circle cx="713.4" cy="335.0" r="3.38" fill="#d8ccb9" opacity="0.19"/>
<circle cx="773.2" cy="446.3" r="4.12" fill="#0a0b0b" opacity="0.23"/>
<circle cx="833.0" cy="557.5" r="1.18" fill="#827867" opacity="0.26"/>
<circle cx="892.8" cy="668.8" r="1.91" fill="#827867" opacity="0.30"/>
<circle cx="952.6" cy="780.0" r="2.65" fill="#d8ccb9" opacity="0.12"/>
<circle cx="32.3" cy="891.3" r="3.38" fill="#0a0b0b" opacity="0.15"/>
<circle cx="92.1" cy="1002.5" r="4.12" fill="#827867" opacity="0.19"/>
<circle cx="151.9" cy="1113.8" r="1.18" fill="#827867" opacity="0.23"/>
<circle cx="211.7" cy="1225.0" r="1.91" fill="#d8ccb9" opacity="0.26"/>
<circle cx="271.5" cy="86.3" r="2.65" fill="#0a0b0b" opacity="0.30"/>
<circle cx="331.2" cy="197.5" r="3.38" fill="#827867" opacity="0.12"/>
<circle cx="391.0" cy="308.8" r="4.12" fill="#827867" opacity="0.15"/>
<circle cx="450.8" cy="420.0" r="1.18" fill="#d8ccb9" opacity="0.19"/>
<circle cx="510.6" cy="531.3" r="1.91" fill="#0a0b0b" opacity="0.23"/>
<circle cx="570.4" cy="642.5" r="2.65" fill="#827867" opacity="0.26"/>
<circle cx="630.1" cy="753.8" r="3.38" fill="#827867" opacity="0.30"/>
<circle cx="689.9" cy="865.0" r="4.12" fill="#d8ccb9" opacity="0.12"/>
<circle cx="749.7" cy="976.3" r="1.18" fill="#0a0b0b" opacity="0.15"/>
<circle cx="809.5" cy="1087.5" r="1.91" fill="#827867" opacity="0.19"/>
<circle cx="869.3" cy="1198.8" r="2.65" fill="#827867" opacity="0.23"/>
<circle cx="929.0" cy="60.0" r="3.38" fill="#d8ccb9" opacity="0.26"/>
<circle cx="8.8" cy="171.3" r="4.12" fill="#0a0b0b" opacity="0.30"/>
<circle cx="68.6" cy="282.5" r="1.18" fill="#827867" opacity="0.12"/>
<circle cx="128.4" cy="393.8" r="1.91" fill="#827867" opacity="0.15"/>
<circle cx="188.2" cy="505.0" r="2.65" fill="#d8ccb9" opacity="0.19"/>
<circle cx="247.9" cy="616.3" r="3.38" fill="#0a0b0b" opacity="0.23"/>
<circle cx="307.7" cy="727.5" r="4.12" fill="#827867" opacity="0.26"/>
<circle cx="367.5" cy="838.8" r="1.18" fill="#827867" opacity="0.30"/>
<circle cx="427.3" cy="950.0" r="1.91" fill="#d8ccb9" opacity="0.12"/>
<circle cx="487.1" cy="1061.3" r="2.65" fill="#0a0b0b" opacity="0.15"/>
<circle cx="546.8" cy="1172.5" r="3.38" fill="#827867" opacity="0.19"/>
<circle cx="606.6" cy="33.8" r="4.12" fill="#827867" opacity="0.23"/>
<circle cx="666.4" cy="145.0" r="1.18" fill="#d8ccb9" opacity="0.26"/>
<circle cx="726.2" cy="256.3" r="1.91" fill="#0a0b0b" opacity="0.30"/>
<circle cx="786.0" cy="367.5" r="2.65" fill="#827867" opacity="0.12"/>
<circle cx="845.7" cy="478.8" r="3.38" fill="#827867" opacity="0.15"/>
<circle cx="905.5" cy="590.0" r="4.12" fill="#d8ccb9" opacity="0.19"/>
<circle cx="965.3" cy="701.3" r="1.18" fill="#0a0b0b" opacity="0.23"/>
<circle cx="45.1" cy="812.5" r="1.91" fill="#827867" opacity="0.26"/>
<circle cx="104.9" cy="923.8" r="2.65" fill="#827867" opacity="0.30"/>
<circle cx="164.6" cy="1035.0" r="3.38" fill="#d8ccb9" opacity="0.12"/>
<circle cx="224.4" cy="1146.3" r="4.12" fill="#0a0b0b" opacity="0.15"/>
<circle cx="284.2" cy="7.5" r="1.18" fill="#827867" opacity="0.19"/>
<circle cx="344.0" cy="118.8" r="1.91" fill="#827867" opacity="0.23"/>
<circle cx="403.8" cy="230.0" r="2.65" fill="#d8ccb9" opacity="0.26"/>
<circle cx="463.5" cy="341.3" r="3.38" fill="#0a0b0b" opacity="0.30"/>
<circle cx="523.3" cy="452.5" r="4.12" fill="#827867" opacity="0.12"/>
<circle cx="583.1" cy="563.8" r="1.18" fill="#827867" opacity="0.15"/>
<circle cx="642.9" cy="675.0" r="1.91" fill="#d8ccb9" opacity="0.19"/>
<circle cx="702.7" cy="786.3" r="2.65" fill="#0a0b0b" opacity="0.23"/>
<circle cx="762.4" cy="897.5" r="3.38" fill="#827867" opacity="0.26"/>
<circle cx="822.2" cy="1008.8" r="4.12" fill="#827867" opacity="0.30"/>
<circle cx="882.0" cy="1120.0" r="1.18" fill="#d8ccb9" opacity="0.12"/>
<circle cx="941.8" cy="1231.3" r="1.91" fill="#0a0b0b" opacity="0.15"/>
<circle cx="21.6" cy="92.5" r="2.65" fill="#827867" opacity="0.19"/>
<circle cx="81.3" cy="203.8" r="3.38" fill="#827867" opacity="0.23"/>
<circle cx="141.1" cy="315.0" r="4.12" fill="#d8ccb9" opacity="0.26"/>
<circle cx="200.9" cy="426.3" r="1.18" fill="#0a0b0b" opacity="0.30"/>
<circle cx="260.7" cy="537.5" r="1.91" fill="#827867" opacity="0.12"/>
<circle cx="320.5" cy="648.8" r="2.65" fill="#827867" opacity="0.15"/>
<circle cx="380.2" cy="760.0" r="3.38" fill="#d8ccb9" opacity="0.19"/>
<circle cx="440.0" cy="871.2" r="4.12" fill="#0a0b0b" opacity="0.23"/>
<circle cx="499.8" cy="982.5" r="1.18" fill="#827867" opacity="0.26"/>
<circle cx="559.6" cy="1093.8" r="1.91" fill="#827867" opacity="0.30"/>
<circle cx="619.4" cy="1205.0" r="2.65" fill="#d8ccb9" opacity="0.12"/>
<circle cx="679.1" cy="66.3" r="3.38" fill="#0a0b0b" opacity="0.15"/>
<circle cx="738.9" cy="177.5" r="4.12" fill="#827867" opacity="0.19"/>
<circle cx="798.7" cy="288.8" r="1.18" fill="#827867" opacity="0.23"/>
<circle cx="858.5" cy="400.0" r="1.91" fill="#d8ccb9" opacity="0.26"/>
<circle cx="918.3" cy="511.2" r="2.65" fill="#0a0b0b" opacity="0.30"/>
<circle cx="978.0" cy="622.5" r="3.38" fill="#827867" opacity="0.12"/>
<circle cx="57.8" cy="733.8" r="4.12" fill="#827867" opacity="0.15"/>
<circle cx="117.6" cy="845.0" r="1.18" fill="#d8ccb9" opacity="0.19"/>
<circle cx="177.4" cy="956.3" r="1.91" fill="#0a0b0b" opacity="0.23"/>
<circle cx="237.2" cy="1067.5" r="2.65" fill="#827867" opacity="0.26"/>
<circle cx="296.9" cy="1178.8" r="3.38" fill="#827867" opacity="0.30"/>
<circle cx="356.7" cy="40.0" r="4.12" fill="#d8ccb9" opacity="0.12"/>
<circle cx="416.5" cy="151.3" r="1.18" fill="#0a0b0b" opacity="0.15"/>
<circle cx="476.3" cy="262.5" r="1.91" fill="#827867" opacity="0.19"/>
<circle cx="536.1" cy="373.8" r="2.65" fill="#827867" opacity="0.23"/>
<circle cx="595.8" cy="485.0" r="3.38" fill="#d8ccb9" opacity="0.26"/>
<circle cx="655.6" cy="596.3" r="4.12" fill="#0a0b0b" opacity="0.30"/>
<circle cx="715.4" cy="707.5" r="1.18" fill="#827867" opacity="0.12"/>
<circle cx="775.2" cy="818.8" r="1.91" fill="#827867" opacity="0.15"/>
<circle cx="835.0" cy="930.0" r="2.65" fill="#d8ccb9" opacity="0.19"/>
<circle cx="894.7" cy="1041.3" r="3.38" fill="#0a0b0b" opacity="0.23"/>
<circle cx="954.5" cy="1152.5" r="4.12" fill="#827867" opacity="0.26"/>
<circle cx="34.3" cy="13.8" r="1.18" fill="#827867" opacity="0.30"/>
<circle cx="94.1" cy="125.0" r="1.91" fill="#d8ccb9" opacity="0.12"/>
<circle cx="153.9" cy="236.3" r="2.65" fill="#0a0b0b" opacity="0.15"/>
<circle cx="213.6" cy="347.5" r="3.38" fill="#827867" opacity="0.19"/>
<circle cx="273.4" cy="458.8" r="4.12" fill="#827867" opacity="0.23"/>
<circle cx="333.2" cy="570.0" r="1.18" fill="#d8ccb9" opacity="0.26"/>
<circle cx="393.0" cy="681.3" r="1.91" fill="#0a0b0b" opacity="0.30"/>
<circle cx="452.8" cy="792.5" r="2.65" fill="#827867" opacity="0.12"/>
<circle cx="512.5" cy="903.8" r="3.38" fill="#827867" opacity="0.15"/>
<circle cx="572.3" cy="1015.0" r="4.12" fill="#d8ccb9" opacity="0.19"/>
<circle cx="632.1" cy="1126.3" r="1.18" fill="#0a0b0b" opacity="0.23"/>
<circle cx="691.9" cy="1237.5" r="1.91" fill="#827867" opacity="0.26"/>
<circle cx="751.7" cy="98.8" r="2.65" fill="#827867" opacity="0.30"/>
<circle cx="811.4" cy="210.0" r="3.38" fill="#d8ccb9" opacity="0.12"/>
<circle cx="871.2" cy="321.3" r="4.12" fill="#0a0b0b" opacity="0.15"/>
<circle cx="931.0" cy="432.5" r="1.18" fill="#827867" opacity="0.19"/>
<circle cx="10.8" cy="543.8" r="1.91" fill="#827867" opacity="0.23"/>
<circle cx="70.6" cy="655.0" r="2.65" fill="#d8ccb9" opacity="0.26"/>
<circle cx="130.3" cy="766.3" r="3.38" fill="#0a0b0b" opacity="0.30"/>
<circle cx="190.1" cy="877.5" r="4.12" fill="#827867" opacity="0.12"/>
<circle cx="249.9" cy="988.8" r="1.18" fill="#827867" opacity="0.15"/>
<circle cx="309.7" cy="1100.0" r="1.91" fill="#d8ccb9" opacity="0.19"/>
<circle cx="369.5" cy="1211.3" r="2.65" fill="#0a0b0b" opacity="0.23"/>
<circle cx="429.2" cy="72.5" r="3.38" fill="#827867" opacity="0.26"/>
<circle cx="489.0" cy="183.8" r="4.12" fill="#827867" opacity="0.30"/>
<circle cx="548.8" cy="295.0" r="1.18" fill="#d8ccb9" opacity="0.12"/>
<circle cx="608.6" cy="406.3" r="1.91" fill="#0a0b0b" opacity="0.15"/>
<circle cx="668.4" cy="517.5" r="2.65" fill="#827867" opacity="0.19"/>
<circle cx="728.1" cy="628.8" r="3.38" fill="#827867" opacity="0.23"/>
<circle cx="787.9" cy="740.0" r="4.12" fill="#d8ccb9" opacity="0.26"/>
<circle cx="847.7" cy="851.3" r="1.18" fill="#0a0b0b" opacity="0.30"/>
<circle cx="907.5" cy="962.5" r="1.91" fill="#827867" opacity="0.12"/>
<circle cx="967.3" cy="1073.8" r="2.65" fill="#827867" opacity="0.15"/>
<circle cx="47.0" cy="1185.0" r="3.38" fill="#d8ccb9" opacity="0.19"/>
<circle cx="106.8" cy="46.3" r="4.12" fill="#0a0b0b" opacity="0.23"/>
<circle cx="166.6" cy="157.5" r="1.18" fill="#827867" opacity="0.26"/>
<circle cx="226.4" cy="268.8" r="1.91" fill="#827867" opacity="0.30"/>
<circle cx="286.2" cy="380.0" r="2.65" fill="#d8ccb9" opacity="0.12"/>
<circle cx="345.9" cy="491.3" r="3.38" fill="#0a0b0b" opacity="0.15"/>
<circle cx="405.7" cy="602.5" r="4.12" fill="#827867" opacity="0.19"/>
<circle cx="465.5" cy="713.7" r="1.18" fill="#827867" opacity="0.23"/>
<circle cx="525.3" cy="825.0" r="1.91" fill="#d8ccb9" opacity="0.26"/>
<circle cx="585.1" cy="936.3" r="2.65" fill="#0a0b0b" opacity="0.30"/>
<circle cx="644.8" cy="1047.5" r="3.38" fill="#827867" opacity="0.12"/>
<circle cx="704.6" cy="1158.8" r="4.12" fill="#827867" opacity="0.15"/>
<circle cx="764.4" cy="20.0" r="1.18" fill="#d8ccb9" opacity="0.19"/>
<circle cx="824.2" cy="131.3" r="1.91" fill="#0a0b0b" opacity="0.23"/>
<circle cx="884.0" cy="242.5" r="2.65" fill="#827867" opacity="0.26"/>
<circle cx="943.7" cy="353.7" r="3.38" fill="#827867" opacity="0.30"/>
<circle cx="23.5" cy="465.0" r="4.12" fill="#d8ccb9" opacity="0.12"/>
<circle cx="83.3" cy="576.3" r="1.18" fill="#0a0b0b" opacity="0.15"/>
<circle cx="143.1" cy="687.5" r="1.91" fill="#827867" opacity="0.19"/>
<circle cx="202.9" cy="798.8" r="2.65" fill="#827867" opacity="0.23"/>
<circle cx="262.6" cy="910.0" r="3.38" fill="#d8ccb9" opacity="0.26"/>
<circle cx="322.4" cy="1021.2" r="4.12" fill="#0a0b0b" opacity="0.30"/>
<circle cx="382.2" cy="1132.5" r="1.18" fill="#827867" opacity="0.12"/>
<circle cx="442.0" cy="1243.8" r="1.91" fill="#827867" opacity="0.15"/>
<circle cx="501.8" cy="105.0" r="2.65" fill="#d8ccb9" opacity="0.19"/>
<circle cx="561.5" cy="216.2" r="3.38" fill="#0a0b0b" opacity="0.23"/>
<circle cx="621.3" cy="327.5" r="4.12" fill="#827867" opacity="0.26"/>
<circle cx="681.1" cy="438.8" r="1.18" fill="#827867" opacity="0.30"/>
<circle cx="740.9" cy="550.0" r="1.91" fill="#d8ccb9" opacity="0.12"/>
<circle cx="800.7" cy="661.3" r="2.65" fill="#0a0b0b" opacity="0.15"/>
<circle cx="860.4" cy="772.5" r="3.38" fill="#827867" opacity="0.19"/>
<circle cx="920.2" cy="883.8" r="4.12" fill="#827867" opacity="0.23"/>
<circle cx="0.0" cy="995.0" r="1.18" fill="#d8ccb9" opacity="0.26"/>
<circle cx="59.8" cy="1106.3" r="1.91" fill="#0a0b0b" opacity="0.30"/>
<circle cx="119.6" cy="1217.5" r="2.65" fill="#827867" opacity="0.12"/>
<circle cx="179.3" cy="78.8" r="3.38" fill="#827867" opacity="0.15"/>
<circle cx="239.1" cy="190.0" r="4.12" fill="#d8ccb9" opacity="0.19"/>
<circle cx="298.9" cy="301.3" r="1.18" fill="#0a0b0b" opacity="0.23"/>
<circle cx="358.7" cy="412.5" r="1.91" fill="#827867" opacity="0.26"/>
<circle cx="418.5" cy="523.8" r="2.65" fill="#827867" opacity="0.30"/>
<circle cx="478.2" cy="635.0" r="3.38" fill="#d8ccb9" opacity="0.12"/>
<circle cx="538.0" cy="746.3" r="4.12" fill="#0a0b0b" opacity="0.15"/>
<circle cx="597.8" cy="857.5" r="1.18" fill="#827867" opacity="0.19"/>
<circle cx="657.6" cy="968.8" r="1.91" fill="#827867" opacity="0.23"/>
<circle cx="717.4" cy="1080.0" r="2.65" fill="#d8ccb9" opacity="0.26"/>
<circle cx="777.1" cy="1191.3" r="3.38" fill="#0a0b0b" opacity="0.30"/>
<circle cx="836.9" cy="52.5" r="4.12" fill="#827867" opacity="0.12"/>
<circle cx="896.7" cy="163.8" r="1.18" fill="#827867" opacity="0.15"/>
<circle cx="956.5" cy="275.0" r="1.91" fill="#d8ccb9" opacity="0.19"/>
<circle cx="36.3" cy="386.3" r="2.65" fill="#0a0b0b" opacity="0.23"/>
<circle cx="96.0" cy="497.5" r="3.38" fill="#827867" opacity="0.26"/>
<circle cx="155.8" cy="608.8" r="4.12" fill="#827867" opacity="0.30"/>
<circle cx="215.6" cy="720.0" r="1.18" fill="#d8ccb9" opacity="0.12"/>
<circle cx="275.4" cy="831.3" r="1.91" fill="#0a0b0b" opacity="0.15"/>
<circle cx="335.2" cy="942.5" r="2.65" fill="#827867" opacity="0.19"/>
<circle cx="394.9" cy="1053.8" r="3.38" fill="#827867" opacity="0.23"/>
<circle cx="454.7" cy="1165.0" r="4.12" fill="#d8ccb9" opacity="0.26"/>
<circle cx="514.5" cy="26.3" r="1.18" fill="#0a0b0b" opacity="0.30"/>
<circle cx="574.3" cy="137.5" r="1.91" fill="#827867" opacity="0.12"/>
<circle cx="634.1" cy="248.8" r="2.65" fill="#827867" opacity="0.15"/>
<circle cx="693.8" cy="360.0" r="3.38" fill="#d8ccb9" opacity="0.19"/>
<circle cx="753.6" cy="471.3" r="4.12" fill="#0a0b0b" opacity="0.23"/>
<circle cx="813.4" cy="582.5" r="1.18" fill="#827867" opacity="0.26"/>
<circle cx="873.2" cy="693.8" r="1.91" fill="#827867" opacity="0.30"/>
<circle cx="933.0" cy="805.0" r="2.65" fill="#d8ccb9" opacity="0.12"/>
<circle cx="12.7" cy="916.3" r="3.38" fill="#0a0b0b" opacity="0.15"/>
<circle cx="72.5" cy="1027.5" r="4.12" fill="#827867" opacity="0.19"/>
<circle cx="132.3" cy="1138.8" r="1.18" fill="#827867" opacity="0.23"/>
<circle cx="192.1" cy="0.0" r="1.91" fill="#d8ccb9" opacity="0.26"/>
<circle cx="251.9" cy="111.3" r="2.65" fill="#0a0b0b" opacity="0.30"/>
<circle cx="311.6" cy="222.5" r="3.38" fill="#827867" opacity="0.12"/>
<circle cx="371.4" cy="333.8" r="4.12" fill="#827867" opacity="0.15"/>
<circle cx="431.2" cy="445.0" r="1.18" fill="#d8ccb9" opacity="0.19"/>
<circle cx="491.0" cy="556.3" r="1.91" fill="#0a0b0b" opacity="0.23"/>
<circle cx="550.8" cy="667.5" r="2.65" fill="#827867" opacity="0.26"/>
<circle cx="610.5" cy="778.8" r="3.38" fill="#827867" opacity="0.30"/>
<circle cx="670.3" cy="890.0" r="4.12" fill="#d8ccb9" opacity="0.12"/>
<circle cx="730.1" cy="1001.3" r="1.18" fill="#0a0b0b" opacity="0.15"/>
<circle cx="789.9" cy="1112.5" r="1.91" fill="#827867" opacity="0.19"/>
<circle cx="849.7" cy="1223.8" r="2.65" fill="#827867" opacity="0.23"/>
  <g transform="translate(117.6 425.00000000000006) rotate(-34) scale(1.8846153846153846)" opacity="0.78">
    <path d="M0 -78 C42 -48 58 12 4 88 C-44 32 -48 -38 0 -78Z" fill="#151918"/>
    <path d="M0 -62 C10 -20 8 32 0 72" fill="none" stroke="#d4c6ad" stroke-opacity="0.18" stroke-width="2"/>
    <path d="M0 -8 C20 -18 34 -26 48 -42 M0 18 C-22 6 -34 -10 -48 -30 M0 38 C18 32 32 23 45 12" fill="none" stroke="#d4c6ad" stroke-opacity="0.12" stroke-width="1.4"/>
  </g>
  <g transform="translate(842.8 775) rotate(28) scale(1.75)" opacity="0.78">
    <path d="M0 -78 C42 -48 58 12 4 88 C-44 32 -48 -38 0 -78Z" fill="#2d2923"/>
    <path d="M0 -62 C10 -20 8 32 0 72" fill="none" stroke="#d4c6ad" stroke-opacity="0.18" stroke-width="2"/>
    <path d="M0 -8 C20 -18 34 -26 48 -42 M0 18 C-22 6 -34 -10 -48 -30 M0 38 C18 32 32 23 45 12" fill="none" stroke="#d4c6ad" stroke-opacity="0.12" stroke-width="1.4"/>
  </g>
  <g transform="translate(294 1050) rotate(-66) scale(1.4848484848484849)" opacity="0.78">
    <path d="M0 -78 C42 -48 58 12 4 88 C-44 32 -48 -38 0 -78Z" fill="#4b4035"/>
    <path d="M0 -62 C10 -20 8 32 0 72" fill="none" stroke="#d4c6ad" stroke-opacity="0.18" stroke-width="2"/>
    <path d="M0 -8 C20 -18 34 -26 48 -42 M0 18 C-22 6 -34 -10 -48 -30 M0 38 C18 32 32 23 45 12" fill="none" stroke="#d4c6ad" stroke-opacity="0.12" stroke-width="1.4"/>
  </g>
  <g transform="translate(568.4 200) rotate(96) scale(1.3611111111111112)" opacity="0.78">
    <path d="M0 -78 C42 -48 58 12 4 88 C-44 32 -48 -38 0 -78Z" fill="#d1c4aa"/>
    <path d="M0 -62 C10 -20 8 32 0 72" fill="none" stroke="#d4c6ad" stroke-opacity="0.18" stroke-width="2"/>
    <path d="M0 -8 C20 -18 34 -26 48 -42 M0 18 C-22 6 -34 -10 -48 -30 M0 38 C18 32 32 23 45 12" fill="none" stroke="#d4c6ad" stroke-opacity="0.12" stroke-width="1.4"/>
  </g>
  <g transform="translate(58.8 975) rotate(24) scale(1.4)" opacity="0.78">
    <path d="M0 -78 C42 -48 58 12 4 88 C-44 32 -48 -38 0 -78Z" fill="#0d1110"/>
    <path d="M0 -62 C10 -20 8 32 0 72" fill="none" stroke="#d4c6ad" stroke-opacity="0.18" stroke-width="2"/>
    <path d="M0 -8 C20 -18 34 -26 48 -42 M0 18 C-22 6 -34 -10 -48 -30 M0 38 C18 32 32 23 45 12" fill="none" stroke="#d4c6ad" stroke-opacity="0.12" stroke-width="1.4"/>
  </g>
  <g transform="rotate(-16 764.4 250)" opacity="0.88">
    <ellipse cx="764.4" cy="250" rx="176.4" ry="68.60000000000001" fill="none" stroke="#e8e3d8" stroke-opacity="0.46" stroke-width="5.88"/>
    <ellipse cx="764.4" cy="250" rx="112.896" ry="35.672000000000004" fill="#cfc8ba" fill-opacity="0.11" stroke="#2b2d2d" stroke-opacity="0.35" stroke-width="2.94"/>
    <ellipse cx="732.648" cy="237.652" rx="35.28" ry="6.860000000000001" fill="#fff" opacity="0.20"/>
  </g>
  <g transform="rotate(24 176.4 225)" opacity="0.88">
    <ellipse cx="176.4" cy="225" rx="127.4" ry="49" fill="none" stroke="#e8e3d8" stroke-opacity="0.46" stroke-width="5.88"/>
    <ellipse cx="176.4" cy="225" rx="81.536" ry="25.48" fill="#cfc8ba" fill-opacity="0.11" stroke="#2b2d2d" stroke-opacity="0.35" stroke-width="2.94"/>
    <ellipse cx="153.46800000000002" cy="216.18" rx="25.480000000000004" ry="4.9" fill="#fff" opacity="0.20"/>
  </g>
  <g transform="rotate(48 862.4 600)" opacity="0.88">
    <ellipse cx="862.4" cy="600" rx="117.6" ry="44.1" fill="none" stroke="#e8e3d8" stroke-opacity="0.46" stroke-width="5.88"/>
    <ellipse cx="862.4" cy="600" rx="75.264" ry="22.932000000000002" fill="#cfc8ba" fill-opacity="0.11" stroke="#2b2d2d" stroke-opacity="0.35" stroke-width="2.94"/>
    <ellipse cx="841.232" cy="592.062" rx="23.52" ry="4.41" fill="#fff" opacity="0.20"/>
  </g>

    <g transform="translate(705.6 400) rotate(9)" filter="url(#photo-shadow)">
    <rect x="-137.20000000000002" y="-117.6" width="274.40000000000003" height="235.2" fill="#f0ebe0" opacity="0.95"/>
    <text x="-104.27200000000002" y="-51.744" font-family="Georgia, serif" font-size="20.580000000000002" fill="#151515">CRM LAYER</text>
    <rect x="-104.27200000000002" y="-11.76" width="115.248" height="42.336" fill="#0d1113"/>
    <rect x="-104.27200000000002" y="47.04" width="119.85792000000004" height="2" fill="#171717" opacity="0.28"/>
<rect x="-104.27200000000002" y="58.564800000000005" width="98.34496000000003" height="2" fill="#171717" opacity="0.335"/>
<rect x="-104.27200000000002" y="70.0896" width="76.83200000000002" height="2" fill="#171717" opacity="0.39"/>
<rect x="-104.27200000000002" y="81.61440000000002" width="119.85792000000004" height="2" fill="#171717" opacity="0.44500000000000006"/>
<rect x="-104.27200000000002" y="93.13920000000002" width="98.34496000000003" height="2" fill="#171717" opacity="0.5"/>
  </g>
    <g transform="translate(254.8 350.00000000000006) rotate(-14)" filter="url(#photo-shadow)">
    <rect x="-107.8" y="-88.2" width="215.6" height="176.4" fill="#f0ebe0" opacity="0.95"/>
    <text x="-81.928" y="-38.808" font-family="Georgia, serif" font-size="16.169999999999998" fill="#151515">CRM LAYER</text>
    <rect x="-81.928" y="-8.82" width="90.55199999999999" height="31.752" fill="#0d1113"/>
    <rect x="-81.928" y="35.28" width="94.17408" height="2" fill="#171717" opacity="0.28"/>
<rect x="-81.928" y="44.3352" width="77.27104" height="2" fill="#171717" opacity="0.335"/>
<rect x="-81.928" y="53.3904" width="60.368" height="2" fill="#171717" opacity="0.39"/>
<rect x="-81.928" y="62.4456" width="94.17408" height="2" fill="#171717" opacity="0.44500000000000006"/>
<rect x="-81.928" y="71.5008" width="77.27104" height="2" fill="#171717" opacity="0.5"/>
  </g>
    <g transform="translate(784 875) rotate(-18)" filter="url(#photo-shadow)">
    <rect x="-78.4" y="-147" width="156.8" height="294" rx="28.224" fill="#c9c7c1" opacity="0.88"/>
    <rect x="-72.4" y="-140" width="144.8" height="280" rx="21.952000000000005" fill="#f5f2ea" opacity="0.32"/>
    <text x="0" y="-17.64" text-anchor="middle" font-family="Arial, Helvetica, sans-serif" font-size="14.112" letter-spacing="1.6" fill="#252525" opacity="0.78">AUDIT</text>
    <text x="0" y="47.04" text-anchor="middle" font-family="Arial, Helvetica, sans-serif" font-size="8.624" letter-spacing="1" fill="#555" opacity="0.62">OUTERSCOPE</text>
  </g>
    <g transform="translate(196 875) rotate(15)" filter="url(#photo-shadow)">
    <rect x="-68.60000000000001" y="-122.5" width="137.20000000000002" height="245" rx="24.696" fill="#c9c7c1" opacity="0.88"/>
    <rect x="-62.60000000000001" y="-115.5" width="125.20000000000002" height="231" rx="19.208000000000006" fill="#f5f2ea" opacity="0.32"/>
    <text x="0" y="-14.7" text-anchor="middle" font-family="Arial, Helvetica, sans-serif" font-size="12.348" letter-spacing="1.6" fill="#252525" opacity="0.78">OPS</text>
    <text x="0" y="39.2" text-anchor="middle" font-family="Arial, Helvetica, sans-serif" font-size="7.546000000000001" letter-spacing="1" fill="#555" opacity="0.62">OUTERSCOPE</text>
  </g>

  <g transform="translate(509.6 600) rotate(-3)" filter="url(#photo-shadow)">
    <rect x="-439.43199999999996" y="-280.25" width="878.8639999999999" height="560.5" rx="21.9716" fill="#080a0b"/>
    <rect x="-404.27743999999996" y="-229.80499999999998" width="808.5548799999999" height="403.56" fill="#e8e3d8"/>
    <text x="-316.39104" y="-140.125" font-family="Arial Black, Arial, sans-serif" font-size="50.974112" letter-spacing="1.4" fill="#16191b">CRM LAYER</text>
    <text x="-316.39104" y="-100.89" font-family="Arial, Helvetica, sans-serif" font-size="21.9716" letter-spacing="3" fill="#716759">CRM LAYER</text>
    <rect x="-316.39104" y="-44.84" width="290.02512" height="123.31" fill="#11171a"/>
    <rect x="26.365919999999996" y="-44.84" width="290.02512" height="123.31" fill="#d4ccbd"/>
    <rect x="52.73183999999999" y="11.21" width="171.37848" height="2.636592" fill="#171717" opacity="0.28"/>
<rect x="52.73183999999999" y="27.688699999999997" width="140.61824" height="2.636592" fill="#171717" opacity="0.335"/>
<rect x="52.73183999999999" y="44.167399999999994" width="109.85799999999999" height="2.636592" fill="#171717" opacity="0.39"/>
<rect x="52.73183999999999" y="60.64609999999999" width="171.37848" height="2.636592" fill="#171717" opacity="0.44500000000000006"/>
<rect x="52.73183999999999" y="77.1248" width="140.61824" height="2.636592" fill="#171717" opacity="0.5"/>
    <path d="M-492.16384 235.41 H492.16384 L404.27743999999996 291.46000000000004 H-404.27743999999996Z" fill="#15181a"/>
  </g>
  <rect width="100%" height="100%" fill="#000" opacity="0.14"/>

</svg>
