<svg xmlns="http://www.w3.org/2000/svg" width="980" height="1250" viewBox="0 0 980 1250" role="img" aria-label="archive Proof Engine">
  <defs>
    <linearGradient id="steel" x1="0" y1="0" x2="1" y2="1">
      <stop offset="0" stop-color="#f7fbff"/>
      <stop offset="0.18" stop-color="#8d99a6"/>
      <stop offset="0.48" stop-color="#202832"/>
      <stop offset="0.72" stop-color="#cad7e6"/>
      <stop offset="1" stop-color="#111821"/>
    </linearGradient>
    <linearGradient id="ink" x1="0" y1="0" x2="1" y2="1">
      <stop offset="0" stop-color="#05070a"/>
      <stop offset="0.52" stop-color="#101824"/>
      <stop offset="1" stop-color="#030405"/>
    </linearGradient>
    <radialGradient id="pulse" cx="50%" cy="45%" r="70%">
      <stop offset="0" stop-color="#9bdcf5"/>
      <stop offset="0.26" stop-color="#1f6f91"/>
      <stop offset="0.68" stop-color="#071620"/>
      <stop offset="1" stop-color="#020304"/>
    </radialGradient>
    <filter id="glow" x="-40%" y="-40%" width="180%" height="180%">
      <feGaussianBlur stdDeviation="6" result="blur"/>
      <feColorMatrix in="blur" type="matrix" values="0 0 0 0 0.2 0 0 0 0 0.72 0 0 0 0 1 0 0 0 .8 0"/>
      <feMerge><feMergeNode/><feMergeNode in="SourceGraphic"/></feMerge>
    </filter>
    <pattern id="grid" width="44" height="44" patternUnits="userSpaceOnUse">
      <path d="M44 0H0v44" fill="none" stroke="#ffffff" stroke-opacity="0.08" stroke-width="1"/>
    </pattern>
  </defs>

  <defs>
    <filter id="photo-grain" x="-10%" y="-10%" width="120%" height="120%">
      <feTurbulence type="fractalNoise" baseFrequency="0.82" numOctaves="4" seed="21"/>
      <feColorMatrix type="saturate" values="0"/>
      <feComponentTransfer><feFuncA type="table" tableValues="0 0.34"/></feComponentTransfer>
    </filter>
    <filter id="photo-shadow" x="-40%" y="-40%" width="180%" height="180%">
      <feDropShadow dx="17.639999999999997" dy="25.48" stdDeviation="17.639999999999997" flood-color="#000" flood-opacity="0.55"/>
    </filter>
    <radialGradient id="photo-light" cx="28%" cy="18%" r="78%">
      <stop offset="0" stop-color="#d9d1c2" stop-opacity="0.46"/>
      <stop offset="0.42" stop-color="#d8d1c4" stop-opacity="0.16"/>
      <stop offset="1" stop-color="#050607" stop-opacity="1"/>
    </radialGradient>
  </defs>
  <rect width="100%" height="100%" fill="#101519"/>
  <rect width="100%" height="100%" fill="url(#photo-light)"/>
  <rect width="100%" height="100%" fill="#fff" filter="url(#photo-grain)" opacity="0.70"/>
  <rect width="100%" height="100%" fill="#000" opacity="0.06"/>
  <ellipse cx="145.0" cy="355.0" rx="98.0" ry="24.5" fill="#ece2d2" opacity="0.025" transform="rotate(-1 145.0 355.0)"/>
<ellipse cx="279.3" cy="458.8" rx="132.3" ry="38.2" fill="#ece2d2" opacity="0.035" transform="rotate(28 279.3 458.8)"/>
<ellipse cx="413.6" cy="562.5" rx="166.6" ry="51.9" fill="#ece2d2" opacity="0.045" transform="rotate(-33 413.6 562.5)"/>
<ellipse cx="547.8" cy="666.3" rx="200.9" ry="24.5" fill="#ece2d2" opacity="0.055" transform="rotate(-4 547.8 666.3)"/>
<ellipse cx="682.1" cy="770.0" rx="98.0" ry="38.2" fill="#ece2d2" opacity="0.065" transform="rotate(25 682.1 770.0)"/>
<ellipse cx="816.3" cy="873.8" rx="132.3" ry="51.9" fill="#ece2d2" opacity="0.025" transform="rotate(-36 816.3 873.8)"/>
<ellipse cx="950.6" cy="977.5" rx="166.6" ry="24.5" fill="#ece2d2" opacity="0.035" transform="rotate(-7 950.6 977.5)"/>
<ellipse cx="104.9" cy="1081.3" rx="200.9" ry="38.2" fill="#ece2d2" opacity="0.045" transform="rotate(22 104.9 1081.3)"/>
<ellipse cx="239.1" cy="1185.0" rx="98.0" ry="51.9" fill="#ece2d2" opacity="0.055" transform="rotate(-39 239.1 1185.0)"/>
<ellipse cx="373.4" cy="38.8" rx="132.3" ry="24.5" fill="#ece2d2" opacity="0.065" transform="rotate(-10 373.4 38.8)"/>
<ellipse cx="507.6" cy="142.5" rx="166.6" ry="38.2" fill="#ece2d2" opacity="0.025" transform="rotate(19 507.6 142.5)"/>
<ellipse cx="641.9" cy="246.3" rx="200.9" ry="51.9" fill="#ece2d2" opacity="0.035" transform="rotate(-42 641.9 246.3)"/>
  <circle cx="592.9" cy="676.3" r="4.12" fill="#d8ccb9" opacity="0.12"/>
<circle cx="652.7" cy="787.5" r="1.18" fill="#0a0b0b" opacity="0.15"/>
<circle cx="712.5" cy="898.8" r="1.91" fill="#827867" opacity="0.19"/>
<circle cx="772.2" cy="1010.0" r="2.65" fill="#827867" opacity="0.23"/>
<circle cx="832.0" cy="1121.3" r="3.38" fill="#d8ccb9" opacity="0.26"/>
<circle cx="891.8" cy="1232.5" r="4.12" fill="#0a0b0b" opacity="0.30"/>
<circle cx="951.6" cy="93.8" r="1.18" fill="#827867" opacity="0.12"/>
<circle cx="31.4" cy="205.0" r="1.91" fill="#827867" opacity="0.15"/>
<circle cx="91.1" cy="316.3" r="2.65" fill="#d8ccb9" opacity="0.19"/>
<circle cx="150.9" cy="427.5" r="3.38" fill="#0a0b0b" opacity="0.23"/>
<circle cx="210.7" cy="538.8" r="4.12" fill="#827867" opacity="0.26"/>
<circle cx="270.5" cy="650.0" r="1.18" fill="#827867" opacity="0.30"/>
<circle cx="330.3" cy="761.3" r="1.91" fill="#d8ccb9" opacity="0.12"/>
<circle cx="390.0" cy="872.5" r="2.65" fill="#0a0b0b" opacity="0.15"/>
<circle cx="449.8" cy="983.8" r="3.38" fill="#827867" opacity="0.19"/>
<circle cx="509.6" cy="1095.0" r="4.12" fill="#827867" opacity="0.23"/>
<circle cx="569.4" cy="1206.3" r="1.18" fill="#d8ccb9" opacity="0.26"/>
<circle cx="629.2" cy="67.5" r="1.91" fill="#0a0b0b" opacity="0.30"/>
<circle cx="688.9" cy="178.7" r="2.65" fill="#827867" opacity="0.12"/>
<circle cx="748.7" cy="290.0" r="3.38" fill="#827867" opacity="0.15"/>
<circle cx="808.5" cy="401.3" r="4.12" fill="#d8ccb9" opacity="0.19"/>
<circle cx="868.3" cy="512.5" r="1.18" fill="#0a0b0b" opacity="0.23"/>
<circle cx="928.1" cy="623.8" r="1.91" fill="#827867" opacity="0.26"/>
<circle cx="7.8" cy="735.0" r="2.65" fill="#827867" opacity="0.30"/>
<circle cx="67.6" cy="846.3" r="3.38" fill="#d8ccb9" opacity="0.12"/>
<circle cx="127.4" cy="957.5" r="4.12" fill="#0a0b0b" opacity="0.15"/>
<circle cx="187.2" cy="1068.8" r="1.18" fill="#827867" opacity="0.19"/>
<circle cx="247.0" cy="1180.0" r="1.91" fill="#827867" opacity="0.23"/>
<circle cx="306.7" cy="41.3" r="2.65" fill="#d8ccb9" opacity="0.26"/>
<circle cx="366.5" cy="152.5" r="3.38" fill="#0a0b0b" opacity="0.30"/>
<circle cx="426.3" cy="263.8" r="4.12" fill="#827867" opacity="0.12"/>
<circle cx="486.1" cy="375.0" r="1.18" fill="#827867" opacity="0.15"/>
<circle cx="545.9" cy="486.3" r="1.91" fill="#d8ccb9" opacity="0.19"/>
<circle cx="605.6" cy="597.5" r="2.65" fill="#0a0b0b" opacity="0.23"/>
<circle cx="665.4" cy="708.7" r="3.38" fill="#827867" opacity="0.26"/>
<circle cx="725.2" cy="820.0" r="4.12" fill="#827867" opacity="0.30"/>
<circle cx="785.0" cy="931.3" r="1.18" fill="#d8ccb9" opacity="0.12"/>
<circle cx="844.8" cy="1042.5" r="1.91" fill="#0a0b0b" opacity="0.15"/>
<circle cx="904.5" cy="1153.8" r="2.65" fill="#827867" opacity="0.19"/>
<circle cx="964.3" cy="15.0" r="3.38" fill="#827867" opacity="0.23"/>
<circle cx="44.1" cy="126.3" r="4.12" fill="#d8ccb9" opacity="0.26"/>
<circle cx="103.9" cy="237.5" r="1.18" fill="#0a0b0b" opacity="0.30"/>
<circle cx="163.7" cy="348.8" r="1.91" fill="#827867" opacity="0.12"/>
<circle cx="223.4" cy="460.0" r="2.65" fill="#827867" opacity="0.15"/>
<circle cx="283.2" cy="571.3" r="3.38" fill="#d8ccb9" opacity="0.19"/>
<circle cx="343.0" cy="682.5" r="4.12" fill="#0a0b0b" opacity="0.23"/>
<circle cx="402.8" cy="793.8" r="1.18" fill="#827867" opacity="0.26"/>
<circle cx="462.6" cy="905.0" r="1.91" fill="#827867" opacity="0.30"/>
<circle cx="522.3" cy="1016.2" r="2.65" fill="#d8ccb9" opacity="0.12"/>
<circle cx="582.1" cy="1127.5" r="3.38" fill="#0a0b0b" opacity="0.15"/>
<circle cx="641.9" cy="1238.8" r="4.12" fill="#827867" opacity="0.19"/>
<circle cx="701.7" cy="100.0" r="1.18" fill="#827867" opacity="0.23"/>
<circle cx="761.5" cy="211.3" r="1.91" fill="#d8ccb9" opacity="0.26"/>
<circle cx="821.2" cy="322.5" r="2.65" fill="#0a0b0b" opacity="0.30"/>
<circle cx="881.0" cy="433.7" r="3.38" fill="#827867" opacity="0.12"/>
<circle cx="940.8" cy="545.0" r="4.12" fill="#827867" opacity="0.15"/>
<circle cx="20.6" cy="656.3" r="1.18" fill="#d8ccb9" opacity="0.19"/>
<circle cx="80.4" cy="767.5" r="1.91" fill="#0a0b0b" opacity="0.23"/>
<circle cx="140.1" cy="878.8" r="2.65" fill="#827867" opacity="0.26"/>
<circle cx="199.9" cy="990.0" r="3.38" fill="#827867" opacity="0.30"/>
<circle cx="259.7" cy="1101.3" r="4.12" fill="#d8ccb9" opacity="0.12"/>
<circle cx="319.5" cy="1212.5" r="1.18" fill="#0a0b0b" opacity="0.15"/>
<circle cx="379.3" cy="73.8" r="1.91" fill="#827867" opacity="0.19"/>
<circle cx="439.0" cy="185.0" r="2.65" fill="#827867" opacity="0.23"/>
<circle cx="498.8" cy="296.3" r="3.38" fill="#d8ccb9" opacity="0.26"/>
<circle cx="558.6" cy="407.5" r="4.12" fill="#0a0b0b" opacity="0.30"/>
<circle cx="618.4" cy="518.8" r="1.18" fill="#827867" opacity="0.12"/>
<circle cx="678.2" cy="630.0" r="1.91" fill="#827867" opacity="0.15"/>
<circle cx="737.9" cy="741.3" r="2.65" fill="#d8ccb9" opacity="0.19"/>
<circle cx="797.7" cy="852.5" r="3.38" fill="#0a0b0b" opacity="0.23"/>
<circle cx="857.5" cy="963.8" r="4.12" fill="#827867" opacity="0.26"/>
<circle cx="917.3" cy="1075.0" r="1.18" fill="#827867" opacity="0.30"/>
<circle cx="977.1" cy="1186.3" r="1.91" fill="#d8ccb9" opacity="0.12"/>
<circle cx="56.8" cy="47.5" r="2.65" fill="#0a0b0b" opacity="0.15"/>
<circle cx="116.6" cy="158.8" r="3.38" fill="#827867" opacity="0.19"/>
<circle cx="176.4" cy="270.0" r="4.12" fill="#827867" opacity="0.23"/>
<circle cx="236.2" cy="381.3" r="1.18" fill="#d8ccb9" opacity="0.26"/>
<circle cx="296.0" cy="492.5" r="1.91" fill="#0a0b0b" opacity="0.30"/>
<circle cx="355.7" cy="603.8" r="2.65" fill="#827867" opacity="0.12"/>
<circle cx="415.5" cy="715.0" r="3.38" fill="#827867" opacity="0.15"/>
<circle cx="475.3" cy="826.3" r="4.12" fill="#d8ccb9" opacity="0.19"/>
<circle cx="535.1" cy="937.5" r="1.18" fill="#0a0b0b" opacity="0.23"/>
<circle cx="594.9" cy="1048.8" r="1.91" fill="#827867" opacity="0.26"/>
<circle cx="654.6" cy="1160.0" r="2.65" fill="#827867" opacity="0.30"/>
<circle cx="714.4" cy="21.3" r="3.38" fill="#d8ccb9" opacity="0.12"/>
<circle cx="774.2" cy="132.5" r="4.12" fill="#0a0b0b" opacity="0.15"/>
<circle cx="834.0" cy="243.8" r="1.18" fill="#827867" opacity="0.19"/>
<circle cx="893.8" cy="355.0" r="1.91" fill="#827867" opacity="0.23"/>
<circle cx="953.5" cy="466.3" r="2.65" fill="#d8ccb9" opacity="0.26"/>
<circle cx="33.3" cy="577.5" r="3.38" fill="#0a0b0b" opacity="0.30"/>
<circle cx="93.1" cy="688.8" r="4.12" fill="#827867" opacity="0.12"/>
<circle cx="152.9" cy="800.0" r="1.18" fill="#827867" opacity="0.15"/>
<circle cx="212.7" cy="911.3" r="1.91" fill="#d8ccb9" opacity="0.19"/>
<circle cx="272.4" cy="1022.5" r="2.65" fill="#0a0b0b" opacity="0.23"/>
<circle cx="332.2" cy="1133.8" r="3.38" fill="#827867" opacity="0.26"/>
<circle cx="392.0" cy="1245.0" r="4.12" fill="#827867" opacity="0.30"/>
<circle cx="451.8" cy="106.3" r="1.18" fill="#d8ccb9" opacity="0.12"/>
<circle cx="511.6" cy="217.5" r="1.91" fill="#0a0b0b" opacity="0.15"/>
<circle cx="571.3" cy="328.8" r="2.65" fill="#827867" opacity="0.19"/>
<circle cx="631.1" cy="440.0" r="3.38" fill="#827867" opacity="0.23"/>
<circle cx="690.9" cy="551.3" r="4.12" fill="#d8ccb9" opacity="0.26"/>
<circle cx="750.7" cy="662.5" r="1.18" fill="#0a0b0b" opacity="0.30"/>
<circle cx="810.5" cy="773.8" r="1.91" fill="#827867" opacity="0.12"/>
<circle cx="870.2" cy="885.0" r="2.65" fill="#827867" opacity="0.15"/>
<circle cx="930.0" cy="996.3" r="3.38" fill="#d8ccb9" opacity="0.19"/>
<circle cx="9.8" cy="1107.5" r="4.12" fill="#0a0b0b" opacity="0.23"/>
<circle cx="69.6" cy="1218.8" r="1.18" fill="#827867" opacity="0.26"/>
<circle cx="129.4" cy="80.0" r="1.91" fill="#827867" opacity="0.30"/>
<circle cx="189.1" cy="191.3" r="2.65" fill="#d8ccb9" opacity="0.12"/>
<circle cx="248.9" cy="302.5" r="3.38" fill="#0a0b0b" opacity="0.15"/>
<circle cx="308.7" cy="413.8" r="4.12" fill="#827867" opacity="0.19"/>
<circle cx="368.5" cy="525.0" r="1.18" fill="#827867" opacity="0.23"/>
<circle cx="428.3" cy="636.3" r="1.91" fill="#d8ccb9" opacity="0.26"/>
<circle cx="488.0" cy="747.5" r="2.65" fill="#0a0b0b" opacity="0.30"/>
<circle cx="547.8" cy="858.8" r="3.38" fill="#827867" opacity="0.12"/>
<circle cx="607.6" cy="970.0" r="4.12" fill="#827867" opacity="0.15"/>
<circle cx="667.4" cy="1081.3" r="1.18" fill="#d8ccb9" opacity="0.19"/>
<circle cx="727.2" cy="1192.5" r="1.91" fill="#0a0b0b" opacity="0.23"/>
<circle cx="786.9" cy="53.7" r="2.65" fill="#827867" opacity="0.26"/>
<circle cx="846.7" cy="165.0" r="3.38" fill="#827867" opacity="0.30"/>
<circle cx="906.5" cy="276.3" r="4.12" fill="#d8ccb9" opacity="0.12"/>
<circle cx="966.3" cy="387.5" r="1.18" fill="#0a0b0b" opacity="0.15"/>
<circle cx="46.1" cy="498.8" r="1.91" fill="#827867" opacity="0.19"/>
<circle cx="105.8" cy="610.0" r="2.65" fill="#827867" opacity="0.23"/>
<circle cx="165.6" cy="721.3" r="3.38" fill="#d8ccb9" opacity="0.26"/>
<circle cx="225.4" cy="832.5" r="4.12" fill="#0a0b0b" opacity="0.30"/>
<circle cx="285.2" cy="943.8" r="1.18" fill="#827867" opacity="0.12"/>
<circle cx="345.0" cy="1055.0" r="1.91" fill="#827867" opacity="0.15"/>
<circle cx="404.7" cy="1166.3" r="2.65" fill="#d8ccb9" opacity="0.19"/>
<circle cx="464.5" cy="27.5" r="3.38" fill="#0a0b0b" opacity="0.23"/>
<circle cx="524.3" cy="138.8" r="4.12" fill="#827867" opacity="0.26"/>
<circle cx="584.1" cy="250.0" r="1.18" fill="#827867" opacity="0.30"/>
<circle cx="643.9" cy="361.3" r="1.91" fill="#d8ccb9" opacity="0.12"/>
<circle cx="703.6" cy="472.5" r="2.65" fill="#0a0b0b" opacity="0.15"/>
<circle cx="763.4" cy="583.8" r="3.38" fill="#827867" opacity="0.19"/>
<circle cx="823.2" cy="695.0" r="4.12" fill="#827867" opacity="0.23"/>
<circle cx="883.0" cy="806.3" r="1.18" fill="#d8ccb9" opacity="0.26"/>
<circle cx="942.8" cy="917.5" r="1.91" fill="#0a0b0b" opacity="0.30"/>
<circle cx="22.5" cy="1028.8" r="2.65" fill="#827867" opacity="0.12"/>
<circle cx="82.3" cy="1140.0" r="3.38" fill="#827867" opacity="0.15"/>
<circle cx="142.1" cy="1.3" r="4.12" fill="#d8ccb9" opacity="0.19"/>
<circle cx="201.9" cy="112.5" r="1.18" fill="#0a0b0b" opacity="0.23"/>
<circle cx="261.7" cy="223.8" r="1.91" fill="#827867" opacity="0.26"/>
<circle cx="321.4" cy="335.0" r="2.65" fill="#827867" opacity="0.30"/>
<circle cx="381.2" cy="446.3" r="3.38" fill="#d8ccb9" opacity="0.12"/>
<circle cx="441.0" cy="557.5" r="4.12" fill="#0a0b0b" opacity="0.15"/>
<circle cx="500.8" cy="668.8" r="1.18" fill="#827867" opacity="0.19"/>
<circle cx="560.6" cy="780.0" r="1.91" fill="#827867" opacity="0.23"/>
<circle cx="620.3" cy="891.3" r="2.65" fill="#d8ccb9" opacity="0.26"/>
<circle cx="680.1" cy="1002.5" r="3.38" fill="#0a0b0b" opacity="0.30"/>
<circle cx="739.9" cy="1113.8" r="4.12" fill="#827867" opacity="0.12"/>
<circle cx="799.7" cy="1225.0" r="1.18" fill="#827867" opacity="0.15"/>
<circle cx="859.5" cy="86.3" r="1.91" fill="#d8ccb9" opacity="0.19"/>
<circle cx="919.2" cy="197.5" r="2.65" fill="#0a0b0b" opacity="0.23"/>
<circle cx="979.0" cy="308.8" r="3.38" fill="#827867" opacity="0.26"/>
<circle cx="58.8" cy="420.0" r="4.12" fill="#827867" opacity="0.30"/>
<circle cx="118.6" cy="531.3" r="1.18" fill="#d8ccb9" opacity="0.12"/>
<circle cx="178.4" cy="642.5" r="1.91" fill="#0a0b0b" opacity="0.15"/>
<circle cx="238.1" cy="753.8" r="2.65" fill="#827867" opacity="0.19"/>
<circle cx="297.9" cy="865.0" r="3.38" fill="#827867" opacity="0.23"/>
<circle cx="357.7" cy="976.3" r="4.12" fill="#d8ccb9" opacity="0.26"/>
<circle cx="417.5" cy="1087.5" r="1.18" fill="#0a0b0b" opacity="0.30"/>
<circle cx="477.3" cy="1198.8" r="1.91" fill="#827867" opacity="0.12"/>
<circle cx="537.0" cy="60.0" r="2.65" fill="#827867" opacity="0.15"/>
<circle cx="596.8" cy="171.3" r="3.38" fill="#d8ccb9" opacity="0.19"/>
<circle cx="656.6" cy="282.5" r="4.12" fill="#0a0b0b" opacity="0.23"/>
<circle cx="716.4" cy="393.8" r="1.18" fill="#827867" opacity="0.26"/>
<circle cx="776.2" cy="505.0" r="1.91" fill="#827867" opacity="0.30"/>
<circle cx="835.9" cy="616.3" r="2.65" fill="#d8ccb9" opacity="0.12"/>
<circle cx="895.7" cy="727.5" r="3.38" fill="#0a0b0b" opacity="0.15"/>
<circle cx="955.5" cy="838.8" r="4.12" fill="#827867" opacity="0.19"/>
<circle cx="35.3" cy="950.0" r="1.18" fill="#827867" opacity="0.23"/>
<circle cx="95.1" cy="1061.3" r="1.91" fill="#d8ccb9" opacity="0.26"/>
<circle cx="154.8" cy="1172.5" r="2.65" fill="#0a0b0b" opacity="0.30"/>
<circle cx="214.6" cy="33.8" r="3.38" fill="#827867" opacity="0.12"/>
<circle cx="274.4" cy="145.0" r="4.12" fill="#827867" opacity="0.15"/>
<circle cx="334.2" cy="256.3" r="1.18" fill="#d8ccb9" opacity="0.19"/>
<circle cx="394.0" cy="367.5" r="1.91" fill="#0a0b0b" opacity="0.23"/>
<circle cx="453.7" cy="478.8" r="2.65" fill="#827867" opacity="0.26"/>
<circle cx="513.5" cy="590.0" r="3.38" fill="#827867" opacity="0.30"/>
<circle cx="573.3" cy="701.3" r="4.12" fill="#d8ccb9" opacity="0.12"/>
<circle cx="633.1" cy="812.5" r="1.18" fill="#0a0b0b" opacity="0.15"/>
<circle cx="692.9" cy="923.8" r="1.91" fill="#827867" opacity="0.19"/>
<circle cx="752.6" cy="1035.0" r="2.65" fill="#827867" opacity="0.23"/>
<circle cx="812.4" cy="1146.3" r="3.38" fill="#d8ccb9" opacity="0.26"/>
<circle cx="872.2" cy="7.5" r="4.12" fill="#0a0b0b" opacity="0.30"/>
<circle cx="932.0" cy="118.8" r="1.18" fill="#827867" opacity="0.12"/>
<circle cx="11.8" cy="230.0" r="1.91" fill="#827867" opacity="0.15"/>
<circle cx="71.5" cy="341.3" r="2.65" fill="#d8ccb9" opacity="0.19"/>
<circle cx="131.3" cy="452.5" r="3.38" fill="#0a0b0b" opacity="0.23"/>
<circle cx="191.1" cy="563.8" r="4.12" fill="#827867" opacity="0.26"/>
<circle cx="250.9" cy="675.0" r="1.18" fill="#827867" opacity="0.30"/>
<circle cx="310.7" cy="786.3" r="1.91" fill="#d8ccb9" opacity="0.12"/>
<circle cx="370.4" cy="897.5" r="2.65" fill="#0a0b0b" opacity="0.15"/>
<circle cx="430.2" cy="1008.8" r="3.38" fill="#827867" opacity="0.19"/>
<circle cx="490.0" cy="1120.0" r="4.12" fill="#827867" opacity="0.23"/>
<circle cx="549.8" cy="1231.3" r="1.18" fill="#d8ccb9" opacity="0.26"/>
<circle cx="609.6" cy="92.5" r="1.91" fill="#0a0b0b" opacity="0.30"/>
<circle cx="669.3" cy="203.8" r="2.65" fill="#827867" opacity="0.12"/>
<circle cx="729.1" cy="315.0" r="3.38" fill="#827867" opacity="0.15"/>
<circle cx="788.9" cy="426.3" r="4.12" fill="#d8ccb9" opacity="0.19"/>
<circle cx="848.7" cy="537.5" r="1.18" fill="#0a0b0b" opacity="0.23"/>
<circle cx="908.5" cy="648.8" r="1.91" fill="#827867" opacity="0.26"/>
<circle cx="968.2" cy="760.0" r="2.65" fill="#827867" opacity="0.30"/>
<circle cx="48.0" cy="871.2" r="3.38" fill="#d8ccb9" opacity="0.12"/>
<circle cx="107.8" cy="982.5" r="4.12" fill="#0a0b0b" opacity="0.15"/>
<circle cx="167.6" cy="1093.8" r="1.18" fill="#827867" opacity="0.19"/>
<circle cx="227.4" cy="1205.0" r="1.91" fill="#827867" opacity="0.23"/>
<circle cx="287.1" cy="66.3" r="2.65" fill="#d8ccb9" opacity="0.26"/>
<circle cx="346.9" cy="177.5" r="3.38" fill="#0a0b0b" opacity="0.30"/>
<circle cx="406.7" cy="288.8" r="4.12" fill="#827867" opacity="0.12"/>
<circle cx="466.5" cy="400.0" r="1.18" fill="#827867" opacity="0.15"/>
<circle cx="526.3" cy="511.2" r="1.91" fill="#d8ccb9" opacity="0.19"/>
<circle cx="586.0" cy="622.5" r="2.65" fill="#0a0b0b" opacity="0.23"/>
<circle cx="645.8" cy="733.8" r="3.38" fill="#827867" opacity="0.26"/>
<circle cx="705.6" cy="845.0" r="4.12" fill="#827867" opacity="0.30"/>
<circle cx="765.4" cy="956.3" r="1.18" fill="#d8ccb9" opacity="0.12"/>
<circle cx="825.2" cy="1067.5" r="1.91" fill="#0a0b0b" opacity="0.15"/>
<circle cx="884.9" cy="1178.8" r="2.65" fill="#827867" opacity="0.19"/>
<circle cx="944.7" cy="40.0" r="3.38" fill="#827867" opacity="0.23"/>
  <g transform="translate(117.6 425.00000000000006) rotate(-34) scale(1.8846153846153846)" opacity="0.78">
    <path d="M0 -78 C42 -48 58 12 4 88 C-44 32 -48 -38 0 -78Z" fill="#151918"/>
    <path d="M0 -62 C10 -20 8 32 0 72" fill="none" stroke="#d4c6ad" stroke-opacity="0.18" stroke-width="2"/>
    <path d="M0 -8 C20 -18 34 -26 48 -42 M0 18 C-22 6 -34 -10 -48 -30 M0 38 C18 32 32 23 45 12" fill="none" stroke="#d4c6ad" stroke-opacity="0.12" stroke-width="1.4"/>
  </g>
  <g transform="translate(842.8 775) rotate(28) scale(1.75)" opacity="0.78">
    <path d="M0 -78 C42 -48 58 12 4 88 C-44 32 -48 -38 0 -78Z" fill="#2d2923"/>
    <path d="M0 -62 C10 -20 8 32 0 72" fill="none" stroke="#d4c6ad" stroke-opacity="0.18" stroke-width="2"/>
    <path d="M0 -8 C20 -18 34 -26 48 -42 M0 18 C-22 6 -34 -10 -48 -30 M0 38 C18 32 32 23 45 12" fill="none" stroke="#d4c6ad" stroke-opacity="0.12" stroke-width="1.4"/>
  </g>
  <g transform="translate(294 1050) rotate(-66) scale(1.4848484848484849)" opacity="0.78">
    <path d="M0 -78 C42 -48 58 12 4 88 C-44 32 -48 -38 0 -78Z" fill="#4b4035"/>
    <path d="M0 -62 C10 -20 8 32 0 72" fill="none" stroke="#d4c6ad" stroke-opacity="0.18" stroke-width="2"/>
    <path d="M0 -8 C20 -18 34 -26 48 -42 M0 18 C-22 6 -34 -10 -48 -30 M0 38 C18 32 32 23 45 12" fill="none" stroke="#d4c6ad" stroke-opacity="0.12" stroke-width="1.4"/>
  </g>
  <g transform="translate(568.4 200) rotate(96) scale(1.3611111111111112)" opacity="0.78">
    <path d="M0 -78 C42 -48 58 12 4 88 C-44 32 -48 -38 0 -78Z" fill="#d1c4aa"/>
    <path d="M0 -62 C10 -20 8 32 0 72" fill="none" stroke="#d4c6ad" stroke-opacity="0.18" stroke-width="2"/>
    <path d="M0 -8 C20 -18 34 -26 48 -42 M0 18 C-22 6 -34 -10 -48 -30 M0 38 C18 32 32 23 45 12" fill="none" stroke="#d4c6ad" stroke-opacity="0.12" stroke-width="1.4"/>
  </g>
  <g transform="translate(58.8 975) rotate(24) scale(1.4)" opacity="0.78">
    <path d="M0 -78 C42 -48 58 12 4 88 C-44 32 -48 -38 0 -78Z" fill="#0d1110"/>
    <path d="M0 -62 C10 -20 8 32 0 72" fill="none" stroke="#d4c6ad" stroke-opacity="0.18" stroke-width="2"/>
    <path d="M0 -8 C20 -18 34 -26 48 -42 M0 18 C-22 6 -34 -10 -48 -30 M0 38 C18 32 32 23 45 12" fill="none" stroke="#d4c6ad" stroke-opacity="0.12" stroke-width="1.4"/>
  </g>
  <g transform="rotate(-16 764.4 250)" opacity="0.88">
    <ellipse cx="764.4" cy="250" rx="176.4" ry="68.60000000000001" fill="none" stroke="#e8e3d8" stroke-opacity="0.46" stroke-width="5.88"/>
    <ellipse cx="764.4" cy="250" rx="112.896" ry="35.672000000000004" fill="#cfc8ba" fill-opacity="0.11" stroke="#2b2d2d" stroke-opacity="0.35" stroke-width="2.94"/>
    <ellipse cx="732.648" cy="237.652" rx="35.28" ry="6.860000000000001" fill="#fff" opacity="0.20"/>
  </g>
  <g transform="rotate(24 176.4 225)" opacity="0.88">
    <ellipse cx="176.4" cy="225" rx="127.4" ry="49" fill="none" stroke="#e8e3d8" stroke-opacity="0.46" stroke-width="5.88"/>
    <ellipse cx="176.4" cy="225" rx="81.536" ry="25.48" fill="#cfc8ba" fill-opacity="0.11" stroke="#2b2d2d" stroke-opacity="0.35" stroke-width="2.94"/>
    <ellipse cx="153.46800000000002" cy="216.18" rx="25.480000000000004" ry="4.9" fill="#fff" opacity="0.20"/>
  </g>
  <g transform="rotate(48 862.4 600)" opacity="0.88">
    <ellipse cx="862.4" cy="600" rx="117.6" ry="44.1" fill="none" stroke="#e8e3d8" stroke-opacity="0.46" stroke-width="5.88"/>
    <ellipse cx="862.4" cy="600" rx="75.264" ry="22.932000000000002" fill="#cfc8ba" fill-opacity="0.11" stroke="#2b2d2d" stroke-opacity="0.35" stroke-width="2.94"/>
    <ellipse cx="841.232" cy="592.062" rx="23.52" ry="4.41" fill="#fff" opacity="0.20"/>
  </g>

    <g transform="translate(705.6 400) rotate(9)" filter="url(#photo-shadow)">
    <rect x="-137.20000000000002" y="-117.6" width="274.40000000000003" height="235.2" fill="#f0ebe0" opacity="0.95"/>
    <text x="-104.27200000000002" y="-51.744" font-family="Georgia, serif" font-size="20.580000000000002" fill="#151515">PROOF ENGINE</text>
    <rect x="-104.27200000000002" y="-11.76" width="115.248" height="42.336" fill="#0d1113"/>
    <rect x="-104.27200000000002" y="47.04" width="119.85792000000004" height="2" fill="#171717" opacity="0.28"/>
<rect x="-104.27200000000002" y="58.564800000000005" width="98.34496000000003" height="2" fill="#171717" opacity="0.335"/>
<rect x="-104.27200000000002" y="70.0896" width="76.83200000000002" height="2" fill="#171717" opacity="0.39"/>
<rect x="-104.27200000000002" y="81.61440000000002" width="119.85792000000004" height="2" fill="#171717" opacity="0.44500000000000006"/>
<rect x="-104.27200000000002" y="93.13920000000002" width="98.34496000000003" height="2" fill="#171717" opacity="0.5"/>
  </g>
    <g transform="translate(254.8 350.00000000000006) rotate(-14)" filter="url(#photo-shadow)">
    <rect x="-107.8" y="-88.2" width="215.6" height="176.4" fill="#f0ebe0" opacity="0.95"/>
    <text x="-81.928" y="-38.808" font-family="Georgia, serif" font-size="16.169999999999998" fill="#151515">PROOF ENGINE</text>
    <rect x="-81.928" y="-8.82" width="90.55199999999999" height="31.752" fill="#0d1113"/>
    <rect x="-81.928" y="35.28" width="94.17408" height="2" fill="#171717" opacity="0.28"/>
<rect x="-81.928" y="44.3352" width="77.27104" height="2" fill="#171717" opacity="0.335"/>
<rect x="-81.928" y="53.3904" width="60.368" height="2" fill="#171717" opacity="0.39"/>
<rect x="-81.928" y="62.4456" width="94.17408" height="2" fill="#171717" opacity="0.44500000000000006"/>
<rect x="-81.928" y="71.5008" width="77.27104" height="2" fill="#171717" opacity="0.5"/>
  </g>
    <g transform="translate(784 875) rotate(-18)" filter="url(#photo-shadow)">
    <rect x="-78.4" y="-147" width="156.8" height="294" rx="28.224" fill="#c9c7c1" opacity="0.88"/>
    <rect x="-72.4" y="-140" width="144.8" height="280" rx="21.952000000000005" fill="#f5f2ea" opacity="0.32"/>
    <text x="0" y="-17.64" text-anchor="middle" font-family="Arial, Helvetica, sans-serif" font-size="14.112" letter-spacing="1.6" fill="#252525" opacity="0.78">CRM</text>
    <text x="0" y="47.04" text-anchor="middle" font-family="Arial, Helvetica, sans-serif" font-size="8.624" letter-spacing="1" fill="#555" opacity="0.62">OUTERSCOPE</text>
  </g>
    <g transform="translate(196 875) rotate(15)" filter="url(#photo-shadow)">
    <rect x="-68.60000000000001" y="-122.5" width="137.20000000000002" height="245" rx="24.696" fill="#c9c7c1" opacity="0.88"/>
    <rect x="-62.60000000000001" y="-115.5" width="125.20000000000002" height="231" rx="19.208000000000006" fill="#f5f2ea" opacity="0.32"/>
    <text x="0" y="-14.7" text-anchor="middle" font-family="Arial, Helvetica, sans-serif" font-size="12.348" letter-spacing="1.6" fill="#252525" opacity="0.78">OPS</text>
    <text x="0" y="39.2" text-anchor="middle" font-family="Arial, Helvetica, sans-serif" font-size="7.546000000000001" letter-spacing="1" fill="#555" opacity="0.62">OUTERSCOPE</text>
  </g>

  <g transform="translate(470.4 625) rotate(-4)" filter="url(#photo-shadow)">
    <rect x="-185.024" y="-381.612" width="370.048" height="763.224" rx="48.10624" fill="#080a0b"/>
    <rect x="-164.67136" y="-355.70864" width="329.34272" height="711.41728" rx="35.154560000000004" fill="#ece8dd"/>
    <rect x="-74.0096" y="-372.36080000000004" width="148.0192" height="12.951680000000001" rx="7.40096" fill="#171717"/>
    <text x="0" y="-221.33496" text-anchor="middle" font-family="Georgia, serif" font-size="38.855039999999995" letter-spacing="2" fill="#2a2a27">PROOF ENGINE</text>
    <text x="0" y="-160.27704" text-anchor="middle" font-family="Arial, Helvetica, sans-serif" font-size="20.35264" letter-spacing="4" fill="#7d7466">PROOF ENGINE</text>
    <rect x="-118.41536" y="-83.95464000000001" width="236.83072" height="190.806" fill="#0d1113" opacity="0.88"/>
    <text x="0" y="-3.81612" text-anchor="middle" font-family="Arial Black, Arial, sans-serif" font-size="33.30432" letter-spacing="1.6" fill="#f7f4ea">OS</text>
    <rect x="-107.31392" y="152.6448" width="173.182464" height="2.6643456" fill="#171717" opacity="0.28"/>
<rect x="-107.31392" y="169.29696" width="142.098432" height="2.6643456" fill="#171717" opacity="0.335"/>
<rect x="-107.31392" y="185.94912" width="111.0144" height="2.6643456" fill="#171717" opacity="0.39"/>
<rect x="-107.31392" y="202.60128" width="173.182464" height="2.6643456" fill="#171717" opacity="0.44500000000000006"/>
<rect x="-107.31392" y="219.25344" width="142.098432" height="2.6643456" fill="#171717" opacity="0.5"/>
    <rect x="-107.31392" y="267.1284" width="214.62784" height="57.241800000000005" fill="#d8d0c2" opacity="0.65"/>
  </g>
  <rect width="100%" height="100%" fill="#000" opacity="0.14"/>

</svg>
