<svg xmlns="http://www.w3.org/2000/svg" width="320" height="400" viewBox="0 0 320 400" role="img" aria-label="ring Audit">
  <defs>
    <linearGradient id="steel" x1="0" y1="0" x2="1" y2="1">
      <stop offset="0" stop-color="#f7fbff"/>
      <stop offset="0.18" stop-color="#8d99a6"/>
      <stop offset="0.48" stop-color="#202832"/>
      <stop offset="0.72" stop-color="#cad7e6"/>
      <stop offset="1" stop-color="#111821"/>
    </linearGradient>
    <linearGradient id="ink" x1="0" y1="0" x2="1" y2="1">
      <stop offset="0" stop-color="#05070a"/>
      <stop offset="0.52" stop-color="#101824"/>
      <stop offset="1" stop-color="#030405"/>
    </linearGradient>
    <radialGradient id="pulse" cx="50%" cy="45%" r="70%">
      <stop offset="0" stop-color="#9bdcf5"/>
      <stop offset="0.26" stop-color="#1f6f91"/>
      <stop offset="0.68" stop-color="#071620"/>
      <stop offset="1" stop-color="#020304"/>
    </radialGradient>
    <filter id="glow" x="-40%" y="-40%" width="180%" height="180%">
      <feGaussianBlur stdDeviation="6" result="blur"/>
      <feColorMatrix in="blur" type="matrix" values="0 0 0 0 0.2 0 0 0 0 0.72 0 0 0 0 1 0 0 0 .8 0"/>
      <feMerge><feMergeNode/><feMergeNode in="SourceGraphic"/></feMerge>
    </filter>
    <pattern id="grid" width="44" height="44" patternUnits="userSpaceOnUse">
      <path d="M44 0H0v44" fill="none" stroke="#ffffff" stroke-opacity="0.08" stroke-width="1"/>
    </pattern>
  </defs>

  <defs>
    <filter id="photo-grain" x="-10%" y="-10%" width="120%" height="120%">
      <feTurbulence type="fractalNoise" baseFrequency="0.82" numOctaves="4" seed="20"/>
      <feColorMatrix type="saturate" values="0"/>
      <feComponentTransfer><feFuncA type="table" tableValues="0 0.34"/></feComponentTransfer>
    </filter>
    <filter id="photo-shadow" x="-40%" y="-40%" width="180%" height="180%">
      <feDropShadow dx="5.76" dy="8.32" stdDeviation="5.76" flood-color="#000" flood-opacity="0.55"/>
    </filter>
    <radialGradient id="photo-light" cx="70%" cy="18%" r="78%">
      <stop offset="0" stop-color="#d9d1c2" stop-opacity="0.46"/>
      <stop offset="0.42" stop-color="#706457" stop-opacity="0.16"/>
      <stop offset="1" stop-color="#050607" stop-opacity="1"/>
    </radialGradient>
  </defs>
  <rect width="100%" height="100%" fill="#263037"/>
  <rect width="100%" height="100%" fill="url(#photo-light)"/>
  <rect width="100%" height="100%" fill="#fff" filter="url(#photo-grain)" opacity="0.70"/>
  <rect width="100%" height="100%" fill="#000" opacity="0.06"/>
  <ellipse cx="35.5" cy="85.2" rx="32.0" ry="8.0" fill="#ece2d2" opacity="0.025" transform="rotate(-12 35.5 85.2)"/>
<ellipse cx="79.4" cy="118.4" rx="43.2" ry="12.5" fill="#ece2d2" opacity="0.035" transform="rotate(17 79.4 118.4)"/>
<ellipse cx="123.2" cy="151.6" rx="54.4" ry="17.0" fill="#ece2d2" opacity="0.045" transform="rotate(-44 123.2 151.6)"/>
<ellipse cx="167.0" cy="184.8" rx="65.6" ry="8.0" fill="#ece2d2" opacity="0.055" transform="rotate(-15 167.0 184.8)"/>
  <circle cx="132.8" cy="138.8" r="1.10" fill="#d8ccb9" opacity="0.12"/>
<circle cx="152.3" cy="174.4" r="1.34" fill="#0a0b0b" opacity="0.15"/>
<circle cx="171.8" cy="210.0" r="0.38" fill="#827867" opacity="0.19"/>
<circle cx="191.4" cy="245.6" r="0.62" fill="#827867" opacity="0.23"/>
<circle cx="210.9" cy="281.2" r="0.86" fill="#d8ccb9" opacity="0.26"/>
<circle cx="230.4" cy="316.8" r="1.10" fill="#0a0b0b" opacity="0.30"/>
<circle cx="249.9" cy="352.4" r="1.34" fill="#827867" opacity="0.12"/>
<circle cx="269.4" cy="388.0" r="0.38" fill="#827867" opacity="0.15"/>
<circle cx="289.0" cy="23.6" r="0.62" fill="#d8ccb9" opacity="0.19"/>
<circle cx="308.5" cy="59.2" r="0.86" fill="#0a0b0b" opacity="0.23"/>
<circle cx="8.0" cy="94.8" r="1.10" fill="#827867" opacity="0.26"/>
<circle cx="27.5" cy="130.4" r="1.34" fill="#827867" opacity="0.30"/>
<circle cx="47.0" cy="166.0" r="0.38" fill="#d8ccb9" opacity="0.12"/>
<circle cx="66.6" cy="201.6" r="0.62" fill="#0a0b0b" opacity="0.15"/>
<circle cx="86.1" cy="237.2" r="0.86" fill="#827867" opacity="0.19"/>
<circle cx="105.6" cy="272.8" r="1.10" fill="#827867" opacity="0.23"/>
<circle cx="125.1" cy="308.4" r="1.34" fill="#d8ccb9" opacity="0.26"/>
<circle cx="144.6" cy="344.0" r="0.38" fill="#0a0b0b" opacity="0.30"/>
<circle cx="164.2" cy="379.6" r="0.62" fill="#827867" opacity="0.12"/>
<circle cx="183.7" cy="15.2" r="0.86" fill="#827867" opacity="0.15"/>
<circle cx="203.2" cy="50.8" r="1.10" fill="#d8ccb9" opacity="0.19"/>
<circle cx="222.7" cy="86.4" r="1.34" fill="#0a0b0b" opacity="0.23"/>
<circle cx="242.2" cy="122.0" r="0.38" fill="#827867" opacity="0.26"/>
<circle cx="261.8" cy="157.6" r="0.62" fill="#827867" opacity="0.30"/>
<circle cx="281.3" cy="193.2" r="0.86" fill="#d8ccb9" opacity="0.12"/>
<circle cx="300.8" cy="228.8" r="1.10" fill="#0a0b0b" opacity="0.15"/>
<circle cx="0.3" cy="264.4" r="1.34" fill="#827867" opacity="0.19"/>
<circle cx="19.8" cy="300.0" r="0.38" fill="#827867" opacity="0.23"/>
<circle cx="39.4" cy="335.6" r="0.62" fill="#d8ccb9" opacity="0.26"/>
<circle cx="58.9" cy="371.2" r="0.86" fill="#0a0b0b" opacity="0.30"/>
<circle cx="78.4" cy="6.8" r="1.10" fill="#827867" opacity="0.12"/>
<circle cx="97.9" cy="42.4" r="1.34" fill="#827867" opacity="0.15"/>
<circle cx="117.4" cy="78.0" r="0.38" fill="#d8ccb9" opacity="0.19"/>
<circle cx="137.0" cy="113.6" r="0.62" fill="#0a0b0b" opacity="0.23"/>
<circle cx="156.5" cy="149.2" r="0.86" fill="#827867" opacity="0.26"/>
<circle cx="176.0" cy="184.8" r="1.10" fill="#827867" opacity="0.30"/>
<circle cx="195.5" cy="220.4" r="1.34" fill="#d8ccb9" opacity="0.12"/>
<circle cx="215.0" cy="256.0" r="0.38" fill="#0a0b0b" opacity="0.15"/>
<circle cx="234.6" cy="291.6" r="0.62" fill="#827867" opacity="0.19"/>
<circle cx="254.1" cy="327.2" r="0.86" fill="#827867" opacity="0.23"/>
<circle cx="273.6" cy="362.8" r="1.10" fill="#d8ccb9" opacity="0.26"/>
<circle cx="293.1" cy="398.4" r="1.34" fill="#0a0b0b" opacity="0.30"/>
  <g transform="translate(38.4 136) rotate(-34) scale(0.6153846153846154)" opacity="0.78">
    <path d="M0 -78 C42 -48 58 12 4 88 C-44 32 -48 -38 0 -78Z" fill="#151918"/>
    <path d="M0 -62 C10 -20 8 32 0 72" fill="none" stroke="#d4c6ad" stroke-opacity="0.18" stroke-width="2"/>
    <path d="M0 -8 C20 -18 34 -26 48 -42 M0 18 C-22 6 -34 -10 -48 -30 M0 38 C18 32 32 23 45 12" fill="none" stroke="#d4c6ad" stroke-opacity="0.12" stroke-width="1.4"/>
  </g>
  <g transform="translate(275.2 248) rotate(28) scale(0.5714285714285714)" opacity="0.78">
    <path d="M0 -78 C42 -48 58 12 4 88 C-44 32 -48 -38 0 -78Z" fill="#2d2923"/>
    <path d="M0 -62 C10 -20 8 32 0 72" fill="none" stroke="#d4c6ad" stroke-opacity="0.18" stroke-width="2"/>
    <path d="M0 -8 C20 -18 34 -26 48 -42 M0 18 C-22 6 -34 -10 -48 -30 M0 38 C18 32 32 23 45 12" fill="none" stroke="#d4c6ad" stroke-opacity="0.12" stroke-width="1.4"/>
  </g>
  <g transform="translate(96 336) rotate(-66) scale(0.48484848484848486)" opacity="0.78">
    <path d="M0 -78 C42 -48 58 12 4 88 C-44 32 -48 -38 0 -78Z" fill="#4b4035"/>
    <path d="M0 -62 C10 -20 8 32 0 72" fill="none" stroke="#d4c6ad" stroke-opacity="0.18" stroke-width="2"/>
    <path d="M0 -8 C20 -18 34 -26 48 -42 M0 18 C-22 6 -34 -10 -48 -30 M0 38 C18 32 32 23 45 12" fill="none" stroke="#d4c6ad" stroke-opacity="0.12" stroke-width="1.4"/>
  </g>
  <g transform="translate(185.6 64) rotate(96) scale(0.4444444444444444)" opacity="0.78">
    <path d="M0 -78 C42 -48 58 12 4 88 C-44 32 -48 -38 0 -78Z" fill="#d1c4aa"/>
    <path d="M0 -62 C10 -20 8 32 0 72" fill="none" stroke="#d4c6ad" stroke-opacity="0.18" stroke-width="2"/>
    <path d="M0 -8 C20 -18 34 -26 48 -42 M0 18 C-22 6 -34 -10 -48 -30 M0 38 C18 32 32 23 45 12" fill="none" stroke="#d4c6ad" stroke-opacity="0.12" stroke-width="1.4"/>
  </g>
  <g transform="translate(19.2 312) rotate(24) scale(0.45714285714285713)" opacity="0.78">
    <path d="M0 -78 C42 -48 58 12 4 88 C-44 32 -48 -38 0 -78Z" fill="#0d1110"/>
    <path d="M0 -62 C10 -20 8 32 0 72" fill="none" stroke="#d4c6ad" stroke-opacity="0.18" stroke-width="2"/>
    <path d="M0 -8 C20 -18 34 -26 48 -42 M0 18 C-22 6 -34 -10 -48 -30 M0 38 C18 32 32 23 45 12" fill="none" stroke="#d4c6ad" stroke-opacity="0.12" stroke-width="1.4"/>
  </g>
  <g transform="rotate(-16 249.60000000000002 80)" opacity="0.88">
    <ellipse cx="249.60000000000002" cy="80" rx="57.599999999999994" ry="22.400000000000002" fill="none" stroke="#e8e3d8" stroke-opacity="0.46" stroke-width="2"/>
    <ellipse cx="249.60000000000002" cy="80" rx="36.864" ry="11.648000000000001" fill="#cfc8ba" fill-opacity="0.11" stroke="#2b2d2d" stroke-opacity="0.35" stroke-width="1"/>
    <ellipse cx="239.23200000000003" cy="75.968" rx="11.52" ry="2.24" fill="#fff" opacity="0.20"/>
  </g>
  <g transform="rotate(24 57.599999999999994 72)" opacity="0.88">
    <ellipse cx="57.599999999999994" cy="72" rx="41.6" ry="16" fill="none" stroke="#e8e3d8" stroke-opacity="0.46" stroke-width="2"/>
    <ellipse cx="57.599999999999994" cy="72" rx="26.624000000000002" ry="8.32" fill="#cfc8ba" fill-opacity="0.11" stroke="#2b2d2d" stroke-opacity="0.35" stroke-width="1"/>
    <ellipse cx="50.111999999999995" cy="69.12" rx="8.32" ry="1.6" fill="#fff" opacity="0.20"/>
  </g>
  <g transform="rotate(48 281.6 192)" opacity="0.88">
    <ellipse cx="281.6" cy="192" rx="38.4" ry="14.399999999999999" fill="none" stroke="#e8e3d8" stroke-opacity="0.46" stroke-width="2"/>
    <ellipse cx="281.6" cy="192" rx="24.576" ry="7.4879999999999995" fill="#cfc8ba" fill-opacity="0.11" stroke="#2b2d2d" stroke-opacity="0.35" stroke-width="1"/>
    <ellipse cx="274.68800000000005" cy="189.408" rx="7.68" ry="1.44" fill="#fff" opacity="0.20"/>
  </g>

  <g transform="translate(166.4 192) rotate(-3)" filter="url(#photo-shadow)">
    <rect x="-99.71199999999999" y="-62.31999999999999" width="199.42399999999998" height="124.63999999999999" rx="4.9856" fill="#080a0b"/>
    <rect x="-91.73504" y="-51.10239999999999" width="183.47008" height="89.7408" fill="#e8e3d8"/>
    <text x="-71.79263999999999" y="-31.159999999999997" font-family="Arial Black, Arial, sans-serif" font-size="11.566592" letter-spacing="1.4" fill="#16191b">AUDIT</text>
    <text x="-71.79263999999999" y="-22.4352" font-family="Arial, Helvetica, sans-serif" font-size="4.9856" letter-spacing="3" fill="#716759">CRM LAYER</text>
    <rect x="-71.79263999999999" y="-9.9712" width="65.80991999999999" height="27.420799999999996" fill="#11171a"/>
    <rect x="5.982719999999999" y="-9.9712" width="65.80991999999999" height="27.420799999999996" fill="#d4ccbd"/>
    <rect x="11.965439999999997" y="2.4928" width="38.887679999999996" height="2" fill="#171717" opacity="0.28"/>
<rect x="11.965439999999997" y="6.231999999999999" width="31.907839999999997" height="2" fill="#171717" opacity="0.335"/>
<rect x="11.965439999999997" y="9.9712" width="24.927999999999997" height="2" fill="#171717" opacity="0.39"/>
<rect x="11.965439999999997" y="13.710399999999996" width="38.887679999999996" height="2" fill="#171717" opacity="0.44500000000000006"/>
<rect x="11.965439999999997" y="17.449599999999997" width="31.907839999999997" height="2" fill="#171717" opacity="0.5"/>
    <path d="M-111.67744 52.34879999999999 H111.67744 L91.73504 64.8128 H-91.73504Z" fill="#15181a"/>
  </g>
  <rect width="100%" height="100%" fill="#000" opacity="0.14"/>

</svg>
